G04 #@! TF.GenerationSoftware,KiCad,Pcbnew,5.0.2-bee76a0~70~ubuntu18.04.1*
G04 #@! TF.CreationDate,2019-04-23T19:40:41+10:00*
G04 #@! TF.ProjectId,minimoog,6d696e69-6d6f-46f6-972e-6b696361645f,rev?*
G04 #@! TF.SameCoordinates,Original*
G04 #@! TF.FileFunction,Paste,Bot*
G04 #@! TF.FilePolarity,Positive*
%FSLAX46Y46*%
G04 Gerber Fmt 4.6, Leading zero omitted, Abs format (unit mm)*
G04 Created by KiCad (PCBNEW 5.0.2-bee76a0~70~ubuntu18.04.1) date Tue 23 Apr 2019 19:40:41 AEST*
%MOMM*%
%LPD*%
G01*
G04 APERTURE LIST*
%ADD10C,0.100000*%
%ADD11C,0.950000*%
G04 APERTURE END LIST*
D10*
G04 #@! TO.C,R28*
G36*
X146310779Y-87078144D02*
X146333834Y-87081563D01*
X146356443Y-87087227D01*
X146378387Y-87095079D01*
X146399457Y-87105044D01*
X146419448Y-87117026D01*
X146438168Y-87130910D01*
X146455438Y-87146562D01*
X146471090Y-87163832D01*
X146484974Y-87182552D01*
X146496956Y-87202543D01*
X146506921Y-87223613D01*
X146514773Y-87245557D01*
X146520437Y-87268166D01*
X146523856Y-87291221D01*
X146525000Y-87314500D01*
X146525000Y-87889500D01*
X146523856Y-87912779D01*
X146520437Y-87935834D01*
X146514773Y-87958443D01*
X146506921Y-87980387D01*
X146496956Y-88001457D01*
X146484974Y-88021448D01*
X146471090Y-88040168D01*
X146455438Y-88057438D01*
X146438168Y-88073090D01*
X146419448Y-88086974D01*
X146399457Y-88098956D01*
X146378387Y-88108921D01*
X146356443Y-88116773D01*
X146333834Y-88122437D01*
X146310779Y-88125856D01*
X146287500Y-88127000D01*
X145812500Y-88127000D01*
X145789221Y-88125856D01*
X145766166Y-88122437D01*
X145743557Y-88116773D01*
X145721613Y-88108921D01*
X145700543Y-88098956D01*
X145680552Y-88086974D01*
X145661832Y-88073090D01*
X145644562Y-88057438D01*
X145628910Y-88040168D01*
X145615026Y-88021448D01*
X145603044Y-88001457D01*
X145593079Y-87980387D01*
X145585227Y-87958443D01*
X145579563Y-87935834D01*
X145576144Y-87912779D01*
X145575000Y-87889500D01*
X145575000Y-87314500D01*
X145576144Y-87291221D01*
X145579563Y-87268166D01*
X145585227Y-87245557D01*
X145593079Y-87223613D01*
X145603044Y-87202543D01*
X145615026Y-87182552D01*
X145628910Y-87163832D01*
X145644562Y-87146562D01*
X145661832Y-87130910D01*
X145680552Y-87117026D01*
X145700543Y-87105044D01*
X145721613Y-87095079D01*
X145743557Y-87087227D01*
X145766166Y-87081563D01*
X145789221Y-87078144D01*
X145812500Y-87077000D01*
X146287500Y-87077000D01*
X146310779Y-87078144D01*
X146310779Y-87078144D01*
G37*
D11*
X146050000Y-87602000D03*
D10*
G36*
X146310779Y-85328144D02*
X146333834Y-85331563D01*
X146356443Y-85337227D01*
X146378387Y-85345079D01*
X146399457Y-85355044D01*
X146419448Y-85367026D01*
X146438168Y-85380910D01*
X146455438Y-85396562D01*
X146471090Y-85413832D01*
X146484974Y-85432552D01*
X146496956Y-85452543D01*
X146506921Y-85473613D01*
X146514773Y-85495557D01*
X146520437Y-85518166D01*
X146523856Y-85541221D01*
X146525000Y-85564500D01*
X146525000Y-86139500D01*
X146523856Y-86162779D01*
X146520437Y-86185834D01*
X146514773Y-86208443D01*
X146506921Y-86230387D01*
X146496956Y-86251457D01*
X146484974Y-86271448D01*
X146471090Y-86290168D01*
X146455438Y-86307438D01*
X146438168Y-86323090D01*
X146419448Y-86336974D01*
X146399457Y-86348956D01*
X146378387Y-86358921D01*
X146356443Y-86366773D01*
X146333834Y-86372437D01*
X146310779Y-86375856D01*
X146287500Y-86377000D01*
X145812500Y-86377000D01*
X145789221Y-86375856D01*
X145766166Y-86372437D01*
X145743557Y-86366773D01*
X145721613Y-86358921D01*
X145700543Y-86348956D01*
X145680552Y-86336974D01*
X145661832Y-86323090D01*
X145644562Y-86307438D01*
X145628910Y-86290168D01*
X145615026Y-86271448D01*
X145603044Y-86251457D01*
X145593079Y-86230387D01*
X145585227Y-86208443D01*
X145579563Y-86185834D01*
X145576144Y-86162779D01*
X145575000Y-86139500D01*
X145575000Y-85564500D01*
X145576144Y-85541221D01*
X145579563Y-85518166D01*
X145585227Y-85495557D01*
X145593079Y-85473613D01*
X145603044Y-85452543D01*
X145615026Y-85432552D01*
X145628910Y-85413832D01*
X145644562Y-85396562D01*
X145661832Y-85380910D01*
X145680552Y-85367026D01*
X145700543Y-85355044D01*
X145721613Y-85345079D01*
X145743557Y-85337227D01*
X145766166Y-85331563D01*
X145789221Y-85328144D01*
X145812500Y-85327000D01*
X146287500Y-85327000D01*
X146310779Y-85328144D01*
X146310779Y-85328144D01*
G37*
D11*
X146050000Y-85852000D03*
G04 #@! TD*
D10*
G04 #@! TO.C,C2*
G36*
X142268779Y-86394144D02*
X142291834Y-86397563D01*
X142314443Y-86403227D01*
X142336387Y-86411079D01*
X142357457Y-86421044D01*
X142377448Y-86433026D01*
X142396168Y-86446910D01*
X142413438Y-86462562D01*
X142429090Y-86479832D01*
X142442974Y-86498552D01*
X142454956Y-86518543D01*
X142464921Y-86539613D01*
X142472773Y-86561557D01*
X142478437Y-86584166D01*
X142481856Y-86607221D01*
X142483000Y-86630500D01*
X142483000Y-87105500D01*
X142481856Y-87128779D01*
X142478437Y-87151834D01*
X142472773Y-87174443D01*
X142464921Y-87196387D01*
X142454956Y-87217457D01*
X142442974Y-87237448D01*
X142429090Y-87256168D01*
X142413438Y-87273438D01*
X142396168Y-87289090D01*
X142377448Y-87302974D01*
X142357457Y-87314956D01*
X142336387Y-87324921D01*
X142314443Y-87332773D01*
X142291834Y-87338437D01*
X142268779Y-87341856D01*
X142245500Y-87343000D01*
X141670500Y-87343000D01*
X141647221Y-87341856D01*
X141624166Y-87338437D01*
X141601557Y-87332773D01*
X141579613Y-87324921D01*
X141558543Y-87314956D01*
X141538552Y-87302974D01*
X141519832Y-87289090D01*
X141502562Y-87273438D01*
X141486910Y-87256168D01*
X141473026Y-87237448D01*
X141461044Y-87217457D01*
X141451079Y-87196387D01*
X141443227Y-87174443D01*
X141437563Y-87151834D01*
X141434144Y-87128779D01*
X141433000Y-87105500D01*
X141433000Y-86630500D01*
X141434144Y-86607221D01*
X141437563Y-86584166D01*
X141443227Y-86561557D01*
X141451079Y-86539613D01*
X141461044Y-86518543D01*
X141473026Y-86498552D01*
X141486910Y-86479832D01*
X141502562Y-86462562D01*
X141519832Y-86446910D01*
X141538552Y-86433026D01*
X141558543Y-86421044D01*
X141579613Y-86411079D01*
X141601557Y-86403227D01*
X141624166Y-86397563D01*
X141647221Y-86394144D01*
X141670500Y-86393000D01*
X142245500Y-86393000D01*
X142268779Y-86394144D01*
X142268779Y-86394144D01*
G37*
D11*
X141958000Y-86868000D03*
D10*
G36*
X140518779Y-86394144D02*
X140541834Y-86397563D01*
X140564443Y-86403227D01*
X140586387Y-86411079D01*
X140607457Y-86421044D01*
X140627448Y-86433026D01*
X140646168Y-86446910D01*
X140663438Y-86462562D01*
X140679090Y-86479832D01*
X140692974Y-86498552D01*
X140704956Y-86518543D01*
X140714921Y-86539613D01*
X140722773Y-86561557D01*
X140728437Y-86584166D01*
X140731856Y-86607221D01*
X140733000Y-86630500D01*
X140733000Y-87105500D01*
X140731856Y-87128779D01*
X140728437Y-87151834D01*
X140722773Y-87174443D01*
X140714921Y-87196387D01*
X140704956Y-87217457D01*
X140692974Y-87237448D01*
X140679090Y-87256168D01*
X140663438Y-87273438D01*
X140646168Y-87289090D01*
X140627448Y-87302974D01*
X140607457Y-87314956D01*
X140586387Y-87324921D01*
X140564443Y-87332773D01*
X140541834Y-87338437D01*
X140518779Y-87341856D01*
X140495500Y-87343000D01*
X139920500Y-87343000D01*
X139897221Y-87341856D01*
X139874166Y-87338437D01*
X139851557Y-87332773D01*
X139829613Y-87324921D01*
X139808543Y-87314956D01*
X139788552Y-87302974D01*
X139769832Y-87289090D01*
X139752562Y-87273438D01*
X139736910Y-87256168D01*
X139723026Y-87237448D01*
X139711044Y-87217457D01*
X139701079Y-87196387D01*
X139693227Y-87174443D01*
X139687563Y-87151834D01*
X139684144Y-87128779D01*
X139683000Y-87105500D01*
X139683000Y-86630500D01*
X139684144Y-86607221D01*
X139687563Y-86584166D01*
X139693227Y-86561557D01*
X139701079Y-86539613D01*
X139711044Y-86518543D01*
X139723026Y-86498552D01*
X139736910Y-86479832D01*
X139752562Y-86462562D01*
X139769832Y-86446910D01*
X139788552Y-86433026D01*
X139808543Y-86421044D01*
X139829613Y-86411079D01*
X139851557Y-86403227D01*
X139874166Y-86397563D01*
X139897221Y-86394144D01*
X139920500Y-86393000D01*
X140495500Y-86393000D01*
X140518779Y-86394144D01*
X140518779Y-86394144D01*
G37*
D11*
X140208000Y-86868000D03*
G04 #@! TD*
D10*
G04 #@! TO.C,C9*
G36*
X142754779Y-119632144D02*
X142777834Y-119635563D01*
X142800443Y-119641227D01*
X142822387Y-119649079D01*
X142843457Y-119659044D01*
X142863448Y-119671026D01*
X142882168Y-119684910D01*
X142899438Y-119700562D01*
X142915090Y-119717832D01*
X142928974Y-119736552D01*
X142940956Y-119756543D01*
X142950921Y-119777613D01*
X142958773Y-119799557D01*
X142964437Y-119822166D01*
X142967856Y-119845221D01*
X142969000Y-119868500D01*
X142969000Y-120443500D01*
X142967856Y-120466779D01*
X142964437Y-120489834D01*
X142958773Y-120512443D01*
X142950921Y-120534387D01*
X142940956Y-120555457D01*
X142928974Y-120575448D01*
X142915090Y-120594168D01*
X142899438Y-120611438D01*
X142882168Y-120627090D01*
X142863448Y-120640974D01*
X142843457Y-120652956D01*
X142822387Y-120662921D01*
X142800443Y-120670773D01*
X142777834Y-120676437D01*
X142754779Y-120679856D01*
X142731500Y-120681000D01*
X142256500Y-120681000D01*
X142233221Y-120679856D01*
X142210166Y-120676437D01*
X142187557Y-120670773D01*
X142165613Y-120662921D01*
X142144543Y-120652956D01*
X142124552Y-120640974D01*
X142105832Y-120627090D01*
X142088562Y-120611438D01*
X142072910Y-120594168D01*
X142059026Y-120575448D01*
X142047044Y-120555457D01*
X142037079Y-120534387D01*
X142029227Y-120512443D01*
X142023563Y-120489834D01*
X142020144Y-120466779D01*
X142019000Y-120443500D01*
X142019000Y-119868500D01*
X142020144Y-119845221D01*
X142023563Y-119822166D01*
X142029227Y-119799557D01*
X142037079Y-119777613D01*
X142047044Y-119756543D01*
X142059026Y-119736552D01*
X142072910Y-119717832D01*
X142088562Y-119700562D01*
X142105832Y-119684910D01*
X142124552Y-119671026D01*
X142144543Y-119659044D01*
X142165613Y-119649079D01*
X142187557Y-119641227D01*
X142210166Y-119635563D01*
X142233221Y-119632144D01*
X142256500Y-119631000D01*
X142731500Y-119631000D01*
X142754779Y-119632144D01*
X142754779Y-119632144D01*
G37*
D11*
X142494000Y-120156000D03*
D10*
G36*
X142754779Y-121382144D02*
X142777834Y-121385563D01*
X142800443Y-121391227D01*
X142822387Y-121399079D01*
X142843457Y-121409044D01*
X142863448Y-121421026D01*
X142882168Y-121434910D01*
X142899438Y-121450562D01*
X142915090Y-121467832D01*
X142928974Y-121486552D01*
X142940956Y-121506543D01*
X142950921Y-121527613D01*
X142958773Y-121549557D01*
X142964437Y-121572166D01*
X142967856Y-121595221D01*
X142969000Y-121618500D01*
X142969000Y-122193500D01*
X142967856Y-122216779D01*
X142964437Y-122239834D01*
X142958773Y-122262443D01*
X142950921Y-122284387D01*
X142940956Y-122305457D01*
X142928974Y-122325448D01*
X142915090Y-122344168D01*
X142899438Y-122361438D01*
X142882168Y-122377090D01*
X142863448Y-122390974D01*
X142843457Y-122402956D01*
X142822387Y-122412921D01*
X142800443Y-122420773D01*
X142777834Y-122426437D01*
X142754779Y-122429856D01*
X142731500Y-122431000D01*
X142256500Y-122431000D01*
X142233221Y-122429856D01*
X142210166Y-122426437D01*
X142187557Y-122420773D01*
X142165613Y-122412921D01*
X142144543Y-122402956D01*
X142124552Y-122390974D01*
X142105832Y-122377090D01*
X142088562Y-122361438D01*
X142072910Y-122344168D01*
X142059026Y-122325448D01*
X142047044Y-122305457D01*
X142037079Y-122284387D01*
X142029227Y-122262443D01*
X142023563Y-122239834D01*
X142020144Y-122216779D01*
X142019000Y-122193500D01*
X142019000Y-121618500D01*
X142020144Y-121595221D01*
X142023563Y-121572166D01*
X142029227Y-121549557D01*
X142037079Y-121527613D01*
X142047044Y-121506543D01*
X142059026Y-121486552D01*
X142072910Y-121467832D01*
X142088562Y-121450562D01*
X142105832Y-121434910D01*
X142124552Y-121421026D01*
X142144543Y-121409044D01*
X142165613Y-121399079D01*
X142187557Y-121391227D01*
X142210166Y-121385563D01*
X142233221Y-121382144D01*
X142256500Y-121381000D01*
X142731500Y-121381000D01*
X142754779Y-121382144D01*
X142754779Y-121382144D01*
G37*
D11*
X142494000Y-121906000D03*
G04 #@! TD*
D10*
G04 #@! TO.C,R23*
G36*
X146310779Y-81264144D02*
X146333834Y-81267563D01*
X146356443Y-81273227D01*
X146378387Y-81281079D01*
X146399457Y-81291044D01*
X146419448Y-81303026D01*
X146438168Y-81316910D01*
X146455438Y-81332562D01*
X146471090Y-81349832D01*
X146484974Y-81368552D01*
X146496956Y-81388543D01*
X146506921Y-81409613D01*
X146514773Y-81431557D01*
X146520437Y-81454166D01*
X146523856Y-81477221D01*
X146525000Y-81500500D01*
X146525000Y-82075500D01*
X146523856Y-82098779D01*
X146520437Y-82121834D01*
X146514773Y-82144443D01*
X146506921Y-82166387D01*
X146496956Y-82187457D01*
X146484974Y-82207448D01*
X146471090Y-82226168D01*
X146455438Y-82243438D01*
X146438168Y-82259090D01*
X146419448Y-82272974D01*
X146399457Y-82284956D01*
X146378387Y-82294921D01*
X146356443Y-82302773D01*
X146333834Y-82308437D01*
X146310779Y-82311856D01*
X146287500Y-82313000D01*
X145812500Y-82313000D01*
X145789221Y-82311856D01*
X145766166Y-82308437D01*
X145743557Y-82302773D01*
X145721613Y-82294921D01*
X145700543Y-82284956D01*
X145680552Y-82272974D01*
X145661832Y-82259090D01*
X145644562Y-82243438D01*
X145628910Y-82226168D01*
X145615026Y-82207448D01*
X145603044Y-82187457D01*
X145593079Y-82166387D01*
X145585227Y-82144443D01*
X145579563Y-82121834D01*
X145576144Y-82098779D01*
X145575000Y-82075500D01*
X145575000Y-81500500D01*
X145576144Y-81477221D01*
X145579563Y-81454166D01*
X145585227Y-81431557D01*
X145593079Y-81409613D01*
X145603044Y-81388543D01*
X145615026Y-81368552D01*
X145628910Y-81349832D01*
X145644562Y-81332562D01*
X145661832Y-81316910D01*
X145680552Y-81303026D01*
X145700543Y-81291044D01*
X145721613Y-81281079D01*
X145743557Y-81273227D01*
X145766166Y-81267563D01*
X145789221Y-81264144D01*
X145812500Y-81263000D01*
X146287500Y-81263000D01*
X146310779Y-81264144D01*
X146310779Y-81264144D01*
G37*
D11*
X146050000Y-81788000D03*
D10*
G36*
X146310779Y-79514144D02*
X146333834Y-79517563D01*
X146356443Y-79523227D01*
X146378387Y-79531079D01*
X146399457Y-79541044D01*
X146419448Y-79553026D01*
X146438168Y-79566910D01*
X146455438Y-79582562D01*
X146471090Y-79599832D01*
X146484974Y-79618552D01*
X146496956Y-79638543D01*
X146506921Y-79659613D01*
X146514773Y-79681557D01*
X146520437Y-79704166D01*
X146523856Y-79727221D01*
X146525000Y-79750500D01*
X146525000Y-80325500D01*
X146523856Y-80348779D01*
X146520437Y-80371834D01*
X146514773Y-80394443D01*
X146506921Y-80416387D01*
X146496956Y-80437457D01*
X146484974Y-80457448D01*
X146471090Y-80476168D01*
X146455438Y-80493438D01*
X146438168Y-80509090D01*
X146419448Y-80522974D01*
X146399457Y-80534956D01*
X146378387Y-80544921D01*
X146356443Y-80552773D01*
X146333834Y-80558437D01*
X146310779Y-80561856D01*
X146287500Y-80563000D01*
X145812500Y-80563000D01*
X145789221Y-80561856D01*
X145766166Y-80558437D01*
X145743557Y-80552773D01*
X145721613Y-80544921D01*
X145700543Y-80534956D01*
X145680552Y-80522974D01*
X145661832Y-80509090D01*
X145644562Y-80493438D01*
X145628910Y-80476168D01*
X145615026Y-80457448D01*
X145603044Y-80437457D01*
X145593079Y-80416387D01*
X145585227Y-80394443D01*
X145579563Y-80371834D01*
X145576144Y-80348779D01*
X145575000Y-80325500D01*
X145575000Y-79750500D01*
X145576144Y-79727221D01*
X145579563Y-79704166D01*
X145585227Y-79681557D01*
X145593079Y-79659613D01*
X145603044Y-79638543D01*
X145615026Y-79618552D01*
X145628910Y-79599832D01*
X145644562Y-79582562D01*
X145661832Y-79566910D01*
X145680552Y-79553026D01*
X145700543Y-79541044D01*
X145721613Y-79531079D01*
X145743557Y-79523227D01*
X145766166Y-79517563D01*
X145789221Y-79514144D01*
X145812500Y-79513000D01*
X146287500Y-79513000D01*
X146310779Y-79514144D01*
X146310779Y-79514144D01*
G37*
D11*
X146050000Y-80038000D03*
G04 #@! TD*
D10*
G04 #@! TO.C,R11*
G36*
X153726779Y-55914144D02*
X153749834Y-55917563D01*
X153772443Y-55923227D01*
X153794387Y-55931079D01*
X153815457Y-55941044D01*
X153835448Y-55953026D01*
X153854168Y-55966910D01*
X153871438Y-55982562D01*
X153887090Y-55999832D01*
X153900974Y-56018552D01*
X153912956Y-56038543D01*
X153922921Y-56059613D01*
X153930773Y-56081557D01*
X153936437Y-56104166D01*
X153939856Y-56127221D01*
X153941000Y-56150500D01*
X153941000Y-56625500D01*
X153939856Y-56648779D01*
X153936437Y-56671834D01*
X153930773Y-56694443D01*
X153922921Y-56716387D01*
X153912956Y-56737457D01*
X153900974Y-56757448D01*
X153887090Y-56776168D01*
X153871438Y-56793438D01*
X153854168Y-56809090D01*
X153835448Y-56822974D01*
X153815457Y-56834956D01*
X153794387Y-56844921D01*
X153772443Y-56852773D01*
X153749834Y-56858437D01*
X153726779Y-56861856D01*
X153703500Y-56863000D01*
X153128500Y-56863000D01*
X153105221Y-56861856D01*
X153082166Y-56858437D01*
X153059557Y-56852773D01*
X153037613Y-56844921D01*
X153016543Y-56834956D01*
X152996552Y-56822974D01*
X152977832Y-56809090D01*
X152960562Y-56793438D01*
X152944910Y-56776168D01*
X152931026Y-56757448D01*
X152919044Y-56737457D01*
X152909079Y-56716387D01*
X152901227Y-56694443D01*
X152895563Y-56671834D01*
X152892144Y-56648779D01*
X152891000Y-56625500D01*
X152891000Y-56150500D01*
X152892144Y-56127221D01*
X152895563Y-56104166D01*
X152901227Y-56081557D01*
X152909079Y-56059613D01*
X152919044Y-56038543D01*
X152931026Y-56018552D01*
X152944910Y-55999832D01*
X152960562Y-55982562D01*
X152977832Y-55966910D01*
X152996552Y-55953026D01*
X153016543Y-55941044D01*
X153037613Y-55931079D01*
X153059557Y-55923227D01*
X153082166Y-55917563D01*
X153105221Y-55914144D01*
X153128500Y-55913000D01*
X153703500Y-55913000D01*
X153726779Y-55914144D01*
X153726779Y-55914144D01*
G37*
D11*
X153416000Y-56388000D03*
D10*
G36*
X151976779Y-55914144D02*
X151999834Y-55917563D01*
X152022443Y-55923227D01*
X152044387Y-55931079D01*
X152065457Y-55941044D01*
X152085448Y-55953026D01*
X152104168Y-55966910D01*
X152121438Y-55982562D01*
X152137090Y-55999832D01*
X152150974Y-56018552D01*
X152162956Y-56038543D01*
X152172921Y-56059613D01*
X152180773Y-56081557D01*
X152186437Y-56104166D01*
X152189856Y-56127221D01*
X152191000Y-56150500D01*
X152191000Y-56625500D01*
X152189856Y-56648779D01*
X152186437Y-56671834D01*
X152180773Y-56694443D01*
X152172921Y-56716387D01*
X152162956Y-56737457D01*
X152150974Y-56757448D01*
X152137090Y-56776168D01*
X152121438Y-56793438D01*
X152104168Y-56809090D01*
X152085448Y-56822974D01*
X152065457Y-56834956D01*
X152044387Y-56844921D01*
X152022443Y-56852773D01*
X151999834Y-56858437D01*
X151976779Y-56861856D01*
X151953500Y-56863000D01*
X151378500Y-56863000D01*
X151355221Y-56861856D01*
X151332166Y-56858437D01*
X151309557Y-56852773D01*
X151287613Y-56844921D01*
X151266543Y-56834956D01*
X151246552Y-56822974D01*
X151227832Y-56809090D01*
X151210562Y-56793438D01*
X151194910Y-56776168D01*
X151181026Y-56757448D01*
X151169044Y-56737457D01*
X151159079Y-56716387D01*
X151151227Y-56694443D01*
X151145563Y-56671834D01*
X151142144Y-56648779D01*
X151141000Y-56625500D01*
X151141000Y-56150500D01*
X151142144Y-56127221D01*
X151145563Y-56104166D01*
X151151227Y-56081557D01*
X151159079Y-56059613D01*
X151169044Y-56038543D01*
X151181026Y-56018552D01*
X151194910Y-55999832D01*
X151210562Y-55982562D01*
X151227832Y-55966910D01*
X151246552Y-55953026D01*
X151266543Y-55941044D01*
X151287613Y-55931079D01*
X151309557Y-55923227D01*
X151332166Y-55917563D01*
X151355221Y-55914144D01*
X151378500Y-55913000D01*
X151953500Y-55913000D01*
X151976779Y-55914144D01*
X151976779Y-55914144D01*
G37*
D11*
X151666000Y-56388000D03*
G04 #@! TD*
D10*
G04 #@! TO.C,R12*
G36*
X145880779Y-55914144D02*
X145903834Y-55917563D01*
X145926443Y-55923227D01*
X145948387Y-55931079D01*
X145969457Y-55941044D01*
X145989448Y-55953026D01*
X146008168Y-55966910D01*
X146025438Y-55982562D01*
X146041090Y-55999832D01*
X146054974Y-56018552D01*
X146066956Y-56038543D01*
X146076921Y-56059613D01*
X146084773Y-56081557D01*
X146090437Y-56104166D01*
X146093856Y-56127221D01*
X146095000Y-56150500D01*
X146095000Y-56625500D01*
X146093856Y-56648779D01*
X146090437Y-56671834D01*
X146084773Y-56694443D01*
X146076921Y-56716387D01*
X146066956Y-56737457D01*
X146054974Y-56757448D01*
X146041090Y-56776168D01*
X146025438Y-56793438D01*
X146008168Y-56809090D01*
X145989448Y-56822974D01*
X145969457Y-56834956D01*
X145948387Y-56844921D01*
X145926443Y-56852773D01*
X145903834Y-56858437D01*
X145880779Y-56861856D01*
X145857500Y-56863000D01*
X145282500Y-56863000D01*
X145259221Y-56861856D01*
X145236166Y-56858437D01*
X145213557Y-56852773D01*
X145191613Y-56844921D01*
X145170543Y-56834956D01*
X145150552Y-56822974D01*
X145131832Y-56809090D01*
X145114562Y-56793438D01*
X145098910Y-56776168D01*
X145085026Y-56757448D01*
X145073044Y-56737457D01*
X145063079Y-56716387D01*
X145055227Y-56694443D01*
X145049563Y-56671834D01*
X145046144Y-56648779D01*
X145045000Y-56625500D01*
X145045000Y-56150500D01*
X145046144Y-56127221D01*
X145049563Y-56104166D01*
X145055227Y-56081557D01*
X145063079Y-56059613D01*
X145073044Y-56038543D01*
X145085026Y-56018552D01*
X145098910Y-55999832D01*
X145114562Y-55982562D01*
X145131832Y-55966910D01*
X145150552Y-55953026D01*
X145170543Y-55941044D01*
X145191613Y-55931079D01*
X145213557Y-55923227D01*
X145236166Y-55917563D01*
X145259221Y-55914144D01*
X145282500Y-55913000D01*
X145857500Y-55913000D01*
X145880779Y-55914144D01*
X145880779Y-55914144D01*
G37*
D11*
X145570000Y-56388000D03*
D10*
G36*
X147630779Y-55914144D02*
X147653834Y-55917563D01*
X147676443Y-55923227D01*
X147698387Y-55931079D01*
X147719457Y-55941044D01*
X147739448Y-55953026D01*
X147758168Y-55966910D01*
X147775438Y-55982562D01*
X147791090Y-55999832D01*
X147804974Y-56018552D01*
X147816956Y-56038543D01*
X147826921Y-56059613D01*
X147834773Y-56081557D01*
X147840437Y-56104166D01*
X147843856Y-56127221D01*
X147845000Y-56150500D01*
X147845000Y-56625500D01*
X147843856Y-56648779D01*
X147840437Y-56671834D01*
X147834773Y-56694443D01*
X147826921Y-56716387D01*
X147816956Y-56737457D01*
X147804974Y-56757448D01*
X147791090Y-56776168D01*
X147775438Y-56793438D01*
X147758168Y-56809090D01*
X147739448Y-56822974D01*
X147719457Y-56834956D01*
X147698387Y-56844921D01*
X147676443Y-56852773D01*
X147653834Y-56858437D01*
X147630779Y-56861856D01*
X147607500Y-56863000D01*
X147032500Y-56863000D01*
X147009221Y-56861856D01*
X146986166Y-56858437D01*
X146963557Y-56852773D01*
X146941613Y-56844921D01*
X146920543Y-56834956D01*
X146900552Y-56822974D01*
X146881832Y-56809090D01*
X146864562Y-56793438D01*
X146848910Y-56776168D01*
X146835026Y-56757448D01*
X146823044Y-56737457D01*
X146813079Y-56716387D01*
X146805227Y-56694443D01*
X146799563Y-56671834D01*
X146796144Y-56648779D01*
X146795000Y-56625500D01*
X146795000Y-56150500D01*
X146796144Y-56127221D01*
X146799563Y-56104166D01*
X146805227Y-56081557D01*
X146813079Y-56059613D01*
X146823044Y-56038543D01*
X146835026Y-56018552D01*
X146848910Y-55999832D01*
X146864562Y-55982562D01*
X146881832Y-55966910D01*
X146900552Y-55953026D01*
X146920543Y-55941044D01*
X146941613Y-55931079D01*
X146963557Y-55923227D01*
X146986166Y-55917563D01*
X147009221Y-55914144D01*
X147032500Y-55913000D01*
X147607500Y-55913000D01*
X147630779Y-55914144D01*
X147630779Y-55914144D01*
G37*
D11*
X147320000Y-56388000D03*
G04 #@! TD*
D10*
G04 #@! TO.C,R13*
G36*
X141534779Y-55914144D02*
X141557834Y-55917563D01*
X141580443Y-55923227D01*
X141602387Y-55931079D01*
X141623457Y-55941044D01*
X141643448Y-55953026D01*
X141662168Y-55966910D01*
X141679438Y-55982562D01*
X141695090Y-55999832D01*
X141708974Y-56018552D01*
X141720956Y-56038543D01*
X141730921Y-56059613D01*
X141738773Y-56081557D01*
X141744437Y-56104166D01*
X141747856Y-56127221D01*
X141749000Y-56150500D01*
X141749000Y-56625500D01*
X141747856Y-56648779D01*
X141744437Y-56671834D01*
X141738773Y-56694443D01*
X141730921Y-56716387D01*
X141720956Y-56737457D01*
X141708974Y-56757448D01*
X141695090Y-56776168D01*
X141679438Y-56793438D01*
X141662168Y-56809090D01*
X141643448Y-56822974D01*
X141623457Y-56834956D01*
X141602387Y-56844921D01*
X141580443Y-56852773D01*
X141557834Y-56858437D01*
X141534779Y-56861856D01*
X141511500Y-56863000D01*
X140936500Y-56863000D01*
X140913221Y-56861856D01*
X140890166Y-56858437D01*
X140867557Y-56852773D01*
X140845613Y-56844921D01*
X140824543Y-56834956D01*
X140804552Y-56822974D01*
X140785832Y-56809090D01*
X140768562Y-56793438D01*
X140752910Y-56776168D01*
X140739026Y-56757448D01*
X140727044Y-56737457D01*
X140717079Y-56716387D01*
X140709227Y-56694443D01*
X140703563Y-56671834D01*
X140700144Y-56648779D01*
X140699000Y-56625500D01*
X140699000Y-56150500D01*
X140700144Y-56127221D01*
X140703563Y-56104166D01*
X140709227Y-56081557D01*
X140717079Y-56059613D01*
X140727044Y-56038543D01*
X140739026Y-56018552D01*
X140752910Y-55999832D01*
X140768562Y-55982562D01*
X140785832Y-55966910D01*
X140804552Y-55953026D01*
X140824543Y-55941044D01*
X140845613Y-55931079D01*
X140867557Y-55923227D01*
X140890166Y-55917563D01*
X140913221Y-55914144D01*
X140936500Y-55913000D01*
X141511500Y-55913000D01*
X141534779Y-55914144D01*
X141534779Y-55914144D01*
G37*
D11*
X141224000Y-56388000D03*
D10*
G36*
X139784779Y-55914144D02*
X139807834Y-55917563D01*
X139830443Y-55923227D01*
X139852387Y-55931079D01*
X139873457Y-55941044D01*
X139893448Y-55953026D01*
X139912168Y-55966910D01*
X139929438Y-55982562D01*
X139945090Y-55999832D01*
X139958974Y-56018552D01*
X139970956Y-56038543D01*
X139980921Y-56059613D01*
X139988773Y-56081557D01*
X139994437Y-56104166D01*
X139997856Y-56127221D01*
X139999000Y-56150500D01*
X139999000Y-56625500D01*
X139997856Y-56648779D01*
X139994437Y-56671834D01*
X139988773Y-56694443D01*
X139980921Y-56716387D01*
X139970956Y-56737457D01*
X139958974Y-56757448D01*
X139945090Y-56776168D01*
X139929438Y-56793438D01*
X139912168Y-56809090D01*
X139893448Y-56822974D01*
X139873457Y-56834956D01*
X139852387Y-56844921D01*
X139830443Y-56852773D01*
X139807834Y-56858437D01*
X139784779Y-56861856D01*
X139761500Y-56863000D01*
X139186500Y-56863000D01*
X139163221Y-56861856D01*
X139140166Y-56858437D01*
X139117557Y-56852773D01*
X139095613Y-56844921D01*
X139074543Y-56834956D01*
X139054552Y-56822974D01*
X139035832Y-56809090D01*
X139018562Y-56793438D01*
X139002910Y-56776168D01*
X138989026Y-56757448D01*
X138977044Y-56737457D01*
X138967079Y-56716387D01*
X138959227Y-56694443D01*
X138953563Y-56671834D01*
X138950144Y-56648779D01*
X138949000Y-56625500D01*
X138949000Y-56150500D01*
X138950144Y-56127221D01*
X138953563Y-56104166D01*
X138959227Y-56081557D01*
X138967079Y-56059613D01*
X138977044Y-56038543D01*
X138989026Y-56018552D01*
X139002910Y-55999832D01*
X139018562Y-55982562D01*
X139035832Y-55966910D01*
X139054552Y-55953026D01*
X139074543Y-55941044D01*
X139095613Y-55931079D01*
X139117557Y-55923227D01*
X139140166Y-55917563D01*
X139163221Y-55914144D01*
X139186500Y-55913000D01*
X139761500Y-55913000D01*
X139784779Y-55914144D01*
X139784779Y-55914144D01*
G37*
D11*
X139474000Y-56388000D03*
G04 #@! TD*
D10*
G04 #@! TO.C,R14*
G36*
X133688779Y-55914144D02*
X133711834Y-55917563D01*
X133734443Y-55923227D01*
X133756387Y-55931079D01*
X133777457Y-55941044D01*
X133797448Y-55953026D01*
X133816168Y-55966910D01*
X133833438Y-55982562D01*
X133849090Y-55999832D01*
X133862974Y-56018552D01*
X133874956Y-56038543D01*
X133884921Y-56059613D01*
X133892773Y-56081557D01*
X133898437Y-56104166D01*
X133901856Y-56127221D01*
X133903000Y-56150500D01*
X133903000Y-56625500D01*
X133901856Y-56648779D01*
X133898437Y-56671834D01*
X133892773Y-56694443D01*
X133884921Y-56716387D01*
X133874956Y-56737457D01*
X133862974Y-56757448D01*
X133849090Y-56776168D01*
X133833438Y-56793438D01*
X133816168Y-56809090D01*
X133797448Y-56822974D01*
X133777457Y-56834956D01*
X133756387Y-56844921D01*
X133734443Y-56852773D01*
X133711834Y-56858437D01*
X133688779Y-56861856D01*
X133665500Y-56863000D01*
X133090500Y-56863000D01*
X133067221Y-56861856D01*
X133044166Y-56858437D01*
X133021557Y-56852773D01*
X132999613Y-56844921D01*
X132978543Y-56834956D01*
X132958552Y-56822974D01*
X132939832Y-56809090D01*
X132922562Y-56793438D01*
X132906910Y-56776168D01*
X132893026Y-56757448D01*
X132881044Y-56737457D01*
X132871079Y-56716387D01*
X132863227Y-56694443D01*
X132857563Y-56671834D01*
X132854144Y-56648779D01*
X132853000Y-56625500D01*
X132853000Y-56150500D01*
X132854144Y-56127221D01*
X132857563Y-56104166D01*
X132863227Y-56081557D01*
X132871079Y-56059613D01*
X132881044Y-56038543D01*
X132893026Y-56018552D01*
X132906910Y-55999832D01*
X132922562Y-55982562D01*
X132939832Y-55966910D01*
X132958552Y-55953026D01*
X132978543Y-55941044D01*
X132999613Y-55931079D01*
X133021557Y-55923227D01*
X133044166Y-55917563D01*
X133067221Y-55914144D01*
X133090500Y-55913000D01*
X133665500Y-55913000D01*
X133688779Y-55914144D01*
X133688779Y-55914144D01*
G37*
D11*
X133378000Y-56388000D03*
D10*
G36*
X135438779Y-55914144D02*
X135461834Y-55917563D01*
X135484443Y-55923227D01*
X135506387Y-55931079D01*
X135527457Y-55941044D01*
X135547448Y-55953026D01*
X135566168Y-55966910D01*
X135583438Y-55982562D01*
X135599090Y-55999832D01*
X135612974Y-56018552D01*
X135624956Y-56038543D01*
X135634921Y-56059613D01*
X135642773Y-56081557D01*
X135648437Y-56104166D01*
X135651856Y-56127221D01*
X135653000Y-56150500D01*
X135653000Y-56625500D01*
X135651856Y-56648779D01*
X135648437Y-56671834D01*
X135642773Y-56694443D01*
X135634921Y-56716387D01*
X135624956Y-56737457D01*
X135612974Y-56757448D01*
X135599090Y-56776168D01*
X135583438Y-56793438D01*
X135566168Y-56809090D01*
X135547448Y-56822974D01*
X135527457Y-56834956D01*
X135506387Y-56844921D01*
X135484443Y-56852773D01*
X135461834Y-56858437D01*
X135438779Y-56861856D01*
X135415500Y-56863000D01*
X134840500Y-56863000D01*
X134817221Y-56861856D01*
X134794166Y-56858437D01*
X134771557Y-56852773D01*
X134749613Y-56844921D01*
X134728543Y-56834956D01*
X134708552Y-56822974D01*
X134689832Y-56809090D01*
X134672562Y-56793438D01*
X134656910Y-56776168D01*
X134643026Y-56757448D01*
X134631044Y-56737457D01*
X134621079Y-56716387D01*
X134613227Y-56694443D01*
X134607563Y-56671834D01*
X134604144Y-56648779D01*
X134603000Y-56625500D01*
X134603000Y-56150500D01*
X134604144Y-56127221D01*
X134607563Y-56104166D01*
X134613227Y-56081557D01*
X134621079Y-56059613D01*
X134631044Y-56038543D01*
X134643026Y-56018552D01*
X134656910Y-55999832D01*
X134672562Y-55982562D01*
X134689832Y-55966910D01*
X134708552Y-55953026D01*
X134728543Y-55941044D01*
X134749613Y-55931079D01*
X134771557Y-55923227D01*
X134794166Y-55917563D01*
X134817221Y-55914144D01*
X134840500Y-55913000D01*
X135415500Y-55913000D01*
X135438779Y-55914144D01*
X135438779Y-55914144D01*
G37*
D11*
X135128000Y-56388000D03*
G04 #@! TD*
D10*
G04 #@! TO.C,R15*
G36*
X142042779Y-77237718D02*
X142065834Y-77241137D01*
X142088443Y-77246801D01*
X142110387Y-77254653D01*
X142131457Y-77264618D01*
X142151448Y-77276600D01*
X142170168Y-77290484D01*
X142187438Y-77306136D01*
X142203090Y-77323406D01*
X142216974Y-77342126D01*
X142228956Y-77362117D01*
X142238921Y-77383187D01*
X142246773Y-77405131D01*
X142252437Y-77427740D01*
X142255856Y-77450795D01*
X142257000Y-77474074D01*
X142257000Y-77949074D01*
X142255856Y-77972353D01*
X142252437Y-77995408D01*
X142246773Y-78018017D01*
X142238921Y-78039961D01*
X142228956Y-78061031D01*
X142216974Y-78081022D01*
X142203090Y-78099742D01*
X142187438Y-78117012D01*
X142170168Y-78132664D01*
X142151448Y-78146548D01*
X142131457Y-78158530D01*
X142110387Y-78168495D01*
X142088443Y-78176347D01*
X142065834Y-78182011D01*
X142042779Y-78185430D01*
X142019500Y-78186574D01*
X141444500Y-78186574D01*
X141421221Y-78185430D01*
X141398166Y-78182011D01*
X141375557Y-78176347D01*
X141353613Y-78168495D01*
X141332543Y-78158530D01*
X141312552Y-78146548D01*
X141293832Y-78132664D01*
X141276562Y-78117012D01*
X141260910Y-78099742D01*
X141247026Y-78081022D01*
X141235044Y-78061031D01*
X141225079Y-78039961D01*
X141217227Y-78018017D01*
X141211563Y-77995408D01*
X141208144Y-77972353D01*
X141207000Y-77949074D01*
X141207000Y-77474074D01*
X141208144Y-77450795D01*
X141211563Y-77427740D01*
X141217227Y-77405131D01*
X141225079Y-77383187D01*
X141235044Y-77362117D01*
X141247026Y-77342126D01*
X141260910Y-77323406D01*
X141276562Y-77306136D01*
X141293832Y-77290484D01*
X141312552Y-77276600D01*
X141332543Y-77264618D01*
X141353613Y-77254653D01*
X141375557Y-77246801D01*
X141398166Y-77241137D01*
X141421221Y-77237718D01*
X141444500Y-77236574D01*
X142019500Y-77236574D01*
X142042779Y-77237718D01*
X142042779Y-77237718D01*
G37*
D11*
X141732000Y-77711574D03*
D10*
G36*
X140292779Y-77237718D02*
X140315834Y-77241137D01*
X140338443Y-77246801D01*
X140360387Y-77254653D01*
X140381457Y-77264618D01*
X140401448Y-77276600D01*
X140420168Y-77290484D01*
X140437438Y-77306136D01*
X140453090Y-77323406D01*
X140466974Y-77342126D01*
X140478956Y-77362117D01*
X140488921Y-77383187D01*
X140496773Y-77405131D01*
X140502437Y-77427740D01*
X140505856Y-77450795D01*
X140507000Y-77474074D01*
X140507000Y-77949074D01*
X140505856Y-77972353D01*
X140502437Y-77995408D01*
X140496773Y-78018017D01*
X140488921Y-78039961D01*
X140478956Y-78061031D01*
X140466974Y-78081022D01*
X140453090Y-78099742D01*
X140437438Y-78117012D01*
X140420168Y-78132664D01*
X140401448Y-78146548D01*
X140381457Y-78158530D01*
X140360387Y-78168495D01*
X140338443Y-78176347D01*
X140315834Y-78182011D01*
X140292779Y-78185430D01*
X140269500Y-78186574D01*
X139694500Y-78186574D01*
X139671221Y-78185430D01*
X139648166Y-78182011D01*
X139625557Y-78176347D01*
X139603613Y-78168495D01*
X139582543Y-78158530D01*
X139562552Y-78146548D01*
X139543832Y-78132664D01*
X139526562Y-78117012D01*
X139510910Y-78099742D01*
X139497026Y-78081022D01*
X139485044Y-78061031D01*
X139475079Y-78039961D01*
X139467227Y-78018017D01*
X139461563Y-77995408D01*
X139458144Y-77972353D01*
X139457000Y-77949074D01*
X139457000Y-77474074D01*
X139458144Y-77450795D01*
X139461563Y-77427740D01*
X139467227Y-77405131D01*
X139475079Y-77383187D01*
X139485044Y-77362117D01*
X139497026Y-77342126D01*
X139510910Y-77323406D01*
X139526562Y-77306136D01*
X139543832Y-77290484D01*
X139562552Y-77276600D01*
X139582543Y-77264618D01*
X139603613Y-77254653D01*
X139625557Y-77246801D01*
X139648166Y-77241137D01*
X139671221Y-77237718D01*
X139694500Y-77236574D01*
X140269500Y-77236574D01*
X140292779Y-77237718D01*
X140292779Y-77237718D01*
G37*
D11*
X139982000Y-77711574D03*
G04 #@! TD*
D10*
G04 #@! TO.C,R26*
G36*
X149358779Y-79514144D02*
X149381834Y-79517563D01*
X149404443Y-79523227D01*
X149426387Y-79531079D01*
X149447457Y-79541044D01*
X149467448Y-79553026D01*
X149486168Y-79566910D01*
X149503438Y-79582562D01*
X149519090Y-79599832D01*
X149532974Y-79618552D01*
X149544956Y-79638543D01*
X149554921Y-79659613D01*
X149562773Y-79681557D01*
X149568437Y-79704166D01*
X149571856Y-79727221D01*
X149573000Y-79750500D01*
X149573000Y-80325500D01*
X149571856Y-80348779D01*
X149568437Y-80371834D01*
X149562773Y-80394443D01*
X149554921Y-80416387D01*
X149544956Y-80437457D01*
X149532974Y-80457448D01*
X149519090Y-80476168D01*
X149503438Y-80493438D01*
X149486168Y-80509090D01*
X149467448Y-80522974D01*
X149447457Y-80534956D01*
X149426387Y-80544921D01*
X149404443Y-80552773D01*
X149381834Y-80558437D01*
X149358779Y-80561856D01*
X149335500Y-80563000D01*
X148860500Y-80563000D01*
X148837221Y-80561856D01*
X148814166Y-80558437D01*
X148791557Y-80552773D01*
X148769613Y-80544921D01*
X148748543Y-80534956D01*
X148728552Y-80522974D01*
X148709832Y-80509090D01*
X148692562Y-80493438D01*
X148676910Y-80476168D01*
X148663026Y-80457448D01*
X148651044Y-80437457D01*
X148641079Y-80416387D01*
X148633227Y-80394443D01*
X148627563Y-80371834D01*
X148624144Y-80348779D01*
X148623000Y-80325500D01*
X148623000Y-79750500D01*
X148624144Y-79727221D01*
X148627563Y-79704166D01*
X148633227Y-79681557D01*
X148641079Y-79659613D01*
X148651044Y-79638543D01*
X148663026Y-79618552D01*
X148676910Y-79599832D01*
X148692562Y-79582562D01*
X148709832Y-79566910D01*
X148728552Y-79553026D01*
X148748543Y-79541044D01*
X148769613Y-79531079D01*
X148791557Y-79523227D01*
X148814166Y-79517563D01*
X148837221Y-79514144D01*
X148860500Y-79513000D01*
X149335500Y-79513000D01*
X149358779Y-79514144D01*
X149358779Y-79514144D01*
G37*
D11*
X149098000Y-80038000D03*
D10*
G36*
X149358779Y-81264144D02*
X149381834Y-81267563D01*
X149404443Y-81273227D01*
X149426387Y-81281079D01*
X149447457Y-81291044D01*
X149467448Y-81303026D01*
X149486168Y-81316910D01*
X149503438Y-81332562D01*
X149519090Y-81349832D01*
X149532974Y-81368552D01*
X149544956Y-81388543D01*
X149554921Y-81409613D01*
X149562773Y-81431557D01*
X149568437Y-81454166D01*
X149571856Y-81477221D01*
X149573000Y-81500500D01*
X149573000Y-82075500D01*
X149571856Y-82098779D01*
X149568437Y-82121834D01*
X149562773Y-82144443D01*
X149554921Y-82166387D01*
X149544956Y-82187457D01*
X149532974Y-82207448D01*
X149519090Y-82226168D01*
X149503438Y-82243438D01*
X149486168Y-82259090D01*
X149467448Y-82272974D01*
X149447457Y-82284956D01*
X149426387Y-82294921D01*
X149404443Y-82302773D01*
X149381834Y-82308437D01*
X149358779Y-82311856D01*
X149335500Y-82313000D01*
X148860500Y-82313000D01*
X148837221Y-82311856D01*
X148814166Y-82308437D01*
X148791557Y-82302773D01*
X148769613Y-82294921D01*
X148748543Y-82284956D01*
X148728552Y-82272974D01*
X148709832Y-82259090D01*
X148692562Y-82243438D01*
X148676910Y-82226168D01*
X148663026Y-82207448D01*
X148651044Y-82187457D01*
X148641079Y-82166387D01*
X148633227Y-82144443D01*
X148627563Y-82121834D01*
X148624144Y-82098779D01*
X148623000Y-82075500D01*
X148623000Y-81500500D01*
X148624144Y-81477221D01*
X148627563Y-81454166D01*
X148633227Y-81431557D01*
X148641079Y-81409613D01*
X148651044Y-81388543D01*
X148663026Y-81368552D01*
X148676910Y-81349832D01*
X148692562Y-81332562D01*
X148709832Y-81316910D01*
X148728552Y-81303026D01*
X148748543Y-81291044D01*
X148769613Y-81281079D01*
X148791557Y-81273227D01*
X148814166Y-81267563D01*
X148837221Y-81264144D01*
X148860500Y-81263000D01*
X149335500Y-81263000D01*
X149358779Y-81264144D01*
X149358779Y-81264144D01*
G37*
D11*
X149098000Y-81788000D03*
G04 #@! TD*
D10*
G04 #@! TO.C,R25*
G36*
X147834779Y-87078144D02*
X147857834Y-87081563D01*
X147880443Y-87087227D01*
X147902387Y-87095079D01*
X147923457Y-87105044D01*
X147943448Y-87117026D01*
X147962168Y-87130910D01*
X147979438Y-87146562D01*
X147995090Y-87163832D01*
X148008974Y-87182552D01*
X148020956Y-87202543D01*
X148030921Y-87223613D01*
X148038773Y-87245557D01*
X148044437Y-87268166D01*
X148047856Y-87291221D01*
X148049000Y-87314500D01*
X148049000Y-87889500D01*
X148047856Y-87912779D01*
X148044437Y-87935834D01*
X148038773Y-87958443D01*
X148030921Y-87980387D01*
X148020956Y-88001457D01*
X148008974Y-88021448D01*
X147995090Y-88040168D01*
X147979438Y-88057438D01*
X147962168Y-88073090D01*
X147943448Y-88086974D01*
X147923457Y-88098956D01*
X147902387Y-88108921D01*
X147880443Y-88116773D01*
X147857834Y-88122437D01*
X147834779Y-88125856D01*
X147811500Y-88127000D01*
X147336500Y-88127000D01*
X147313221Y-88125856D01*
X147290166Y-88122437D01*
X147267557Y-88116773D01*
X147245613Y-88108921D01*
X147224543Y-88098956D01*
X147204552Y-88086974D01*
X147185832Y-88073090D01*
X147168562Y-88057438D01*
X147152910Y-88040168D01*
X147139026Y-88021448D01*
X147127044Y-88001457D01*
X147117079Y-87980387D01*
X147109227Y-87958443D01*
X147103563Y-87935834D01*
X147100144Y-87912779D01*
X147099000Y-87889500D01*
X147099000Y-87314500D01*
X147100144Y-87291221D01*
X147103563Y-87268166D01*
X147109227Y-87245557D01*
X147117079Y-87223613D01*
X147127044Y-87202543D01*
X147139026Y-87182552D01*
X147152910Y-87163832D01*
X147168562Y-87146562D01*
X147185832Y-87130910D01*
X147204552Y-87117026D01*
X147224543Y-87105044D01*
X147245613Y-87095079D01*
X147267557Y-87087227D01*
X147290166Y-87081563D01*
X147313221Y-87078144D01*
X147336500Y-87077000D01*
X147811500Y-87077000D01*
X147834779Y-87078144D01*
X147834779Y-87078144D01*
G37*
D11*
X147574000Y-87602000D03*
D10*
G36*
X147834779Y-85328144D02*
X147857834Y-85331563D01*
X147880443Y-85337227D01*
X147902387Y-85345079D01*
X147923457Y-85355044D01*
X147943448Y-85367026D01*
X147962168Y-85380910D01*
X147979438Y-85396562D01*
X147995090Y-85413832D01*
X148008974Y-85432552D01*
X148020956Y-85452543D01*
X148030921Y-85473613D01*
X148038773Y-85495557D01*
X148044437Y-85518166D01*
X148047856Y-85541221D01*
X148049000Y-85564500D01*
X148049000Y-86139500D01*
X148047856Y-86162779D01*
X148044437Y-86185834D01*
X148038773Y-86208443D01*
X148030921Y-86230387D01*
X148020956Y-86251457D01*
X148008974Y-86271448D01*
X147995090Y-86290168D01*
X147979438Y-86307438D01*
X147962168Y-86323090D01*
X147943448Y-86336974D01*
X147923457Y-86348956D01*
X147902387Y-86358921D01*
X147880443Y-86366773D01*
X147857834Y-86372437D01*
X147834779Y-86375856D01*
X147811500Y-86377000D01*
X147336500Y-86377000D01*
X147313221Y-86375856D01*
X147290166Y-86372437D01*
X147267557Y-86366773D01*
X147245613Y-86358921D01*
X147224543Y-86348956D01*
X147204552Y-86336974D01*
X147185832Y-86323090D01*
X147168562Y-86307438D01*
X147152910Y-86290168D01*
X147139026Y-86271448D01*
X147127044Y-86251457D01*
X147117079Y-86230387D01*
X147109227Y-86208443D01*
X147103563Y-86185834D01*
X147100144Y-86162779D01*
X147099000Y-86139500D01*
X147099000Y-85564500D01*
X147100144Y-85541221D01*
X147103563Y-85518166D01*
X147109227Y-85495557D01*
X147117079Y-85473613D01*
X147127044Y-85452543D01*
X147139026Y-85432552D01*
X147152910Y-85413832D01*
X147168562Y-85396562D01*
X147185832Y-85380910D01*
X147204552Y-85367026D01*
X147224543Y-85355044D01*
X147245613Y-85345079D01*
X147267557Y-85337227D01*
X147290166Y-85331563D01*
X147313221Y-85328144D01*
X147336500Y-85327000D01*
X147811500Y-85327000D01*
X147834779Y-85328144D01*
X147834779Y-85328144D01*
G37*
D11*
X147574000Y-85852000D03*
G04 #@! TD*
D10*
G04 #@! TO.C,R24*
G36*
X149358779Y-87078144D02*
X149381834Y-87081563D01*
X149404443Y-87087227D01*
X149426387Y-87095079D01*
X149447457Y-87105044D01*
X149467448Y-87117026D01*
X149486168Y-87130910D01*
X149503438Y-87146562D01*
X149519090Y-87163832D01*
X149532974Y-87182552D01*
X149544956Y-87202543D01*
X149554921Y-87223613D01*
X149562773Y-87245557D01*
X149568437Y-87268166D01*
X149571856Y-87291221D01*
X149573000Y-87314500D01*
X149573000Y-87889500D01*
X149571856Y-87912779D01*
X149568437Y-87935834D01*
X149562773Y-87958443D01*
X149554921Y-87980387D01*
X149544956Y-88001457D01*
X149532974Y-88021448D01*
X149519090Y-88040168D01*
X149503438Y-88057438D01*
X149486168Y-88073090D01*
X149467448Y-88086974D01*
X149447457Y-88098956D01*
X149426387Y-88108921D01*
X149404443Y-88116773D01*
X149381834Y-88122437D01*
X149358779Y-88125856D01*
X149335500Y-88127000D01*
X148860500Y-88127000D01*
X148837221Y-88125856D01*
X148814166Y-88122437D01*
X148791557Y-88116773D01*
X148769613Y-88108921D01*
X148748543Y-88098956D01*
X148728552Y-88086974D01*
X148709832Y-88073090D01*
X148692562Y-88057438D01*
X148676910Y-88040168D01*
X148663026Y-88021448D01*
X148651044Y-88001457D01*
X148641079Y-87980387D01*
X148633227Y-87958443D01*
X148627563Y-87935834D01*
X148624144Y-87912779D01*
X148623000Y-87889500D01*
X148623000Y-87314500D01*
X148624144Y-87291221D01*
X148627563Y-87268166D01*
X148633227Y-87245557D01*
X148641079Y-87223613D01*
X148651044Y-87202543D01*
X148663026Y-87182552D01*
X148676910Y-87163832D01*
X148692562Y-87146562D01*
X148709832Y-87130910D01*
X148728552Y-87117026D01*
X148748543Y-87105044D01*
X148769613Y-87095079D01*
X148791557Y-87087227D01*
X148814166Y-87081563D01*
X148837221Y-87078144D01*
X148860500Y-87077000D01*
X149335500Y-87077000D01*
X149358779Y-87078144D01*
X149358779Y-87078144D01*
G37*
D11*
X149098000Y-87602000D03*
D10*
G36*
X149358779Y-85328144D02*
X149381834Y-85331563D01*
X149404443Y-85337227D01*
X149426387Y-85345079D01*
X149447457Y-85355044D01*
X149467448Y-85367026D01*
X149486168Y-85380910D01*
X149503438Y-85396562D01*
X149519090Y-85413832D01*
X149532974Y-85432552D01*
X149544956Y-85452543D01*
X149554921Y-85473613D01*
X149562773Y-85495557D01*
X149568437Y-85518166D01*
X149571856Y-85541221D01*
X149573000Y-85564500D01*
X149573000Y-86139500D01*
X149571856Y-86162779D01*
X149568437Y-86185834D01*
X149562773Y-86208443D01*
X149554921Y-86230387D01*
X149544956Y-86251457D01*
X149532974Y-86271448D01*
X149519090Y-86290168D01*
X149503438Y-86307438D01*
X149486168Y-86323090D01*
X149467448Y-86336974D01*
X149447457Y-86348956D01*
X149426387Y-86358921D01*
X149404443Y-86366773D01*
X149381834Y-86372437D01*
X149358779Y-86375856D01*
X149335500Y-86377000D01*
X148860500Y-86377000D01*
X148837221Y-86375856D01*
X148814166Y-86372437D01*
X148791557Y-86366773D01*
X148769613Y-86358921D01*
X148748543Y-86348956D01*
X148728552Y-86336974D01*
X148709832Y-86323090D01*
X148692562Y-86307438D01*
X148676910Y-86290168D01*
X148663026Y-86271448D01*
X148651044Y-86251457D01*
X148641079Y-86230387D01*
X148633227Y-86208443D01*
X148627563Y-86185834D01*
X148624144Y-86162779D01*
X148623000Y-86139500D01*
X148623000Y-85564500D01*
X148624144Y-85541221D01*
X148627563Y-85518166D01*
X148633227Y-85495557D01*
X148641079Y-85473613D01*
X148651044Y-85452543D01*
X148663026Y-85432552D01*
X148676910Y-85413832D01*
X148692562Y-85396562D01*
X148709832Y-85380910D01*
X148728552Y-85367026D01*
X148748543Y-85355044D01*
X148769613Y-85345079D01*
X148791557Y-85337227D01*
X148814166Y-85331563D01*
X148837221Y-85328144D01*
X148860500Y-85327000D01*
X149335500Y-85327000D01*
X149358779Y-85328144D01*
X149358779Y-85328144D01*
G37*
D11*
X149098000Y-85852000D03*
G04 #@! TD*
D10*
G04 #@! TO.C,R21*
G36*
X140292779Y-74202144D02*
X140315834Y-74205563D01*
X140338443Y-74211227D01*
X140360387Y-74219079D01*
X140381457Y-74229044D01*
X140401448Y-74241026D01*
X140420168Y-74254910D01*
X140437438Y-74270562D01*
X140453090Y-74287832D01*
X140466974Y-74306552D01*
X140478956Y-74326543D01*
X140488921Y-74347613D01*
X140496773Y-74369557D01*
X140502437Y-74392166D01*
X140505856Y-74415221D01*
X140507000Y-74438500D01*
X140507000Y-74913500D01*
X140505856Y-74936779D01*
X140502437Y-74959834D01*
X140496773Y-74982443D01*
X140488921Y-75004387D01*
X140478956Y-75025457D01*
X140466974Y-75045448D01*
X140453090Y-75064168D01*
X140437438Y-75081438D01*
X140420168Y-75097090D01*
X140401448Y-75110974D01*
X140381457Y-75122956D01*
X140360387Y-75132921D01*
X140338443Y-75140773D01*
X140315834Y-75146437D01*
X140292779Y-75149856D01*
X140269500Y-75151000D01*
X139694500Y-75151000D01*
X139671221Y-75149856D01*
X139648166Y-75146437D01*
X139625557Y-75140773D01*
X139603613Y-75132921D01*
X139582543Y-75122956D01*
X139562552Y-75110974D01*
X139543832Y-75097090D01*
X139526562Y-75081438D01*
X139510910Y-75064168D01*
X139497026Y-75045448D01*
X139485044Y-75025457D01*
X139475079Y-75004387D01*
X139467227Y-74982443D01*
X139461563Y-74959834D01*
X139458144Y-74936779D01*
X139457000Y-74913500D01*
X139457000Y-74438500D01*
X139458144Y-74415221D01*
X139461563Y-74392166D01*
X139467227Y-74369557D01*
X139475079Y-74347613D01*
X139485044Y-74326543D01*
X139497026Y-74306552D01*
X139510910Y-74287832D01*
X139526562Y-74270562D01*
X139543832Y-74254910D01*
X139562552Y-74241026D01*
X139582543Y-74229044D01*
X139603613Y-74219079D01*
X139625557Y-74211227D01*
X139648166Y-74205563D01*
X139671221Y-74202144D01*
X139694500Y-74201000D01*
X140269500Y-74201000D01*
X140292779Y-74202144D01*
X140292779Y-74202144D01*
G37*
D11*
X139982000Y-74676000D03*
D10*
G36*
X142042779Y-74202144D02*
X142065834Y-74205563D01*
X142088443Y-74211227D01*
X142110387Y-74219079D01*
X142131457Y-74229044D01*
X142151448Y-74241026D01*
X142170168Y-74254910D01*
X142187438Y-74270562D01*
X142203090Y-74287832D01*
X142216974Y-74306552D01*
X142228956Y-74326543D01*
X142238921Y-74347613D01*
X142246773Y-74369557D01*
X142252437Y-74392166D01*
X142255856Y-74415221D01*
X142257000Y-74438500D01*
X142257000Y-74913500D01*
X142255856Y-74936779D01*
X142252437Y-74959834D01*
X142246773Y-74982443D01*
X142238921Y-75004387D01*
X142228956Y-75025457D01*
X142216974Y-75045448D01*
X142203090Y-75064168D01*
X142187438Y-75081438D01*
X142170168Y-75097090D01*
X142151448Y-75110974D01*
X142131457Y-75122956D01*
X142110387Y-75132921D01*
X142088443Y-75140773D01*
X142065834Y-75146437D01*
X142042779Y-75149856D01*
X142019500Y-75151000D01*
X141444500Y-75151000D01*
X141421221Y-75149856D01*
X141398166Y-75146437D01*
X141375557Y-75140773D01*
X141353613Y-75132921D01*
X141332543Y-75122956D01*
X141312552Y-75110974D01*
X141293832Y-75097090D01*
X141276562Y-75081438D01*
X141260910Y-75064168D01*
X141247026Y-75045448D01*
X141235044Y-75025457D01*
X141225079Y-75004387D01*
X141217227Y-74982443D01*
X141211563Y-74959834D01*
X141208144Y-74936779D01*
X141207000Y-74913500D01*
X141207000Y-74438500D01*
X141208144Y-74415221D01*
X141211563Y-74392166D01*
X141217227Y-74369557D01*
X141225079Y-74347613D01*
X141235044Y-74326543D01*
X141247026Y-74306552D01*
X141260910Y-74287832D01*
X141276562Y-74270562D01*
X141293832Y-74254910D01*
X141312552Y-74241026D01*
X141332543Y-74229044D01*
X141353613Y-74219079D01*
X141375557Y-74211227D01*
X141398166Y-74205563D01*
X141421221Y-74202144D01*
X141444500Y-74201000D01*
X142019500Y-74201000D01*
X142042779Y-74202144D01*
X142042779Y-74202144D01*
G37*
D11*
X141732000Y-74676000D03*
G04 #@! TD*
D10*
G04 #@! TO.C,R20*
G36*
X138436779Y-82537998D02*
X138459834Y-82541417D01*
X138482443Y-82547081D01*
X138504387Y-82554933D01*
X138525457Y-82564898D01*
X138545448Y-82576880D01*
X138564168Y-82590764D01*
X138581438Y-82606416D01*
X138597090Y-82623686D01*
X138610974Y-82642406D01*
X138622956Y-82662397D01*
X138632921Y-82683467D01*
X138640773Y-82705411D01*
X138646437Y-82728020D01*
X138649856Y-82751075D01*
X138651000Y-82774354D01*
X138651000Y-83349354D01*
X138649856Y-83372633D01*
X138646437Y-83395688D01*
X138640773Y-83418297D01*
X138632921Y-83440241D01*
X138622956Y-83461311D01*
X138610974Y-83481302D01*
X138597090Y-83500022D01*
X138581438Y-83517292D01*
X138564168Y-83532944D01*
X138545448Y-83546828D01*
X138525457Y-83558810D01*
X138504387Y-83568775D01*
X138482443Y-83576627D01*
X138459834Y-83582291D01*
X138436779Y-83585710D01*
X138413500Y-83586854D01*
X137938500Y-83586854D01*
X137915221Y-83585710D01*
X137892166Y-83582291D01*
X137869557Y-83576627D01*
X137847613Y-83568775D01*
X137826543Y-83558810D01*
X137806552Y-83546828D01*
X137787832Y-83532944D01*
X137770562Y-83517292D01*
X137754910Y-83500022D01*
X137741026Y-83481302D01*
X137729044Y-83461311D01*
X137719079Y-83440241D01*
X137711227Y-83418297D01*
X137705563Y-83395688D01*
X137702144Y-83372633D01*
X137701000Y-83349354D01*
X137701000Y-82774354D01*
X137702144Y-82751075D01*
X137705563Y-82728020D01*
X137711227Y-82705411D01*
X137719079Y-82683467D01*
X137729044Y-82662397D01*
X137741026Y-82642406D01*
X137754910Y-82623686D01*
X137770562Y-82606416D01*
X137787832Y-82590764D01*
X137806552Y-82576880D01*
X137826543Y-82564898D01*
X137847613Y-82554933D01*
X137869557Y-82547081D01*
X137892166Y-82541417D01*
X137915221Y-82537998D01*
X137938500Y-82536854D01*
X138413500Y-82536854D01*
X138436779Y-82537998D01*
X138436779Y-82537998D01*
G37*
D11*
X138176000Y-83061854D03*
D10*
G36*
X138436779Y-80787998D02*
X138459834Y-80791417D01*
X138482443Y-80797081D01*
X138504387Y-80804933D01*
X138525457Y-80814898D01*
X138545448Y-80826880D01*
X138564168Y-80840764D01*
X138581438Y-80856416D01*
X138597090Y-80873686D01*
X138610974Y-80892406D01*
X138622956Y-80912397D01*
X138632921Y-80933467D01*
X138640773Y-80955411D01*
X138646437Y-80978020D01*
X138649856Y-81001075D01*
X138651000Y-81024354D01*
X138651000Y-81599354D01*
X138649856Y-81622633D01*
X138646437Y-81645688D01*
X138640773Y-81668297D01*
X138632921Y-81690241D01*
X138622956Y-81711311D01*
X138610974Y-81731302D01*
X138597090Y-81750022D01*
X138581438Y-81767292D01*
X138564168Y-81782944D01*
X138545448Y-81796828D01*
X138525457Y-81808810D01*
X138504387Y-81818775D01*
X138482443Y-81826627D01*
X138459834Y-81832291D01*
X138436779Y-81835710D01*
X138413500Y-81836854D01*
X137938500Y-81836854D01*
X137915221Y-81835710D01*
X137892166Y-81832291D01*
X137869557Y-81826627D01*
X137847613Y-81818775D01*
X137826543Y-81808810D01*
X137806552Y-81796828D01*
X137787832Y-81782944D01*
X137770562Y-81767292D01*
X137754910Y-81750022D01*
X137741026Y-81731302D01*
X137729044Y-81711311D01*
X137719079Y-81690241D01*
X137711227Y-81668297D01*
X137705563Y-81645688D01*
X137702144Y-81622633D01*
X137701000Y-81599354D01*
X137701000Y-81024354D01*
X137702144Y-81001075D01*
X137705563Y-80978020D01*
X137711227Y-80955411D01*
X137719079Y-80933467D01*
X137729044Y-80912397D01*
X137741026Y-80892406D01*
X137754910Y-80873686D01*
X137770562Y-80856416D01*
X137787832Y-80840764D01*
X137806552Y-80826880D01*
X137826543Y-80814898D01*
X137847613Y-80804933D01*
X137869557Y-80797081D01*
X137892166Y-80791417D01*
X137915221Y-80787998D01*
X137938500Y-80786854D01*
X138413500Y-80786854D01*
X138436779Y-80787998D01*
X138436779Y-80787998D01*
G37*
D11*
X138176000Y-81311854D03*
G04 #@! TD*
D10*
G04 #@! TO.C,R19*
G36*
X140292779Y-75713718D02*
X140315834Y-75717137D01*
X140338443Y-75722801D01*
X140360387Y-75730653D01*
X140381457Y-75740618D01*
X140401448Y-75752600D01*
X140420168Y-75766484D01*
X140437438Y-75782136D01*
X140453090Y-75799406D01*
X140466974Y-75818126D01*
X140478956Y-75838117D01*
X140488921Y-75859187D01*
X140496773Y-75881131D01*
X140502437Y-75903740D01*
X140505856Y-75926795D01*
X140507000Y-75950074D01*
X140507000Y-76425074D01*
X140505856Y-76448353D01*
X140502437Y-76471408D01*
X140496773Y-76494017D01*
X140488921Y-76515961D01*
X140478956Y-76537031D01*
X140466974Y-76557022D01*
X140453090Y-76575742D01*
X140437438Y-76593012D01*
X140420168Y-76608664D01*
X140401448Y-76622548D01*
X140381457Y-76634530D01*
X140360387Y-76644495D01*
X140338443Y-76652347D01*
X140315834Y-76658011D01*
X140292779Y-76661430D01*
X140269500Y-76662574D01*
X139694500Y-76662574D01*
X139671221Y-76661430D01*
X139648166Y-76658011D01*
X139625557Y-76652347D01*
X139603613Y-76644495D01*
X139582543Y-76634530D01*
X139562552Y-76622548D01*
X139543832Y-76608664D01*
X139526562Y-76593012D01*
X139510910Y-76575742D01*
X139497026Y-76557022D01*
X139485044Y-76537031D01*
X139475079Y-76515961D01*
X139467227Y-76494017D01*
X139461563Y-76471408D01*
X139458144Y-76448353D01*
X139457000Y-76425074D01*
X139457000Y-75950074D01*
X139458144Y-75926795D01*
X139461563Y-75903740D01*
X139467227Y-75881131D01*
X139475079Y-75859187D01*
X139485044Y-75838117D01*
X139497026Y-75818126D01*
X139510910Y-75799406D01*
X139526562Y-75782136D01*
X139543832Y-75766484D01*
X139562552Y-75752600D01*
X139582543Y-75740618D01*
X139603613Y-75730653D01*
X139625557Y-75722801D01*
X139648166Y-75717137D01*
X139671221Y-75713718D01*
X139694500Y-75712574D01*
X140269500Y-75712574D01*
X140292779Y-75713718D01*
X140292779Y-75713718D01*
G37*
D11*
X139982000Y-76187574D03*
D10*
G36*
X142042779Y-75713718D02*
X142065834Y-75717137D01*
X142088443Y-75722801D01*
X142110387Y-75730653D01*
X142131457Y-75740618D01*
X142151448Y-75752600D01*
X142170168Y-75766484D01*
X142187438Y-75782136D01*
X142203090Y-75799406D01*
X142216974Y-75818126D01*
X142228956Y-75838117D01*
X142238921Y-75859187D01*
X142246773Y-75881131D01*
X142252437Y-75903740D01*
X142255856Y-75926795D01*
X142257000Y-75950074D01*
X142257000Y-76425074D01*
X142255856Y-76448353D01*
X142252437Y-76471408D01*
X142246773Y-76494017D01*
X142238921Y-76515961D01*
X142228956Y-76537031D01*
X142216974Y-76557022D01*
X142203090Y-76575742D01*
X142187438Y-76593012D01*
X142170168Y-76608664D01*
X142151448Y-76622548D01*
X142131457Y-76634530D01*
X142110387Y-76644495D01*
X142088443Y-76652347D01*
X142065834Y-76658011D01*
X142042779Y-76661430D01*
X142019500Y-76662574D01*
X141444500Y-76662574D01*
X141421221Y-76661430D01*
X141398166Y-76658011D01*
X141375557Y-76652347D01*
X141353613Y-76644495D01*
X141332543Y-76634530D01*
X141312552Y-76622548D01*
X141293832Y-76608664D01*
X141276562Y-76593012D01*
X141260910Y-76575742D01*
X141247026Y-76557022D01*
X141235044Y-76537031D01*
X141225079Y-76515961D01*
X141217227Y-76494017D01*
X141211563Y-76471408D01*
X141208144Y-76448353D01*
X141207000Y-76425074D01*
X141207000Y-75950074D01*
X141208144Y-75926795D01*
X141211563Y-75903740D01*
X141217227Y-75881131D01*
X141225079Y-75859187D01*
X141235044Y-75838117D01*
X141247026Y-75818126D01*
X141260910Y-75799406D01*
X141276562Y-75782136D01*
X141293832Y-75766484D01*
X141312552Y-75752600D01*
X141332543Y-75740618D01*
X141353613Y-75730653D01*
X141375557Y-75722801D01*
X141398166Y-75717137D01*
X141421221Y-75713718D01*
X141444500Y-75712574D01*
X142019500Y-75712574D01*
X142042779Y-75713718D01*
X142042779Y-75713718D01*
G37*
D11*
X141732000Y-76187574D03*
G04 #@! TD*
D10*
G04 #@! TO.C,R18*
G36*
X131600779Y-84870144D02*
X131623834Y-84873563D01*
X131646443Y-84879227D01*
X131668387Y-84887079D01*
X131689457Y-84897044D01*
X131709448Y-84909026D01*
X131728168Y-84922910D01*
X131745438Y-84938562D01*
X131761090Y-84955832D01*
X131774974Y-84974552D01*
X131786956Y-84994543D01*
X131796921Y-85015613D01*
X131804773Y-85037557D01*
X131810437Y-85060166D01*
X131813856Y-85083221D01*
X131815000Y-85106500D01*
X131815000Y-85581500D01*
X131813856Y-85604779D01*
X131810437Y-85627834D01*
X131804773Y-85650443D01*
X131796921Y-85672387D01*
X131786956Y-85693457D01*
X131774974Y-85713448D01*
X131761090Y-85732168D01*
X131745438Y-85749438D01*
X131728168Y-85765090D01*
X131709448Y-85778974D01*
X131689457Y-85790956D01*
X131668387Y-85800921D01*
X131646443Y-85808773D01*
X131623834Y-85814437D01*
X131600779Y-85817856D01*
X131577500Y-85819000D01*
X131002500Y-85819000D01*
X130979221Y-85817856D01*
X130956166Y-85814437D01*
X130933557Y-85808773D01*
X130911613Y-85800921D01*
X130890543Y-85790956D01*
X130870552Y-85778974D01*
X130851832Y-85765090D01*
X130834562Y-85749438D01*
X130818910Y-85732168D01*
X130805026Y-85713448D01*
X130793044Y-85693457D01*
X130783079Y-85672387D01*
X130775227Y-85650443D01*
X130769563Y-85627834D01*
X130766144Y-85604779D01*
X130765000Y-85581500D01*
X130765000Y-85106500D01*
X130766144Y-85083221D01*
X130769563Y-85060166D01*
X130775227Y-85037557D01*
X130783079Y-85015613D01*
X130793044Y-84994543D01*
X130805026Y-84974552D01*
X130818910Y-84955832D01*
X130834562Y-84938562D01*
X130851832Y-84922910D01*
X130870552Y-84909026D01*
X130890543Y-84897044D01*
X130911613Y-84887079D01*
X130933557Y-84879227D01*
X130956166Y-84873563D01*
X130979221Y-84870144D01*
X131002500Y-84869000D01*
X131577500Y-84869000D01*
X131600779Y-84870144D01*
X131600779Y-84870144D01*
G37*
D11*
X131290000Y-85344000D03*
D10*
G36*
X129850779Y-84870144D02*
X129873834Y-84873563D01*
X129896443Y-84879227D01*
X129918387Y-84887079D01*
X129939457Y-84897044D01*
X129959448Y-84909026D01*
X129978168Y-84922910D01*
X129995438Y-84938562D01*
X130011090Y-84955832D01*
X130024974Y-84974552D01*
X130036956Y-84994543D01*
X130046921Y-85015613D01*
X130054773Y-85037557D01*
X130060437Y-85060166D01*
X130063856Y-85083221D01*
X130065000Y-85106500D01*
X130065000Y-85581500D01*
X130063856Y-85604779D01*
X130060437Y-85627834D01*
X130054773Y-85650443D01*
X130046921Y-85672387D01*
X130036956Y-85693457D01*
X130024974Y-85713448D01*
X130011090Y-85732168D01*
X129995438Y-85749438D01*
X129978168Y-85765090D01*
X129959448Y-85778974D01*
X129939457Y-85790956D01*
X129918387Y-85800921D01*
X129896443Y-85808773D01*
X129873834Y-85814437D01*
X129850779Y-85817856D01*
X129827500Y-85819000D01*
X129252500Y-85819000D01*
X129229221Y-85817856D01*
X129206166Y-85814437D01*
X129183557Y-85808773D01*
X129161613Y-85800921D01*
X129140543Y-85790956D01*
X129120552Y-85778974D01*
X129101832Y-85765090D01*
X129084562Y-85749438D01*
X129068910Y-85732168D01*
X129055026Y-85713448D01*
X129043044Y-85693457D01*
X129033079Y-85672387D01*
X129025227Y-85650443D01*
X129019563Y-85627834D01*
X129016144Y-85604779D01*
X129015000Y-85581500D01*
X129015000Y-85106500D01*
X129016144Y-85083221D01*
X129019563Y-85060166D01*
X129025227Y-85037557D01*
X129033079Y-85015613D01*
X129043044Y-84994543D01*
X129055026Y-84974552D01*
X129068910Y-84955832D01*
X129084562Y-84938562D01*
X129101832Y-84922910D01*
X129120552Y-84909026D01*
X129140543Y-84897044D01*
X129161613Y-84887079D01*
X129183557Y-84879227D01*
X129206166Y-84873563D01*
X129229221Y-84870144D01*
X129252500Y-84869000D01*
X129827500Y-84869000D01*
X129850779Y-84870144D01*
X129850779Y-84870144D01*
G37*
D11*
X129540000Y-85344000D03*
G04 #@! TD*
D10*
G04 #@! TO.C,R17*
G36*
X142268779Y-93506144D02*
X142291834Y-93509563D01*
X142314443Y-93515227D01*
X142336387Y-93523079D01*
X142357457Y-93533044D01*
X142377448Y-93545026D01*
X142396168Y-93558910D01*
X142413438Y-93574562D01*
X142429090Y-93591832D01*
X142442974Y-93610552D01*
X142454956Y-93630543D01*
X142464921Y-93651613D01*
X142472773Y-93673557D01*
X142478437Y-93696166D01*
X142481856Y-93719221D01*
X142483000Y-93742500D01*
X142483000Y-94217500D01*
X142481856Y-94240779D01*
X142478437Y-94263834D01*
X142472773Y-94286443D01*
X142464921Y-94308387D01*
X142454956Y-94329457D01*
X142442974Y-94349448D01*
X142429090Y-94368168D01*
X142413438Y-94385438D01*
X142396168Y-94401090D01*
X142377448Y-94414974D01*
X142357457Y-94426956D01*
X142336387Y-94436921D01*
X142314443Y-94444773D01*
X142291834Y-94450437D01*
X142268779Y-94453856D01*
X142245500Y-94455000D01*
X141670500Y-94455000D01*
X141647221Y-94453856D01*
X141624166Y-94450437D01*
X141601557Y-94444773D01*
X141579613Y-94436921D01*
X141558543Y-94426956D01*
X141538552Y-94414974D01*
X141519832Y-94401090D01*
X141502562Y-94385438D01*
X141486910Y-94368168D01*
X141473026Y-94349448D01*
X141461044Y-94329457D01*
X141451079Y-94308387D01*
X141443227Y-94286443D01*
X141437563Y-94263834D01*
X141434144Y-94240779D01*
X141433000Y-94217500D01*
X141433000Y-93742500D01*
X141434144Y-93719221D01*
X141437563Y-93696166D01*
X141443227Y-93673557D01*
X141451079Y-93651613D01*
X141461044Y-93630543D01*
X141473026Y-93610552D01*
X141486910Y-93591832D01*
X141502562Y-93574562D01*
X141519832Y-93558910D01*
X141538552Y-93545026D01*
X141558543Y-93533044D01*
X141579613Y-93523079D01*
X141601557Y-93515227D01*
X141624166Y-93509563D01*
X141647221Y-93506144D01*
X141670500Y-93505000D01*
X142245500Y-93505000D01*
X142268779Y-93506144D01*
X142268779Y-93506144D01*
G37*
D11*
X141958000Y-93980000D03*
D10*
G36*
X140518779Y-93506144D02*
X140541834Y-93509563D01*
X140564443Y-93515227D01*
X140586387Y-93523079D01*
X140607457Y-93533044D01*
X140627448Y-93545026D01*
X140646168Y-93558910D01*
X140663438Y-93574562D01*
X140679090Y-93591832D01*
X140692974Y-93610552D01*
X140704956Y-93630543D01*
X140714921Y-93651613D01*
X140722773Y-93673557D01*
X140728437Y-93696166D01*
X140731856Y-93719221D01*
X140733000Y-93742500D01*
X140733000Y-94217500D01*
X140731856Y-94240779D01*
X140728437Y-94263834D01*
X140722773Y-94286443D01*
X140714921Y-94308387D01*
X140704956Y-94329457D01*
X140692974Y-94349448D01*
X140679090Y-94368168D01*
X140663438Y-94385438D01*
X140646168Y-94401090D01*
X140627448Y-94414974D01*
X140607457Y-94426956D01*
X140586387Y-94436921D01*
X140564443Y-94444773D01*
X140541834Y-94450437D01*
X140518779Y-94453856D01*
X140495500Y-94455000D01*
X139920500Y-94455000D01*
X139897221Y-94453856D01*
X139874166Y-94450437D01*
X139851557Y-94444773D01*
X139829613Y-94436921D01*
X139808543Y-94426956D01*
X139788552Y-94414974D01*
X139769832Y-94401090D01*
X139752562Y-94385438D01*
X139736910Y-94368168D01*
X139723026Y-94349448D01*
X139711044Y-94329457D01*
X139701079Y-94308387D01*
X139693227Y-94286443D01*
X139687563Y-94263834D01*
X139684144Y-94240779D01*
X139683000Y-94217500D01*
X139683000Y-93742500D01*
X139684144Y-93719221D01*
X139687563Y-93696166D01*
X139693227Y-93673557D01*
X139701079Y-93651613D01*
X139711044Y-93630543D01*
X139723026Y-93610552D01*
X139736910Y-93591832D01*
X139752562Y-93574562D01*
X139769832Y-93558910D01*
X139788552Y-93545026D01*
X139808543Y-93533044D01*
X139829613Y-93523079D01*
X139851557Y-93515227D01*
X139874166Y-93509563D01*
X139897221Y-93506144D01*
X139920500Y-93505000D01*
X140495500Y-93505000D01*
X140518779Y-93506144D01*
X140518779Y-93506144D01*
G37*
D11*
X140208000Y-93980000D03*
G04 #@! TD*
D10*
G04 #@! TO.C,R27*
G36*
X147834779Y-79514144D02*
X147857834Y-79517563D01*
X147880443Y-79523227D01*
X147902387Y-79531079D01*
X147923457Y-79541044D01*
X147943448Y-79553026D01*
X147962168Y-79566910D01*
X147979438Y-79582562D01*
X147995090Y-79599832D01*
X148008974Y-79618552D01*
X148020956Y-79638543D01*
X148030921Y-79659613D01*
X148038773Y-79681557D01*
X148044437Y-79704166D01*
X148047856Y-79727221D01*
X148049000Y-79750500D01*
X148049000Y-80325500D01*
X148047856Y-80348779D01*
X148044437Y-80371834D01*
X148038773Y-80394443D01*
X148030921Y-80416387D01*
X148020956Y-80437457D01*
X148008974Y-80457448D01*
X147995090Y-80476168D01*
X147979438Y-80493438D01*
X147962168Y-80509090D01*
X147943448Y-80522974D01*
X147923457Y-80534956D01*
X147902387Y-80544921D01*
X147880443Y-80552773D01*
X147857834Y-80558437D01*
X147834779Y-80561856D01*
X147811500Y-80563000D01*
X147336500Y-80563000D01*
X147313221Y-80561856D01*
X147290166Y-80558437D01*
X147267557Y-80552773D01*
X147245613Y-80544921D01*
X147224543Y-80534956D01*
X147204552Y-80522974D01*
X147185832Y-80509090D01*
X147168562Y-80493438D01*
X147152910Y-80476168D01*
X147139026Y-80457448D01*
X147127044Y-80437457D01*
X147117079Y-80416387D01*
X147109227Y-80394443D01*
X147103563Y-80371834D01*
X147100144Y-80348779D01*
X147099000Y-80325500D01*
X147099000Y-79750500D01*
X147100144Y-79727221D01*
X147103563Y-79704166D01*
X147109227Y-79681557D01*
X147117079Y-79659613D01*
X147127044Y-79638543D01*
X147139026Y-79618552D01*
X147152910Y-79599832D01*
X147168562Y-79582562D01*
X147185832Y-79566910D01*
X147204552Y-79553026D01*
X147224543Y-79541044D01*
X147245613Y-79531079D01*
X147267557Y-79523227D01*
X147290166Y-79517563D01*
X147313221Y-79514144D01*
X147336500Y-79513000D01*
X147811500Y-79513000D01*
X147834779Y-79514144D01*
X147834779Y-79514144D01*
G37*
D11*
X147574000Y-80038000D03*
D10*
G36*
X147834779Y-81264144D02*
X147857834Y-81267563D01*
X147880443Y-81273227D01*
X147902387Y-81281079D01*
X147923457Y-81291044D01*
X147943448Y-81303026D01*
X147962168Y-81316910D01*
X147979438Y-81332562D01*
X147995090Y-81349832D01*
X148008974Y-81368552D01*
X148020956Y-81388543D01*
X148030921Y-81409613D01*
X148038773Y-81431557D01*
X148044437Y-81454166D01*
X148047856Y-81477221D01*
X148049000Y-81500500D01*
X148049000Y-82075500D01*
X148047856Y-82098779D01*
X148044437Y-82121834D01*
X148038773Y-82144443D01*
X148030921Y-82166387D01*
X148020956Y-82187457D01*
X148008974Y-82207448D01*
X147995090Y-82226168D01*
X147979438Y-82243438D01*
X147962168Y-82259090D01*
X147943448Y-82272974D01*
X147923457Y-82284956D01*
X147902387Y-82294921D01*
X147880443Y-82302773D01*
X147857834Y-82308437D01*
X147834779Y-82311856D01*
X147811500Y-82313000D01*
X147336500Y-82313000D01*
X147313221Y-82311856D01*
X147290166Y-82308437D01*
X147267557Y-82302773D01*
X147245613Y-82294921D01*
X147224543Y-82284956D01*
X147204552Y-82272974D01*
X147185832Y-82259090D01*
X147168562Y-82243438D01*
X147152910Y-82226168D01*
X147139026Y-82207448D01*
X147127044Y-82187457D01*
X147117079Y-82166387D01*
X147109227Y-82144443D01*
X147103563Y-82121834D01*
X147100144Y-82098779D01*
X147099000Y-82075500D01*
X147099000Y-81500500D01*
X147100144Y-81477221D01*
X147103563Y-81454166D01*
X147109227Y-81431557D01*
X147117079Y-81409613D01*
X147127044Y-81388543D01*
X147139026Y-81368552D01*
X147152910Y-81349832D01*
X147168562Y-81332562D01*
X147185832Y-81316910D01*
X147204552Y-81303026D01*
X147224543Y-81291044D01*
X147245613Y-81281079D01*
X147267557Y-81273227D01*
X147290166Y-81267563D01*
X147313221Y-81264144D01*
X147336500Y-81263000D01*
X147811500Y-81263000D01*
X147834779Y-81264144D01*
X147834779Y-81264144D01*
G37*
D11*
X147574000Y-81788000D03*
G04 #@! TD*
D10*
G04 #@! TO.C,R16*
G36*
X140518779Y-88426144D02*
X140541834Y-88429563D01*
X140564443Y-88435227D01*
X140586387Y-88443079D01*
X140607457Y-88453044D01*
X140627448Y-88465026D01*
X140646168Y-88478910D01*
X140663438Y-88494562D01*
X140679090Y-88511832D01*
X140692974Y-88530552D01*
X140704956Y-88550543D01*
X140714921Y-88571613D01*
X140722773Y-88593557D01*
X140728437Y-88616166D01*
X140731856Y-88639221D01*
X140733000Y-88662500D01*
X140733000Y-89137500D01*
X140731856Y-89160779D01*
X140728437Y-89183834D01*
X140722773Y-89206443D01*
X140714921Y-89228387D01*
X140704956Y-89249457D01*
X140692974Y-89269448D01*
X140679090Y-89288168D01*
X140663438Y-89305438D01*
X140646168Y-89321090D01*
X140627448Y-89334974D01*
X140607457Y-89346956D01*
X140586387Y-89356921D01*
X140564443Y-89364773D01*
X140541834Y-89370437D01*
X140518779Y-89373856D01*
X140495500Y-89375000D01*
X139920500Y-89375000D01*
X139897221Y-89373856D01*
X139874166Y-89370437D01*
X139851557Y-89364773D01*
X139829613Y-89356921D01*
X139808543Y-89346956D01*
X139788552Y-89334974D01*
X139769832Y-89321090D01*
X139752562Y-89305438D01*
X139736910Y-89288168D01*
X139723026Y-89269448D01*
X139711044Y-89249457D01*
X139701079Y-89228387D01*
X139693227Y-89206443D01*
X139687563Y-89183834D01*
X139684144Y-89160779D01*
X139683000Y-89137500D01*
X139683000Y-88662500D01*
X139684144Y-88639221D01*
X139687563Y-88616166D01*
X139693227Y-88593557D01*
X139701079Y-88571613D01*
X139711044Y-88550543D01*
X139723026Y-88530552D01*
X139736910Y-88511832D01*
X139752562Y-88494562D01*
X139769832Y-88478910D01*
X139788552Y-88465026D01*
X139808543Y-88453044D01*
X139829613Y-88443079D01*
X139851557Y-88435227D01*
X139874166Y-88429563D01*
X139897221Y-88426144D01*
X139920500Y-88425000D01*
X140495500Y-88425000D01*
X140518779Y-88426144D01*
X140518779Y-88426144D01*
G37*
D11*
X140208000Y-88900000D03*
D10*
G36*
X142268779Y-88426144D02*
X142291834Y-88429563D01*
X142314443Y-88435227D01*
X142336387Y-88443079D01*
X142357457Y-88453044D01*
X142377448Y-88465026D01*
X142396168Y-88478910D01*
X142413438Y-88494562D01*
X142429090Y-88511832D01*
X142442974Y-88530552D01*
X142454956Y-88550543D01*
X142464921Y-88571613D01*
X142472773Y-88593557D01*
X142478437Y-88616166D01*
X142481856Y-88639221D01*
X142483000Y-88662500D01*
X142483000Y-89137500D01*
X142481856Y-89160779D01*
X142478437Y-89183834D01*
X142472773Y-89206443D01*
X142464921Y-89228387D01*
X142454956Y-89249457D01*
X142442974Y-89269448D01*
X142429090Y-89288168D01*
X142413438Y-89305438D01*
X142396168Y-89321090D01*
X142377448Y-89334974D01*
X142357457Y-89346956D01*
X142336387Y-89356921D01*
X142314443Y-89364773D01*
X142291834Y-89370437D01*
X142268779Y-89373856D01*
X142245500Y-89375000D01*
X141670500Y-89375000D01*
X141647221Y-89373856D01*
X141624166Y-89370437D01*
X141601557Y-89364773D01*
X141579613Y-89356921D01*
X141558543Y-89346956D01*
X141538552Y-89334974D01*
X141519832Y-89321090D01*
X141502562Y-89305438D01*
X141486910Y-89288168D01*
X141473026Y-89269448D01*
X141461044Y-89249457D01*
X141451079Y-89228387D01*
X141443227Y-89206443D01*
X141437563Y-89183834D01*
X141434144Y-89160779D01*
X141433000Y-89137500D01*
X141433000Y-88662500D01*
X141434144Y-88639221D01*
X141437563Y-88616166D01*
X141443227Y-88593557D01*
X141451079Y-88571613D01*
X141461044Y-88550543D01*
X141473026Y-88530552D01*
X141486910Y-88511832D01*
X141502562Y-88494562D01*
X141519832Y-88478910D01*
X141538552Y-88465026D01*
X141558543Y-88453044D01*
X141579613Y-88443079D01*
X141601557Y-88435227D01*
X141624166Y-88429563D01*
X141647221Y-88426144D01*
X141670500Y-88425000D01*
X142245500Y-88425000D01*
X142268779Y-88426144D01*
X142268779Y-88426144D01*
G37*
D11*
X141958000Y-88900000D03*
G04 #@! TD*
M02*
