G04 #@! TF.GenerationSoftware,KiCad,Pcbnew,5.0.2-bee76a0~70~ubuntu18.04.1*
G04 #@! TF.CreationDate,2019-04-23T19:40:41+10:00*
G04 #@! TF.ProjectId,minimoog,6d696e69-6d6f-46f6-972e-6b696361645f,rev?*
G04 #@! TF.SameCoordinates,Original*
G04 #@! TF.FileFunction,Legend,Bot*
G04 #@! TF.FilePolarity,Positive*
%FSLAX46Y46*%
G04 Gerber Fmt 4.6, Leading zero omitted, Abs format (unit mm)*
G04 Created by KiCad (PCBNEW 5.0.2-bee76a0~70~ubuntu18.04.1) date Tue 23 Apr 2019 19:40:41 AEST*
%MOMM*%
%LPD*%
G01*
G04 APERTURE LIST*
%ADD10C,0.120000*%
%ADD11C,0.150000*%
G04 APERTURE END LIST*
D10*
G04 #@! TO.C,R28*
X146560000Y-86555733D02*
X146560000Y-86898267D01*
X145540000Y-86555733D02*
X145540000Y-86898267D01*
G04 #@! TO.C,C2*
X140911733Y-86358000D02*
X141254267Y-86358000D01*
X140911733Y-87378000D02*
X141254267Y-87378000D01*
G04 #@! TO.C,C9*
X141984000Y-120859733D02*
X141984000Y-121202267D01*
X143004000Y-120859733D02*
X143004000Y-121202267D01*
G04 #@! TO.C,R23*
X146560000Y-80741733D02*
X146560000Y-81084267D01*
X145540000Y-80741733D02*
X145540000Y-81084267D01*
G04 #@! TO.C,R11*
X152712267Y-55878000D02*
X152369733Y-55878000D01*
X152712267Y-56898000D02*
X152369733Y-56898000D01*
G04 #@! TO.C,R12*
X146616267Y-56898000D02*
X146273733Y-56898000D01*
X146616267Y-55878000D02*
X146273733Y-55878000D01*
G04 #@! TO.C,R13*
X140520267Y-55878000D02*
X140177733Y-55878000D01*
X140520267Y-56898000D02*
X140177733Y-56898000D01*
G04 #@! TO.C,R14*
X134424267Y-56898000D02*
X134081733Y-56898000D01*
X134424267Y-55878000D02*
X134081733Y-55878000D01*
G04 #@! TO.C,R15*
X140685733Y-77201574D02*
X141028267Y-77201574D01*
X140685733Y-78221574D02*
X141028267Y-78221574D01*
G04 #@! TO.C,R26*
X148588000Y-80741733D02*
X148588000Y-81084267D01*
X149608000Y-80741733D02*
X149608000Y-81084267D01*
G04 #@! TO.C,R25*
X148084000Y-86555733D02*
X148084000Y-86898267D01*
X147064000Y-86555733D02*
X147064000Y-86898267D01*
G04 #@! TO.C,R24*
X149608000Y-86555733D02*
X149608000Y-86898267D01*
X148588000Y-86555733D02*
X148588000Y-86898267D01*
G04 #@! TO.C,R21*
X140685733Y-75186000D02*
X141028267Y-75186000D01*
X140685733Y-74166000D02*
X141028267Y-74166000D01*
G04 #@! TO.C,R20*
X138686000Y-82015587D02*
X138686000Y-82358121D01*
X137666000Y-82015587D02*
X137666000Y-82358121D01*
G04 #@! TO.C,R19*
X140685733Y-76697574D02*
X141028267Y-76697574D01*
X140685733Y-75677574D02*
X141028267Y-75677574D01*
G04 #@! TO.C,R18*
X130243733Y-84834000D02*
X130586267Y-84834000D01*
X130243733Y-85854000D02*
X130586267Y-85854000D01*
G04 #@! TO.C,R17*
X141254267Y-93470000D02*
X140911733Y-93470000D01*
X141254267Y-94490000D02*
X140911733Y-94490000D01*
G04 #@! TO.C,R27*
X147064000Y-81084267D02*
X147064000Y-80741733D01*
X148084000Y-81084267D02*
X148084000Y-80741733D01*
G04 #@! TO.C,R16*
X140911733Y-89410000D02*
X141254267Y-89410000D01*
X140911733Y-88390000D02*
X141254267Y-88390000D01*
D11*
G04 #@! TO.C,J3*
X154360000Y-123008000D02*
X145360000Y-123008000D01*
X154360000Y-133908000D02*
X145360000Y-133908000D01*
X154360000Y-123008000D02*
X154360000Y-133908000D01*
X145360000Y-123008000D02*
X145360000Y-133908000D01*
X151660000Y-129208000D02*
G75*
G03X151660000Y-129208000I-1800000J0D01*
G01*
X149860000Y-127408000D02*
X149860000Y-131008000D01*
X151660000Y-129208000D02*
X148060000Y-129208000D01*
G04 #@! TO.C,J7*
X131340000Y-129208000D02*
X127740000Y-129208000D01*
X129540000Y-127408000D02*
X129540000Y-131008000D01*
X131340000Y-129208000D02*
G75*
G03X131340000Y-129208000I-1800000J0D01*
G01*
X125040000Y-123008000D02*
X125040000Y-133908000D01*
X134040000Y-123008000D02*
X134040000Y-133908000D01*
X134040000Y-133908000D02*
X125040000Y-133908000D01*
X134040000Y-123008000D02*
X125040000Y-123008000D01*
G04 #@! TO.C,J1*
X154360000Y-108276000D02*
X145360000Y-108276000D01*
X154360000Y-119176000D02*
X145360000Y-119176000D01*
X154360000Y-108276000D02*
X154360000Y-119176000D01*
X145360000Y-108276000D02*
X145360000Y-119176000D01*
X151660000Y-114476000D02*
G75*
G03X151660000Y-114476000I-1800000J0D01*
G01*
X149860000Y-112676000D02*
X149860000Y-116276000D01*
X151660000Y-114476000D02*
X148060000Y-114476000D01*
G04 #@! TO.C,J4*
X141500000Y-129208000D02*
X137900000Y-129208000D01*
X139700000Y-127408000D02*
X139700000Y-131008000D01*
X141500000Y-129208000D02*
G75*
G03X141500000Y-129208000I-1800000J0D01*
G01*
X135200000Y-123008000D02*
X135200000Y-133908000D01*
X144200000Y-123008000D02*
X144200000Y-133908000D01*
X144200000Y-133908000D02*
X135200000Y-133908000D01*
X144200000Y-123008000D02*
X135200000Y-123008000D01*
G04 #@! TO.C,J2*
X144200000Y-108276000D02*
X135200000Y-108276000D01*
X144200000Y-119176000D02*
X135200000Y-119176000D01*
X144200000Y-108276000D02*
X144200000Y-119176000D01*
X135200000Y-108276000D02*
X135200000Y-119176000D01*
X141500000Y-114476000D02*
G75*
G03X141500000Y-114476000I-1800000J0D01*
G01*
X139700000Y-112676000D02*
X139700000Y-116276000D01*
X141500000Y-114476000D02*
X137900000Y-114476000D01*
D10*
G04 #@! TO.C,RV4*
X153297000Y-90572000D02*
X143376000Y-90572000D01*
X145011000Y-102692000D02*
X143376000Y-102692000D01*
X147511000Y-102692000D02*
X146661000Y-102692000D01*
X150011000Y-102692000D02*
X149161000Y-102692000D01*
X153297000Y-102692000D02*
X151661000Y-102692000D01*
X143376000Y-94437000D02*
X143376000Y-90572000D01*
X143376000Y-102692000D02*
X143376000Y-98826000D01*
X153297000Y-94437000D02*
X153297000Y-90572000D01*
X153297000Y-102692000D02*
X153297000Y-98826000D01*
X146038247Y-98060295D02*
G75*
G03X150634000Y-98060000I2297753J1928295D01*
G01*
X151098432Y-94960018D02*
G75*
G03X145574000Y-94959000I-2762432J-1171982D01*
G01*
G04 #@! TO.C,RV2*
X136025000Y-90572000D02*
X126104000Y-90572000D01*
X127739000Y-102692000D02*
X126104000Y-102692000D01*
X130239000Y-102692000D02*
X129389000Y-102692000D01*
X132739000Y-102692000D02*
X131889000Y-102692000D01*
X136025000Y-102692000D02*
X134389000Y-102692000D01*
X126104000Y-94437000D02*
X126104000Y-90572000D01*
X126104000Y-102692000D02*
X126104000Y-98826000D01*
X136025000Y-94437000D02*
X136025000Y-90572000D01*
X136025000Y-102692000D02*
X136025000Y-98826000D01*
X128766247Y-98060295D02*
G75*
G03X133362000Y-98060000I2297753J1928295D01*
G01*
X133826432Y-94960018D02*
G75*
G03X128302000Y-94959000I-2762432J-1171982D01*
G01*
G04 #@! TO.C,RV3*
X153297000Y-61616000D02*
X143376000Y-61616000D01*
X145011000Y-73736000D02*
X143376000Y-73736000D01*
X147511000Y-73736000D02*
X146661000Y-73736000D01*
X150011000Y-73736000D02*
X149161000Y-73736000D01*
X153297000Y-73736000D02*
X151661000Y-73736000D01*
X143376000Y-65481000D02*
X143376000Y-61616000D01*
X143376000Y-73736000D02*
X143376000Y-69870000D01*
X153297000Y-65481000D02*
X153297000Y-61616000D01*
X153297000Y-73736000D02*
X153297000Y-69870000D01*
X146038247Y-69104295D02*
G75*
G03X150634000Y-69104000I2297753J1928295D01*
G01*
X151098432Y-66004018D02*
G75*
G03X145574000Y-66003000I-2762432J-1171982D01*
G01*
G04 #@! TO.C,RV1*
X144661000Y-38756000D02*
X134740000Y-38756000D01*
X136375000Y-50876000D02*
X134740000Y-50876000D01*
X138875000Y-50876000D02*
X138025000Y-50876000D01*
X141375000Y-50876000D02*
X140525000Y-50876000D01*
X144661000Y-50876000D02*
X143025000Y-50876000D01*
X134740000Y-42621000D02*
X134740000Y-38756000D01*
X134740000Y-50876000D02*
X134740000Y-47010000D01*
X144661000Y-42621000D02*
X144661000Y-38756000D01*
X144661000Y-50876000D02*
X144661000Y-47010000D01*
X137402247Y-46244295D02*
G75*
G03X141998000Y-46244000I2297753J1928295D01*
G01*
X142462432Y-43144018D02*
G75*
G03X136938000Y-43143000I-2762432J-1171982D01*
G01*
G04 #@! TO.C,RV8*
X135985000Y-61616000D02*
X126064000Y-61616000D01*
X127699000Y-73736000D02*
X126064000Y-73736000D01*
X130199000Y-73736000D02*
X129349000Y-73736000D01*
X132699000Y-73736000D02*
X131849000Y-73736000D01*
X135985000Y-73736000D02*
X134349000Y-73736000D01*
X126064000Y-65481000D02*
X126064000Y-61616000D01*
X126064000Y-73736000D02*
X126064000Y-69870000D01*
X135985000Y-65481000D02*
X135985000Y-61616000D01*
X135985000Y-73736000D02*
X135985000Y-69870000D01*
X128726247Y-69104295D02*
G75*
G03X133322000Y-69104000I2297753J1928295D01*
G01*
X133786432Y-66004018D02*
G75*
G03X128262000Y-66003000I-2762432J-1171982D01*
G01*
G04 #@! TO.C,R28*
D11*
X144660857Y-87320380D02*
X144994190Y-86844190D01*
X145232285Y-87320380D02*
X145232285Y-86320380D01*
X144851333Y-86320380D01*
X144756095Y-86368000D01*
X144708476Y-86415619D01*
X144660857Y-86510857D01*
X144660857Y-86653714D01*
X144708476Y-86748952D01*
X144756095Y-86796571D01*
X144851333Y-86844190D01*
X145232285Y-86844190D01*
X144279904Y-86415619D02*
X144232285Y-86368000D01*
X144137047Y-86320380D01*
X143898952Y-86320380D01*
X143803714Y-86368000D01*
X143756095Y-86415619D01*
X143708476Y-86510857D01*
X143708476Y-86606095D01*
X143756095Y-86748952D01*
X144327523Y-87320380D01*
X143708476Y-87320380D01*
X143137047Y-86748952D02*
X143232285Y-86701333D01*
X143279904Y-86653714D01*
X143327523Y-86558476D01*
X143327523Y-86510857D01*
X143279904Y-86415619D01*
X143232285Y-86368000D01*
X143137047Y-86320380D01*
X142946571Y-86320380D01*
X142851333Y-86368000D01*
X142803714Y-86415619D01*
X142756095Y-86510857D01*
X142756095Y-86558476D01*
X142803714Y-86653714D01*
X142851333Y-86701333D01*
X142946571Y-86748952D01*
X143137047Y-86748952D01*
X143232285Y-86796571D01*
X143279904Y-86844190D01*
X143327523Y-86939428D01*
X143327523Y-87129904D01*
X143279904Y-87225142D01*
X143232285Y-87272761D01*
X143137047Y-87320380D01*
X142946571Y-87320380D01*
X142851333Y-87272761D01*
X142803714Y-87225142D01*
X142756095Y-87129904D01*
X142756095Y-86939428D01*
X142803714Y-86844190D01*
X142851333Y-86796571D01*
X142946571Y-86748952D01*
G04 #@! TO.C,C2*
X141390666Y-85701142D02*
X141438285Y-85748761D01*
X141581142Y-85796380D01*
X141676380Y-85796380D01*
X141819238Y-85748761D01*
X141914476Y-85653523D01*
X141962095Y-85558285D01*
X142009714Y-85367809D01*
X142009714Y-85224952D01*
X141962095Y-85034476D01*
X141914476Y-84939238D01*
X141819238Y-84844000D01*
X141676380Y-84796380D01*
X141581142Y-84796380D01*
X141438285Y-84844000D01*
X141390666Y-84891619D01*
X141009714Y-84891619D02*
X140962095Y-84844000D01*
X140866857Y-84796380D01*
X140628761Y-84796380D01*
X140533523Y-84844000D01*
X140485904Y-84891619D01*
X140438285Y-84986857D01*
X140438285Y-85082095D01*
X140485904Y-85224952D01*
X141057333Y-85796380D01*
X140438285Y-85796380D01*
G04 #@! TO.C,C9*
X144184666Y-121529142D02*
X144232285Y-121576761D01*
X144375142Y-121624380D01*
X144470380Y-121624380D01*
X144613238Y-121576761D01*
X144708476Y-121481523D01*
X144756095Y-121386285D01*
X144803714Y-121195809D01*
X144803714Y-121052952D01*
X144756095Y-120862476D01*
X144708476Y-120767238D01*
X144613238Y-120672000D01*
X144470380Y-120624380D01*
X144375142Y-120624380D01*
X144232285Y-120672000D01*
X144184666Y-120719619D01*
X143708476Y-121624380D02*
X143518000Y-121624380D01*
X143422761Y-121576761D01*
X143375142Y-121529142D01*
X143279904Y-121386285D01*
X143232285Y-121195809D01*
X143232285Y-120814857D01*
X143279904Y-120719619D01*
X143327523Y-120672000D01*
X143422761Y-120624380D01*
X143613238Y-120624380D01*
X143708476Y-120672000D01*
X143756095Y-120719619D01*
X143803714Y-120814857D01*
X143803714Y-121052952D01*
X143756095Y-121148190D01*
X143708476Y-121195809D01*
X143613238Y-121243428D01*
X143422761Y-121243428D01*
X143327523Y-121195809D01*
X143279904Y-121148190D01*
X143232285Y-121052952D01*
G04 #@! TO.C,R23*
X144660857Y-81224380D02*
X144994190Y-80748190D01*
X145232285Y-81224380D02*
X145232285Y-80224380D01*
X144851333Y-80224380D01*
X144756095Y-80272000D01*
X144708476Y-80319619D01*
X144660857Y-80414857D01*
X144660857Y-80557714D01*
X144708476Y-80652952D01*
X144756095Y-80700571D01*
X144851333Y-80748190D01*
X145232285Y-80748190D01*
X144279904Y-80319619D02*
X144232285Y-80272000D01*
X144137047Y-80224380D01*
X143898952Y-80224380D01*
X143803714Y-80272000D01*
X143756095Y-80319619D01*
X143708476Y-80414857D01*
X143708476Y-80510095D01*
X143756095Y-80652952D01*
X144327523Y-81224380D01*
X143708476Y-81224380D01*
X143375142Y-80224380D02*
X142756095Y-80224380D01*
X143089428Y-80605333D01*
X142946571Y-80605333D01*
X142851333Y-80652952D01*
X142803714Y-80700571D01*
X142756095Y-80795809D01*
X142756095Y-81033904D01*
X142803714Y-81129142D01*
X142851333Y-81176761D01*
X142946571Y-81224380D01*
X143232285Y-81224380D01*
X143327523Y-81176761D01*
X143375142Y-81129142D01*
G04 #@! TO.C,R11*
X153134380Y-57777142D02*
X152658190Y-57443809D01*
X153134380Y-57205714D02*
X152134380Y-57205714D01*
X152134380Y-57586666D01*
X152182000Y-57681904D01*
X152229619Y-57729523D01*
X152324857Y-57777142D01*
X152467714Y-57777142D01*
X152562952Y-57729523D01*
X152610571Y-57681904D01*
X152658190Y-57586666D01*
X152658190Y-57205714D01*
X153134380Y-58729523D02*
X153134380Y-58158095D01*
X153134380Y-58443809D02*
X152134380Y-58443809D01*
X152277238Y-58348571D01*
X152372476Y-58253333D01*
X152420095Y-58158095D01*
X153134380Y-59681904D02*
X153134380Y-59110476D01*
X153134380Y-59396190D02*
X152134380Y-59396190D01*
X152277238Y-59300952D01*
X152372476Y-59205714D01*
X152420095Y-59110476D01*
G04 #@! TO.C,R12*
X147038380Y-57777142D02*
X146562190Y-57443809D01*
X147038380Y-57205714D02*
X146038380Y-57205714D01*
X146038380Y-57586666D01*
X146086000Y-57681904D01*
X146133619Y-57729523D01*
X146228857Y-57777142D01*
X146371714Y-57777142D01*
X146466952Y-57729523D01*
X146514571Y-57681904D01*
X146562190Y-57586666D01*
X146562190Y-57205714D01*
X147038380Y-58729523D02*
X147038380Y-58158095D01*
X147038380Y-58443809D02*
X146038380Y-58443809D01*
X146181238Y-58348571D01*
X146276476Y-58253333D01*
X146324095Y-58158095D01*
X146133619Y-59110476D02*
X146086000Y-59158095D01*
X146038380Y-59253333D01*
X146038380Y-59491428D01*
X146086000Y-59586666D01*
X146133619Y-59634285D01*
X146228857Y-59681904D01*
X146324095Y-59681904D01*
X146466952Y-59634285D01*
X147038380Y-59062857D01*
X147038380Y-59681904D01*
G04 #@! TO.C,R13*
X140942380Y-57650142D02*
X140466190Y-57316809D01*
X140942380Y-57078714D02*
X139942380Y-57078714D01*
X139942380Y-57459666D01*
X139990000Y-57554904D01*
X140037619Y-57602523D01*
X140132857Y-57650142D01*
X140275714Y-57650142D01*
X140370952Y-57602523D01*
X140418571Y-57554904D01*
X140466190Y-57459666D01*
X140466190Y-57078714D01*
X140942380Y-58602523D02*
X140942380Y-58031095D01*
X140942380Y-58316809D02*
X139942380Y-58316809D01*
X140085238Y-58221571D01*
X140180476Y-58126333D01*
X140228095Y-58031095D01*
X139942380Y-58935857D02*
X139942380Y-59554904D01*
X140323333Y-59221571D01*
X140323333Y-59364428D01*
X140370952Y-59459666D01*
X140418571Y-59507285D01*
X140513809Y-59554904D01*
X140751904Y-59554904D01*
X140847142Y-59507285D01*
X140894761Y-59459666D01*
X140942380Y-59364428D01*
X140942380Y-59078714D01*
X140894761Y-58983476D01*
X140847142Y-58935857D01*
G04 #@! TO.C,R14*
X134846380Y-57650142D02*
X134370190Y-57316809D01*
X134846380Y-57078714D02*
X133846380Y-57078714D01*
X133846380Y-57459666D01*
X133894000Y-57554904D01*
X133941619Y-57602523D01*
X134036857Y-57650142D01*
X134179714Y-57650142D01*
X134274952Y-57602523D01*
X134322571Y-57554904D01*
X134370190Y-57459666D01*
X134370190Y-57078714D01*
X134846380Y-58602523D02*
X134846380Y-58031095D01*
X134846380Y-58316809D02*
X133846380Y-58316809D01*
X133989238Y-58221571D01*
X134084476Y-58126333D01*
X134132095Y-58031095D01*
X134179714Y-59459666D02*
X134846380Y-59459666D01*
X133798761Y-59221571D02*
X134513047Y-58983476D01*
X134513047Y-59602523D01*
G04 #@! TO.C,R15*
X138310857Y-78176380D02*
X138644190Y-77700190D01*
X138882285Y-78176380D02*
X138882285Y-77176380D01*
X138501333Y-77176380D01*
X138406095Y-77224000D01*
X138358476Y-77271619D01*
X138310857Y-77366857D01*
X138310857Y-77509714D01*
X138358476Y-77604952D01*
X138406095Y-77652571D01*
X138501333Y-77700190D01*
X138882285Y-77700190D01*
X137358476Y-78176380D02*
X137929904Y-78176380D01*
X137644190Y-78176380D02*
X137644190Y-77176380D01*
X137739428Y-77319238D01*
X137834666Y-77414476D01*
X137929904Y-77462095D01*
X136453714Y-77176380D02*
X136929904Y-77176380D01*
X136977523Y-77652571D01*
X136929904Y-77604952D01*
X136834666Y-77557333D01*
X136596571Y-77557333D01*
X136501333Y-77604952D01*
X136453714Y-77652571D01*
X136406095Y-77747809D01*
X136406095Y-77985904D01*
X136453714Y-78081142D01*
X136501333Y-78128761D01*
X136596571Y-78176380D01*
X136834666Y-78176380D01*
X136929904Y-78128761D01*
X136977523Y-78081142D01*
G04 #@! TO.C,R26*
X151772857Y-81224380D02*
X152106190Y-80748190D01*
X152344285Y-81224380D02*
X152344285Y-80224380D01*
X151963333Y-80224380D01*
X151868095Y-80272000D01*
X151820476Y-80319619D01*
X151772857Y-80414857D01*
X151772857Y-80557714D01*
X151820476Y-80652952D01*
X151868095Y-80700571D01*
X151963333Y-80748190D01*
X152344285Y-80748190D01*
X151391904Y-80319619D02*
X151344285Y-80272000D01*
X151249047Y-80224380D01*
X151010952Y-80224380D01*
X150915714Y-80272000D01*
X150868095Y-80319619D01*
X150820476Y-80414857D01*
X150820476Y-80510095D01*
X150868095Y-80652952D01*
X151439523Y-81224380D01*
X150820476Y-81224380D01*
X149963333Y-80224380D02*
X150153809Y-80224380D01*
X150249047Y-80272000D01*
X150296666Y-80319619D01*
X150391904Y-80462476D01*
X150439523Y-80652952D01*
X150439523Y-81033904D01*
X150391904Y-81129142D01*
X150344285Y-81176761D01*
X150249047Y-81224380D01*
X150058571Y-81224380D01*
X149963333Y-81176761D01*
X149915714Y-81129142D01*
X149868095Y-81033904D01*
X149868095Y-80795809D01*
X149915714Y-80700571D01*
X149963333Y-80652952D01*
X150058571Y-80605333D01*
X150249047Y-80605333D01*
X150344285Y-80652952D01*
X150391904Y-80700571D01*
X150439523Y-80795809D01*
G04 #@! TO.C,R25*
X148216857Y-89860380D02*
X148550190Y-89384190D01*
X148788285Y-89860380D02*
X148788285Y-88860380D01*
X148407333Y-88860380D01*
X148312095Y-88908000D01*
X148264476Y-88955619D01*
X148216857Y-89050857D01*
X148216857Y-89193714D01*
X148264476Y-89288952D01*
X148312095Y-89336571D01*
X148407333Y-89384190D01*
X148788285Y-89384190D01*
X147835904Y-88955619D02*
X147788285Y-88908000D01*
X147693047Y-88860380D01*
X147454952Y-88860380D01*
X147359714Y-88908000D01*
X147312095Y-88955619D01*
X147264476Y-89050857D01*
X147264476Y-89146095D01*
X147312095Y-89288952D01*
X147883523Y-89860380D01*
X147264476Y-89860380D01*
X146359714Y-88860380D02*
X146835904Y-88860380D01*
X146883523Y-89336571D01*
X146835904Y-89288952D01*
X146740666Y-89241333D01*
X146502571Y-89241333D01*
X146407333Y-89288952D01*
X146359714Y-89336571D01*
X146312095Y-89431809D01*
X146312095Y-89669904D01*
X146359714Y-89765142D01*
X146407333Y-89812761D01*
X146502571Y-89860380D01*
X146740666Y-89860380D01*
X146835904Y-89812761D01*
X146883523Y-89765142D01*
G04 #@! TO.C,R24*
X151772857Y-87320380D02*
X152106190Y-86844190D01*
X152344285Y-87320380D02*
X152344285Y-86320380D01*
X151963333Y-86320380D01*
X151868095Y-86368000D01*
X151820476Y-86415619D01*
X151772857Y-86510857D01*
X151772857Y-86653714D01*
X151820476Y-86748952D01*
X151868095Y-86796571D01*
X151963333Y-86844190D01*
X152344285Y-86844190D01*
X151391904Y-86415619D02*
X151344285Y-86368000D01*
X151249047Y-86320380D01*
X151010952Y-86320380D01*
X150915714Y-86368000D01*
X150868095Y-86415619D01*
X150820476Y-86510857D01*
X150820476Y-86606095D01*
X150868095Y-86748952D01*
X151439523Y-87320380D01*
X150820476Y-87320380D01*
X149963333Y-86653714D02*
X149963333Y-87320380D01*
X150201428Y-86272761D02*
X150439523Y-86987047D01*
X149820476Y-86987047D01*
G04 #@! TO.C,R21*
X138310857Y-75128380D02*
X138644190Y-74652190D01*
X138882285Y-75128380D02*
X138882285Y-74128380D01*
X138501333Y-74128380D01*
X138406095Y-74176000D01*
X138358476Y-74223619D01*
X138310857Y-74318857D01*
X138310857Y-74461714D01*
X138358476Y-74556952D01*
X138406095Y-74604571D01*
X138501333Y-74652190D01*
X138882285Y-74652190D01*
X137929904Y-74223619D02*
X137882285Y-74176000D01*
X137787047Y-74128380D01*
X137548952Y-74128380D01*
X137453714Y-74176000D01*
X137406095Y-74223619D01*
X137358476Y-74318857D01*
X137358476Y-74414095D01*
X137406095Y-74556952D01*
X137977523Y-75128380D01*
X137358476Y-75128380D01*
X136406095Y-75128380D02*
X136977523Y-75128380D01*
X136691809Y-75128380D02*
X136691809Y-74128380D01*
X136787047Y-74271238D01*
X136882285Y-74366476D01*
X136977523Y-74414095D01*
G04 #@! TO.C,R20*
X136786857Y-83006234D02*
X137120190Y-82530044D01*
X137358285Y-83006234D02*
X137358285Y-82006234D01*
X136977333Y-82006234D01*
X136882095Y-82053854D01*
X136834476Y-82101473D01*
X136786857Y-82196711D01*
X136786857Y-82339568D01*
X136834476Y-82434806D01*
X136882095Y-82482425D01*
X136977333Y-82530044D01*
X137358285Y-82530044D01*
X136405904Y-82101473D02*
X136358285Y-82053854D01*
X136263047Y-82006234D01*
X136024952Y-82006234D01*
X135929714Y-82053854D01*
X135882095Y-82101473D01*
X135834476Y-82196711D01*
X135834476Y-82291949D01*
X135882095Y-82434806D01*
X136453523Y-83006234D01*
X135834476Y-83006234D01*
X135215428Y-82006234D02*
X135120190Y-82006234D01*
X135024952Y-82053854D01*
X134977333Y-82101473D01*
X134929714Y-82196711D01*
X134882095Y-82387187D01*
X134882095Y-82625282D01*
X134929714Y-82815758D01*
X134977333Y-82910996D01*
X135024952Y-82958615D01*
X135120190Y-83006234D01*
X135215428Y-83006234D01*
X135310666Y-82958615D01*
X135358285Y-82910996D01*
X135405904Y-82815758D01*
X135453523Y-82625282D01*
X135453523Y-82387187D01*
X135405904Y-82196711D01*
X135358285Y-82101473D01*
X135310666Y-82053854D01*
X135215428Y-82006234D01*
G04 #@! TO.C,R19*
X138310857Y-76652380D02*
X138644190Y-76176190D01*
X138882285Y-76652380D02*
X138882285Y-75652380D01*
X138501333Y-75652380D01*
X138406095Y-75700000D01*
X138358476Y-75747619D01*
X138310857Y-75842857D01*
X138310857Y-75985714D01*
X138358476Y-76080952D01*
X138406095Y-76128571D01*
X138501333Y-76176190D01*
X138882285Y-76176190D01*
X137358476Y-76652380D02*
X137929904Y-76652380D01*
X137644190Y-76652380D02*
X137644190Y-75652380D01*
X137739428Y-75795238D01*
X137834666Y-75890476D01*
X137929904Y-75938095D01*
X136882285Y-76652380D02*
X136691809Y-76652380D01*
X136596571Y-76604761D01*
X136548952Y-76557142D01*
X136453714Y-76414285D01*
X136406095Y-76223809D01*
X136406095Y-75842857D01*
X136453714Y-75747619D01*
X136501333Y-75700000D01*
X136596571Y-75652380D01*
X136787047Y-75652380D01*
X136882285Y-75700000D01*
X136929904Y-75747619D01*
X136977523Y-75842857D01*
X136977523Y-76080952D01*
X136929904Y-76176190D01*
X136882285Y-76223809D01*
X136787047Y-76271428D01*
X136596571Y-76271428D01*
X136501333Y-76223809D01*
X136453714Y-76176190D01*
X136406095Y-76080952D01*
G04 #@! TO.C,R18*
X131057857Y-87320380D02*
X131391190Y-86844190D01*
X131629285Y-87320380D02*
X131629285Y-86320380D01*
X131248333Y-86320380D01*
X131153095Y-86368000D01*
X131105476Y-86415619D01*
X131057857Y-86510857D01*
X131057857Y-86653714D01*
X131105476Y-86748952D01*
X131153095Y-86796571D01*
X131248333Y-86844190D01*
X131629285Y-86844190D01*
X130105476Y-87320380D02*
X130676904Y-87320380D01*
X130391190Y-87320380D02*
X130391190Y-86320380D01*
X130486428Y-86463238D01*
X130581666Y-86558476D01*
X130676904Y-86606095D01*
X129534047Y-86748952D02*
X129629285Y-86701333D01*
X129676904Y-86653714D01*
X129724523Y-86558476D01*
X129724523Y-86510857D01*
X129676904Y-86415619D01*
X129629285Y-86368000D01*
X129534047Y-86320380D01*
X129343571Y-86320380D01*
X129248333Y-86368000D01*
X129200714Y-86415619D01*
X129153095Y-86510857D01*
X129153095Y-86558476D01*
X129200714Y-86653714D01*
X129248333Y-86701333D01*
X129343571Y-86748952D01*
X129534047Y-86748952D01*
X129629285Y-86796571D01*
X129676904Y-86844190D01*
X129724523Y-86939428D01*
X129724523Y-87129904D01*
X129676904Y-87225142D01*
X129629285Y-87272761D01*
X129534047Y-87320380D01*
X129343571Y-87320380D01*
X129248333Y-87272761D01*
X129200714Y-87225142D01*
X129153095Y-87129904D01*
X129153095Y-86939428D01*
X129200714Y-86844190D01*
X129248333Y-86796571D01*
X129343571Y-86748952D01*
G04 #@! TO.C,R17*
X141584857Y-95956380D02*
X141918190Y-95480190D01*
X142156285Y-95956380D02*
X142156285Y-94956380D01*
X141775333Y-94956380D01*
X141680095Y-95004000D01*
X141632476Y-95051619D01*
X141584857Y-95146857D01*
X141584857Y-95289714D01*
X141632476Y-95384952D01*
X141680095Y-95432571D01*
X141775333Y-95480190D01*
X142156285Y-95480190D01*
X140632476Y-95956380D02*
X141203904Y-95956380D01*
X140918190Y-95956380D02*
X140918190Y-94956380D01*
X141013428Y-95099238D01*
X141108666Y-95194476D01*
X141203904Y-95242095D01*
X140299142Y-94956380D02*
X139632476Y-94956380D01*
X140061047Y-95956380D01*
G04 #@! TO.C,R27*
X148216857Y-78966380D02*
X148550190Y-78490190D01*
X148788285Y-78966380D02*
X148788285Y-77966380D01*
X148407333Y-77966380D01*
X148312095Y-78014000D01*
X148264476Y-78061619D01*
X148216857Y-78156857D01*
X148216857Y-78299714D01*
X148264476Y-78394952D01*
X148312095Y-78442571D01*
X148407333Y-78490190D01*
X148788285Y-78490190D01*
X147835904Y-78061619D02*
X147788285Y-78014000D01*
X147693047Y-77966380D01*
X147454952Y-77966380D01*
X147359714Y-78014000D01*
X147312095Y-78061619D01*
X147264476Y-78156857D01*
X147264476Y-78252095D01*
X147312095Y-78394952D01*
X147883523Y-78966380D01*
X147264476Y-78966380D01*
X146931142Y-77966380D02*
X146264476Y-77966380D01*
X146693047Y-78966380D01*
G04 #@! TO.C,R16*
X141584857Y-90876380D02*
X141918190Y-90400190D01*
X142156285Y-90876380D02*
X142156285Y-89876380D01*
X141775333Y-89876380D01*
X141680095Y-89924000D01*
X141632476Y-89971619D01*
X141584857Y-90066857D01*
X141584857Y-90209714D01*
X141632476Y-90304952D01*
X141680095Y-90352571D01*
X141775333Y-90400190D01*
X142156285Y-90400190D01*
X140632476Y-90876380D02*
X141203904Y-90876380D01*
X140918190Y-90876380D02*
X140918190Y-89876380D01*
X141013428Y-90019238D01*
X141108666Y-90114476D01*
X141203904Y-90162095D01*
X139775333Y-89876380D02*
X139965809Y-89876380D01*
X140061047Y-89924000D01*
X140108666Y-89971619D01*
X140203904Y-90114476D01*
X140251523Y-90304952D01*
X140251523Y-90685904D01*
X140203904Y-90781142D01*
X140156285Y-90828761D01*
X140061047Y-90876380D01*
X139870571Y-90876380D01*
X139775333Y-90828761D01*
X139727714Y-90781142D01*
X139680095Y-90685904D01*
X139680095Y-90447809D01*
X139727714Y-90352571D01*
X139775333Y-90304952D01*
X139870571Y-90257333D01*
X140061047Y-90257333D01*
X140156285Y-90304952D01*
X140203904Y-90352571D01*
X140251523Y-90447809D01*
G04 #@! TO.C,J3*
X147653333Y-123580380D02*
X147653333Y-124294666D01*
X147700952Y-124437523D01*
X147796190Y-124532761D01*
X147939047Y-124580380D01*
X148034285Y-124580380D01*
X147272380Y-123580380D02*
X146653333Y-123580380D01*
X146986666Y-123961333D01*
X146843809Y-123961333D01*
X146748571Y-124008952D01*
X146700952Y-124056571D01*
X146653333Y-124151809D01*
X146653333Y-124389904D01*
X146700952Y-124485142D01*
X146748571Y-124532761D01*
X146843809Y-124580380D01*
X147129523Y-124580380D01*
X147224761Y-124532761D01*
X147272380Y-124485142D01*
G04 #@! TO.C,J7*
X127333333Y-123580380D02*
X127333333Y-124294666D01*
X127380952Y-124437523D01*
X127476190Y-124532761D01*
X127619047Y-124580380D01*
X127714285Y-124580380D01*
X126952380Y-123580380D02*
X126285714Y-123580380D01*
X126714285Y-124580380D01*
G04 #@! TO.C,J1*
X147653333Y-108848380D02*
X147653333Y-109562666D01*
X147700952Y-109705523D01*
X147796190Y-109800761D01*
X147939047Y-109848380D01*
X148034285Y-109848380D01*
X146653333Y-109848380D02*
X147224761Y-109848380D01*
X146939047Y-109848380D02*
X146939047Y-108848380D01*
X147034285Y-108991238D01*
X147129523Y-109086476D01*
X147224761Y-109134095D01*
G04 #@! TO.C,J4*
X137493333Y-123580380D02*
X137493333Y-124294666D01*
X137540952Y-124437523D01*
X137636190Y-124532761D01*
X137779047Y-124580380D01*
X137874285Y-124580380D01*
X136588571Y-123913714D02*
X136588571Y-124580380D01*
X136826666Y-123532761D02*
X137064761Y-124247047D01*
X136445714Y-124247047D01*
G04 #@! TO.C,J2*
X137493333Y-108848380D02*
X137493333Y-109562666D01*
X137540952Y-109705523D01*
X137636190Y-109800761D01*
X137779047Y-109848380D01*
X137874285Y-109848380D01*
X137064761Y-108943619D02*
X137017142Y-108896000D01*
X136921904Y-108848380D01*
X136683809Y-108848380D01*
X136588571Y-108896000D01*
X136540952Y-108943619D01*
X136493333Y-109038857D01*
X136493333Y-109134095D01*
X136540952Y-109276952D01*
X137112380Y-109848380D01*
X136493333Y-109848380D01*
G04 #@! TO.C,RV4*
X148971238Y-96972380D02*
X149304571Y-96496190D01*
X149542666Y-96972380D02*
X149542666Y-95972380D01*
X149161714Y-95972380D01*
X149066476Y-96020000D01*
X149018857Y-96067619D01*
X148971238Y-96162857D01*
X148971238Y-96305714D01*
X149018857Y-96400952D01*
X149066476Y-96448571D01*
X149161714Y-96496190D01*
X149542666Y-96496190D01*
X148685523Y-95972380D02*
X148352190Y-96972380D01*
X148018857Y-95972380D01*
X147256952Y-96305714D02*
X147256952Y-96972380D01*
X147495047Y-95924761D02*
X147733142Y-96639047D01*
X147114095Y-96639047D01*
G04 #@! TO.C,RV2*
X131659238Y-96596832D02*
X131992571Y-96120642D01*
X132230666Y-96596832D02*
X132230666Y-95596832D01*
X131849714Y-95596832D01*
X131754476Y-95644452D01*
X131706857Y-95692071D01*
X131659238Y-95787309D01*
X131659238Y-95930166D01*
X131706857Y-96025404D01*
X131754476Y-96073023D01*
X131849714Y-96120642D01*
X132230666Y-96120642D01*
X131373523Y-95596832D02*
X131040190Y-96596832D01*
X130706857Y-95596832D01*
X130421142Y-95692071D02*
X130373523Y-95644452D01*
X130278285Y-95596832D01*
X130040190Y-95596832D01*
X129944952Y-95644452D01*
X129897333Y-95692071D01*
X129849714Y-95787309D01*
X129849714Y-95882547D01*
X129897333Y-96025404D01*
X130468761Y-96596832D01*
X129849714Y-96596832D01*
G04 #@! TO.C,RV3*
X148931238Y-67762380D02*
X149264571Y-67286190D01*
X149502666Y-67762380D02*
X149502666Y-66762380D01*
X149121714Y-66762380D01*
X149026476Y-66810000D01*
X148978857Y-66857619D01*
X148931238Y-66952857D01*
X148931238Y-67095714D01*
X148978857Y-67190952D01*
X149026476Y-67238571D01*
X149121714Y-67286190D01*
X149502666Y-67286190D01*
X148645523Y-66762380D02*
X148312190Y-67762380D01*
X147978857Y-66762380D01*
X147740761Y-66762380D02*
X147121714Y-66762380D01*
X147455047Y-67143333D01*
X147312190Y-67143333D01*
X147216952Y-67190952D01*
X147169333Y-67238571D01*
X147121714Y-67333809D01*
X147121714Y-67571904D01*
X147169333Y-67667142D01*
X147216952Y-67714761D01*
X147312190Y-67762380D01*
X147597904Y-67762380D01*
X147693142Y-67714761D01*
X147740761Y-67667142D01*
G04 #@! TO.C,RV1*
X140335238Y-44648380D02*
X140668571Y-44172190D01*
X140906666Y-44648380D02*
X140906666Y-43648380D01*
X140525714Y-43648380D01*
X140430476Y-43696000D01*
X140382857Y-43743619D01*
X140335238Y-43838857D01*
X140335238Y-43981714D01*
X140382857Y-44076952D01*
X140430476Y-44124571D01*
X140525714Y-44172190D01*
X140906666Y-44172190D01*
X140049523Y-43648380D02*
X139716190Y-44648380D01*
X139382857Y-43648380D01*
X138525714Y-44648380D02*
X139097142Y-44648380D01*
X138811428Y-44648380D02*
X138811428Y-43648380D01*
X138906666Y-43791238D01*
X139001904Y-43886476D01*
X139097142Y-43934095D01*
G04 #@! TO.C,RV8*
X131619238Y-68016380D02*
X131952571Y-67540190D01*
X132190666Y-68016380D02*
X132190666Y-67016380D01*
X131809714Y-67016380D01*
X131714476Y-67064000D01*
X131666857Y-67111619D01*
X131619238Y-67206857D01*
X131619238Y-67349714D01*
X131666857Y-67444952D01*
X131714476Y-67492571D01*
X131809714Y-67540190D01*
X132190666Y-67540190D01*
X131333523Y-67016380D02*
X131000190Y-68016380D01*
X130666857Y-67016380D01*
X130190666Y-67444952D02*
X130285904Y-67397333D01*
X130333523Y-67349714D01*
X130381142Y-67254476D01*
X130381142Y-67206857D01*
X130333523Y-67111619D01*
X130285904Y-67064000D01*
X130190666Y-67016380D01*
X130000190Y-67016380D01*
X129904952Y-67064000D01*
X129857333Y-67111619D01*
X129809714Y-67206857D01*
X129809714Y-67254476D01*
X129857333Y-67349714D01*
X129904952Y-67397333D01*
X130000190Y-67444952D01*
X130190666Y-67444952D01*
X130285904Y-67492571D01*
X130333523Y-67540190D01*
X130381142Y-67635428D01*
X130381142Y-67825904D01*
X130333523Y-67921142D01*
X130285904Y-67968761D01*
X130190666Y-68016380D01*
X130000190Y-68016380D01*
X129904952Y-67968761D01*
X129857333Y-67921142D01*
X129809714Y-67825904D01*
X129809714Y-67635428D01*
X129857333Y-67540190D01*
X129904952Y-67492571D01*
X130000190Y-67444952D01*
G04 #@! TD*
M02*
