M48
;DRILL file {KiCad 5.0.2-bee76a0~70~ubuntu18.04.1} date Tue 23 Apr 2019 19:40:39 AEST
;FORMAT={-:-/ absolute / inch / decimal}
FMAT,2
INCH,TZ
T1C0.0118
T2C0.0276
T3C0.0295
T4C0.0315
T5C0.0394
T6C0.0630
%
G90
G05
T1
X4.95Y-1.55
X4.95Y-1.8
X4.95Y-2.05
X4.95Y-2.31
X4.95Y-2.55
X4.95Y-2.8
X4.95Y-3.
X4.95Y-3.2
X4.95Y-3.4
X4.95Y-3.6
X4.95Y-4.95
X4.95Y-5.15
X4.95Y-5.35
X4.98Y-2.26
X5.06Y-2.21
X5.16Y-2.26
X5.2Y-1.55
X5.215Y-2.155
X5.2173Y-2.26
X5.22Y-3.36
X5.3Y-3.14
X5.3Y-3.4
X5.3Y-3.46
X5.3Y-3.95
X5.32Y-2.98
X5.33Y-3.36
X5.3355Y-3.46
X5.3355Y-3.5
X5.35Y-2.8
X5.38Y-2.22
X5.39Y-3.36
X5.4Y-2.26
X5.4Y-3.32
X5.415Y-3.14
X5.4173Y-2.84
X5.45Y-3.46
X5.455Y-2.155
X5.4573Y-2.26
X5.46Y-1.92
X5.47Y-2.98
X5.47Y-3.06
X5.5Y-1.55
X5.5Y-2.55
X5.52Y-3.56
X5.54Y-3.14
X5.56Y-1.92
X5.5768Y-3.315
X5.58Y-3.105
X5.58Y-4.12
X5.58Y-4.2
X5.58Y-4.44
X5.58Y-4.62
X5.5827Y-2.84
X5.6Y-3.36
X5.62Y-2.22
X5.62Y-3.17
X5.62Y-4.48
X5.64Y-2.26
X5.64Y-3.5
X5.64Y-4.12
X5.64Y-4.2
X5.65Y-2.8
X5.66Y-4.645
X5.6742Y-4.72
X5.68Y-4.12
X5.68Y-4.42
X5.68Y-4.48
X5.68Y-4.9
X5.69Y-3.38
X5.69Y-3.42
X5.695Y-2.155
X5.6973Y-2.26
X5.7Y-3.95
X5.74Y-2.76
X5.74Y-3.5
X5.74Y-4.9
X5.76Y-4.745
X5.77Y-3.28
X5.77Y-3.32
X5.775Y-1.55
X5.7785Y-3.1
X5.81Y-3.1
X5.81Y-4.635
X5.81Y-4.74
X5.82Y-4.38
X5.82Y-4.92
X5.84Y-2.74
X5.84Y-3.31
X5.8415Y-3.1
X5.85Y-2.45
X5.86Y-2.22
X5.86Y-2.54
X5.88Y-2.26
X5.9Y-4.42
X5.9Y-4.48
X5.91Y-2.42
X5.91Y-3.42
X5.92Y-2.54
X5.93Y-2.2592
X5.93Y-3.38
X5.935Y-2.155
X5.94Y-3.14
X5.96Y-2.44
X5.96Y-3.24
X5.96Y-3.54
X5.98Y-3.4
X6.02Y-2.16
X6.02Y-2.3
X6.02Y-2.5
X6.05Y-1.55
X6.05Y-1.8
X6.05Y-2.05
X6.05Y-2.55
X6.05Y-2.8
X6.05Y-3.
X6.05Y-3.2
X6.05Y-3.4
X6.05Y-3.6
X6.05Y-4.95
X6.05Y-5.15
X6.05Y-5.35
T2
X5.22Y-4.48
X5.32Y-4.48
X5.22Y-4.56
X5.32Y-4.56
T3
X5.39Y-3.46
X5.44Y-3.41
X5.44Y-3.51
X5.39Y-3.665
X5.44Y-3.615
X5.44Y-3.715
T4
X5.Y-3.52
X5.1Y-3.52
X5.2Y-3.52
X5.38Y-2.16
X5.38Y-2.3569
X5.62Y-2.16
X5.62Y-2.3569
X5.52Y-3.2
X5.52Y-3.2984
X5.86Y-2.16
X5.86Y-2.3569
X5.Y-3.3
X5.1Y-3.3
X5.2Y-3.3
X5.14Y-2.16
X5.14Y-2.3569
X5.Y-3.08
X5.1Y-3.08
X5.2Y-3.08
T5
X5.0616Y-4.08
X5.16Y-4.08
X5.2584Y-4.08
X5.4016Y-2.04
X5.5Y-2.04
X5.5984Y-2.04
X5.7416Y-4.08
X5.84Y-4.08
X5.9384Y-4.08
X5.06Y-2.94
X5.1584Y-2.94
X5.2569Y-2.94
X5.7416Y-2.94
X5.84Y-2.94
X5.9384Y-2.94
X4.96Y-4.32
X4.96Y-4.42
X4.96Y-4.52
X4.96Y-4.62
X4.96Y-4.72
X5.06Y-4.32
X5.06Y-4.42
X5.06Y-4.52
X5.06Y-4.62
X5.06Y-4.72
T6
X5.1Y-4.8932
X5.1Y-5.22
X5.1Y-5.342
X5.5Y-4.3132
X5.5Y-4.64
X5.5Y-4.762
X5.9Y-4.3132
X5.9Y-4.64
X5.9Y-4.762
X5.5Y-4.8932
X5.5Y-5.22
X5.5Y-5.342
X5.9Y-4.8932
X5.9Y-5.22
X5.9Y-5.342
T0
M30
