G04 #@! TF.GenerationSoftware,KiCad,Pcbnew,5.0.2-bee76a0~70~ubuntu18.04.1*
G04 #@! TF.CreationDate,2019-04-23T19:40:41+10:00*
G04 #@! TF.ProjectId,minimoog,6d696e69-6d6f-46f6-972e-6b696361645f,rev?*
G04 #@! TF.SameCoordinates,Original*
G04 #@! TF.FileFunction,Soldermask,Top*
G04 #@! TF.FilePolarity,Negative*
%FSLAX46Y46*%
G04 Gerber Fmt 4.6, Leading zero omitted, Abs format (unit mm)*
G04 Created by KiCad (PCBNEW 5.0.2-bee76a0~70~ubuntu18.04.1) date Tue 23 Apr 2019 19:40:41 AEST*
%MOMM*%
%LPD*%
G01*
G04 APERTURE LIST*
%ADD10C,0.100000*%
G04 APERTURE END LIST*
D10*
G36*
X129860857Y-134630272D02*
X130061042Y-134713191D01*
X130241213Y-134833578D01*
X130394422Y-134986787D01*
X130514809Y-135166958D01*
X130597728Y-135367143D01*
X130640000Y-135579658D01*
X130640000Y-135796342D01*
X130597728Y-136008857D01*
X130514809Y-136209042D01*
X130394422Y-136389213D01*
X130241213Y-136542422D01*
X130061042Y-136662809D01*
X129860857Y-136745728D01*
X129648342Y-136788000D01*
X129431658Y-136788000D01*
X129219143Y-136745728D01*
X129018958Y-136662809D01*
X128838787Y-136542422D01*
X128685578Y-136389213D01*
X128565191Y-136209042D01*
X128482272Y-136008857D01*
X128440000Y-135796342D01*
X128440000Y-135579658D01*
X128482272Y-135367143D01*
X128565191Y-135166958D01*
X128685578Y-134986787D01*
X128838787Y-134833578D01*
X129018958Y-134713191D01*
X129219143Y-134630272D01*
X129431658Y-134588000D01*
X129648342Y-134588000D01*
X129860857Y-134630272D01*
X129860857Y-134630272D01*
G37*
G36*
X140020857Y-134630272D02*
X140221042Y-134713191D01*
X140401213Y-134833578D01*
X140554422Y-134986787D01*
X140674809Y-135166958D01*
X140757728Y-135367143D01*
X140800000Y-135579658D01*
X140800000Y-135796342D01*
X140757728Y-136008857D01*
X140674809Y-136209042D01*
X140554422Y-136389213D01*
X140401213Y-136542422D01*
X140221042Y-136662809D01*
X140020857Y-136745728D01*
X139808342Y-136788000D01*
X139591658Y-136788000D01*
X139379143Y-136745728D01*
X139178958Y-136662809D01*
X138998787Y-136542422D01*
X138845578Y-136389213D01*
X138725191Y-136209042D01*
X138642272Y-136008857D01*
X138600000Y-135796342D01*
X138600000Y-135579658D01*
X138642272Y-135367143D01*
X138725191Y-135166958D01*
X138845578Y-134986787D01*
X138998787Y-134833578D01*
X139178958Y-134713191D01*
X139379143Y-134630272D01*
X139591658Y-134588000D01*
X139808342Y-134588000D01*
X140020857Y-134630272D01*
X140020857Y-134630272D01*
G37*
G36*
X150180857Y-134630272D02*
X150381042Y-134713191D01*
X150561213Y-134833578D01*
X150714422Y-134986787D01*
X150834809Y-135166958D01*
X150917728Y-135367143D01*
X150960000Y-135579658D01*
X150960000Y-135796342D01*
X150917728Y-136008857D01*
X150834809Y-136209042D01*
X150714422Y-136389213D01*
X150561213Y-136542422D01*
X150381042Y-136662809D01*
X150180857Y-136745728D01*
X149968342Y-136788000D01*
X149751658Y-136788000D01*
X149539143Y-136745728D01*
X149338958Y-136662809D01*
X149158787Y-136542422D01*
X149005578Y-136389213D01*
X148885191Y-136209042D01*
X148802272Y-136008857D01*
X148760000Y-135796342D01*
X148760000Y-135579658D01*
X148802272Y-135367143D01*
X148885191Y-135166958D01*
X149005578Y-134986787D01*
X149158787Y-134833578D01*
X149338958Y-134713191D01*
X149539143Y-134630272D01*
X149751658Y-134588000D01*
X149968342Y-134588000D01*
X150180857Y-134630272D01*
X150180857Y-134630272D01*
G37*
G36*
X150180857Y-131530272D02*
X150381042Y-131613191D01*
X150561213Y-131733578D01*
X150714422Y-131886787D01*
X150834809Y-132066958D01*
X150917728Y-132267143D01*
X150960000Y-132479658D01*
X150960000Y-132696342D01*
X150917728Y-132908857D01*
X150834809Y-133109042D01*
X150714422Y-133289213D01*
X150561213Y-133442422D01*
X150381042Y-133562809D01*
X150180857Y-133645728D01*
X149968342Y-133688000D01*
X149751658Y-133688000D01*
X149539143Y-133645728D01*
X149338958Y-133562809D01*
X149158787Y-133442422D01*
X149005578Y-133289213D01*
X148885191Y-133109042D01*
X148802272Y-132908857D01*
X148760000Y-132696342D01*
X148760000Y-132479658D01*
X148802272Y-132267143D01*
X148885191Y-132066958D01*
X149005578Y-131886787D01*
X149158787Y-131733578D01*
X149338958Y-131613191D01*
X149539143Y-131530272D01*
X149751658Y-131488000D01*
X149968342Y-131488000D01*
X150180857Y-131530272D01*
X150180857Y-131530272D01*
G37*
G36*
X140020857Y-131530272D02*
X140221042Y-131613191D01*
X140401213Y-131733578D01*
X140554422Y-131886787D01*
X140674809Y-132066958D01*
X140757728Y-132267143D01*
X140800000Y-132479658D01*
X140800000Y-132696342D01*
X140757728Y-132908857D01*
X140674809Y-133109042D01*
X140554422Y-133289213D01*
X140401213Y-133442422D01*
X140221042Y-133562809D01*
X140020857Y-133645728D01*
X139808342Y-133688000D01*
X139591658Y-133688000D01*
X139379143Y-133645728D01*
X139178958Y-133562809D01*
X138998787Y-133442422D01*
X138845578Y-133289213D01*
X138725191Y-133109042D01*
X138642272Y-132908857D01*
X138600000Y-132696342D01*
X138600000Y-132479658D01*
X138642272Y-132267143D01*
X138725191Y-132066958D01*
X138845578Y-131886787D01*
X138998787Y-131733578D01*
X139178958Y-131613191D01*
X139379143Y-131530272D01*
X139591658Y-131488000D01*
X139808342Y-131488000D01*
X140020857Y-131530272D01*
X140020857Y-131530272D01*
G37*
G36*
X129860857Y-131530272D02*
X130061042Y-131613191D01*
X130241213Y-131733578D01*
X130394422Y-131886787D01*
X130514809Y-132066958D01*
X130597728Y-132267143D01*
X130640000Y-132479658D01*
X130640000Y-132696342D01*
X130597728Y-132908857D01*
X130514809Y-133109042D01*
X130394422Y-133289213D01*
X130241213Y-133442422D01*
X130061042Y-133562809D01*
X129860857Y-133645728D01*
X129648342Y-133688000D01*
X129431658Y-133688000D01*
X129219143Y-133645728D01*
X129018958Y-133562809D01*
X128838787Y-133442422D01*
X128685578Y-133289213D01*
X128565191Y-133109042D01*
X128482272Y-132908857D01*
X128440000Y-132696342D01*
X128440000Y-132479658D01*
X128482272Y-132267143D01*
X128565191Y-132066958D01*
X128685578Y-131886787D01*
X128838787Y-131733578D01*
X129018958Y-131613191D01*
X129219143Y-131530272D01*
X129431658Y-131488000D01*
X129648342Y-131488000D01*
X129860857Y-131530272D01*
X129860857Y-131530272D01*
G37*
G36*
X145896030Y-126330877D02*
X145947510Y-126346493D01*
X145994942Y-126371846D01*
X146036527Y-126405973D01*
X146070654Y-126447558D01*
X146096007Y-126494990D01*
X146111623Y-126546470D01*
X146117500Y-126606140D01*
X146117500Y-127393860D01*
X146111623Y-127453530D01*
X146096007Y-127505010D01*
X146070654Y-127552442D01*
X146036527Y-127594027D01*
X145994942Y-127628154D01*
X145947510Y-127653507D01*
X145896030Y-127669123D01*
X145836360Y-127675000D01*
X144948640Y-127675000D01*
X144888970Y-127669123D01*
X144837490Y-127653507D01*
X144790058Y-127628154D01*
X144748473Y-127594027D01*
X144714346Y-127552442D01*
X144688993Y-127505010D01*
X144673377Y-127453530D01*
X144667500Y-127393860D01*
X144667500Y-126606140D01*
X144673377Y-126546470D01*
X144688993Y-126494990D01*
X144714346Y-126447558D01*
X144748473Y-126405973D01*
X144790058Y-126371846D01*
X144837490Y-126346493D01*
X144888970Y-126330877D01*
X144948640Y-126325000D01*
X145836360Y-126325000D01*
X145896030Y-126330877D01*
X145896030Y-126330877D01*
G37*
G36*
X147646030Y-126330877D02*
X147697510Y-126346493D01*
X147744942Y-126371846D01*
X147786527Y-126405973D01*
X147820654Y-126447558D01*
X147846007Y-126494990D01*
X147861623Y-126546470D01*
X147867500Y-126606140D01*
X147867500Y-127393860D01*
X147861623Y-127453530D01*
X147846007Y-127505010D01*
X147820654Y-127552442D01*
X147786527Y-127594027D01*
X147744942Y-127628154D01*
X147697510Y-127653507D01*
X147646030Y-127669123D01*
X147586360Y-127675000D01*
X146698640Y-127675000D01*
X146638970Y-127669123D01*
X146587490Y-127653507D01*
X146540058Y-127628154D01*
X146498473Y-127594027D01*
X146464346Y-127552442D01*
X146438993Y-127505010D01*
X146423377Y-127453530D01*
X146417500Y-127393860D01*
X146417500Y-126606140D01*
X146423377Y-126546470D01*
X146438993Y-126494990D01*
X146464346Y-126447558D01*
X146498473Y-126405973D01*
X146540058Y-126371846D01*
X146587490Y-126346493D01*
X146638970Y-126330877D01*
X146698640Y-126325000D01*
X147586360Y-126325000D01*
X147646030Y-126330877D01*
X147646030Y-126330877D01*
G37*
G36*
X141981530Y-126330877D02*
X142033010Y-126346493D01*
X142080442Y-126371846D01*
X142122027Y-126405973D01*
X142156154Y-126447558D01*
X142181507Y-126494990D01*
X142197123Y-126546470D01*
X142203000Y-126606140D01*
X142203000Y-127393860D01*
X142197123Y-127453530D01*
X142181507Y-127505010D01*
X142156154Y-127552442D01*
X142122027Y-127594027D01*
X142080442Y-127628154D01*
X142033010Y-127653507D01*
X141981530Y-127669123D01*
X141921860Y-127675000D01*
X141034140Y-127675000D01*
X140974470Y-127669123D01*
X140922990Y-127653507D01*
X140875558Y-127628154D01*
X140833973Y-127594027D01*
X140799846Y-127552442D01*
X140774493Y-127505010D01*
X140758877Y-127453530D01*
X140753000Y-127393860D01*
X140753000Y-126606140D01*
X140758877Y-126546470D01*
X140774493Y-126494990D01*
X140799846Y-126447558D01*
X140833973Y-126405973D01*
X140875558Y-126371846D01*
X140922990Y-126346493D01*
X140974470Y-126330877D01*
X141034140Y-126325000D01*
X141921860Y-126325000D01*
X141981530Y-126330877D01*
X141981530Y-126330877D01*
G37*
G36*
X143731530Y-126330877D02*
X143783010Y-126346493D01*
X143830442Y-126371846D01*
X143872027Y-126405973D01*
X143906154Y-126447558D01*
X143931507Y-126494990D01*
X143947123Y-126546470D01*
X143953000Y-126606140D01*
X143953000Y-127393860D01*
X143947123Y-127453530D01*
X143931507Y-127505010D01*
X143906154Y-127552442D01*
X143872027Y-127594027D01*
X143830442Y-127628154D01*
X143783010Y-127653507D01*
X143731530Y-127669123D01*
X143671860Y-127675000D01*
X142784140Y-127675000D01*
X142724470Y-127669123D01*
X142672990Y-127653507D01*
X142625558Y-127628154D01*
X142583973Y-127594027D01*
X142549846Y-127552442D01*
X142524493Y-127505010D01*
X142508877Y-127453530D01*
X142503000Y-127393860D01*
X142503000Y-126606140D01*
X142508877Y-126546470D01*
X142524493Y-126494990D01*
X142549846Y-126447558D01*
X142583973Y-126405973D01*
X142625558Y-126371846D01*
X142672990Y-126346493D01*
X142724470Y-126330877D01*
X142784140Y-126325000D01*
X143671860Y-126325000D01*
X143731530Y-126330877D01*
X143731530Y-126330877D01*
G37*
G36*
X142009530Y-122774877D02*
X142061010Y-122790493D01*
X142108442Y-122815846D01*
X142150027Y-122849973D01*
X142184154Y-122891558D01*
X142209507Y-122938990D01*
X142225123Y-122990470D01*
X142231000Y-123050140D01*
X142231000Y-123837860D01*
X142225123Y-123897530D01*
X142209507Y-123949010D01*
X142184154Y-123996442D01*
X142150027Y-124038027D01*
X142108442Y-124072154D01*
X142061010Y-124097507D01*
X142009530Y-124113123D01*
X141949860Y-124119000D01*
X141062140Y-124119000D01*
X141002470Y-124113123D01*
X140961285Y-124100630D01*
X140937251Y-124095850D01*
X140912747Y-124095850D01*
X140888713Y-124100631D01*
X140866075Y-124110008D01*
X140845700Y-124123622D01*
X140828373Y-124140950D01*
X140814759Y-124161324D01*
X140805382Y-124183963D01*
X140800000Y-124220248D01*
X140800000Y-124396342D01*
X140757728Y-124608857D01*
X140674809Y-124809042D01*
X140554422Y-124989213D01*
X140401213Y-125142422D01*
X140221042Y-125262809D01*
X140020857Y-125345728D01*
X139808342Y-125388000D01*
X139591658Y-125388000D01*
X139379143Y-125345728D01*
X139178958Y-125262809D01*
X138998787Y-125142422D01*
X138845578Y-124989213D01*
X138725191Y-124809042D01*
X138642272Y-124608857D01*
X138600000Y-124396342D01*
X138600000Y-124179658D01*
X138642272Y-123967143D01*
X138725191Y-123766958D01*
X138725193Y-123766955D01*
X138845575Y-123586791D01*
X138845576Y-123586790D01*
X138845578Y-123586787D01*
X138998787Y-123433578D01*
X139178958Y-123313191D01*
X139379143Y-123230272D01*
X139591658Y-123188000D01*
X139808342Y-123188000D01*
X140020857Y-123230272D01*
X140221042Y-123313191D01*
X140401213Y-123433578D01*
X140557427Y-123589792D01*
X140567613Y-123602204D01*
X140586556Y-123617749D01*
X140608167Y-123629300D01*
X140631616Y-123636413D01*
X140656003Y-123638814D01*
X140680389Y-123636412D01*
X140703838Y-123629298D01*
X140725448Y-123617746D01*
X140744390Y-123602201D01*
X140759935Y-123583258D01*
X140771486Y-123561647D01*
X140778599Y-123538198D01*
X140781000Y-123513814D01*
X140781000Y-123050140D01*
X140786877Y-122990470D01*
X140802493Y-122938990D01*
X140827846Y-122891558D01*
X140861973Y-122849973D01*
X140903558Y-122815846D01*
X140950990Y-122790493D01*
X141002470Y-122774877D01*
X141062140Y-122769000D01*
X141949860Y-122769000D01*
X142009530Y-122774877D01*
X142009530Y-122774877D01*
G37*
G36*
X129860857Y-123230272D02*
X130061042Y-123313191D01*
X130241213Y-123433578D01*
X130394422Y-123586787D01*
X130394424Y-123586790D01*
X130394425Y-123586791D01*
X130514807Y-123766955D01*
X130514809Y-123766958D01*
X130597728Y-123967143D01*
X130640000Y-124179658D01*
X130640000Y-124396342D01*
X130597728Y-124608857D01*
X130514809Y-124809042D01*
X130394422Y-124989213D01*
X130241213Y-125142422D01*
X130061042Y-125262809D01*
X129860857Y-125345728D01*
X129648342Y-125388000D01*
X129431658Y-125388000D01*
X129219143Y-125345728D01*
X129018958Y-125262809D01*
X128838787Y-125142422D01*
X128685578Y-124989213D01*
X128565191Y-124809042D01*
X128482272Y-124608857D01*
X128440000Y-124396342D01*
X128440000Y-124179658D01*
X128482272Y-123967143D01*
X128565191Y-123766958D01*
X128565193Y-123766955D01*
X128685575Y-123586791D01*
X128685576Y-123586790D01*
X128685578Y-123586787D01*
X128838787Y-123433578D01*
X129018958Y-123313191D01*
X129219143Y-123230272D01*
X129431658Y-123188000D01*
X129648342Y-123188000D01*
X129860857Y-123230272D01*
X129860857Y-123230272D01*
G37*
G36*
X150180857Y-123230272D02*
X150381042Y-123313191D01*
X150561213Y-123433578D01*
X150714422Y-123586787D01*
X150714424Y-123586790D01*
X150714425Y-123586791D01*
X150834807Y-123766955D01*
X150834809Y-123766958D01*
X150917728Y-123967143D01*
X150960000Y-124179658D01*
X150960000Y-124396342D01*
X150917728Y-124608857D01*
X150834809Y-124809042D01*
X150714422Y-124989213D01*
X150561213Y-125142422D01*
X150381042Y-125262809D01*
X150180857Y-125345728D01*
X149968342Y-125388000D01*
X149751658Y-125388000D01*
X149539143Y-125345728D01*
X149338958Y-125262809D01*
X149158787Y-125142422D01*
X149005578Y-124989213D01*
X148885191Y-124809042D01*
X148802272Y-124608857D01*
X148760000Y-124396342D01*
X148760000Y-124179658D01*
X148802272Y-123967143D01*
X148885191Y-123766958D01*
X148885193Y-123766955D01*
X149005575Y-123586791D01*
X149005576Y-123586790D01*
X149005578Y-123586787D01*
X149158787Y-123433578D01*
X149338958Y-123313191D01*
X149539143Y-123230272D01*
X149751658Y-123188000D01*
X149968342Y-123188000D01*
X150180857Y-123230272D01*
X150180857Y-123230272D01*
G37*
G36*
X144264000Y-122712046D02*
X144266402Y-122736432D01*
X144273515Y-122759881D01*
X144285066Y-122781492D01*
X144300612Y-122800434D01*
X144319554Y-122815980D01*
X144341165Y-122827531D01*
X144364614Y-122834644D01*
X144389000Y-122837046D01*
X144413386Y-122834644D01*
X144436835Y-122827531D01*
X144448506Y-122821293D01*
X144448698Y-122821651D01*
X144467926Y-122811373D01*
X144488301Y-122797759D01*
X144505628Y-122780432D01*
X144519241Y-122760057D01*
X144528618Y-122737418D01*
X144534000Y-122701134D01*
X144534000Y-120851000D01*
X145534000Y-120851000D01*
X145534000Y-122672606D01*
X145536402Y-122696992D01*
X145543515Y-122720441D01*
X145555066Y-122742052D01*
X145570612Y-122760994D01*
X145589554Y-122776540D01*
X145611165Y-122788091D01*
X145615246Y-122789551D01*
X145620076Y-122792133D01*
X145642715Y-122801510D01*
X145666749Y-122806290D01*
X145691253Y-122806290D01*
X145715286Y-122801509D01*
X145737925Y-122792132D01*
X145758300Y-122778518D01*
X145775627Y-122761190D01*
X145789241Y-122740816D01*
X145798618Y-122718177D01*
X145804000Y-122681892D01*
X145804000Y-120851000D01*
X146804000Y-120851000D01*
X146804000Y-122644000D01*
X146806402Y-122668386D01*
X146813515Y-122691835D01*
X146825066Y-122713446D01*
X146840612Y-122732388D01*
X146859554Y-122747934D01*
X146881165Y-122759485D01*
X146904614Y-122766598D01*
X146929000Y-122769000D01*
X146949000Y-122769000D01*
X146973386Y-122766598D01*
X146996835Y-122759485D01*
X147018446Y-122747934D01*
X147037388Y-122732388D01*
X147052934Y-122713446D01*
X147064485Y-122691835D01*
X147071598Y-122668386D01*
X147074000Y-122644000D01*
X147074000Y-120851000D01*
X148074000Y-120851000D01*
X148074000Y-122801000D01*
X147642191Y-122801000D01*
X147617805Y-122803402D01*
X147594356Y-122810515D01*
X147572745Y-122822066D01*
X147553803Y-122837612D01*
X147538257Y-122856554D01*
X147526706Y-122878165D01*
X147519593Y-122901614D01*
X147517191Y-122926000D01*
X147519593Y-122950386D01*
X147522574Y-122962286D01*
X147531123Y-122990467D01*
X147537000Y-123050140D01*
X147537000Y-123837860D01*
X147531123Y-123897530D01*
X147515507Y-123949010D01*
X147490154Y-123996442D01*
X147456027Y-124038027D01*
X147414442Y-124072154D01*
X147367010Y-124097507D01*
X147315530Y-124113123D01*
X147255860Y-124119000D01*
X146368140Y-124119000D01*
X146308470Y-124113123D01*
X146256990Y-124097507D01*
X146209558Y-124072154D01*
X146167973Y-124038027D01*
X146133846Y-123996442D01*
X146108493Y-123949010D01*
X146092877Y-123897530D01*
X146087000Y-123837860D01*
X146087000Y-123050140D01*
X146092877Y-122990467D01*
X146101426Y-122962286D01*
X146106207Y-122938252D01*
X146106207Y-122913748D01*
X146101427Y-122889715D01*
X146092049Y-122867076D01*
X146078435Y-122846701D01*
X146061108Y-122829374D01*
X146040734Y-122815760D01*
X146018095Y-122806383D01*
X145994061Y-122801602D01*
X145981809Y-122801000D01*
X145892191Y-122801000D01*
X145867805Y-122803402D01*
X145844356Y-122810515D01*
X145822745Y-122822066D01*
X145803803Y-122837612D01*
X145788257Y-122856554D01*
X145776706Y-122878165D01*
X145769593Y-122901614D01*
X145767191Y-122926000D01*
X145769593Y-122950386D01*
X145772574Y-122962286D01*
X145781123Y-122990467D01*
X145787000Y-123050140D01*
X145787000Y-123837860D01*
X145781123Y-123897530D01*
X145765507Y-123949010D01*
X145740154Y-123996442D01*
X145706027Y-124038027D01*
X145664442Y-124072154D01*
X145617010Y-124097507D01*
X145565530Y-124113123D01*
X145505860Y-124119000D01*
X144618140Y-124119000D01*
X144558470Y-124113123D01*
X144506990Y-124097507D01*
X144459558Y-124072154D01*
X144417973Y-124038027D01*
X144383846Y-123996442D01*
X144358493Y-123949010D01*
X144342877Y-123897530D01*
X144337000Y-123837860D01*
X144337000Y-123050140D01*
X144342877Y-122990467D01*
X144351426Y-122962286D01*
X144356207Y-122938252D01*
X144356207Y-122913748D01*
X144351427Y-122889715D01*
X144342049Y-122867076D01*
X144328435Y-122846701D01*
X144311108Y-122829374D01*
X144290734Y-122815760D01*
X144268095Y-122806383D01*
X144244061Y-122801602D01*
X144231809Y-122801000D01*
X144086191Y-122801000D01*
X144061805Y-122803402D01*
X144038356Y-122810515D01*
X144016745Y-122822066D01*
X143997803Y-122837612D01*
X143982257Y-122856554D01*
X143970706Y-122878165D01*
X143963593Y-122901614D01*
X143961191Y-122926000D01*
X143963593Y-122950386D01*
X143966574Y-122962286D01*
X143975123Y-122990467D01*
X143981000Y-123050140D01*
X143981000Y-123837860D01*
X143975123Y-123897530D01*
X143959507Y-123949010D01*
X143934154Y-123996442D01*
X143900027Y-124038027D01*
X143858442Y-124072154D01*
X143811010Y-124097507D01*
X143759530Y-124113123D01*
X143699860Y-124119000D01*
X142812140Y-124119000D01*
X142752470Y-124113123D01*
X142700990Y-124097507D01*
X142653558Y-124072154D01*
X142611973Y-124038027D01*
X142577846Y-123996442D01*
X142552493Y-123949010D01*
X142536877Y-123897530D01*
X142531000Y-123837860D01*
X142531000Y-123050140D01*
X142536877Y-122990470D01*
X142552493Y-122938990D01*
X142577846Y-122891558D01*
X142611973Y-122849973D01*
X142653558Y-122815846D01*
X142700990Y-122790493D01*
X142752470Y-122774877D01*
X142812140Y-122769000D01*
X143139000Y-122769000D01*
X143163386Y-122766598D01*
X143186835Y-122759485D01*
X143208446Y-122747934D01*
X143227388Y-122732388D01*
X143242934Y-122713446D01*
X143254485Y-122691835D01*
X143261598Y-122668386D01*
X143264000Y-122644000D01*
X143264000Y-120851000D01*
X144264000Y-120851000D01*
X144264000Y-122712046D01*
X144264000Y-122712046D01*
G37*
G36*
X150180857Y-119898272D02*
X150381042Y-119981191D01*
X150381045Y-119981193D01*
X150549627Y-120093836D01*
X150561213Y-120101578D01*
X150714422Y-120254787D01*
X150834809Y-120434958D01*
X150917728Y-120635143D01*
X150960000Y-120847658D01*
X150960000Y-121064342D01*
X150917728Y-121276857D01*
X150834809Y-121477042D01*
X150714422Y-121657213D01*
X150561213Y-121810422D01*
X150381042Y-121930809D01*
X150180857Y-122013728D01*
X149968342Y-122056000D01*
X149751658Y-122056000D01*
X149539143Y-122013728D01*
X149338958Y-121930809D01*
X149158787Y-121810422D01*
X149005578Y-121657213D01*
X148885191Y-121477042D01*
X148802272Y-121276857D01*
X148760000Y-121064342D01*
X148760000Y-120847658D01*
X148802272Y-120635143D01*
X148885191Y-120434958D01*
X149005578Y-120254787D01*
X149158787Y-120101578D01*
X149170374Y-120093836D01*
X149338955Y-119981193D01*
X149338958Y-119981191D01*
X149539143Y-119898272D01*
X149751658Y-119856000D01*
X149968342Y-119856000D01*
X150180857Y-119898272D01*
X150180857Y-119898272D01*
G37*
G36*
X140020857Y-119898272D02*
X140221042Y-119981191D01*
X140221045Y-119981193D01*
X140389627Y-120093836D01*
X140401213Y-120101578D01*
X140554422Y-120254787D01*
X140674809Y-120434958D01*
X140757728Y-120635143D01*
X140800000Y-120847658D01*
X140800000Y-121064342D01*
X140757728Y-121276857D01*
X140674809Y-121477042D01*
X140554422Y-121657213D01*
X140401213Y-121810422D01*
X140221042Y-121930809D01*
X140020857Y-122013728D01*
X139808342Y-122056000D01*
X139591658Y-122056000D01*
X139379143Y-122013728D01*
X139178958Y-121930809D01*
X138998787Y-121810422D01*
X138845578Y-121657213D01*
X138725191Y-121477042D01*
X138642272Y-121276857D01*
X138600000Y-121064342D01*
X138600000Y-120847658D01*
X138642272Y-120635143D01*
X138725191Y-120434958D01*
X138845578Y-120254787D01*
X138998787Y-120101578D01*
X139010374Y-120093836D01*
X139178955Y-119981193D01*
X139178958Y-119981191D01*
X139379143Y-119898272D01*
X139591658Y-119856000D01*
X139808342Y-119856000D01*
X140020857Y-119898272D01*
X140020857Y-119898272D01*
G37*
G36*
X133896000Y-121554000D02*
X132296000Y-121554000D01*
X132296000Y-120254000D01*
X133896000Y-120254000D01*
X133896000Y-121554000D01*
X133896000Y-121554000D01*
G37*
G36*
X126112707Y-118845596D02*
X126189836Y-118853193D01*
X126321787Y-118893220D01*
X126387763Y-118913233D01*
X126570172Y-119010733D01*
X126730054Y-119141946D01*
X126861267Y-119301828D01*
X126958767Y-119484237D01*
X126958767Y-119484238D01*
X127018807Y-119682164D01*
X127039080Y-119888000D01*
X127018807Y-120093836D01*
X127016459Y-120101575D01*
X126958767Y-120291763D01*
X126861267Y-120474172D01*
X126730054Y-120634054D01*
X126570172Y-120765267D01*
X126387763Y-120862767D01*
X126321787Y-120882780D01*
X126189836Y-120922807D01*
X126112707Y-120930404D01*
X126035580Y-120938000D01*
X125932420Y-120938000D01*
X125855293Y-120930404D01*
X125778164Y-120922807D01*
X125646213Y-120882780D01*
X125580237Y-120862767D01*
X125397828Y-120765267D01*
X125237946Y-120634054D01*
X125106733Y-120474172D01*
X125009233Y-120291763D01*
X124951541Y-120101575D01*
X124949193Y-120093836D01*
X124928920Y-119888000D01*
X124949193Y-119682164D01*
X125009233Y-119484238D01*
X125009233Y-119484237D01*
X125106733Y-119301828D01*
X125237946Y-119141946D01*
X125397828Y-119010733D01*
X125580237Y-118913233D01*
X125646213Y-118893220D01*
X125778164Y-118853193D01*
X125855293Y-118845596D01*
X125932420Y-118838000D01*
X126035580Y-118838000D01*
X126112707Y-118845596D01*
X126112707Y-118845596D01*
G37*
G36*
X129574000Y-120938000D02*
X127474000Y-120938000D01*
X127474000Y-118838000D01*
X129574000Y-118838000D01*
X129574000Y-120938000D01*
X129574000Y-120938000D01*
G37*
G36*
X138042482Y-117964686D02*
X138087204Y-117978253D01*
X138128433Y-118000290D01*
X138164561Y-118029939D01*
X138194210Y-118066067D01*
X138216247Y-118107296D01*
X138229814Y-118152018D01*
X138235000Y-118204675D01*
X138235000Y-119539325D01*
X138229814Y-119591982D01*
X138216247Y-119636704D01*
X138194210Y-119677933D01*
X138164561Y-119714061D01*
X138128433Y-119743710D01*
X138087204Y-119765747D01*
X138042482Y-119779314D01*
X137989825Y-119784500D01*
X136330175Y-119784500D01*
X136277518Y-119779314D01*
X136232796Y-119765747D01*
X136191567Y-119743710D01*
X136155439Y-119714061D01*
X136125790Y-119677933D01*
X136103753Y-119636704D01*
X136090186Y-119591982D01*
X136085000Y-119539325D01*
X136085000Y-118204675D01*
X136090186Y-118152018D01*
X136103753Y-118107296D01*
X136125790Y-118066067D01*
X136155439Y-118029939D01*
X136191567Y-118000290D01*
X136232796Y-117978253D01*
X136277518Y-117964686D01*
X136330175Y-117959500D01*
X137989825Y-117959500D01*
X138042482Y-117964686D01*
X138042482Y-117964686D01*
G37*
G36*
X150180857Y-116798272D02*
X150381042Y-116881191D01*
X150381045Y-116881193D01*
X150458481Y-116932934D01*
X150561213Y-117001578D01*
X150714422Y-117154787D01*
X150834809Y-117334958D01*
X150917728Y-117535143D01*
X150960000Y-117747658D01*
X150960000Y-117964342D01*
X150917728Y-118176857D01*
X150834809Y-118377042D01*
X150714422Y-118557213D01*
X150561213Y-118710422D01*
X150381042Y-118830809D01*
X150180857Y-118913728D01*
X149968342Y-118956000D01*
X149751658Y-118956000D01*
X149539143Y-118913728D01*
X149338958Y-118830809D01*
X149158787Y-118710422D01*
X149005578Y-118557213D01*
X148885191Y-118377042D01*
X148802272Y-118176857D01*
X148760000Y-117964342D01*
X148760000Y-117747658D01*
X148802272Y-117535143D01*
X148885191Y-117334958D01*
X149005578Y-117154787D01*
X149158787Y-117001578D01*
X149261520Y-116932934D01*
X149338955Y-116881193D01*
X149338958Y-116881191D01*
X149539143Y-116798272D01*
X149751658Y-116756000D01*
X149968342Y-116756000D01*
X150180857Y-116798272D01*
X150180857Y-116798272D01*
G37*
G36*
X140020857Y-116798272D02*
X140221042Y-116881191D01*
X140221045Y-116881193D01*
X140298481Y-116932934D01*
X140401213Y-117001578D01*
X140554422Y-117154787D01*
X140674809Y-117334958D01*
X140757728Y-117535143D01*
X140800000Y-117747658D01*
X140800000Y-117964342D01*
X140757728Y-118176857D01*
X140674809Y-118377042D01*
X140554422Y-118557213D01*
X140401213Y-118710422D01*
X140221042Y-118830809D01*
X140020857Y-118913728D01*
X139808342Y-118956000D01*
X139591658Y-118956000D01*
X139379143Y-118913728D01*
X139178958Y-118830809D01*
X138998787Y-118710422D01*
X138845578Y-118557213D01*
X138725191Y-118377042D01*
X138642272Y-118176857D01*
X138600000Y-117964342D01*
X138600000Y-117747658D01*
X138642272Y-117535143D01*
X138725191Y-117334958D01*
X138845578Y-117154787D01*
X138998787Y-117001578D01*
X139101520Y-116932934D01*
X139178955Y-116881193D01*
X139178958Y-116881191D01*
X139379143Y-116798272D01*
X139591658Y-116756000D01*
X139808342Y-116756000D01*
X140020857Y-116798272D01*
X140020857Y-116798272D01*
G37*
G36*
X128629634Y-116303324D02*
X128729836Y-116313193D01*
X128840040Y-116346623D01*
X128927763Y-116373233D01*
X129110172Y-116470733D01*
X129270054Y-116601946D01*
X129401267Y-116761828D01*
X129498767Y-116944237D01*
X129516160Y-117001575D01*
X129558807Y-117142164D01*
X129579080Y-117348000D01*
X129558807Y-117553836D01*
X129518780Y-117685787D01*
X129498767Y-117751763D01*
X129401267Y-117934172D01*
X129270054Y-118094054D01*
X129110172Y-118225267D01*
X128927763Y-118322767D01*
X128861787Y-118342780D01*
X128729836Y-118382807D01*
X128652707Y-118390403D01*
X128575580Y-118398000D01*
X128472420Y-118398000D01*
X128395293Y-118390403D01*
X128318164Y-118382807D01*
X128186213Y-118342780D01*
X128120237Y-118322767D01*
X127937828Y-118225267D01*
X127777946Y-118094054D01*
X127646733Y-117934172D01*
X127549233Y-117751763D01*
X127529220Y-117685787D01*
X127489193Y-117553836D01*
X127468920Y-117348000D01*
X127489193Y-117142164D01*
X127531840Y-117001575D01*
X127549233Y-116944237D01*
X127646733Y-116761828D01*
X127777946Y-116601946D01*
X127937828Y-116470733D01*
X128120237Y-116373233D01*
X128207960Y-116346623D01*
X128318164Y-116313193D01*
X128418366Y-116303324D01*
X128472420Y-116298000D01*
X128575580Y-116298000D01*
X128629634Y-116303324D01*
X128629634Y-116303324D01*
G37*
G36*
X126089634Y-116303324D02*
X126189836Y-116313193D01*
X126300040Y-116346623D01*
X126387763Y-116373233D01*
X126570172Y-116470733D01*
X126730054Y-116601946D01*
X126861267Y-116761828D01*
X126958767Y-116944237D01*
X126976160Y-117001575D01*
X127018807Y-117142164D01*
X127039080Y-117348000D01*
X127018807Y-117553836D01*
X126978780Y-117685787D01*
X126958767Y-117751763D01*
X126861267Y-117934172D01*
X126730054Y-118094054D01*
X126570172Y-118225267D01*
X126387763Y-118322767D01*
X126321787Y-118342780D01*
X126189836Y-118382807D01*
X126112707Y-118390403D01*
X126035580Y-118398000D01*
X125932420Y-118398000D01*
X125855293Y-118390403D01*
X125778164Y-118382807D01*
X125646213Y-118342780D01*
X125580237Y-118322767D01*
X125397828Y-118225267D01*
X125237946Y-118094054D01*
X125106733Y-117934172D01*
X125009233Y-117751763D01*
X124989220Y-117685787D01*
X124949193Y-117553836D01*
X124928920Y-117348000D01*
X124949193Y-117142164D01*
X124991840Y-117001575D01*
X125009233Y-116944237D01*
X125106733Y-116761828D01*
X125237946Y-116601946D01*
X125397828Y-116470733D01*
X125580237Y-116373233D01*
X125667960Y-116346623D01*
X125778164Y-116313193D01*
X125878366Y-116303324D01*
X125932420Y-116298000D01*
X126035580Y-116298000D01*
X126089634Y-116303324D01*
X126089634Y-116303324D01*
G37*
G36*
X133896000Y-112662000D02*
X132805975Y-112662000D01*
X132781589Y-112664402D01*
X132758140Y-112671515D01*
X132736529Y-112683066D01*
X132717587Y-112698612D01*
X132702041Y-112717554D01*
X132690490Y-112739165D01*
X132683377Y-112762614D01*
X132680975Y-112787000D01*
X132683377Y-112811386D01*
X132690490Y-112834835D01*
X132702041Y-112856446D01*
X132717587Y-112875388D01*
X132736529Y-112890934D01*
X132769689Y-112906617D01*
X132934081Y-112956485D01*
X133090433Y-113040056D01*
X133227475Y-113152525D01*
X133339944Y-113289567D01*
X133423515Y-113445919D01*
X133474978Y-113615568D01*
X133492354Y-113792000D01*
X133474978Y-113968432D01*
X133423515Y-114138081D01*
X133339944Y-114294433D01*
X133227475Y-114431475D01*
X133090433Y-114543944D01*
X132934081Y-114627515D01*
X132764432Y-114678978D01*
X132720467Y-114683308D01*
X132696434Y-114688089D01*
X132673795Y-114697466D01*
X132653420Y-114711080D01*
X132636093Y-114728407D01*
X132622480Y-114748782D01*
X132613102Y-114771421D01*
X132608322Y-114795455D01*
X132608322Y-114819959D01*
X132613103Y-114843992D01*
X132622480Y-114866631D01*
X132636094Y-114887006D01*
X132653421Y-114904333D01*
X132673796Y-114917946D01*
X132708333Y-114930304D01*
X132720340Y-114932692D01*
X132850521Y-114958586D01*
X133014309Y-115026429D01*
X133161720Y-115124926D01*
X133287074Y-115250280D01*
X133385571Y-115397691D01*
X133453414Y-115561479D01*
X133488000Y-115735356D01*
X133488000Y-115912644D01*
X133453414Y-116086521D01*
X133385571Y-116250309D01*
X133287074Y-116397720D01*
X133161720Y-116523074D01*
X133014309Y-116621571D01*
X132850521Y-116689414D01*
X132765115Y-116706402D01*
X132741666Y-116713515D01*
X132720055Y-116725066D01*
X132701113Y-116740611D01*
X132685567Y-116759554D01*
X132674016Y-116781164D01*
X132666903Y-116804613D01*
X132664501Y-116829000D01*
X132666903Y-116853386D01*
X132674016Y-116876835D01*
X132685567Y-116898446D01*
X132701112Y-116917388D01*
X132720055Y-116932934D01*
X132741665Y-116944485D01*
X132765114Y-116951598D01*
X132789501Y-116954000D01*
X133896000Y-116954000D01*
X133896000Y-118254000D01*
X132296000Y-118254000D01*
X132296000Y-116954000D01*
X132386499Y-116954000D01*
X132410885Y-116951598D01*
X132434334Y-116944485D01*
X132455945Y-116932934D01*
X132474887Y-116917388D01*
X132490433Y-116898446D01*
X132501984Y-116876835D01*
X132509097Y-116853386D01*
X132511499Y-116829000D01*
X132509097Y-116804614D01*
X132501984Y-116781165D01*
X132490433Y-116759554D01*
X132474887Y-116740612D01*
X132455945Y-116725066D01*
X132434334Y-116713515D01*
X132410885Y-116706402D01*
X132325479Y-116689414D01*
X132161691Y-116621571D01*
X132014280Y-116523074D01*
X131888926Y-116397720D01*
X131790429Y-116250309D01*
X131722586Y-116086521D01*
X131688000Y-115912644D01*
X131688000Y-115735356D01*
X131722586Y-115561479D01*
X131790429Y-115397691D01*
X131888926Y-115250280D01*
X132014280Y-115124926D01*
X132161691Y-115026429D01*
X132325479Y-114958586D01*
X132455660Y-114932692D01*
X132467668Y-114930304D01*
X132491115Y-114923191D01*
X132512726Y-114911640D01*
X132531668Y-114896095D01*
X132547213Y-114877153D01*
X132558765Y-114855542D01*
X132565878Y-114832093D01*
X132568280Y-114807706D01*
X132565878Y-114783320D01*
X132558765Y-114759871D01*
X132547214Y-114738260D01*
X132531669Y-114719318D01*
X132512727Y-114703773D01*
X132491116Y-114692221D01*
X132455533Y-114683308D01*
X132411568Y-114678978D01*
X132241919Y-114627515D01*
X132085567Y-114543944D01*
X131948525Y-114431475D01*
X131836056Y-114294433D01*
X131752485Y-114138081D01*
X131701022Y-113968432D01*
X131683646Y-113792000D01*
X131701022Y-113615568D01*
X131752485Y-113445919D01*
X131836056Y-113289567D01*
X131948525Y-113152525D01*
X132085567Y-113040056D01*
X132241919Y-112956485D01*
X132406311Y-112906617D01*
X132428950Y-112897240D01*
X132449324Y-112883626D01*
X132466652Y-112866299D01*
X132480265Y-112845924D01*
X132489643Y-112823285D01*
X132494423Y-112799252D01*
X132494423Y-112774748D01*
X132489642Y-112750714D01*
X132480265Y-112728075D01*
X132466651Y-112707701D01*
X132449324Y-112690373D01*
X132428949Y-112676760D01*
X132406310Y-112667382D01*
X132370025Y-112662000D01*
X132296000Y-112662000D01*
X132296000Y-111362000D01*
X133896000Y-111362000D01*
X133896000Y-112662000D01*
X133896000Y-112662000D01*
G37*
G36*
X145534000Y-117401000D02*
X144534000Y-117401000D01*
X144534000Y-115451000D01*
X145534000Y-115451000D01*
X145534000Y-117401000D01*
X145534000Y-117401000D01*
G37*
G36*
X144264000Y-117401000D02*
X143264000Y-117401000D01*
X143264000Y-115451000D01*
X144264000Y-115451000D01*
X144264000Y-117401000D01*
X144264000Y-117401000D01*
G37*
G36*
X146804000Y-117401000D02*
X145804000Y-117401000D01*
X145804000Y-115451000D01*
X146804000Y-115451000D01*
X146804000Y-117401000D01*
X146804000Y-117401000D01*
G37*
G36*
X148074000Y-117401000D02*
X147074000Y-117401000D01*
X147074000Y-115451000D01*
X148074000Y-115451000D01*
X148074000Y-117401000D01*
X148074000Y-117401000D01*
G37*
G36*
X138042482Y-112884686D02*
X138087204Y-112898253D01*
X138128433Y-112920290D01*
X138164561Y-112949939D01*
X138194210Y-112986067D01*
X138216247Y-113027296D01*
X138229814Y-113072018D01*
X138235000Y-113124675D01*
X138235000Y-114459325D01*
X138229814Y-114511982D01*
X138216247Y-114556704D01*
X138194210Y-114597933D01*
X138164561Y-114634061D01*
X138128433Y-114663710D01*
X138087204Y-114685747D01*
X138042482Y-114699314D01*
X137989825Y-114704500D01*
X136330175Y-114704500D01*
X136277518Y-114699314D01*
X136232796Y-114685747D01*
X136191567Y-114663710D01*
X136155439Y-114634061D01*
X136125790Y-114597933D01*
X136103753Y-114556704D01*
X136090186Y-114511982D01*
X136085000Y-114459325D01*
X136085000Y-114391777D01*
X136082598Y-114367391D01*
X136075485Y-114343942D01*
X136063934Y-114322331D01*
X136048388Y-114303389D01*
X136029446Y-114287843D01*
X136007835Y-114276292D01*
X135984386Y-114269179D01*
X135960000Y-114266777D01*
X135935614Y-114269179D01*
X135912165Y-114276292D01*
X135890554Y-114287843D01*
X135871612Y-114303389D01*
X135856067Y-114322330D01*
X135827076Y-114365718D01*
X135701720Y-114491074D01*
X135554309Y-114589571D01*
X135390521Y-114657414D01*
X135311186Y-114673194D01*
X135248332Y-114685696D01*
X135224885Y-114692809D01*
X135203274Y-114704360D01*
X135184332Y-114719905D01*
X135168787Y-114738847D01*
X135157235Y-114760458D01*
X135150122Y-114783907D01*
X135147720Y-114808294D01*
X135150122Y-114832680D01*
X135157235Y-114856129D01*
X135168786Y-114877740D01*
X135184331Y-114896682D01*
X135203273Y-114912227D01*
X135224884Y-114923779D01*
X135260467Y-114932692D01*
X135304432Y-114937022D01*
X135474081Y-114988485D01*
X135630433Y-115072056D01*
X135767475Y-115184525D01*
X135863502Y-115301533D01*
X135880829Y-115318861D01*
X135901204Y-115332474D01*
X135923843Y-115341852D01*
X135947876Y-115346632D01*
X135972381Y-115346632D01*
X135996414Y-115341851D01*
X136019053Y-115332474D01*
X136039427Y-115318860D01*
X136056755Y-115301533D01*
X136070368Y-115281158D01*
X136079746Y-115258519D01*
X136084526Y-115234487D01*
X136090186Y-115177018D01*
X136103753Y-115132296D01*
X136125790Y-115091067D01*
X136155439Y-115054939D01*
X136191567Y-115025290D01*
X136232796Y-115003253D01*
X136277518Y-114989686D01*
X136330175Y-114984500D01*
X137989825Y-114984500D01*
X138042482Y-114989686D01*
X138087204Y-115003253D01*
X138128433Y-115025290D01*
X138164561Y-115054939D01*
X138194210Y-115091067D01*
X138216247Y-115132296D01*
X138229814Y-115177018D01*
X138235000Y-115229675D01*
X138235000Y-116564325D01*
X138229814Y-116616982D01*
X138216247Y-116661704D01*
X138194210Y-116702933D01*
X138164561Y-116739061D01*
X138128433Y-116768710D01*
X138087204Y-116790747D01*
X138042482Y-116804314D01*
X137989825Y-116809500D01*
X136330175Y-116809500D01*
X136277518Y-116804314D01*
X136232796Y-116790747D01*
X136191567Y-116768710D01*
X136155439Y-116739061D01*
X136125790Y-116702933D01*
X136103753Y-116661704D01*
X136090186Y-116616982D01*
X136085000Y-116564325D01*
X136085000Y-116425922D01*
X136082598Y-116401536D01*
X136075485Y-116378087D01*
X136063934Y-116356476D01*
X136048388Y-116337534D01*
X136029446Y-116321988D01*
X136007835Y-116310437D01*
X135984386Y-116303324D01*
X135960000Y-116300922D01*
X135935614Y-116303324D01*
X135912165Y-116310437D01*
X135890554Y-116321988D01*
X135863374Y-116346623D01*
X135767475Y-116463475D01*
X135630433Y-116575944D01*
X135474081Y-116659515D01*
X135304432Y-116710978D01*
X135172211Y-116724000D01*
X135083789Y-116724000D01*
X134951568Y-116710978D01*
X134781919Y-116659515D01*
X134625567Y-116575944D01*
X134488525Y-116463475D01*
X134376056Y-116326433D01*
X134292485Y-116170081D01*
X134241022Y-116000432D01*
X134223646Y-115824000D01*
X134241022Y-115647568D01*
X134292485Y-115477919D01*
X134376056Y-115321567D01*
X134488525Y-115184525D01*
X134625567Y-115072056D01*
X134781919Y-114988485D01*
X134951568Y-114937022D01*
X134995533Y-114932692D01*
X135019566Y-114927911D01*
X135042205Y-114918534D01*
X135062580Y-114904920D01*
X135079907Y-114887593D01*
X135093520Y-114867218D01*
X135102898Y-114844579D01*
X135107678Y-114820545D01*
X135107678Y-114796041D01*
X135102897Y-114772008D01*
X135093520Y-114749369D01*
X135079906Y-114728994D01*
X135062579Y-114711667D01*
X135042204Y-114698054D01*
X135007667Y-114685696D01*
X134944814Y-114673194D01*
X134865479Y-114657414D01*
X134701691Y-114589571D01*
X134554280Y-114491074D01*
X134428926Y-114365720D01*
X134330429Y-114218309D01*
X134262586Y-114054521D01*
X134228000Y-113880644D01*
X134228000Y-113703356D01*
X134262586Y-113529479D01*
X134330429Y-113365691D01*
X134428926Y-113218280D01*
X134554280Y-113092926D01*
X134701691Y-112994429D01*
X134865479Y-112926586D01*
X135039356Y-112892000D01*
X135216644Y-112892000D01*
X135390521Y-112926586D01*
X135554309Y-112994429D01*
X135701720Y-113092926D01*
X135827076Y-113218282D01*
X135856067Y-113261670D01*
X135871612Y-113280612D01*
X135890554Y-113296157D01*
X135912165Y-113307708D01*
X135935614Y-113314821D01*
X135960000Y-113317223D01*
X135984387Y-113314821D01*
X136007836Y-113307708D01*
X136029447Y-113296156D01*
X136048389Y-113280611D01*
X136063934Y-113261669D01*
X136075485Y-113240058D01*
X136082598Y-113216609D01*
X136085000Y-113192223D01*
X136085000Y-113124675D01*
X136090186Y-113072018D01*
X136103753Y-113027296D01*
X136125790Y-112986067D01*
X136155439Y-112949939D01*
X136191567Y-112920290D01*
X136232796Y-112898253D01*
X136277518Y-112884686D01*
X136330175Y-112879500D01*
X137989825Y-112879500D01*
X138042482Y-112884686D01*
X138042482Y-112884686D01*
G37*
G36*
X126112707Y-113765597D02*
X126189836Y-113773193D01*
X126321787Y-113813220D01*
X126387763Y-113833233D01*
X126570172Y-113930733D01*
X126730054Y-114061946D01*
X126861267Y-114221828D01*
X126958767Y-114404237D01*
X126958767Y-114404238D01*
X127018807Y-114602164D01*
X127039080Y-114808000D01*
X127018807Y-115013836D01*
X127001146Y-115072056D01*
X126958767Y-115211763D01*
X126861267Y-115394172D01*
X126730054Y-115554054D01*
X126570172Y-115685267D01*
X126387763Y-115782767D01*
X126321787Y-115802780D01*
X126189836Y-115842807D01*
X126112707Y-115850403D01*
X126035580Y-115858000D01*
X125932420Y-115858000D01*
X125855293Y-115850403D01*
X125778164Y-115842807D01*
X125646213Y-115802780D01*
X125580237Y-115782767D01*
X125397828Y-115685267D01*
X125237946Y-115554054D01*
X125106733Y-115394172D01*
X125009233Y-115211763D01*
X124966854Y-115072056D01*
X124949193Y-115013836D01*
X124928920Y-114808000D01*
X124949193Y-114602164D01*
X125009233Y-114404238D01*
X125009233Y-114404237D01*
X125106733Y-114221828D01*
X125237946Y-114061946D01*
X125397828Y-113930733D01*
X125580237Y-113833233D01*
X125646213Y-113813220D01*
X125778164Y-113773193D01*
X125855293Y-113765597D01*
X125932420Y-113758000D01*
X126035580Y-113758000D01*
X126112707Y-113765597D01*
X126112707Y-113765597D01*
G37*
G36*
X128652707Y-113765597D02*
X128729836Y-113773193D01*
X128861787Y-113813220D01*
X128927763Y-113833233D01*
X129110172Y-113930733D01*
X129270054Y-114061946D01*
X129401267Y-114221828D01*
X129498767Y-114404237D01*
X129498767Y-114404238D01*
X129558807Y-114602164D01*
X129579080Y-114808000D01*
X129558807Y-115013836D01*
X129541146Y-115072056D01*
X129498767Y-115211763D01*
X129401267Y-115394172D01*
X129270054Y-115554054D01*
X129110172Y-115685267D01*
X128927763Y-115782767D01*
X128861787Y-115802780D01*
X128729836Y-115842807D01*
X128652707Y-115850403D01*
X128575580Y-115858000D01*
X128472420Y-115858000D01*
X128395293Y-115850403D01*
X128318164Y-115842807D01*
X128186213Y-115802780D01*
X128120237Y-115782767D01*
X127937828Y-115685267D01*
X127777946Y-115554054D01*
X127646733Y-115394172D01*
X127549233Y-115211763D01*
X127506854Y-115072056D01*
X127489193Y-115013836D01*
X127468920Y-114808000D01*
X127489193Y-114602164D01*
X127549233Y-114404238D01*
X127549233Y-114404237D01*
X127646733Y-114221828D01*
X127777946Y-114061946D01*
X127937828Y-113930733D01*
X128120237Y-113833233D01*
X128186213Y-113813220D01*
X128318164Y-113773193D01*
X128395293Y-113765597D01*
X128472420Y-113758000D01*
X128575580Y-113758000D01*
X128652707Y-113765597D01*
X128652707Y-113765597D01*
G37*
G36*
X128652707Y-111225596D02*
X128729836Y-111233193D01*
X128861787Y-111273220D01*
X128927763Y-111293233D01*
X129110172Y-111390733D01*
X129270054Y-111521946D01*
X129401267Y-111681828D01*
X129498767Y-111864237D01*
X129498767Y-111864238D01*
X129558807Y-112062164D01*
X129579080Y-112268000D01*
X129558807Y-112473836D01*
X129518780Y-112605787D01*
X129498767Y-112671763D01*
X129401267Y-112854172D01*
X129270054Y-113014054D01*
X129110172Y-113145267D01*
X128927763Y-113242767D01*
X128865450Y-113261669D01*
X128729836Y-113302807D01*
X128652707Y-113310404D01*
X128575580Y-113318000D01*
X128472420Y-113318000D01*
X128395293Y-113310404D01*
X128318164Y-113302807D01*
X128182550Y-113261669D01*
X128120237Y-113242767D01*
X127937828Y-113145267D01*
X127777946Y-113014054D01*
X127646733Y-112854172D01*
X127549233Y-112671763D01*
X127529220Y-112605787D01*
X127489193Y-112473836D01*
X127468920Y-112268000D01*
X127489193Y-112062164D01*
X127549233Y-111864238D01*
X127549233Y-111864237D01*
X127646733Y-111681828D01*
X127777946Y-111521946D01*
X127937828Y-111390733D01*
X128120237Y-111293233D01*
X128186213Y-111273220D01*
X128318164Y-111233193D01*
X128395293Y-111225596D01*
X128472420Y-111218000D01*
X128575580Y-111218000D01*
X128652707Y-111225596D01*
X128652707Y-111225596D01*
G37*
G36*
X126112707Y-111225596D02*
X126189836Y-111233193D01*
X126321787Y-111273220D01*
X126387763Y-111293233D01*
X126570172Y-111390733D01*
X126730054Y-111521946D01*
X126861267Y-111681828D01*
X126958767Y-111864237D01*
X126958767Y-111864238D01*
X127018807Y-112062164D01*
X127039080Y-112268000D01*
X127018807Y-112473836D01*
X126978780Y-112605787D01*
X126958767Y-112671763D01*
X126861267Y-112854172D01*
X126730054Y-113014054D01*
X126570172Y-113145267D01*
X126387763Y-113242767D01*
X126325450Y-113261669D01*
X126189836Y-113302807D01*
X126112707Y-113310404D01*
X126035580Y-113318000D01*
X125932420Y-113318000D01*
X125855293Y-113310404D01*
X125778164Y-113302807D01*
X125642550Y-113261669D01*
X125580237Y-113242767D01*
X125397828Y-113145267D01*
X125237946Y-113014054D01*
X125106733Y-112854172D01*
X125009233Y-112671763D01*
X124989220Y-112605787D01*
X124949193Y-112473836D01*
X124928920Y-112268000D01*
X124949193Y-112062164D01*
X125009233Y-111864238D01*
X125009233Y-111864237D01*
X125106733Y-111681828D01*
X125237946Y-111521946D01*
X125397828Y-111390733D01*
X125580237Y-111293233D01*
X125646213Y-111273220D01*
X125778164Y-111233193D01*
X125855293Y-111225596D01*
X125932420Y-111218000D01*
X126035580Y-111218000D01*
X126112707Y-111225596D01*
X126112707Y-111225596D01*
G37*
G36*
X138042482Y-109909686D02*
X138087204Y-109923253D01*
X138128433Y-109945290D01*
X138164561Y-109974939D01*
X138194210Y-110011067D01*
X138216247Y-110052296D01*
X138229814Y-110097018D01*
X138235000Y-110149675D01*
X138235000Y-111484325D01*
X138229814Y-111536982D01*
X138216247Y-111581704D01*
X138194210Y-111622933D01*
X138164561Y-111659061D01*
X138128433Y-111688710D01*
X138087204Y-111710747D01*
X138042482Y-111724314D01*
X137989825Y-111729500D01*
X136330175Y-111729500D01*
X136277518Y-111724314D01*
X136232796Y-111710747D01*
X136191567Y-111688710D01*
X136155439Y-111659061D01*
X136125790Y-111622933D01*
X136103753Y-111581704D01*
X136090186Y-111536982D01*
X136085000Y-111484325D01*
X136085000Y-110149675D01*
X136090186Y-110097018D01*
X136103753Y-110052296D01*
X136125790Y-110011067D01*
X136155439Y-109974939D01*
X136191567Y-109945290D01*
X136232796Y-109923253D01*
X136277518Y-109909686D01*
X136330175Y-109904500D01*
X137989825Y-109904500D01*
X138042482Y-109909686D01*
X138042482Y-109909686D01*
G37*
G36*
X147265530Y-110250877D02*
X147317010Y-110266493D01*
X147364442Y-110291846D01*
X147406027Y-110325973D01*
X147440154Y-110367558D01*
X147465507Y-110414990D01*
X147481123Y-110466470D01*
X147487000Y-110526140D01*
X147487000Y-111413860D01*
X147481123Y-111473530D01*
X147465507Y-111525010D01*
X147440154Y-111572442D01*
X147406027Y-111614027D01*
X147364442Y-111648154D01*
X147317010Y-111673507D01*
X147265530Y-111689123D01*
X147205860Y-111695000D01*
X146418140Y-111695000D01*
X146358470Y-111689123D01*
X146306990Y-111673507D01*
X146259558Y-111648154D01*
X146217973Y-111614027D01*
X146183846Y-111572442D01*
X146158493Y-111525010D01*
X146142877Y-111473530D01*
X146137000Y-111413860D01*
X146137000Y-110526140D01*
X146142877Y-110466470D01*
X146158493Y-110414990D01*
X146183846Y-110367558D01*
X146217973Y-110325973D01*
X146259558Y-110291846D01*
X146306990Y-110266493D01*
X146358470Y-110250877D01*
X146418140Y-110245000D01*
X147205860Y-110245000D01*
X147265530Y-110250877D01*
X147265530Y-110250877D01*
G37*
G36*
X128652707Y-108685596D02*
X128729836Y-108693193D01*
X128861787Y-108733220D01*
X128927763Y-108753233D01*
X129110172Y-108850733D01*
X129270054Y-108981946D01*
X129401267Y-109141828D01*
X129498767Y-109324237D01*
X129498767Y-109324238D01*
X129558807Y-109522164D01*
X129579080Y-109728000D01*
X129558807Y-109933836D01*
X129539259Y-109998277D01*
X129498767Y-110131763D01*
X129401267Y-110314172D01*
X129270054Y-110474054D01*
X129110172Y-110605267D01*
X128927763Y-110702767D01*
X128861787Y-110722780D01*
X128729836Y-110762807D01*
X128652707Y-110770404D01*
X128575580Y-110778000D01*
X128472420Y-110778000D01*
X128395293Y-110770404D01*
X128318164Y-110762807D01*
X128186213Y-110722780D01*
X128120237Y-110702767D01*
X127937828Y-110605267D01*
X127777946Y-110474054D01*
X127646733Y-110314172D01*
X127549233Y-110131763D01*
X127508741Y-109998277D01*
X127489193Y-109933836D01*
X127468920Y-109728000D01*
X127489193Y-109522164D01*
X127549233Y-109324238D01*
X127549233Y-109324237D01*
X127646733Y-109141828D01*
X127777946Y-108981946D01*
X127937828Y-108850733D01*
X128120237Y-108753233D01*
X128186213Y-108733220D01*
X128318164Y-108693193D01*
X128395293Y-108685596D01*
X128472420Y-108678000D01*
X128575580Y-108678000D01*
X128652707Y-108685596D01*
X128652707Y-108685596D01*
G37*
G36*
X126112707Y-108685596D02*
X126189836Y-108693193D01*
X126321787Y-108733220D01*
X126387763Y-108753233D01*
X126570172Y-108850733D01*
X126730054Y-108981946D01*
X126861267Y-109141828D01*
X126958767Y-109324237D01*
X126958767Y-109324238D01*
X127018807Y-109522164D01*
X127039080Y-109728000D01*
X127018807Y-109933836D01*
X126999259Y-109998277D01*
X126958767Y-110131763D01*
X126861267Y-110314172D01*
X126730054Y-110474054D01*
X126570172Y-110605267D01*
X126387763Y-110702767D01*
X126321787Y-110722780D01*
X126189836Y-110762807D01*
X126112707Y-110770404D01*
X126035580Y-110778000D01*
X125932420Y-110778000D01*
X125855293Y-110770404D01*
X125778164Y-110762807D01*
X125646213Y-110722780D01*
X125580237Y-110702767D01*
X125397828Y-110605267D01*
X125237946Y-110474054D01*
X125106733Y-110314172D01*
X125009233Y-110131763D01*
X124968741Y-109998277D01*
X124949193Y-109933836D01*
X124928920Y-109728000D01*
X124949193Y-109522164D01*
X125009233Y-109324238D01*
X125009233Y-109324237D01*
X125106733Y-109141828D01*
X125237946Y-108981946D01*
X125397828Y-108850733D01*
X125580237Y-108753233D01*
X125646213Y-108733220D01*
X125778164Y-108693193D01*
X125855293Y-108685596D01*
X125932420Y-108678000D01*
X126035580Y-108678000D01*
X126112707Y-108685596D01*
X126112707Y-108685596D01*
G37*
G36*
X150180857Y-108498272D02*
X150381042Y-108581191D01*
X150381045Y-108581193D01*
X150525927Y-108678000D01*
X150561213Y-108701578D01*
X150714422Y-108854787D01*
X150834809Y-109034958D01*
X150917728Y-109235143D01*
X150960000Y-109447658D01*
X150960000Y-109664342D01*
X150917728Y-109876857D01*
X150834809Y-110077042D01*
X150834807Y-110077045D01*
X150718250Y-110251485D01*
X150714422Y-110257213D01*
X150561213Y-110410422D01*
X150561210Y-110410424D01*
X150561209Y-110410425D01*
X150402222Y-110516657D01*
X150381042Y-110530809D01*
X150180857Y-110613728D01*
X149968342Y-110656000D01*
X149751658Y-110656000D01*
X149539143Y-110613728D01*
X149338958Y-110530809D01*
X149317778Y-110516657D01*
X149158791Y-110410425D01*
X149158790Y-110410424D01*
X149158787Y-110410422D01*
X149005578Y-110257213D01*
X149001751Y-110251485D01*
X148885193Y-110077045D01*
X148885191Y-110077042D01*
X148802272Y-109876857D01*
X148760000Y-109664342D01*
X148760000Y-109447658D01*
X148802272Y-109235143D01*
X148885191Y-109034958D01*
X149005578Y-108854787D01*
X149158787Y-108701578D01*
X149194074Y-108678000D01*
X149338955Y-108581193D01*
X149338958Y-108581191D01*
X149539143Y-108498272D01*
X149751658Y-108456000D01*
X149968342Y-108456000D01*
X150180857Y-108498272D01*
X150180857Y-108498272D01*
G37*
G36*
X140020857Y-108498272D02*
X140221042Y-108581191D01*
X140221045Y-108581193D01*
X140365927Y-108678000D01*
X140401213Y-108701578D01*
X140554422Y-108854787D01*
X140674809Y-109034958D01*
X140757728Y-109235143D01*
X140800000Y-109447658D01*
X140800000Y-109664342D01*
X140757728Y-109876857D01*
X140674809Y-110077042D01*
X140674807Y-110077045D01*
X140558250Y-110251485D01*
X140554422Y-110257213D01*
X140401213Y-110410422D01*
X140401210Y-110410424D01*
X140401209Y-110410425D01*
X140242222Y-110516657D01*
X140221042Y-110530809D01*
X140020857Y-110613728D01*
X139808342Y-110656000D01*
X139591658Y-110656000D01*
X139379143Y-110613728D01*
X139178958Y-110530809D01*
X139157778Y-110516657D01*
X138998791Y-110410425D01*
X138998790Y-110410424D01*
X138998787Y-110410422D01*
X138845578Y-110257213D01*
X138841751Y-110251485D01*
X138725193Y-110077045D01*
X138725191Y-110077042D01*
X138642272Y-109876857D01*
X138600000Y-109664342D01*
X138600000Y-109447658D01*
X138642272Y-109235143D01*
X138725191Y-109034958D01*
X138845578Y-108854787D01*
X138998787Y-108701578D01*
X139034074Y-108678000D01*
X139178955Y-108581193D01*
X139178958Y-108581191D01*
X139379143Y-108498272D01*
X139591658Y-108456000D01*
X139808342Y-108456000D01*
X140020857Y-108498272D01*
X140020857Y-108498272D01*
G37*
G36*
X145233530Y-108500877D02*
X145285010Y-108516493D01*
X145332442Y-108541846D01*
X145374027Y-108575973D01*
X145408154Y-108617558D01*
X145433507Y-108664990D01*
X145449123Y-108716470D01*
X145455000Y-108776140D01*
X145455000Y-109663860D01*
X145449123Y-109723530D01*
X145433507Y-109775010D01*
X145408154Y-109822442D01*
X145374027Y-109864027D01*
X145332442Y-109898154D01*
X145285010Y-109923507D01*
X145233530Y-109939123D01*
X145173860Y-109945000D01*
X144386140Y-109945000D01*
X144326470Y-109939123D01*
X144274990Y-109923507D01*
X144227558Y-109898154D01*
X144185973Y-109864027D01*
X144151846Y-109822442D01*
X144126493Y-109775010D01*
X144110877Y-109723530D01*
X144105000Y-109663860D01*
X144105000Y-108776140D01*
X144110877Y-108716470D01*
X144126493Y-108664990D01*
X144151846Y-108617558D01*
X144185973Y-108575973D01*
X144227558Y-108541846D01*
X144274990Y-108516493D01*
X144326470Y-108500877D01*
X144386140Y-108495000D01*
X145173860Y-108495000D01*
X145233530Y-108500877D01*
X145233530Y-108500877D01*
G37*
G36*
X147265530Y-108500877D02*
X147317010Y-108516493D01*
X147364442Y-108541846D01*
X147406027Y-108575973D01*
X147440154Y-108617558D01*
X147465507Y-108664990D01*
X147481123Y-108716470D01*
X147487000Y-108776140D01*
X147487000Y-109663860D01*
X147481123Y-109723530D01*
X147465507Y-109775010D01*
X147440154Y-109822442D01*
X147406027Y-109864027D01*
X147364442Y-109898154D01*
X147317010Y-109923507D01*
X147265530Y-109939123D01*
X147205860Y-109945000D01*
X146418140Y-109945000D01*
X146358470Y-109939123D01*
X146306990Y-109923507D01*
X146259558Y-109898154D01*
X146217973Y-109864027D01*
X146183846Y-109822442D01*
X146158493Y-109775010D01*
X146142877Y-109723530D01*
X146137000Y-109663860D01*
X146137000Y-108776140D01*
X146142877Y-108716470D01*
X146158493Y-108664990D01*
X146183846Y-108617558D01*
X146217973Y-108575973D01*
X146259558Y-108541846D01*
X146306990Y-108516493D01*
X146358470Y-108500877D01*
X146418140Y-108495000D01*
X147205860Y-108495000D01*
X147265530Y-108500877D01*
X147265530Y-108500877D01*
G37*
G36*
X133896000Y-109362000D02*
X132296000Y-109362000D01*
X132296000Y-108062000D01*
X133896000Y-108062000D01*
X133896000Y-109362000D01*
X133896000Y-109362000D01*
G37*
G36*
X145233530Y-106750877D02*
X145285010Y-106766493D01*
X145332442Y-106791846D01*
X145374027Y-106825973D01*
X145408154Y-106867558D01*
X145433507Y-106914990D01*
X145449123Y-106966470D01*
X145455000Y-107026140D01*
X145455000Y-107913860D01*
X145449123Y-107973530D01*
X145433507Y-108025010D01*
X145408154Y-108072442D01*
X145374027Y-108114027D01*
X145332442Y-108148154D01*
X145285010Y-108173507D01*
X145233530Y-108189123D01*
X145173860Y-108195000D01*
X144386140Y-108195000D01*
X144326470Y-108189123D01*
X144274990Y-108173507D01*
X144227558Y-108148154D01*
X144185973Y-108114027D01*
X144151846Y-108072442D01*
X144126493Y-108025010D01*
X144110877Y-107973530D01*
X144105000Y-107913860D01*
X144105000Y-107026140D01*
X144110877Y-106966470D01*
X144126493Y-106914990D01*
X144151846Y-106867558D01*
X144185973Y-106825973D01*
X144227558Y-106791846D01*
X144274990Y-106766493D01*
X144326470Y-106750877D01*
X144386140Y-106745000D01*
X145173860Y-106745000D01*
X145233530Y-106750877D01*
X145233530Y-106750877D01*
G37*
G36*
X147089530Y-104994877D02*
X147141010Y-105010493D01*
X147188442Y-105035846D01*
X147230027Y-105069973D01*
X147264154Y-105111558D01*
X147289507Y-105158990D01*
X147305123Y-105210470D01*
X147311000Y-105270140D01*
X147311000Y-106057860D01*
X147305123Y-106117530D01*
X147289507Y-106169010D01*
X147264154Y-106216442D01*
X147230027Y-106258027D01*
X147188442Y-106292154D01*
X147141010Y-106317507D01*
X147089530Y-106333123D01*
X147029860Y-106339000D01*
X146142140Y-106339000D01*
X146082470Y-106333123D01*
X146030990Y-106317507D01*
X145983558Y-106292154D01*
X145941973Y-106258027D01*
X145907846Y-106216442D01*
X145882493Y-106169010D01*
X145866877Y-106117530D01*
X145861000Y-106057860D01*
X145861000Y-105270140D01*
X145866877Y-105210470D01*
X145882493Y-105158990D01*
X145907846Y-105111558D01*
X145941973Y-105069973D01*
X145983558Y-105035846D01*
X146030990Y-105010493D01*
X146082470Y-104994877D01*
X146142140Y-104989000D01*
X147029860Y-104989000D01*
X147089530Y-104994877D01*
X147089530Y-104994877D01*
G37*
G36*
X133317530Y-104994877D02*
X133369010Y-105010493D01*
X133416442Y-105035846D01*
X133458027Y-105069973D01*
X133492154Y-105111558D01*
X133517507Y-105158990D01*
X133533123Y-105210470D01*
X133539000Y-105270140D01*
X133539000Y-106057860D01*
X133533123Y-106117530D01*
X133517507Y-106169010D01*
X133492154Y-106216442D01*
X133458027Y-106258027D01*
X133416442Y-106292154D01*
X133369010Y-106317507D01*
X133317530Y-106333123D01*
X133257860Y-106339000D01*
X132370140Y-106339000D01*
X132310470Y-106333123D01*
X132258990Y-106317507D01*
X132211558Y-106292154D01*
X132169973Y-106258027D01*
X132135846Y-106216442D01*
X132110493Y-106169010D01*
X132094877Y-106117530D01*
X132089000Y-106057860D01*
X132089000Y-105270140D01*
X132094877Y-105210470D01*
X132110493Y-105158990D01*
X132135846Y-105111558D01*
X132169973Y-105069973D01*
X132211558Y-105035846D01*
X132258990Y-105010493D01*
X132310470Y-104994877D01*
X132370140Y-104989000D01*
X133257860Y-104989000D01*
X133317530Y-104994877D01*
X133317530Y-104994877D01*
G37*
G36*
X148839530Y-104994877D02*
X148891010Y-105010493D01*
X148938442Y-105035846D01*
X148980027Y-105069973D01*
X149014154Y-105111558D01*
X149039507Y-105158990D01*
X149055123Y-105210470D01*
X149061000Y-105270140D01*
X149061000Y-106057860D01*
X149055123Y-106117530D01*
X149039507Y-106169010D01*
X149014154Y-106216442D01*
X148980027Y-106258027D01*
X148938442Y-106292154D01*
X148891010Y-106317507D01*
X148839530Y-106333123D01*
X148779860Y-106339000D01*
X147892140Y-106339000D01*
X147832470Y-106333123D01*
X147780990Y-106317507D01*
X147733558Y-106292154D01*
X147691973Y-106258027D01*
X147657846Y-106216442D01*
X147632493Y-106169010D01*
X147616877Y-106117530D01*
X147611000Y-106057860D01*
X147611000Y-105270140D01*
X147616877Y-105210470D01*
X147632493Y-105158990D01*
X147657846Y-105111558D01*
X147691973Y-105069973D01*
X147733558Y-105035846D01*
X147780990Y-105010493D01*
X147832470Y-104994877D01*
X147892140Y-104989000D01*
X148779860Y-104989000D01*
X148839530Y-104994877D01*
X148839530Y-104994877D01*
G37*
G36*
X131567530Y-104994877D02*
X131619010Y-105010493D01*
X131666442Y-105035846D01*
X131708027Y-105069973D01*
X131742154Y-105111558D01*
X131767507Y-105158990D01*
X131783123Y-105210470D01*
X131789000Y-105270140D01*
X131789000Y-106057860D01*
X131783123Y-106117530D01*
X131767507Y-106169010D01*
X131742154Y-106216442D01*
X131708027Y-106258027D01*
X131666442Y-106292154D01*
X131619010Y-106317507D01*
X131567530Y-106333123D01*
X131507860Y-106339000D01*
X130620140Y-106339000D01*
X130560470Y-106333123D01*
X130508990Y-106317507D01*
X130461558Y-106292154D01*
X130419973Y-106258027D01*
X130385846Y-106216442D01*
X130360493Y-106169010D01*
X130344877Y-106117530D01*
X130339000Y-106057860D01*
X130339000Y-105270140D01*
X130344877Y-105210470D01*
X130360493Y-105158990D01*
X130385846Y-105111558D01*
X130419973Y-105069973D01*
X130461558Y-105035846D01*
X130508990Y-105010493D01*
X130560470Y-104994877D01*
X130620140Y-104989000D01*
X131507860Y-104989000D01*
X131567530Y-104994877D01*
X131567530Y-104994877D01*
G37*
G36*
X128884857Y-102574272D02*
X129085042Y-102657191D01*
X129265213Y-102777578D01*
X129418422Y-102930787D01*
X129538809Y-103110958D01*
X129621728Y-103311143D01*
X129664000Y-103523658D01*
X129664000Y-103740342D01*
X129621728Y-103952857D01*
X129538809Y-104153042D01*
X129418422Y-104333213D01*
X129265213Y-104486422D01*
X129085042Y-104606809D01*
X128884857Y-104689728D01*
X128672342Y-104732000D01*
X128455658Y-104732000D01*
X128243143Y-104689728D01*
X128042958Y-104606809D01*
X127862787Y-104486422D01*
X127709578Y-104333213D01*
X127589191Y-104153042D01*
X127506272Y-103952857D01*
X127464000Y-103740342D01*
X127464000Y-103523658D01*
X127506272Y-103311143D01*
X127589191Y-103110958D01*
X127709578Y-102930787D01*
X127862787Y-102777578D01*
X128042958Y-102657191D01*
X128243143Y-102574272D01*
X128455658Y-102532000D01*
X128672342Y-102532000D01*
X128884857Y-102574272D01*
X128884857Y-102574272D01*
G37*
G36*
X151156857Y-102574272D02*
X151357042Y-102657191D01*
X151537213Y-102777578D01*
X151690422Y-102930787D01*
X151810809Y-103110958D01*
X151893728Y-103311143D01*
X151936000Y-103523658D01*
X151936000Y-103740342D01*
X151893728Y-103952857D01*
X151810809Y-104153042D01*
X151690422Y-104333213D01*
X151537213Y-104486422D01*
X151357042Y-104606809D01*
X151156857Y-104689728D01*
X150944342Y-104732000D01*
X150727658Y-104732000D01*
X150515143Y-104689728D01*
X150314958Y-104606809D01*
X150134787Y-104486422D01*
X149981578Y-104333213D01*
X149861191Y-104153042D01*
X149778272Y-103952857D01*
X149736000Y-103740342D01*
X149736000Y-103523658D01*
X149778272Y-103311143D01*
X149861191Y-103110958D01*
X149981578Y-102930787D01*
X150134787Y-102777578D01*
X150314958Y-102657191D01*
X150515143Y-102574272D01*
X150727658Y-102532000D01*
X150944342Y-102532000D01*
X151156857Y-102574272D01*
X151156857Y-102574272D01*
G37*
G36*
X148656857Y-102574272D02*
X148857042Y-102657191D01*
X149037213Y-102777578D01*
X149190422Y-102930787D01*
X149310809Y-103110958D01*
X149393728Y-103311143D01*
X149436000Y-103523658D01*
X149436000Y-103740342D01*
X149393728Y-103952857D01*
X149310809Y-104153042D01*
X149190422Y-104333213D01*
X149037213Y-104486422D01*
X148857042Y-104606809D01*
X148656857Y-104689728D01*
X148444342Y-104732000D01*
X148227658Y-104732000D01*
X148015143Y-104689728D01*
X147814958Y-104606809D01*
X147634787Y-104486422D01*
X147481578Y-104333213D01*
X147361191Y-104153042D01*
X147278272Y-103952857D01*
X147236000Y-103740342D01*
X147236000Y-103523658D01*
X147278272Y-103311143D01*
X147361191Y-103110958D01*
X147481578Y-102930787D01*
X147634787Y-102777578D01*
X147814958Y-102657191D01*
X148015143Y-102574272D01*
X148227658Y-102532000D01*
X148444342Y-102532000D01*
X148656857Y-102574272D01*
X148656857Y-102574272D01*
G37*
G36*
X146156857Y-102574272D02*
X146357042Y-102657191D01*
X146537213Y-102777578D01*
X146690422Y-102930787D01*
X146810809Y-103110958D01*
X146893728Y-103311143D01*
X146936000Y-103523658D01*
X146936000Y-103740342D01*
X146893728Y-103952857D01*
X146810809Y-104153042D01*
X146690422Y-104333213D01*
X146537213Y-104486422D01*
X146357042Y-104606809D01*
X146156857Y-104689728D01*
X145944342Y-104732000D01*
X145727658Y-104732000D01*
X145515143Y-104689728D01*
X145314958Y-104606809D01*
X145134787Y-104486422D01*
X144981578Y-104333213D01*
X144861191Y-104153042D01*
X144778272Y-103952857D01*
X144736000Y-103740342D01*
X144736000Y-103523658D01*
X144778272Y-103311143D01*
X144861191Y-103110958D01*
X144981578Y-102930787D01*
X145134787Y-102777578D01*
X145314958Y-102657191D01*
X145515143Y-102574272D01*
X145727658Y-102532000D01*
X145944342Y-102532000D01*
X146156857Y-102574272D01*
X146156857Y-102574272D01*
G37*
G36*
X131384857Y-102574272D02*
X131585042Y-102657191D01*
X131765213Y-102777578D01*
X131918422Y-102930787D01*
X132038809Y-103110958D01*
X132121728Y-103311143D01*
X132164000Y-103523658D01*
X132164000Y-103740342D01*
X132121728Y-103952857D01*
X132038809Y-104153042D01*
X131918422Y-104333213D01*
X131765213Y-104486422D01*
X131585042Y-104606809D01*
X131384857Y-104689728D01*
X131172342Y-104732000D01*
X130955658Y-104732000D01*
X130743143Y-104689728D01*
X130542958Y-104606809D01*
X130362787Y-104486422D01*
X130209578Y-104333213D01*
X130089191Y-104153042D01*
X130006272Y-103952857D01*
X129964000Y-103740342D01*
X129964000Y-103523658D01*
X130006272Y-103311143D01*
X130089191Y-103110958D01*
X130209578Y-102930787D01*
X130362787Y-102777578D01*
X130542958Y-102657191D01*
X130743143Y-102574272D01*
X130955658Y-102532000D01*
X131172342Y-102532000D01*
X131384857Y-102574272D01*
X131384857Y-102574272D01*
G37*
G36*
X133884857Y-102574272D02*
X134085042Y-102657191D01*
X134265213Y-102777578D01*
X134418422Y-102930787D01*
X134538809Y-103110958D01*
X134621728Y-103311143D01*
X134664000Y-103523658D01*
X134664000Y-103740342D01*
X134621728Y-103952857D01*
X134538809Y-104153042D01*
X134418422Y-104333213D01*
X134265213Y-104486422D01*
X134085042Y-104606809D01*
X133884857Y-104689728D01*
X133672342Y-104732000D01*
X133455658Y-104732000D01*
X133243143Y-104689728D01*
X133042958Y-104606809D01*
X132862787Y-104486422D01*
X132709578Y-104333213D01*
X132589191Y-104153042D01*
X132506272Y-103952857D01*
X132464000Y-103740342D01*
X132464000Y-103523658D01*
X132506272Y-103311143D01*
X132589191Y-103110958D01*
X132709578Y-102930787D01*
X132862787Y-102777578D01*
X133042958Y-102657191D01*
X133243143Y-102574272D01*
X133455658Y-102532000D01*
X133672342Y-102532000D01*
X133884857Y-102574272D01*
X133884857Y-102574272D01*
G37*
G36*
X144577716Y-94516544D02*
X144978090Y-94682384D01*
X145338421Y-94923150D01*
X145644850Y-95229579D01*
X145885616Y-95589910D01*
X146051456Y-95990284D01*
X146136000Y-96415317D01*
X146136000Y-96848683D01*
X146051456Y-97273716D01*
X145885616Y-97674090D01*
X145644850Y-98034421D01*
X145338421Y-98340850D01*
X144978090Y-98581616D01*
X144577716Y-98747456D01*
X144152683Y-98832000D01*
X143719317Y-98832000D01*
X143294284Y-98747456D01*
X142893910Y-98581616D01*
X142533579Y-98340850D01*
X142227150Y-98034421D01*
X141986384Y-97674090D01*
X141820544Y-97273716D01*
X141736000Y-96848683D01*
X141736000Y-96415317D01*
X141820544Y-95990284D01*
X141986384Y-95589910D01*
X142227150Y-95229579D01*
X142533579Y-94923150D01*
X142893910Y-94682384D01*
X143294284Y-94516544D01*
X143719317Y-94432000D01*
X144152683Y-94432000D01*
X144577716Y-94516544D01*
X144577716Y-94516544D01*
G37*
G36*
X153377716Y-94516544D02*
X153778090Y-94682384D01*
X154138421Y-94923150D01*
X154444850Y-95229579D01*
X154685616Y-95589910D01*
X154851456Y-95990284D01*
X154936000Y-96415317D01*
X154936000Y-96848683D01*
X154851456Y-97273716D01*
X154685616Y-97674090D01*
X154444850Y-98034421D01*
X154138421Y-98340850D01*
X153778090Y-98581616D01*
X153377716Y-98747456D01*
X152952683Y-98832000D01*
X152519317Y-98832000D01*
X152094284Y-98747456D01*
X151693910Y-98581616D01*
X151333579Y-98340850D01*
X151027150Y-98034421D01*
X150786384Y-97674090D01*
X150620544Y-97273716D01*
X150536000Y-96848683D01*
X150536000Y-96415317D01*
X150620544Y-95990284D01*
X150786384Y-95589910D01*
X151027150Y-95229579D01*
X151333579Y-94923150D01*
X151693910Y-94682384D01*
X152094284Y-94516544D01*
X152519317Y-94432000D01*
X152952683Y-94432000D01*
X153377716Y-94516544D01*
X153377716Y-94516544D01*
G37*
G36*
X127305716Y-94516544D02*
X127706090Y-94682384D01*
X128066421Y-94923150D01*
X128372850Y-95229579D01*
X128613616Y-95589910D01*
X128779456Y-95990284D01*
X128864000Y-96415317D01*
X128864000Y-96848683D01*
X128779456Y-97273716D01*
X128613616Y-97674090D01*
X128372850Y-98034421D01*
X128066421Y-98340850D01*
X127706090Y-98581616D01*
X127305716Y-98747456D01*
X126880683Y-98832000D01*
X126447317Y-98832000D01*
X126022284Y-98747456D01*
X125621910Y-98581616D01*
X125261579Y-98340850D01*
X124955150Y-98034421D01*
X124714384Y-97674090D01*
X124548544Y-97273716D01*
X124464000Y-96848683D01*
X124464000Y-96415317D01*
X124548544Y-95990284D01*
X124714384Y-95589910D01*
X124955150Y-95229579D01*
X125261579Y-94923150D01*
X125621910Y-94682384D01*
X126022284Y-94516544D01*
X126447317Y-94432000D01*
X126880683Y-94432000D01*
X127305716Y-94516544D01*
X127305716Y-94516544D01*
G37*
G36*
X138423934Y-91003664D02*
X138578627Y-91067740D01*
X138717847Y-91160764D01*
X138836236Y-91279153D01*
X138929260Y-91418373D01*
X138993336Y-91573066D01*
X139026000Y-91737281D01*
X139026000Y-91904719D01*
X138993336Y-92068934D01*
X138929260Y-92223627D01*
X138836236Y-92362847D01*
X138717847Y-92481236D01*
X138578627Y-92574260D01*
X138423934Y-92638336D01*
X138259719Y-92671000D01*
X138092281Y-92671000D01*
X137928067Y-92638336D01*
X137928065Y-92638335D01*
X137928064Y-92638335D01*
X137857377Y-92609055D01*
X137833927Y-92601942D01*
X137809541Y-92599540D01*
X137785154Y-92601942D01*
X137761705Y-92609055D01*
X137740094Y-92620606D01*
X137721152Y-92636151D01*
X137705607Y-92655093D01*
X137694055Y-92676704D01*
X137686942Y-92700153D01*
X137684540Y-92724539D01*
X137686942Y-92748926D01*
X137694055Y-92772376D01*
X137723336Y-92843067D01*
X137756000Y-93007281D01*
X137756000Y-93174719D01*
X137723174Y-93339750D01*
X137716542Y-93361613D01*
X137714140Y-93385999D01*
X137716542Y-93410385D01*
X137723655Y-93433835D01*
X137735206Y-93455445D01*
X137750751Y-93474388D01*
X137769693Y-93489933D01*
X137791304Y-93501485D01*
X137814753Y-93508598D01*
X137839140Y-93511000D01*
X139026000Y-93511000D01*
X139026000Y-95211000D01*
X137394295Y-95211000D01*
X137369909Y-95213402D01*
X137346460Y-95220515D01*
X137324849Y-95232066D01*
X137305907Y-95247612D01*
X137290361Y-95266554D01*
X137278810Y-95288165D01*
X137271697Y-95311614D01*
X137269295Y-95336000D01*
X137271697Y-95360386D01*
X137278810Y-95383835D01*
X137290361Y-95405446D01*
X137413616Y-95589910D01*
X137579456Y-95990284D01*
X137664000Y-96415317D01*
X137664000Y-96848683D01*
X137579456Y-97273716D01*
X137413616Y-97674090D01*
X137172850Y-98034421D01*
X136866421Y-98340850D01*
X136506090Y-98581616D01*
X136105716Y-98747456D01*
X135680683Y-98832000D01*
X135247317Y-98832000D01*
X134822284Y-98747456D01*
X134421910Y-98581616D01*
X134061579Y-98340850D01*
X133755150Y-98034421D01*
X133514384Y-97674090D01*
X133348544Y-97273716D01*
X133264000Y-96848683D01*
X133264000Y-96415317D01*
X133348544Y-95990284D01*
X133514384Y-95589910D01*
X133755150Y-95229579D01*
X134061579Y-94923150D01*
X134421910Y-94682384D01*
X134822284Y-94516544D01*
X135247317Y-94432000D01*
X135680683Y-94432000D01*
X136105716Y-94516544D01*
X136506090Y-94682384D01*
X136866421Y-94923150D01*
X137112612Y-95169341D01*
X137131554Y-95184887D01*
X137153165Y-95196438D01*
X137176614Y-95203551D01*
X137201000Y-95205953D01*
X137225386Y-95203551D01*
X137248835Y-95196438D01*
X137270446Y-95184887D01*
X137289388Y-95169341D01*
X137304934Y-95150399D01*
X137316485Y-95128788D01*
X137323598Y-95105339D01*
X137326000Y-95080953D01*
X137326000Y-94024140D01*
X137323598Y-93999754D01*
X137316485Y-93976305D01*
X137304934Y-93954694D01*
X137289388Y-93935752D01*
X137270446Y-93920206D01*
X137248835Y-93908655D01*
X137225386Y-93901542D01*
X137201000Y-93899140D01*
X137176614Y-93901542D01*
X137154750Y-93908174D01*
X136989719Y-93941000D01*
X136822281Y-93941000D01*
X136658066Y-93908336D01*
X136503373Y-93844260D01*
X136364153Y-93751236D01*
X136245764Y-93632847D01*
X136152740Y-93493627D01*
X136088664Y-93338934D01*
X136056000Y-93174719D01*
X136056000Y-93007281D01*
X136088664Y-92843066D01*
X136152740Y-92688373D01*
X136245764Y-92549153D01*
X136364153Y-92430764D01*
X136503373Y-92337740D01*
X136658066Y-92273664D01*
X136822281Y-92241000D01*
X136989719Y-92241000D01*
X137153933Y-92273664D01*
X137153935Y-92273665D01*
X137153936Y-92273665D01*
X137196737Y-92291394D01*
X137224624Y-92302945D01*
X137248073Y-92310058D01*
X137272459Y-92312460D01*
X137296846Y-92310058D01*
X137320295Y-92302945D01*
X137341906Y-92291394D01*
X137360848Y-92275849D01*
X137376393Y-92256907D01*
X137387945Y-92235296D01*
X137395058Y-92211847D01*
X137397460Y-92187461D01*
X137395058Y-92163074D01*
X137387945Y-92139624D01*
X137358664Y-92068933D01*
X137326000Y-91904719D01*
X137326000Y-91737281D01*
X137358664Y-91573066D01*
X137422740Y-91418373D01*
X137515764Y-91279153D01*
X137634153Y-91160764D01*
X137773373Y-91067740D01*
X137928066Y-91003664D01*
X138092281Y-90971000D01*
X138259719Y-90971000D01*
X138423934Y-91003664D01*
X138423934Y-91003664D01*
G37*
G36*
X130833530Y-92040877D02*
X130885010Y-92056493D01*
X130932442Y-92081846D01*
X130974027Y-92115973D01*
X131008154Y-92157558D01*
X131033507Y-92204990D01*
X131049123Y-92256470D01*
X131055000Y-92316140D01*
X131055000Y-93103860D01*
X131049123Y-93163530D01*
X131033507Y-93215010D01*
X131008154Y-93262442D01*
X130974027Y-93304027D01*
X130932444Y-93338152D01*
X130888277Y-93361760D01*
X130867903Y-93375374D01*
X130850576Y-93392701D01*
X130836962Y-93413075D01*
X130827584Y-93435714D01*
X130822804Y-93459748D01*
X130822804Y-93484252D01*
X130827584Y-93508286D01*
X130836962Y-93530925D01*
X130850576Y-93551299D01*
X130867903Y-93568626D01*
X130888277Y-93582240D01*
X130932444Y-93605848D01*
X130974027Y-93639973D01*
X131008154Y-93681558D01*
X131033507Y-93728990D01*
X131049123Y-93780470D01*
X131055000Y-93840140D01*
X131055000Y-94627860D01*
X131049123Y-94687530D01*
X131033507Y-94739010D01*
X131008154Y-94786442D01*
X130974027Y-94828027D01*
X130932442Y-94862154D01*
X130885010Y-94887507D01*
X130833530Y-94903123D01*
X130773860Y-94909000D01*
X129886140Y-94909000D01*
X129826470Y-94903123D01*
X129774990Y-94887507D01*
X129727558Y-94862154D01*
X129685973Y-94828027D01*
X129651846Y-94786442D01*
X129626493Y-94739010D01*
X129610877Y-94687530D01*
X129605000Y-94627860D01*
X129605000Y-93840140D01*
X129610877Y-93780470D01*
X129626493Y-93728990D01*
X129651846Y-93681558D01*
X129685973Y-93639973D01*
X129727556Y-93605848D01*
X129771723Y-93582240D01*
X129792097Y-93568626D01*
X129809424Y-93551299D01*
X129823038Y-93530925D01*
X129832416Y-93508286D01*
X129837196Y-93484252D01*
X129837196Y-93459748D01*
X129832416Y-93435714D01*
X129823038Y-93413075D01*
X129809424Y-93392701D01*
X129792097Y-93375374D01*
X129771723Y-93361760D01*
X129727556Y-93338152D01*
X129685973Y-93304027D01*
X129651846Y-93262442D01*
X129626493Y-93215010D01*
X129610877Y-93163530D01*
X129605000Y-93103860D01*
X129605000Y-92316140D01*
X129610877Y-92256470D01*
X129626493Y-92204990D01*
X129651846Y-92157558D01*
X129685973Y-92115973D01*
X129727558Y-92081846D01*
X129774990Y-92056493D01*
X129826470Y-92040877D01*
X129886140Y-92035000D01*
X130773860Y-92035000D01*
X130833530Y-92040877D01*
X130833530Y-92040877D01*
G37*
G36*
X132583530Y-92040877D02*
X132635010Y-92056493D01*
X132682442Y-92081846D01*
X132724027Y-92115973D01*
X132758154Y-92157558D01*
X132783507Y-92204990D01*
X132799123Y-92256470D01*
X132805000Y-92316140D01*
X132805000Y-93103860D01*
X132799123Y-93163530D01*
X132783507Y-93215010D01*
X132758154Y-93262442D01*
X132724027Y-93304027D01*
X132682444Y-93338152D01*
X132638277Y-93361760D01*
X132617903Y-93375374D01*
X132600576Y-93392701D01*
X132586962Y-93413075D01*
X132577584Y-93435714D01*
X132572804Y-93459748D01*
X132572804Y-93484252D01*
X132577584Y-93508286D01*
X132586962Y-93530925D01*
X132600576Y-93551299D01*
X132617903Y-93568626D01*
X132638277Y-93582240D01*
X132682444Y-93605848D01*
X132724027Y-93639973D01*
X132758154Y-93681558D01*
X132783507Y-93728990D01*
X132799123Y-93780470D01*
X132805000Y-93840140D01*
X132805000Y-94627860D01*
X132799123Y-94687530D01*
X132783507Y-94739010D01*
X132758154Y-94786442D01*
X132724027Y-94828027D01*
X132682442Y-94862154D01*
X132635010Y-94887507D01*
X132583530Y-94903123D01*
X132523860Y-94909000D01*
X131636140Y-94909000D01*
X131576470Y-94903123D01*
X131524990Y-94887507D01*
X131477558Y-94862154D01*
X131435973Y-94828027D01*
X131401846Y-94786442D01*
X131376493Y-94739010D01*
X131360877Y-94687530D01*
X131355000Y-94627860D01*
X131355000Y-93840140D01*
X131360877Y-93780470D01*
X131376493Y-93728990D01*
X131401846Y-93681558D01*
X131435973Y-93639973D01*
X131477556Y-93605848D01*
X131521723Y-93582240D01*
X131542097Y-93568626D01*
X131559424Y-93551299D01*
X131573038Y-93530925D01*
X131582416Y-93508286D01*
X131587196Y-93484252D01*
X131587196Y-93459748D01*
X131582416Y-93435714D01*
X131573038Y-93413075D01*
X131559424Y-93392701D01*
X131542097Y-93375374D01*
X131521723Y-93361760D01*
X131477556Y-93338152D01*
X131435973Y-93304027D01*
X131401846Y-93262442D01*
X131376493Y-93215010D01*
X131360877Y-93163530D01*
X131355000Y-93103860D01*
X131355000Y-92316140D01*
X131360877Y-92256470D01*
X131376493Y-92204990D01*
X131401846Y-92157558D01*
X131435973Y-92115973D01*
X131477558Y-92081846D01*
X131524990Y-92056493D01*
X131576470Y-92040877D01*
X131636140Y-92035000D01*
X132523860Y-92035000D01*
X132583530Y-92040877D01*
X132583530Y-92040877D01*
G37*
G36*
X129808353Y-88523355D02*
X129975784Y-88592707D01*
X130126466Y-88693390D01*
X130254610Y-88821534D01*
X130355293Y-88972216D01*
X130424645Y-89139647D01*
X130460000Y-89317387D01*
X130460000Y-89498613D01*
X130424645Y-89676353D01*
X130355293Y-89843784D01*
X130254610Y-89994466D01*
X130126466Y-90122610D01*
X129975784Y-90223293D01*
X129808353Y-90292645D01*
X129630613Y-90328000D01*
X129449387Y-90328000D01*
X129271647Y-90292645D01*
X129104216Y-90223293D01*
X128953534Y-90122610D01*
X128825390Y-89994466D01*
X128724707Y-89843784D01*
X128655355Y-89676353D01*
X128620000Y-89498613D01*
X128620000Y-89317387D01*
X128655355Y-89139647D01*
X128724707Y-88972216D01*
X128825390Y-88821534D01*
X128953534Y-88693390D01*
X129104216Y-88592707D01*
X129271647Y-88523355D01*
X129449387Y-88488000D01*
X129630613Y-88488000D01*
X129808353Y-88523355D01*
X129808353Y-88523355D01*
G37*
G36*
X132348353Y-88523355D02*
X132515784Y-88592707D01*
X132666466Y-88693390D01*
X132794610Y-88821534D01*
X132895293Y-88972216D01*
X132964645Y-89139647D01*
X133000000Y-89317387D01*
X133000000Y-89498613D01*
X132964645Y-89676353D01*
X132895293Y-89843784D01*
X132794610Y-89994466D01*
X132666466Y-90122610D01*
X132515784Y-90223293D01*
X132348353Y-90292645D01*
X132170613Y-90328000D01*
X131989387Y-90328000D01*
X131811647Y-90292645D01*
X131644216Y-90223293D01*
X131493534Y-90122610D01*
X131365390Y-89994466D01*
X131264707Y-89843784D01*
X131195355Y-89676353D01*
X131160000Y-89498613D01*
X131160000Y-89317387D01*
X131195355Y-89139647D01*
X131264707Y-88972216D01*
X131365390Y-88821534D01*
X131493534Y-88693390D01*
X131644216Y-88592707D01*
X131811647Y-88523355D01*
X131989387Y-88488000D01*
X132170613Y-88488000D01*
X132348353Y-88523355D01*
X132348353Y-88523355D01*
G37*
G36*
X127268353Y-88523355D02*
X127435784Y-88592707D01*
X127586466Y-88693390D01*
X127714610Y-88821534D01*
X127815293Y-88972216D01*
X127884645Y-89139647D01*
X127920000Y-89317387D01*
X127920000Y-89498613D01*
X127884645Y-89676353D01*
X127815293Y-89843784D01*
X127714610Y-89994466D01*
X127586466Y-90122610D01*
X127435784Y-90223293D01*
X127268353Y-90292645D01*
X127090613Y-90328000D01*
X126909387Y-90328000D01*
X126731647Y-90292645D01*
X126564216Y-90223293D01*
X126413534Y-90122610D01*
X126285390Y-89994466D01*
X126184707Y-89843784D01*
X126115355Y-89676353D01*
X126080000Y-89498613D01*
X126080000Y-89317387D01*
X126115355Y-89139647D01*
X126184707Y-88972216D01*
X126285390Y-88821534D01*
X126413534Y-88693390D01*
X126564216Y-88592707D01*
X126731647Y-88523355D01*
X126909387Y-88488000D01*
X127090613Y-88488000D01*
X127268353Y-88523355D01*
X127268353Y-88523355D01*
G37*
G36*
X138423934Y-85796664D02*
X138578627Y-85860740D01*
X138717847Y-85953764D01*
X138836236Y-86072153D01*
X138929260Y-86211373D01*
X138993336Y-86366066D01*
X139026000Y-86530281D01*
X139026000Y-86697719D01*
X138993336Y-86861934D01*
X138929260Y-87016627D01*
X138836236Y-87155847D01*
X138717847Y-87274236D01*
X138578627Y-87367260D01*
X138423934Y-87431336D01*
X138259719Y-87464000D01*
X138092281Y-87464000D01*
X137928067Y-87431336D01*
X137928065Y-87431335D01*
X137928064Y-87431335D01*
X137857377Y-87402055D01*
X137833927Y-87394942D01*
X137809541Y-87392540D01*
X137785154Y-87394942D01*
X137761705Y-87402055D01*
X137740094Y-87413606D01*
X137721152Y-87429151D01*
X137705607Y-87448093D01*
X137694055Y-87469704D01*
X137686942Y-87493153D01*
X137684540Y-87517539D01*
X137686942Y-87541926D01*
X137694055Y-87565376D01*
X137723336Y-87636067D01*
X137756000Y-87800281D01*
X137756000Y-87967719D01*
X137723174Y-88132750D01*
X137716542Y-88154613D01*
X137714140Y-88178999D01*
X137716542Y-88203385D01*
X137723655Y-88226835D01*
X137735206Y-88248445D01*
X137750751Y-88267388D01*
X137769693Y-88282933D01*
X137791304Y-88294485D01*
X137814753Y-88301598D01*
X137839140Y-88304000D01*
X139026000Y-88304000D01*
X139026000Y-90004000D01*
X137326000Y-90004000D01*
X137326000Y-88817140D01*
X137323598Y-88792754D01*
X137316485Y-88769305D01*
X137304934Y-88747694D01*
X137289388Y-88728752D01*
X137270446Y-88713206D01*
X137248835Y-88701655D01*
X137225386Y-88694542D01*
X137201000Y-88692140D01*
X137176614Y-88694542D01*
X137154750Y-88701174D01*
X136989719Y-88734000D01*
X136822281Y-88734000D01*
X136658066Y-88701336D01*
X136503373Y-88637260D01*
X136364153Y-88544236D01*
X136245764Y-88425847D01*
X136152740Y-88286627D01*
X136088664Y-88131934D01*
X136056000Y-87967719D01*
X136056000Y-87800281D01*
X136088664Y-87636066D01*
X136152740Y-87481373D01*
X136245764Y-87342153D01*
X136364153Y-87223764D01*
X136503373Y-87130740D01*
X136658066Y-87066664D01*
X136822281Y-87034000D01*
X136989719Y-87034000D01*
X137153933Y-87066664D01*
X137153935Y-87066665D01*
X137153936Y-87066665D01*
X137196737Y-87084394D01*
X137224624Y-87095945D01*
X137248073Y-87103058D01*
X137272459Y-87105460D01*
X137296846Y-87103058D01*
X137320295Y-87095945D01*
X137341906Y-87084394D01*
X137360848Y-87068849D01*
X137376393Y-87049907D01*
X137387945Y-87028296D01*
X137395058Y-87004847D01*
X137397460Y-86980461D01*
X137395058Y-86956074D01*
X137387945Y-86932624D01*
X137358664Y-86861933D01*
X137326000Y-86697719D01*
X137326000Y-86530281D01*
X137358664Y-86366066D01*
X137422740Y-86211373D01*
X137515764Y-86072153D01*
X137634153Y-85953764D01*
X137773373Y-85860740D01*
X137928066Y-85796664D01*
X138092281Y-85764000D01*
X138259719Y-85764000D01*
X138423934Y-85796664D01*
X138423934Y-85796664D01*
G37*
G36*
X145537530Y-83150877D02*
X145589010Y-83166493D01*
X145636442Y-83191846D01*
X145678027Y-83225973D01*
X145712154Y-83267558D01*
X145737507Y-83314990D01*
X145753123Y-83366470D01*
X145759000Y-83426140D01*
X145759000Y-84213860D01*
X145753123Y-84273530D01*
X145737507Y-84325010D01*
X145712154Y-84372442D01*
X145678027Y-84414027D01*
X145636444Y-84448152D01*
X145603968Y-84465511D01*
X145583594Y-84479125D01*
X145566267Y-84496452D01*
X145552653Y-84516826D01*
X145543275Y-84539465D01*
X145538495Y-84563499D01*
X145538495Y-84588003D01*
X145543275Y-84612036D01*
X145552653Y-84634676D01*
X145566267Y-84655050D01*
X145583594Y-84672377D01*
X145603968Y-84685991D01*
X145626607Y-84695369D01*
X145650641Y-84700149D01*
X145662893Y-84700751D01*
X147194000Y-84700751D01*
X147194000Y-86800751D01*
X145294000Y-86800751D01*
X145294000Y-84620000D01*
X145291598Y-84595614D01*
X145284485Y-84572165D01*
X145272934Y-84550554D01*
X145257388Y-84531612D01*
X145238446Y-84516066D01*
X145216835Y-84504515D01*
X145193386Y-84497402D01*
X145169000Y-84495000D01*
X144590140Y-84495000D01*
X144530470Y-84489123D01*
X144478990Y-84473507D01*
X144431558Y-84448154D01*
X144389973Y-84414027D01*
X144355846Y-84372442D01*
X144330493Y-84325010D01*
X144314877Y-84273530D01*
X144309000Y-84213860D01*
X144309000Y-83426140D01*
X144314877Y-83366470D01*
X144330493Y-83314990D01*
X144355846Y-83267558D01*
X144389973Y-83225973D01*
X144431558Y-83191846D01*
X144478990Y-83166493D01*
X144530470Y-83150877D01*
X144590140Y-83145000D01*
X145477860Y-83145000D01*
X145537530Y-83150877D01*
X145537530Y-83150877D01*
G37*
G36*
X150617530Y-83150877D02*
X150669010Y-83166493D01*
X150716442Y-83191846D01*
X150758027Y-83225973D01*
X150792154Y-83267558D01*
X150817507Y-83314990D01*
X150833123Y-83366470D01*
X150839000Y-83426140D01*
X150839000Y-84213860D01*
X150833123Y-84273530D01*
X150817507Y-84325010D01*
X150792154Y-84372442D01*
X150758027Y-84414027D01*
X150716442Y-84448154D01*
X150669010Y-84473507D01*
X150617530Y-84489123D01*
X150557860Y-84495000D01*
X149979000Y-84495000D01*
X149954614Y-84497402D01*
X149931165Y-84504515D01*
X149909554Y-84516066D01*
X149890612Y-84531612D01*
X149875066Y-84550554D01*
X149863515Y-84572165D01*
X149856402Y-84595614D01*
X149854000Y-84620000D01*
X149854000Y-86800751D01*
X147954000Y-86800751D01*
X147954000Y-84700751D01*
X149485107Y-84700751D01*
X149509493Y-84698349D01*
X149532942Y-84691236D01*
X149554553Y-84679685D01*
X149573495Y-84664139D01*
X149589041Y-84645197D01*
X149600592Y-84623586D01*
X149607705Y-84600137D01*
X149610107Y-84575751D01*
X149607705Y-84551365D01*
X149600592Y-84527916D01*
X149589041Y-84506305D01*
X149573495Y-84487363D01*
X149554553Y-84471817D01*
X149544032Y-84465511D01*
X149511556Y-84448152D01*
X149469973Y-84414027D01*
X149435846Y-84372442D01*
X149410493Y-84325010D01*
X149394877Y-84273530D01*
X149389000Y-84213860D01*
X149389000Y-83426140D01*
X149394877Y-83366470D01*
X149410493Y-83314990D01*
X149435846Y-83267558D01*
X149469973Y-83225973D01*
X149511558Y-83191846D01*
X149558990Y-83166493D01*
X149610470Y-83150877D01*
X149670140Y-83145000D01*
X150557860Y-83145000D01*
X150617530Y-83150877D01*
X150617530Y-83150877D01*
G37*
G36*
X140383770Y-82795372D02*
X140499689Y-82818429D01*
X140681678Y-82893811D01*
X140845463Y-83003249D01*
X140984751Y-83142537D01*
X141094189Y-83306322D01*
X141169571Y-83488311D01*
X141208000Y-83681509D01*
X141208000Y-83878491D01*
X141169571Y-84071689D01*
X141094189Y-84253678D01*
X140984751Y-84417463D01*
X140845463Y-84556751D01*
X140681678Y-84666189D01*
X140499689Y-84741571D01*
X140383770Y-84764628D01*
X140306493Y-84780000D01*
X140109507Y-84780000D01*
X140032230Y-84764628D01*
X139916311Y-84741571D01*
X139734322Y-84666189D01*
X139570537Y-84556751D01*
X139431249Y-84417463D01*
X139321811Y-84253678D01*
X139246429Y-84071689D01*
X139208000Y-83878491D01*
X139208000Y-83681509D01*
X139246429Y-83488311D01*
X139321811Y-83306322D01*
X139431249Y-83142537D01*
X139570537Y-83003249D01*
X139734322Y-82893811D01*
X139916311Y-82818429D01*
X140032230Y-82795372D01*
X140109507Y-82780000D01*
X140306493Y-82780000D01*
X140383770Y-82795372D01*
X140383770Y-82795372D01*
G37*
G36*
X127268353Y-82935355D02*
X127435784Y-83004707D01*
X127586466Y-83105390D01*
X127714610Y-83233534D01*
X127815293Y-83384216D01*
X127884645Y-83551647D01*
X127920000Y-83729387D01*
X127920000Y-83910613D01*
X127884645Y-84088353D01*
X127815293Y-84255784D01*
X127714610Y-84406466D01*
X127586466Y-84534610D01*
X127435784Y-84635293D01*
X127268353Y-84704645D01*
X127090613Y-84740000D01*
X126909387Y-84740000D01*
X126731647Y-84704645D01*
X126564216Y-84635293D01*
X126413534Y-84534610D01*
X126285390Y-84406466D01*
X126184707Y-84255784D01*
X126115355Y-84088353D01*
X126080000Y-83910613D01*
X126080000Y-83729387D01*
X126115355Y-83551647D01*
X126184707Y-83384216D01*
X126285390Y-83233534D01*
X126413534Y-83105390D01*
X126564216Y-83004707D01*
X126731647Y-82935355D01*
X126909387Y-82900000D01*
X127090613Y-82900000D01*
X127268353Y-82935355D01*
X127268353Y-82935355D01*
G37*
G36*
X129808353Y-82935355D02*
X129975784Y-83004707D01*
X130126466Y-83105390D01*
X130254610Y-83233534D01*
X130355293Y-83384216D01*
X130424645Y-83551647D01*
X130460000Y-83729387D01*
X130460000Y-83910613D01*
X130424645Y-84088353D01*
X130355293Y-84255784D01*
X130254610Y-84406466D01*
X130126466Y-84534610D01*
X129975784Y-84635293D01*
X129808353Y-84704645D01*
X129630613Y-84740000D01*
X129449387Y-84740000D01*
X129271647Y-84704645D01*
X129104216Y-84635293D01*
X128953534Y-84534610D01*
X128825390Y-84406466D01*
X128724707Y-84255784D01*
X128655355Y-84088353D01*
X128620000Y-83910613D01*
X128620000Y-83729387D01*
X128655355Y-83551647D01*
X128724707Y-83384216D01*
X128825390Y-83233534D01*
X128953534Y-83105390D01*
X129104216Y-83004707D01*
X129271647Y-82935355D01*
X129449387Y-82900000D01*
X129630613Y-82900000D01*
X129808353Y-82935355D01*
X129808353Y-82935355D01*
G37*
G36*
X132348353Y-82935355D02*
X132515784Y-83004707D01*
X132666466Y-83105390D01*
X132794610Y-83233534D01*
X132895293Y-83384216D01*
X132964645Y-83551647D01*
X133000000Y-83729387D01*
X133000000Y-83910613D01*
X132964645Y-84088353D01*
X132895293Y-84255784D01*
X132794610Y-84406466D01*
X132666466Y-84534610D01*
X132515784Y-84635293D01*
X132348353Y-84704645D01*
X132170613Y-84740000D01*
X131989387Y-84740000D01*
X131811647Y-84704645D01*
X131644216Y-84635293D01*
X131493534Y-84534610D01*
X131365390Y-84406466D01*
X131264707Y-84255784D01*
X131195355Y-84088353D01*
X131160000Y-83910613D01*
X131160000Y-83729387D01*
X131195355Y-83551647D01*
X131264707Y-83384216D01*
X131365390Y-83233534D01*
X131493534Y-83105390D01*
X131644216Y-83004707D01*
X131811647Y-82935355D01*
X131989387Y-82900000D01*
X132170613Y-82900000D01*
X132348353Y-82935355D01*
X132348353Y-82935355D01*
G37*
G36*
X143787530Y-83150877D02*
X143839010Y-83166493D01*
X143886442Y-83191846D01*
X143928027Y-83225973D01*
X143962154Y-83267558D01*
X143987507Y-83314990D01*
X144003123Y-83366470D01*
X144009000Y-83426140D01*
X144009000Y-84213860D01*
X144003123Y-84273530D01*
X143987507Y-84325010D01*
X143962154Y-84372442D01*
X143928027Y-84414027D01*
X143886442Y-84448154D01*
X143839010Y-84473507D01*
X143787530Y-84489123D01*
X143727860Y-84495000D01*
X142840140Y-84495000D01*
X142780470Y-84489123D01*
X142728990Y-84473507D01*
X142681558Y-84448154D01*
X142639973Y-84414027D01*
X142605846Y-84372442D01*
X142580493Y-84325010D01*
X142564877Y-84273530D01*
X142559000Y-84213860D01*
X142559000Y-83426140D01*
X142564877Y-83366470D01*
X142580493Y-83314990D01*
X142605846Y-83267558D01*
X142639973Y-83225973D01*
X142681558Y-83191846D01*
X142728990Y-83166493D01*
X142780470Y-83150877D01*
X142840140Y-83145000D01*
X143727860Y-83145000D01*
X143787530Y-83150877D01*
X143787530Y-83150877D01*
G37*
G36*
X152367530Y-83150877D02*
X152419010Y-83166493D01*
X152466442Y-83191846D01*
X152508027Y-83225973D01*
X152542154Y-83267558D01*
X152567507Y-83314990D01*
X152583123Y-83366470D01*
X152589000Y-83426140D01*
X152589000Y-84213860D01*
X152583123Y-84273530D01*
X152567507Y-84325010D01*
X152542154Y-84372442D01*
X152508027Y-84414027D01*
X152466442Y-84448154D01*
X152419010Y-84473507D01*
X152367530Y-84489123D01*
X152307860Y-84495000D01*
X151420140Y-84495000D01*
X151360470Y-84489123D01*
X151308990Y-84473507D01*
X151261558Y-84448154D01*
X151219973Y-84414027D01*
X151185846Y-84372442D01*
X151160493Y-84325010D01*
X151144877Y-84273530D01*
X151139000Y-84213860D01*
X151139000Y-83426140D01*
X151144877Y-83366470D01*
X151160493Y-83314990D01*
X151185846Y-83267558D01*
X151219973Y-83225973D01*
X151261558Y-83191846D01*
X151308990Y-83166493D01*
X151360470Y-83150877D01*
X151420140Y-83145000D01*
X152307860Y-83145000D01*
X152367530Y-83150877D01*
X152367530Y-83150877D01*
G37*
G36*
X145995530Y-79036877D02*
X146047010Y-79052493D01*
X146094442Y-79077846D01*
X146136027Y-79111973D01*
X146170154Y-79153558D01*
X146195507Y-79200990D01*
X146211123Y-79252470D01*
X146217000Y-79312140D01*
X146217000Y-80199860D01*
X146211123Y-80259530D01*
X146195507Y-80311010D01*
X146170154Y-80358442D01*
X146136025Y-80400029D01*
X146117631Y-80415124D01*
X146100303Y-80432451D01*
X146086689Y-80452825D01*
X146077312Y-80475464D01*
X146072531Y-80499498D01*
X146072531Y-80524002D01*
X146077311Y-80548035D01*
X146086688Y-80570675D01*
X146100302Y-80591049D01*
X146117629Y-80608377D01*
X146138003Y-80621991D01*
X146160642Y-80631368D01*
X146184676Y-80636149D01*
X146196929Y-80636751D01*
X147194000Y-80636751D01*
X147194000Y-82736751D01*
X145294000Y-82736751D01*
X145294000Y-80606000D01*
X145291598Y-80581614D01*
X145284485Y-80558165D01*
X145272934Y-80536554D01*
X145257388Y-80517612D01*
X145238446Y-80502066D01*
X145216835Y-80490515D01*
X145193386Y-80483402D01*
X145169000Y-80481000D01*
X145148140Y-80481000D01*
X145088470Y-80475123D01*
X145036990Y-80459507D01*
X144989558Y-80434154D01*
X144947973Y-80400027D01*
X144913846Y-80358442D01*
X144888493Y-80311010D01*
X144872877Y-80259530D01*
X144867000Y-80199860D01*
X144867000Y-79312140D01*
X144872877Y-79252470D01*
X144888493Y-79200990D01*
X144913846Y-79153558D01*
X144947973Y-79111973D01*
X144989558Y-79077846D01*
X145036990Y-79052493D01*
X145088470Y-79036877D01*
X145148140Y-79031000D01*
X145935860Y-79031000D01*
X145995530Y-79036877D01*
X145995530Y-79036877D01*
G37*
G36*
X150059530Y-79036877D02*
X150111010Y-79052493D01*
X150158442Y-79077846D01*
X150200027Y-79111973D01*
X150234154Y-79153558D01*
X150259507Y-79200990D01*
X150275123Y-79252470D01*
X150281000Y-79312140D01*
X150281000Y-80199860D01*
X150275123Y-80259530D01*
X150259507Y-80311010D01*
X150234154Y-80358442D01*
X150200027Y-80400027D01*
X150158442Y-80434154D01*
X150111010Y-80459507D01*
X150059530Y-80475123D01*
X149999860Y-80481000D01*
X149979000Y-80481000D01*
X149954614Y-80483402D01*
X149931165Y-80490515D01*
X149909554Y-80502066D01*
X149890612Y-80517612D01*
X149875066Y-80536554D01*
X149863515Y-80558165D01*
X149856402Y-80581614D01*
X149854000Y-80606000D01*
X149854000Y-82736751D01*
X147954000Y-82736751D01*
X147954000Y-80636751D01*
X148951071Y-80636751D01*
X148975457Y-80634349D01*
X148998906Y-80627236D01*
X149020517Y-80615685D01*
X149039459Y-80600139D01*
X149055005Y-80581197D01*
X149066556Y-80559586D01*
X149073669Y-80536137D01*
X149076071Y-80511751D01*
X149073669Y-80487365D01*
X149066556Y-80463916D01*
X149055005Y-80442305D01*
X149039459Y-80423363D01*
X149030369Y-80415124D01*
X149011975Y-80400029D01*
X148977846Y-80358442D01*
X148952493Y-80311010D01*
X148936877Y-80259530D01*
X148931000Y-80199860D01*
X148931000Y-79312140D01*
X148936877Y-79252470D01*
X148952493Y-79200990D01*
X148977846Y-79153558D01*
X149011973Y-79111973D01*
X149053558Y-79077846D01*
X149100990Y-79052493D01*
X149152470Y-79036877D01*
X149212140Y-79031000D01*
X149999860Y-79031000D01*
X150059530Y-79036877D01*
X150059530Y-79036877D01*
G37*
G36*
X141208000Y-82280000D02*
X139208000Y-82280000D01*
X139208000Y-80280000D01*
X141208000Y-80280000D01*
X141208000Y-82280000D01*
X141208000Y-82280000D01*
G37*
G36*
X129808353Y-77347355D02*
X129975784Y-77416707D01*
X130126466Y-77517390D01*
X130254610Y-77645534D01*
X130355293Y-77796216D01*
X130424645Y-77963647D01*
X130460000Y-78141387D01*
X130460000Y-78322613D01*
X130424645Y-78500353D01*
X130355293Y-78667784D01*
X130254610Y-78818466D01*
X130126466Y-78946610D01*
X129975784Y-79047293D01*
X129808353Y-79116645D01*
X129630613Y-79152000D01*
X129449387Y-79152000D01*
X129271647Y-79116645D01*
X129104216Y-79047293D01*
X128953534Y-78946610D01*
X128825390Y-78818466D01*
X128724707Y-78667784D01*
X128655355Y-78500353D01*
X128620000Y-78322613D01*
X128620000Y-78141387D01*
X128655355Y-77963647D01*
X128724707Y-77796216D01*
X128825390Y-77645534D01*
X128953534Y-77517390D01*
X129104216Y-77416707D01*
X129271647Y-77347355D01*
X129449387Y-77312000D01*
X129630613Y-77312000D01*
X129808353Y-77347355D01*
X129808353Y-77347355D01*
G37*
G36*
X132348353Y-77347355D02*
X132515784Y-77416707D01*
X132666466Y-77517390D01*
X132794610Y-77645534D01*
X132895293Y-77796216D01*
X132964645Y-77963647D01*
X133000000Y-78141387D01*
X133000000Y-78322613D01*
X132964645Y-78500353D01*
X132895293Y-78667784D01*
X132794610Y-78818466D01*
X132666466Y-78946610D01*
X132515784Y-79047293D01*
X132348353Y-79116645D01*
X132170613Y-79152000D01*
X131989387Y-79152000D01*
X131811647Y-79116645D01*
X131644216Y-79047293D01*
X131493534Y-78946610D01*
X131365390Y-78818466D01*
X131264707Y-78667784D01*
X131195355Y-78500353D01*
X131160000Y-78322613D01*
X131160000Y-78141387D01*
X131195355Y-77963647D01*
X131264707Y-77796216D01*
X131365390Y-77645534D01*
X131493534Y-77517390D01*
X131644216Y-77416707D01*
X131811647Y-77347355D01*
X131989387Y-77312000D01*
X132170613Y-77312000D01*
X132348353Y-77347355D01*
X132348353Y-77347355D01*
G37*
G36*
X127268353Y-77347355D02*
X127435784Y-77416707D01*
X127586466Y-77517390D01*
X127714610Y-77645534D01*
X127815293Y-77796216D01*
X127884645Y-77963647D01*
X127920000Y-78141387D01*
X127920000Y-78322613D01*
X127884645Y-78500353D01*
X127815293Y-78667784D01*
X127714610Y-78818466D01*
X127586466Y-78946610D01*
X127435784Y-79047293D01*
X127268353Y-79116645D01*
X127090613Y-79152000D01*
X126909387Y-79152000D01*
X126731647Y-79116645D01*
X126564216Y-79047293D01*
X126413534Y-78946610D01*
X126285390Y-78818466D01*
X126184707Y-78667784D01*
X126115355Y-78500353D01*
X126080000Y-78322613D01*
X126080000Y-78141387D01*
X126115355Y-77963647D01*
X126184707Y-77796216D01*
X126285390Y-77645534D01*
X126413534Y-77517390D01*
X126564216Y-77416707D01*
X126731647Y-77347355D01*
X126909387Y-77312000D01*
X127090613Y-77312000D01*
X127268353Y-77347355D01*
X127268353Y-77347355D01*
G37*
G36*
X141362982Y-76654186D02*
X141407704Y-76667753D01*
X141448933Y-76689790D01*
X141485061Y-76719439D01*
X141514710Y-76755567D01*
X141536747Y-76796796D01*
X141550314Y-76841518D01*
X141555500Y-76894175D01*
X141555500Y-78553825D01*
X141550314Y-78606482D01*
X141536747Y-78651204D01*
X141514710Y-78692433D01*
X141485061Y-78728561D01*
X141448933Y-78758210D01*
X141407704Y-78780247D01*
X141362982Y-78793814D01*
X141310325Y-78799000D01*
X139975675Y-78799000D01*
X139923018Y-78793814D01*
X139878296Y-78780247D01*
X139837067Y-78758210D01*
X139800939Y-78728561D01*
X139771290Y-78692433D01*
X139749253Y-78651204D01*
X139735686Y-78606482D01*
X139730500Y-78553825D01*
X139730500Y-76894175D01*
X139735686Y-76841518D01*
X139749253Y-76796796D01*
X139771290Y-76755567D01*
X139800939Y-76719439D01*
X139837067Y-76689790D01*
X139878296Y-76667753D01*
X139923018Y-76654186D01*
X139975675Y-76649000D01*
X141310325Y-76649000D01*
X141362982Y-76654186D01*
X141362982Y-76654186D01*
G37*
G36*
X138387982Y-76654186D02*
X138432704Y-76667753D01*
X138473933Y-76689790D01*
X138510061Y-76719439D01*
X138539710Y-76755567D01*
X138561747Y-76796796D01*
X138575314Y-76841518D01*
X138580500Y-76894175D01*
X138580500Y-78553825D01*
X138575314Y-78606482D01*
X138561747Y-78651204D01*
X138539710Y-78692433D01*
X138510061Y-78728561D01*
X138473933Y-78758210D01*
X138432704Y-78780247D01*
X138387982Y-78793814D01*
X138335325Y-78799000D01*
X137000675Y-78799000D01*
X136948018Y-78793814D01*
X136903296Y-78780247D01*
X136862067Y-78758210D01*
X136825939Y-78728561D01*
X136796290Y-78692433D01*
X136774253Y-78651204D01*
X136760686Y-78606482D01*
X136755500Y-78553825D01*
X136755500Y-76894175D01*
X136760686Y-76841518D01*
X136774253Y-76796796D01*
X136796290Y-76755567D01*
X136825939Y-76719439D01*
X136862067Y-76689790D01*
X136903296Y-76667753D01*
X136948018Y-76654186D01*
X137000675Y-76649000D01*
X138335325Y-76649000D01*
X138387982Y-76654186D01*
X138387982Y-76654186D01*
G37*
G36*
X150059530Y-77286877D02*
X150111010Y-77302493D01*
X150158442Y-77327846D01*
X150200027Y-77361973D01*
X150234154Y-77403558D01*
X150259507Y-77450990D01*
X150275123Y-77502470D01*
X150281000Y-77562140D01*
X150281000Y-78449860D01*
X150275123Y-78509530D01*
X150259507Y-78561010D01*
X150234154Y-78608442D01*
X150200027Y-78650027D01*
X150158442Y-78684154D01*
X150111010Y-78709507D01*
X150059530Y-78725123D01*
X149999860Y-78731000D01*
X149212140Y-78731000D01*
X149152470Y-78725123D01*
X149100990Y-78709507D01*
X149053558Y-78684154D01*
X149011973Y-78650027D01*
X148977846Y-78608442D01*
X148952493Y-78561010D01*
X148936877Y-78509530D01*
X148931000Y-78449860D01*
X148931000Y-77562140D01*
X148936877Y-77502470D01*
X148952493Y-77450990D01*
X148977846Y-77403558D01*
X149011973Y-77361973D01*
X149053558Y-77327846D01*
X149100990Y-77302493D01*
X149152470Y-77286877D01*
X149212140Y-77281000D01*
X149999860Y-77281000D01*
X150059530Y-77286877D01*
X150059530Y-77286877D01*
G37*
G36*
X145995530Y-77286877D02*
X146047010Y-77302493D01*
X146094442Y-77327846D01*
X146136027Y-77361973D01*
X146170154Y-77403558D01*
X146195507Y-77450990D01*
X146211123Y-77502470D01*
X146217000Y-77562140D01*
X146217000Y-78449860D01*
X146211123Y-78509530D01*
X146195507Y-78561010D01*
X146170154Y-78608442D01*
X146136027Y-78650027D01*
X146094442Y-78684154D01*
X146047010Y-78709507D01*
X145995530Y-78725123D01*
X145935860Y-78731000D01*
X145148140Y-78731000D01*
X145088470Y-78725123D01*
X145036990Y-78709507D01*
X144989558Y-78684154D01*
X144947973Y-78650027D01*
X144913846Y-78608442D01*
X144888493Y-78561010D01*
X144872877Y-78509530D01*
X144867000Y-78449860D01*
X144867000Y-77562140D01*
X144872877Y-77502470D01*
X144888493Y-77450990D01*
X144913846Y-77403558D01*
X144947973Y-77361973D01*
X144989558Y-77327846D01*
X145036990Y-77302493D01*
X145088470Y-77286877D01*
X145148140Y-77281000D01*
X145935860Y-77281000D01*
X145995530Y-77286877D01*
X145995530Y-77286877D01*
G37*
G36*
X131344857Y-73618272D02*
X131545042Y-73701191D01*
X131725213Y-73821578D01*
X131878422Y-73974787D01*
X131998809Y-74154958D01*
X132081728Y-74355143D01*
X132124000Y-74567658D01*
X132124000Y-74784342D01*
X132081728Y-74996857D01*
X131998809Y-75197042D01*
X131878422Y-75377213D01*
X131725213Y-75530422D01*
X131545042Y-75650809D01*
X131344857Y-75733728D01*
X131132342Y-75776000D01*
X130915658Y-75776000D01*
X130703143Y-75733728D01*
X130502958Y-75650809D01*
X130322787Y-75530422D01*
X130169578Y-75377213D01*
X130049191Y-75197042D01*
X129966272Y-74996857D01*
X129924000Y-74784342D01*
X129924000Y-74567658D01*
X129966272Y-74355143D01*
X130049191Y-74154958D01*
X130169578Y-73974787D01*
X130322787Y-73821578D01*
X130502958Y-73701191D01*
X130703143Y-73618272D01*
X130915658Y-73576000D01*
X131132342Y-73576000D01*
X131344857Y-73618272D01*
X131344857Y-73618272D01*
G37*
G36*
X146156857Y-73618272D02*
X146357042Y-73701191D01*
X146537213Y-73821578D01*
X146690422Y-73974787D01*
X146810809Y-74154958D01*
X146893728Y-74355143D01*
X146936000Y-74567658D01*
X146936000Y-74784342D01*
X146893728Y-74996857D01*
X146810809Y-75197042D01*
X146690422Y-75377213D01*
X146537213Y-75530422D01*
X146357042Y-75650809D01*
X146156857Y-75733728D01*
X145944342Y-75776000D01*
X145727658Y-75776000D01*
X145515143Y-75733728D01*
X145314958Y-75650809D01*
X145134787Y-75530422D01*
X144981578Y-75377213D01*
X144861191Y-75197042D01*
X144778272Y-74996857D01*
X144736000Y-74784342D01*
X144736000Y-74567658D01*
X144778272Y-74355143D01*
X144861191Y-74154958D01*
X144981578Y-73974787D01*
X145134787Y-73821578D01*
X145314958Y-73701191D01*
X145515143Y-73618272D01*
X145727658Y-73576000D01*
X145944342Y-73576000D01*
X146156857Y-73618272D01*
X146156857Y-73618272D01*
G37*
G36*
X148789530Y-71924877D02*
X148841010Y-71940493D01*
X148888442Y-71965846D01*
X148930027Y-71999973D01*
X148964154Y-72041558D01*
X148989507Y-72088990D01*
X149005123Y-72140470D01*
X149011000Y-72200140D01*
X149011000Y-73087860D01*
X149005123Y-73147530D01*
X148989507Y-73199010D01*
X148964154Y-73246442D01*
X148930027Y-73288027D01*
X148888442Y-73322154D01*
X148841010Y-73347507D01*
X148789530Y-73363123D01*
X148729860Y-73369000D01*
X148672828Y-73369000D01*
X148648442Y-73371402D01*
X148624993Y-73378515D01*
X148603382Y-73390066D01*
X148584440Y-73405612D01*
X148568894Y-73424554D01*
X148557343Y-73446165D01*
X148550230Y-73469614D01*
X148547828Y-73494000D01*
X148550230Y-73518386D01*
X148557343Y-73541835D01*
X148568894Y-73563446D01*
X148584440Y-73582388D01*
X148603382Y-73597934D01*
X148624993Y-73609485D01*
X148648441Y-73616598D01*
X148656858Y-73618272D01*
X148857042Y-73701191D01*
X149037213Y-73821578D01*
X149190422Y-73974787D01*
X149310809Y-74154958D01*
X149393728Y-74355143D01*
X149436000Y-74567658D01*
X149436000Y-74784342D01*
X149393728Y-74996857D01*
X149310809Y-75197042D01*
X149190422Y-75377213D01*
X149037213Y-75530422D01*
X148857042Y-75650809D01*
X148656857Y-75733728D01*
X148444342Y-75776000D01*
X148227658Y-75776000D01*
X148015143Y-75733728D01*
X147814958Y-75650809D01*
X147634787Y-75530422D01*
X147481578Y-75377213D01*
X147361191Y-75197042D01*
X147278272Y-74996857D01*
X147236000Y-74784342D01*
X147236000Y-74567658D01*
X147278272Y-74355143D01*
X147361191Y-74154958D01*
X147481578Y-73974787D01*
X147634787Y-73821578D01*
X147814958Y-73701191D01*
X148015142Y-73618272D01*
X148023559Y-73616598D01*
X148047008Y-73609485D01*
X148068619Y-73597933D01*
X148087561Y-73582388D01*
X148103106Y-73563446D01*
X148114657Y-73541835D01*
X148121770Y-73518386D01*
X148124172Y-73493999D01*
X148121770Y-73469613D01*
X148114657Y-73446164D01*
X148103105Y-73424553D01*
X148087560Y-73405611D01*
X148068618Y-73390066D01*
X148047007Y-73378515D01*
X148023558Y-73371402D01*
X147999172Y-73369000D01*
X147942140Y-73369000D01*
X147882470Y-73363123D01*
X147830990Y-73347507D01*
X147783558Y-73322154D01*
X147741973Y-73288027D01*
X147707846Y-73246442D01*
X147682493Y-73199010D01*
X147666877Y-73147530D01*
X147661000Y-73087860D01*
X147661000Y-72200140D01*
X147666877Y-72140470D01*
X147682493Y-72088990D01*
X147707846Y-72041558D01*
X147741973Y-71999973D01*
X147783558Y-71965846D01*
X147830990Y-71940493D01*
X147882470Y-71924877D01*
X147942140Y-71919000D01*
X148729860Y-71919000D01*
X148789530Y-71924877D01*
X148789530Y-71924877D01*
G37*
G36*
X128844857Y-73618272D02*
X129045042Y-73701191D01*
X129225213Y-73821578D01*
X129378422Y-73974787D01*
X129498809Y-74154958D01*
X129581728Y-74355143D01*
X129624000Y-74567658D01*
X129624000Y-74784342D01*
X129581728Y-74996857D01*
X129498809Y-75197042D01*
X129378422Y-75377213D01*
X129225213Y-75530422D01*
X129045042Y-75650809D01*
X128844857Y-75733728D01*
X128632342Y-75776000D01*
X128415658Y-75776000D01*
X128203143Y-75733728D01*
X128002958Y-75650809D01*
X127822787Y-75530422D01*
X127669578Y-75377213D01*
X127549191Y-75197042D01*
X127466272Y-74996857D01*
X127424000Y-74784342D01*
X127424000Y-74567658D01*
X127466272Y-74355143D01*
X127549191Y-74154958D01*
X127669578Y-73974787D01*
X127822787Y-73821578D01*
X128002958Y-73701191D01*
X128203143Y-73618272D01*
X128415658Y-73576000D01*
X128632342Y-73576000D01*
X128844857Y-73618272D01*
X128844857Y-73618272D01*
G37*
G36*
X133844857Y-73618272D02*
X134045042Y-73701191D01*
X134225213Y-73821578D01*
X134378422Y-73974787D01*
X134498809Y-74154958D01*
X134581728Y-74355143D01*
X134624000Y-74567658D01*
X134624000Y-74784342D01*
X134581728Y-74996857D01*
X134498809Y-75197042D01*
X134378422Y-75377213D01*
X134225213Y-75530422D01*
X134045042Y-75650809D01*
X133844857Y-75733728D01*
X133632342Y-75776000D01*
X133415658Y-75776000D01*
X133203143Y-75733728D01*
X133002958Y-75650809D01*
X132822787Y-75530422D01*
X132669578Y-75377213D01*
X132549191Y-75197042D01*
X132466272Y-74996857D01*
X132424000Y-74784342D01*
X132424000Y-74567658D01*
X132466272Y-74355143D01*
X132549191Y-74154958D01*
X132669578Y-73974787D01*
X132822787Y-73821578D01*
X133002958Y-73701191D01*
X133203143Y-73618272D01*
X133415658Y-73576000D01*
X133632342Y-73576000D01*
X133844857Y-73618272D01*
X133844857Y-73618272D01*
G37*
G36*
X151156857Y-73618272D02*
X151357042Y-73701191D01*
X151537213Y-73821578D01*
X151690422Y-73974787D01*
X151810809Y-74154958D01*
X151893728Y-74355143D01*
X151936000Y-74567658D01*
X151936000Y-74784342D01*
X151893728Y-74996857D01*
X151810809Y-75197042D01*
X151690422Y-75377213D01*
X151537213Y-75530422D01*
X151357042Y-75650809D01*
X151156857Y-75733728D01*
X150944342Y-75776000D01*
X150727658Y-75776000D01*
X150515143Y-75733728D01*
X150314958Y-75650809D01*
X150134787Y-75530422D01*
X149981578Y-75377213D01*
X149861191Y-75197042D01*
X149778272Y-74996857D01*
X149736000Y-74784342D01*
X149736000Y-74567658D01*
X149778272Y-74355143D01*
X149861191Y-74154958D01*
X149981578Y-73974787D01*
X150134787Y-73821578D01*
X150314958Y-73701191D01*
X150515143Y-73618272D01*
X150727658Y-73576000D01*
X150944342Y-73576000D01*
X151156857Y-73618272D01*
X151156857Y-73618272D01*
G37*
G36*
X130777530Y-71466877D02*
X130829010Y-71482493D01*
X130876446Y-71507848D01*
X130921202Y-71544578D01*
X130941576Y-71558192D01*
X130964216Y-71567569D01*
X130988249Y-71572349D01*
X131012753Y-71572349D01*
X131036787Y-71567568D01*
X131059426Y-71558191D01*
X131079798Y-71544578D01*
X131124554Y-71507848D01*
X131171990Y-71482493D01*
X131223470Y-71466877D01*
X131283140Y-71461000D01*
X132170860Y-71461000D01*
X132230530Y-71466877D01*
X132282010Y-71482493D01*
X132329442Y-71507846D01*
X132371027Y-71541973D01*
X132405154Y-71583558D01*
X132430507Y-71630990D01*
X132446123Y-71682470D01*
X132452000Y-71742140D01*
X132452000Y-72529860D01*
X132446123Y-72589530D01*
X132430507Y-72641010D01*
X132405154Y-72688442D01*
X132371027Y-72730027D01*
X132329442Y-72764154D01*
X132282010Y-72789507D01*
X132230530Y-72805123D01*
X132170860Y-72811000D01*
X131283140Y-72811000D01*
X131223470Y-72805123D01*
X131171990Y-72789507D01*
X131124554Y-72764152D01*
X131079798Y-72727422D01*
X131059424Y-72713808D01*
X131036784Y-72704431D01*
X131012751Y-72699651D01*
X130988247Y-72699651D01*
X130964213Y-72704432D01*
X130941574Y-72713809D01*
X130921202Y-72727422D01*
X130876446Y-72764152D01*
X130829010Y-72789507D01*
X130777530Y-72805123D01*
X130717860Y-72811000D01*
X129830140Y-72811000D01*
X129770470Y-72805123D01*
X129718990Y-72789507D01*
X129671558Y-72764154D01*
X129629973Y-72730027D01*
X129595846Y-72688442D01*
X129570493Y-72641010D01*
X129554877Y-72589530D01*
X129549000Y-72529860D01*
X129549000Y-71742140D01*
X129554877Y-71682470D01*
X129570493Y-71630990D01*
X129595846Y-71583558D01*
X129629973Y-71541973D01*
X129671558Y-71507846D01*
X129718990Y-71482493D01*
X129770470Y-71466877D01*
X129830140Y-71461000D01*
X130717860Y-71461000D01*
X130777530Y-71466877D01*
X130777530Y-71466877D01*
G37*
G36*
X133980530Y-71466877D02*
X134032010Y-71482493D01*
X134079442Y-71507846D01*
X134121027Y-71541973D01*
X134155154Y-71583558D01*
X134180507Y-71630990D01*
X134196123Y-71682470D01*
X134202000Y-71742140D01*
X134202000Y-72529860D01*
X134196123Y-72589530D01*
X134180507Y-72641010D01*
X134155154Y-72688442D01*
X134121027Y-72730027D01*
X134079442Y-72764154D01*
X134032010Y-72789507D01*
X133980530Y-72805123D01*
X133920860Y-72811000D01*
X133033140Y-72811000D01*
X132973470Y-72805123D01*
X132921990Y-72789507D01*
X132874558Y-72764154D01*
X132832973Y-72730027D01*
X132798846Y-72688442D01*
X132773493Y-72641010D01*
X132757877Y-72589530D01*
X132752000Y-72529860D01*
X132752000Y-71742140D01*
X132757877Y-71682470D01*
X132773493Y-71630990D01*
X132798846Y-71583558D01*
X132832973Y-71541973D01*
X132874558Y-71507846D01*
X132921990Y-71482493D01*
X132973470Y-71466877D01*
X133033140Y-71461000D01*
X133920860Y-71461000D01*
X133980530Y-71466877D01*
X133980530Y-71466877D01*
G37*
G36*
X129027530Y-71466877D02*
X129079010Y-71482493D01*
X129126442Y-71507846D01*
X129168027Y-71541973D01*
X129202154Y-71583558D01*
X129227507Y-71630990D01*
X129243123Y-71682470D01*
X129249000Y-71742140D01*
X129249000Y-72529860D01*
X129243123Y-72589530D01*
X129227507Y-72641010D01*
X129202154Y-72688442D01*
X129168027Y-72730027D01*
X129126442Y-72764154D01*
X129079010Y-72789507D01*
X129027530Y-72805123D01*
X128967860Y-72811000D01*
X128080140Y-72811000D01*
X128020470Y-72805123D01*
X127968990Y-72789507D01*
X127921558Y-72764154D01*
X127879973Y-72730027D01*
X127845846Y-72688442D01*
X127820493Y-72641010D01*
X127804877Y-72589530D01*
X127799000Y-72529860D01*
X127799000Y-71742140D01*
X127804877Y-71682470D01*
X127820493Y-71630990D01*
X127845846Y-71583558D01*
X127879973Y-71541973D01*
X127921558Y-71507846D01*
X127968990Y-71482493D01*
X128020470Y-71466877D01*
X128080140Y-71461000D01*
X128967860Y-71461000D01*
X129027530Y-71466877D01*
X129027530Y-71466877D01*
G37*
G36*
X148789530Y-70174877D02*
X148841010Y-70190493D01*
X148888442Y-70215846D01*
X148930027Y-70249973D01*
X148964154Y-70291558D01*
X148989507Y-70338990D01*
X149005123Y-70390470D01*
X149011000Y-70450140D01*
X149011000Y-71337860D01*
X149005123Y-71397530D01*
X148989507Y-71449010D01*
X148964154Y-71496442D01*
X148930027Y-71538027D01*
X148888442Y-71572154D01*
X148841010Y-71597507D01*
X148789530Y-71613123D01*
X148729860Y-71619000D01*
X147942140Y-71619000D01*
X147882470Y-71613123D01*
X147830990Y-71597507D01*
X147783558Y-71572154D01*
X147741973Y-71538027D01*
X147707846Y-71496442D01*
X147682493Y-71449010D01*
X147666877Y-71397530D01*
X147661000Y-71337860D01*
X147661000Y-70450140D01*
X147666877Y-70390470D01*
X147682493Y-70338990D01*
X147707846Y-70291558D01*
X147741973Y-70249973D01*
X147783558Y-70215846D01*
X147830990Y-70190493D01*
X147882470Y-70174877D01*
X147942140Y-70169000D01*
X148729860Y-70169000D01*
X148789530Y-70174877D01*
X148789530Y-70174877D01*
G37*
G36*
X136065716Y-65560544D02*
X136466090Y-65726384D01*
X136826421Y-65967150D01*
X137132850Y-66273579D01*
X137373616Y-66633910D01*
X137539456Y-67034284D01*
X137624000Y-67459317D01*
X137624000Y-67892683D01*
X137539456Y-68317716D01*
X137373616Y-68718090D01*
X137132850Y-69078421D01*
X136826421Y-69384850D01*
X136466090Y-69625616D01*
X136065716Y-69791456D01*
X135640683Y-69876000D01*
X135207317Y-69876000D01*
X134782284Y-69791456D01*
X134381910Y-69625616D01*
X134021579Y-69384850D01*
X133715150Y-69078421D01*
X133474384Y-68718090D01*
X133308544Y-68317716D01*
X133224000Y-67892683D01*
X133224000Y-67459317D01*
X133308544Y-67034284D01*
X133474384Y-66633910D01*
X133715150Y-66273579D01*
X134021579Y-65967150D01*
X134381910Y-65726384D01*
X134782284Y-65560544D01*
X135207317Y-65476000D01*
X135640683Y-65476000D01*
X136065716Y-65560544D01*
X136065716Y-65560544D01*
G37*
G36*
X144577716Y-65560544D02*
X144978090Y-65726384D01*
X145338421Y-65967150D01*
X145644850Y-66273579D01*
X145885616Y-66633910D01*
X146051456Y-67034284D01*
X146136000Y-67459317D01*
X146136000Y-67892683D01*
X146051456Y-68317716D01*
X145885616Y-68718090D01*
X145644850Y-69078421D01*
X145338421Y-69384850D01*
X144978090Y-69625616D01*
X144577716Y-69791456D01*
X144152683Y-69876000D01*
X143719317Y-69876000D01*
X143294284Y-69791456D01*
X142893910Y-69625616D01*
X142533579Y-69384850D01*
X142227150Y-69078421D01*
X141986384Y-68718090D01*
X141820544Y-68317716D01*
X141736000Y-67892683D01*
X141736000Y-67459317D01*
X141820544Y-67034284D01*
X141986384Y-66633910D01*
X142227150Y-66273579D01*
X142533579Y-65967150D01*
X142893910Y-65726384D01*
X143294284Y-65560544D01*
X143719317Y-65476000D01*
X144152683Y-65476000D01*
X144577716Y-65560544D01*
X144577716Y-65560544D01*
G37*
G36*
X153377716Y-65560544D02*
X153778090Y-65726384D01*
X154138421Y-65967150D01*
X154444850Y-66273579D01*
X154685616Y-66633910D01*
X154851456Y-67034284D01*
X154936000Y-67459317D01*
X154936000Y-67892683D01*
X154851456Y-68317716D01*
X154685616Y-68718090D01*
X154444850Y-69078421D01*
X154138421Y-69384850D01*
X153778090Y-69625616D01*
X153377716Y-69791456D01*
X152952683Y-69876000D01*
X152519317Y-69876000D01*
X152094284Y-69791456D01*
X151693910Y-69625616D01*
X151333579Y-69384850D01*
X151027150Y-69078421D01*
X150786384Y-68718090D01*
X150620544Y-68317716D01*
X150536000Y-67892683D01*
X150536000Y-67459317D01*
X150620544Y-67034284D01*
X150786384Y-66633910D01*
X151027150Y-66273579D01*
X151333579Y-65967150D01*
X151693910Y-65726384D01*
X152094284Y-65560544D01*
X152519317Y-65476000D01*
X152952683Y-65476000D01*
X153377716Y-65560544D01*
X153377716Y-65560544D01*
G37*
G36*
X127265716Y-65560544D02*
X127666090Y-65726384D01*
X128026421Y-65967150D01*
X128332850Y-66273579D01*
X128573616Y-66633910D01*
X128739456Y-67034284D01*
X128824000Y-67459317D01*
X128824000Y-67892683D01*
X128739456Y-68317716D01*
X128573616Y-68718090D01*
X128332850Y-69078421D01*
X128026421Y-69384850D01*
X127666090Y-69625616D01*
X127265716Y-69791456D01*
X126840683Y-69876000D01*
X126407317Y-69876000D01*
X125982284Y-69791456D01*
X125581910Y-69625616D01*
X125221579Y-69384850D01*
X124915150Y-69078421D01*
X124674384Y-68718090D01*
X124508544Y-68317716D01*
X124424000Y-67892683D01*
X124424000Y-67459317D01*
X124508544Y-67034284D01*
X124674384Y-66633910D01*
X124915150Y-66273579D01*
X125221579Y-65967150D01*
X125581910Y-65726384D01*
X125982284Y-65560544D01*
X126407317Y-65476000D01*
X126840683Y-65476000D01*
X127265716Y-65560544D01*
X127265716Y-65560544D01*
G37*
G36*
X149019770Y-58879372D02*
X149135689Y-58902429D01*
X149317678Y-58977811D01*
X149481463Y-59087249D01*
X149620751Y-59226537D01*
X149730189Y-59390322D01*
X149805571Y-59572311D01*
X149844000Y-59765509D01*
X149844000Y-59962491D01*
X149805571Y-60155689D01*
X149730189Y-60337678D01*
X149620751Y-60501463D01*
X149481463Y-60640751D01*
X149317678Y-60750189D01*
X149135689Y-60825571D01*
X149019770Y-60848628D01*
X148942493Y-60864000D01*
X148745507Y-60864000D01*
X148668230Y-60848628D01*
X148552311Y-60825571D01*
X148370322Y-60750189D01*
X148206537Y-60640751D01*
X148067249Y-60501463D01*
X147957811Y-60337678D01*
X147882429Y-60155689D01*
X147844000Y-59962491D01*
X147844000Y-59765509D01*
X147882429Y-59572311D01*
X147957811Y-59390322D01*
X148067249Y-59226537D01*
X148206537Y-59087249D01*
X148370322Y-58977811D01*
X148552311Y-58902429D01*
X148668230Y-58879372D01*
X148745507Y-58864000D01*
X148942493Y-58864000D01*
X149019770Y-58879372D01*
X149019770Y-58879372D01*
G37*
G36*
X142923770Y-58879372D02*
X143039689Y-58902429D01*
X143221678Y-58977811D01*
X143385463Y-59087249D01*
X143524751Y-59226537D01*
X143634189Y-59390322D01*
X143709571Y-59572311D01*
X143748000Y-59765509D01*
X143748000Y-59962491D01*
X143709571Y-60155689D01*
X143634189Y-60337678D01*
X143524751Y-60501463D01*
X143385463Y-60640751D01*
X143221678Y-60750189D01*
X143039689Y-60825571D01*
X142923770Y-60848628D01*
X142846493Y-60864000D01*
X142649507Y-60864000D01*
X142572230Y-60848628D01*
X142456311Y-60825571D01*
X142274322Y-60750189D01*
X142110537Y-60640751D01*
X141971249Y-60501463D01*
X141861811Y-60337678D01*
X141786429Y-60155689D01*
X141748000Y-59962491D01*
X141748000Y-59765509D01*
X141786429Y-59572311D01*
X141861811Y-59390322D01*
X141971249Y-59226537D01*
X142110537Y-59087249D01*
X142274322Y-58977811D01*
X142456311Y-58902429D01*
X142572230Y-58879372D01*
X142649507Y-58864000D01*
X142846493Y-58864000D01*
X142923770Y-58879372D01*
X142923770Y-58879372D01*
G37*
G36*
X136827770Y-58879372D02*
X136943689Y-58902429D01*
X137125678Y-58977811D01*
X137289463Y-59087249D01*
X137428751Y-59226537D01*
X137538189Y-59390322D01*
X137613571Y-59572311D01*
X137652000Y-59765509D01*
X137652000Y-59962491D01*
X137613571Y-60155689D01*
X137538189Y-60337678D01*
X137428751Y-60501463D01*
X137289463Y-60640751D01*
X137125678Y-60750189D01*
X136943689Y-60825571D01*
X136827770Y-60848628D01*
X136750493Y-60864000D01*
X136553507Y-60864000D01*
X136476230Y-60848628D01*
X136360311Y-60825571D01*
X136178322Y-60750189D01*
X136014537Y-60640751D01*
X135875249Y-60501463D01*
X135765811Y-60337678D01*
X135690429Y-60155689D01*
X135652000Y-59962491D01*
X135652000Y-59765509D01*
X135690429Y-59572311D01*
X135765811Y-59390322D01*
X135875249Y-59226537D01*
X136014537Y-59087249D01*
X136178322Y-58977811D01*
X136360311Y-58902429D01*
X136476230Y-58879372D01*
X136553507Y-58864000D01*
X136750493Y-58864000D01*
X136827770Y-58879372D01*
X136827770Y-58879372D01*
G37*
G36*
X130731770Y-58879372D02*
X130847689Y-58902429D01*
X131029678Y-58977811D01*
X131193463Y-59087249D01*
X131332751Y-59226537D01*
X131442189Y-59390322D01*
X131517571Y-59572311D01*
X131556000Y-59765509D01*
X131556000Y-59962491D01*
X131517571Y-60155689D01*
X131442189Y-60337678D01*
X131332751Y-60501463D01*
X131193463Y-60640751D01*
X131029678Y-60750189D01*
X130847689Y-60825571D01*
X130731770Y-60848628D01*
X130654493Y-60864000D01*
X130457507Y-60864000D01*
X130380230Y-60848628D01*
X130264311Y-60825571D01*
X130082322Y-60750189D01*
X129918537Y-60640751D01*
X129779249Y-60501463D01*
X129669811Y-60337678D01*
X129594429Y-60155689D01*
X129556000Y-59962491D01*
X129556000Y-59765509D01*
X129594429Y-59572311D01*
X129669811Y-59390322D01*
X129779249Y-59226537D01*
X129918537Y-59087249D01*
X130082322Y-58977811D01*
X130264311Y-58902429D01*
X130380230Y-58879372D01*
X130457507Y-58864000D01*
X130654493Y-58864000D01*
X130731770Y-58879372D01*
X130731770Y-58879372D01*
G37*
G36*
X128162000Y-59684000D02*
X126062000Y-59684000D01*
X126062000Y-57784000D01*
X128162000Y-57784000D01*
X128162000Y-59684000D01*
X128162000Y-59684000D01*
G37*
G36*
X152434000Y-59684000D02*
X150334000Y-59684000D01*
X150334000Y-57784000D01*
X152434000Y-57784000D01*
X152434000Y-59684000D01*
X152434000Y-59684000D01*
G37*
G36*
X146338000Y-59684000D02*
X144238000Y-59684000D01*
X144238000Y-57784000D01*
X146338000Y-57784000D01*
X146338000Y-59684000D01*
X146338000Y-59684000D01*
G37*
G36*
X140242000Y-59684000D02*
X138142000Y-59684000D01*
X138142000Y-57784000D01*
X140242000Y-57784000D01*
X140242000Y-59684000D01*
X140242000Y-59684000D01*
G37*
G36*
X134146000Y-59684000D02*
X132046000Y-59684000D01*
X132046000Y-57784000D01*
X134146000Y-57784000D01*
X134146000Y-59684000D01*
X134146000Y-59684000D01*
G37*
G36*
X140242000Y-57024000D02*
X138142000Y-57024000D01*
X138142000Y-55124000D01*
X140242000Y-55124000D01*
X140242000Y-57024000D01*
X140242000Y-57024000D01*
G37*
G36*
X146338000Y-57024000D02*
X144238000Y-57024000D01*
X144238000Y-55124000D01*
X146338000Y-55124000D01*
X146338000Y-57024000D01*
X146338000Y-57024000D01*
G37*
G36*
X134146000Y-57024000D02*
X132046000Y-57024000D01*
X132046000Y-55124000D01*
X134146000Y-55124000D01*
X134146000Y-57024000D01*
X134146000Y-57024000D01*
G37*
G36*
X128162000Y-57024000D02*
X126062000Y-57024000D01*
X126062000Y-55124000D01*
X128162000Y-55124000D01*
X128162000Y-57024000D01*
X128162000Y-57024000D01*
G37*
G36*
X152434000Y-57024000D02*
X150334000Y-57024000D01*
X150334000Y-55124000D01*
X152434000Y-55124000D01*
X152434000Y-57024000D01*
X152434000Y-57024000D01*
G37*
G36*
X149019770Y-53879372D02*
X149135689Y-53902429D01*
X149317678Y-53977811D01*
X149481463Y-54087249D01*
X149620751Y-54226537D01*
X149730189Y-54390322D01*
X149805571Y-54572311D01*
X149844000Y-54765509D01*
X149844000Y-54962491D01*
X149805571Y-55155689D01*
X149730189Y-55337678D01*
X149620751Y-55501463D01*
X149481463Y-55640751D01*
X149317678Y-55750189D01*
X149135689Y-55825571D01*
X149019770Y-55848628D01*
X148942493Y-55864000D01*
X148745507Y-55864000D01*
X148668230Y-55848628D01*
X148552311Y-55825571D01*
X148370322Y-55750189D01*
X148206537Y-55640751D01*
X148067249Y-55501463D01*
X147957811Y-55337678D01*
X147882429Y-55155689D01*
X147844000Y-54962491D01*
X147844000Y-54765509D01*
X147882429Y-54572311D01*
X147957811Y-54390322D01*
X148067249Y-54226537D01*
X148206537Y-54087249D01*
X148370322Y-53977811D01*
X148552311Y-53902429D01*
X148668230Y-53879372D01*
X148745507Y-53864000D01*
X148942493Y-53864000D01*
X149019770Y-53879372D01*
X149019770Y-53879372D01*
G37*
G36*
X130731770Y-53879372D02*
X130847689Y-53902429D01*
X131029678Y-53977811D01*
X131193463Y-54087249D01*
X131332751Y-54226537D01*
X131442189Y-54390322D01*
X131517571Y-54572311D01*
X131556000Y-54765509D01*
X131556000Y-54962491D01*
X131517571Y-55155689D01*
X131442189Y-55337678D01*
X131332751Y-55501463D01*
X131193463Y-55640751D01*
X131029678Y-55750189D01*
X130847689Y-55825571D01*
X130731770Y-55848628D01*
X130654493Y-55864000D01*
X130457507Y-55864000D01*
X130380230Y-55848628D01*
X130264311Y-55825571D01*
X130082322Y-55750189D01*
X129918537Y-55640751D01*
X129779249Y-55501463D01*
X129669811Y-55337678D01*
X129594429Y-55155689D01*
X129556000Y-54962491D01*
X129556000Y-54765509D01*
X129594429Y-54572311D01*
X129669811Y-54390322D01*
X129779249Y-54226537D01*
X129918537Y-54087249D01*
X130082322Y-53977811D01*
X130264311Y-53902429D01*
X130380230Y-53879372D01*
X130457507Y-53864000D01*
X130654493Y-53864000D01*
X130731770Y-53879372D01*
X130731770Y-53879372D01*
G37*
G36*
X136827770Y-53879372D02*
X136943689Y-53902429D01*
X137125678Y-53977811D01*
X137289463Y-54087249D01*
X137428751Y-54226537D01*
X137538189Y-54390322D01*
X137613571Y-54572311D01*
X137652000Y-54765509D01*
X137652000Y-54962491D01*
X137613571Y-55155689D01*
X137538189Y-55337678D01*
X137428751Y-55501463D01*
X137289463Y-55640751D01*
X137125678Y-55750189D01*
X136943689Y-55825571D01*
X136827770Y-55848628D01*
X136750493Y-55864000D01*
X136553507Y-55864000D01*
X136476230Y-55848628D01*
X136360311Y-55825571D01*
X136178322Y-55750189D01*
X136014537Y-55640751D01*
X135875249Y-55501463D01*
X135765811Y-55337678D01*
X135690429Y-55155689D01*
X135652000Y-54962491D01*
X135652000Y-54765509D01*
X135690429Y-54572311D01*
X135765811Y-54390322D01*
X135875249Y-54226537D01*
X136014537Y-54087249D01*
X136178322Y-53977811D01*
X136360311Y-53902429D01*
X136476230Y-53879372D01*
X136553507Y-53864000D01*
X136750493Y-53864000D01*
X136827770Y-53879372D01*
X136827770Y-53879372D01*
G37*
G36*
X142923770Y-53879372D02*
X143039689Y-53902429D01*
X143221678Y-53977811D01*
X143385463Y-54087249D01*
X143524751Y-54226537D01*
X143634189Y-54390322D01*
X143709571Y-54572311D01*
X143748000Y-54765509D01*
X143748000Y-54962491D01*
X143709571Y-55155689D01*
X143634189Y-55337678D01*
X143524751Y-55501463D01*
X143385463Y-55640751D01*
X143221678Y-55750189D01*
X143039689Y-55825571D01*
X142923770Y-55848628D01*
X142846493Y-55864000D01*
X142649507Y-55864000D01*
X142572230Y-55848628D01*
X142456311Y-55825571D01*
X142274322Y-55750189D01*
X142110537Y-55640751D01*
X141971249Y-55501463D01*
X141861811Y-55337678D01*
X141786429Y-55155689D01*
X141748000Y-54962491D01*
X141748000Y-54765509D01*
X141786429Y-54572311D01*
X141861811Y-54390322D01*
X141971249Y-54226537D01*
X142110537Y-54087249D01*
X142274322Y-53977811D01*
X142456311Y-53902429D01*
X142572230Y-53879372D01*
X142649507Y-53864000D01*
X142846493Y-53864000D01*
X142923770Y-53879372D01*
X142923770Y-53879372D01*
G37*
G36*
X137613530Y-49064877D02*
X137665010Y-49080493D01*
X137712442Y-49105846D01*
X137754027Y-49139973D01*
X137788154Y-49181558D01*
X137813507Y-49228990D01*
X137829123Y-49280470D01*
X137835000Y-49340140D01*
X137835000Y-50227860D01*
X137829123Y-50287530D01*
X137813507Y-50339010D01*
X137788154Y-50386442D01*
X137754027Y-50428027D01*
X137712442Y-50462154D01*
X137665010Y-50487507D01*
X137613530Y-50503123D01*
X137553860Y-50509000D01*
X137536828Y-50509000D01*
X137512442Y-50511402D01*
X137488993Y-50518515D01*
X137467382Y-50530066D01*
X137448440Y-50545612D01*
X137432894Y-50564554D01*
X137421343Y-50586165D01*
X137414230Y-50609614D01*
X137411828Y-50634000D01*
X137414230Y-50658386D01*
X137421343Y-50681835D01*
X137432894Y-50703446D01*
X137448440Y-50722388D01*
X137467382Y-50737934D01*
X137488993Y-50749485D01*
X137512441Y-50756598D01*
X137520858Y-50758272D01*
X137721042Y-50841191D01*
X137901213Y-50961578D01*
X138054422Y-51114787D01*
X138174809Y-51294958D01*
X138257728Y-51495143D01*
X138300000Y-51707658D01*
X138300000Y-51924342D01*
X138257728Y-52136857D01*
X138174809Y-52337042D01*
X138054422Y-52517213D01*
X137901213Y-52670422D01*
X137721042Y-52790809D01*
X137520857Y-52873728D01*
X137308342Y-52916000D01*
X137091658Y-52916000D01*
X136879143Y-52873728D01*
X136678958Y-52790809D01*
X136498787Y-52670422D01*
X136345578Y-52517213D01*
X136225191Y-52337042D01*
X136142272Y-52136857D01*
X136100000Y-51924342D01*
X136100000Y-51707658D01*
X136142272Y-51495143D01*
X136225191Y-51294958D01*
X136345578Y-51114787D01*
X136498787Y-50961578D01*
X136678958Y-50841191D01*
X136879142Y-50758272D01*
X136887559Y-50756598D01*
X136911008Y-50749485D01*
X136932619Y-50737933D01*
X136951561Y-50722388D01*
X136967106Y-50703446D01*
X136978657Y-50681835D01*
X136985770Y-50658386D01*
X136988172Y-50633999D01*
X136985770Y-50609613D01*
X136978657Y-50586164D01*
X136967105Y-50564553D01*
X136951560Y-50545611D01*
X136932618Y-50530066D01*
X136911007Y-50518515D01*
X136887558Y-50511402D01*
X136863172Y-50509000D01*
X136766140Y-50509000D01*
X136706470Y-50503123D01*
X136654990Y-50487507D01*
X136607558Y-50462154D01*
X136565973Y-50428027D01*
X136531846Y-50386442D01*
X136506493Y-50339010D01*
X136490877Y-50287530D01*
X136485000Y-50227860D01*
X136485000Y-49340140D01*
X136490877Y-49280470D01*
X136506493Y-49228990D01*
X136531846Y-49181558D01*
X136565973Y-49139973D01*
X136607558Y-49105846D01*
X136654990Y-49080493D01*
X136706470Y-49064877D01*
X136766140Y-49059000D01*
X137553860Y-49059000D01*
X137613530Y-49064877D01*
X137613530Y-49064877D01*
G37*
G36*
X140153530Y-49064877D02*
X140205010Y-49080493D01*
X140252442Y-49105846D01*
X140294027Y-49139973D01*
X140328154Y-49181558D01*
X140353507Y-49228990D01*
X140369123Y-49280470D01*
X140375000Y-49340140D01*
X140375000Y-50227860D01*
X140369123Y-50287530D01*
X140353507Y-50339010D01*
X140328154Y-50386442D01*
X140294027Y-50428027D01*
X140252442Y-50462154D01*
X140205010Y-50487507D01*
X140153530Y-50503123D01*
X140093860Y-50509000D01*
X140036828Y-50509000D01*
X140012442Y-50511402D01*
X139988993Y-50518515D01*
X139967382Y-50530066D01*
X139948440Y-50545612D01*
X139932894Y-50564554D01*
X139921343Y-50586165D01*
X139914230Y-50609614D01*
X139911828Y-50634000D01*
X139914230Y-50658386D01*
X139921343Y-50681835D01*
X139932894Y-50703446D01*
X139948440Y-50722388D01*
X139967382Y-50737934D01*
X139988993Y-50749485D01*
X140012441Y-50756598D01*
X140020858Y-50758272D01*
X140221042Y-50841191D01*
X140401213Y-50961578D01*
X140554422Y-51114787D01*
X140674809Y-51294958D01*
X140757728Y-51495143D01*
X140800000Y-51707658D01*
X140800000Y-51924342D01*
X140757728Y-52136857D01*
X140674809Y-52337042D01*
X140554422Y-52517213D01*
X140401213Y-52670422D01*
X140221042Y-52790809D01*
X140020857Y-52873728D01*
X139808342Y-52916000D01*
X139591658Y-52916000D01*
X139379143Y-52873728D01*
X139178958Y-52790809D01*
X138998787Y-52670422D01*
X138845578Y-52517213D01*
X138725191Y-52337042D01*
X138642272Y-52136857D01*
X138600000Y-51924342D01*
X138600000Y-51707658D01*
X138642272Y-51495143D01*
X138725191Y-51294958D01*
X138845578Y-51114787D01*
X138998787Y-50961578D01*
X139178958Y-50841191D01*
X139379142Y-50758272D01*
X139387559Y-50756598D01*
X139411008Y-50749485D01*
X139432619Y-50737933D01*
X139451561Y-50722388D01*
X139467106Y-50703446D01*
X139478657Y-50681835D01*
X139485770Y-50658386D01*
X139488172Y-50633999D01*
X139485770Y-50609613D01*
X139478657Y-50586164D01*
X139467105Y-50564553D01*
X139451560Y-50545611D01*
X139432618Y-50530066D01*
X139411007Y-50518515D01*
X139387558Y-50511402D01*
X139363172Y-50509000D01*
X139306140Y-50509000D01*
X139246470Y-50503123D01*
X139194990Y-50487507D01*
X139147558Y-50462154D01*
X139105973Y-50428027D01*
X139071846Y-50386442D01*
X139046493Y-50339010D01*
X139030877Y-50287530D01*
X139025000Y-50227860D01*
X139025000Y-49340140D01*
X139030877Y-49280470D01*
X139046493Y-49228990D01*
X139071846Y-49181558D01*
X139105973Y-49139973D01*
X139147558Y-49105846D01*
X139194990Y-49080493D01*
X139246470Y-49064877D01*
X139306140Y-49059000D01*
X140093860Y-49059000D01*
X140153530Y-49064877D01*
X140153530Y-49064877D01*
G37*
G36*
X142520857Y-50758272D02*
X142721042Y-50841191D01*
X142901213Y-50961578D01*
X143054422Y-51114787D01*
X143174809Y-51294958D01*
X143257728Y-51495143D01*
X143300000Y-51707658D01*
X143300000Y-51924342D01*
X143257728Y-52136857D01*
X143174809Y-52337042D01*
X143054422Y-52517213D01*
X142901213Y-52670422D01*
X142721042Y-52790809D01*
X142520857Y-52873728D01*
X142308342Y-52916000D01*
X142091658Y-52916000D01*
X141879143Y-52873728D01*
X141678958Y-52790809D01*
X141498787Y-52670422D01*
X141345578Y-52517213D01*
X141225191Y-52337042D01*
X141142272Y-52136857D01*
X141100000Y-51924342D01*
X141100000Y-51707658D01*
X141142272Y-51495143D01*
X141225191Y-51294958D01*
X141345578Y-51114787D01*
X141498787Y-50961578D01*
X141678958Y-50841191D01*
X141879143Y-50758272D01*
X142091658Y-50716000D01*
X142308342Y-50716000D01*
X142520857Y-50758272D01*
X142520857Y-50758272D01*
G37*
G36*
X140153530Y-47314877D02*
X140205010Y-47330493D01*
X140252442Y-47355846D01*
X140294027Y-47389973D01*
X140328154Y-47431558D01*
X140353507Y-47478990D01*
X140369123Y-47530470D01*
X140375000Y-47590140D01*
X140375000Y-48477860D01*
X140369123Y-48537530D01*
X140353507Y-48589010D01*
X140328154Y-48636442D01*
X140294027Y-48678027D01*
X140252442Y-48712154D01*
X140205010Y-48737507D01*
X140153530Y-48753123D01*
X140093860Y-48759000D01*
X139306140Y-48759000D01*
X139246470Y-48753123D01*
X139194990Y-48737507D01*
X139147558Y-48712154D01*
X139105973Y-48678027D01*
X139071846Y-48636442D01*
X139046493Y-48589010D01*
X139030877Y-48537530D01*
X139025000Y-48477860D01*
X139025000Y-47590140D01*
X139030877Y-47530470D01*
X139046493Y-47478990D01*
X139071846Y-47431558D01*
X139105973Y-47389973D01*
X139147558Y-47355846D01*
X139194990Y-47330493D01*
X139246470Y-47314877D01*
X139306140Y-47309000D01*
X140093860Y-47309000D01*
X140153530Y-47314877D01*
X140153530Y-47314877D01*
G37*
G36*
X137613530Y-47314877D02*
X137665010Y-47330493D01*
X137712442Y-47355846D01*
X137754027Y-47389973D01*
X137788154Y-47431558D01*
X137813507Y-47478990D01*
X137829123Y-47530470D01*
X137835000Y-47590140D01*
X137835000Y-48477860D01*
X137829123Y-48537530D01*
X137813507Y-48589010D01*
X137788154Y-48636442D01*
X137754027Y-48678027D01*
X137712442Y-48712154D01*
X137665010Y-48737507D01*
X137613530Y-48753123D01*
X137553860Y-48759000D01*
X136766140Y-48759000D01*
X136706470Y-48753123D01*
X136654990Y-48737507D01*
X136607558Y-48712154D01*
X136565973Y-48678027D01*
X136531846Y-48636442D01*
X136506493Y-48589010D01*
X136490877Y-48537530D01*
X136485000Y-48477860D01*
X136485000Y-47590140D01*
X136490877Y-47530470D01*
X136506493Y-47478990D01*
X136531846Y-47431558D01*
X136565973Y-47389973D01*
X136607558Y-47355846D01*
X136654990Y-47330493D01*
X136706470Y-47314877D01*
X136766140Y-47309000D01*
X137553860Y-47309000D01*
X137613530Y-47314877D01*
X137613530Y-47314877D01*
G37*
G36*
X135941716Y-42700544D02*
X136342090Y-42866384D01*
X136702421Y-43107150D01*
X137008850Y-43413579D01*
X137249616Y-43773910D01*
X137415456Y-44174284D01*
X137500000Y-44599317D01*
X137500000Y-45032683D01*
X137415456Y-45457716D01*
X137249616Y-45858090D01*
X137008850Y-46218421D01*
X136702421Y-46524850D01*
X136342090Y-46765616D01*
X135941716Y-46931456D01*
X135516683Y-47016000D01*
X135083317Y-47016000D01*
X134658284Y-46931456D01*
X134257910Y-46765616D01*
X133897579Y-46524850D01*
X133591150Y-46218421D01*
X133350384Y-45858090D01*
X133184544Y-45457716D01*
X133100000Y-45032683D01*
X133100000Y-44599317D01*
X133184544Y-44174284D01*
X133350384Y-43773910D01*
X133591150Y-43413579D01*
X133897579Y-43107150D01*
X134257910Y-42866384D01*
X134658284Y-42700544D01*
X135083317Y-42616000D01*
X135516683Y-42616000D01*
X135941716Y-42700544D01*
X135941716Y-42700544D01*
G37*
G36*
X144741716Y-42700544D02*
X145142090Y-42866384D01*
X145502421Y-43107150D01*
X145808850Y-43413579D01*
X146049616Y-43773910D01*
X146215456Y-44174284D01*
X146300000Y-44599317D01*
X146300000Y-45032683D01*
X146215456Y-45457716D01*
X146049616Y-45858090D01*
X145808850Y-46218421D01*
X145502421Y-46524850D01*
X145142090Y-46765616D01*
X144741716Y-46931456D01*
X144316683Y-47016000D01*
X143883317Y-47016000D01*
X143458284Y-46931456D01*
X143057910Y-46765616D01*
X142697579Y-46524850D01*
X142391150Y-46218421D01*
X142150384Y-45858090D01*
X141984544Y-45457716D01*
X141900000Y-45032683D01*
X141900000Y-44599317D01*
X141984544Y-44174284D01*
X142150384Y-43773910D01*
X142391150Y-43413579D01*
X142697579Y-43107150D01*
X143057910Y-42866384D01*
X143458284Y-42700544D01*
X143883317Y-42616000D01*
X144316683Y-42616000D01*
X144741716Y-42700544D01*
X144741716Y-42700544D01*
G37*
M02*
