%TF.GenerationSoftware,KiCad,Pcbnew,5.0.2-bee76a0~70~ubuntu18.04.1*%
%TF.CreationDate,2019-05-07T20:11:10+10:00*%
%TF.ProjectId,minimoog_panel,6d696e69-6d6f-46f6-975f-70616e656c2e,rev?*%
%TF.SameCoordinates,Original*%
%TF.FileFunction,Plated,1,2,PTH,Mixed*%
%TF.FilePolarity,Positive*%
%FSLAX46Y46*%
G04 Gerber Fmt 4.6, Leading zero omitted, Abs format (unit mm)*
G04 Created by KiCad (PCBNEW 5.0.2-bee76a0~70~ubuntu18.04.1) date Tue 07 May 2019 20:11:10 AEST*
%MOMM*%
%LPD*%
G01*
G04 APERTURE LIST*
%TA.AperFunction,ViaDrill*%
%ADD10C,0.300000*%
%TD*%
%TA.AperFunction,ComponentDrill*%
%ADD11C,0.400000*%
%TD*%
%TA.AperFunction,Slot*%
%ADD12C,3.200000*%
%TD*%
%TA.AperFunction,ComponentDrill*%
%ADD13C,6.200000*%
%TD*%
%TA.AperFunction,ComponentDrill*%
%ADD14C,7.600000*%
%TD*%
%TA.AperFunction,ComponentDrill*%
%ADD15C,9.200000*%
%TD*%
G04 APERTURE END LIST*
D10*
X132334000Y-53975000D03*
X136144000Y-53975000D03*
X139700000Y-53975000D03*
X143256000Y-53975000D03*
X147066000Y-53975000D03*
D11*
%TO.C,In 1*%
X146304000Y-114300000D03*
X147320000Y-111760000D03*
X147320000Y-116840000D03*
X149860000Y-110744000D03*
X149860000Y-117856000D03*
X152400000Y-111760000D03*
X152400000Y-116840000D03*
X153416000Y-114300000D03*
%TO.C,CV 2*%
X136144000Y-129032000D03*
X137160000Y-126492000D03*
X137160000Y-131572000D03*
X139700000Y-125476000D03*
X139700000Y-132588000D03*
X142240000Y-126492000D03*
X142240000Y-131572000D03*
X143256000Y-129032000D03*
%TO.C,Out*%
X125984000Y-129032000D03*
X127000000Y-126492000D03*
X127000000Y-131572000D03*
X129540000Y-125476000D03*
X129540000Y-132588000D03*
X132080000Y-126492000D03*
X132080000Y-131572000D03*
X133096000Y-129032000D03*
%TO.C,CV 1*%
X146304000Y-129032000D03*
X147320000Y-126492000D03*
X147320000Y-131572000D03*
X149860000Y-125476000D03*
X149860000Y-132588000D03*
X152400000Y-126492000D03*
X152400000Y-131572000D03*
X153416000Y-129032000D03*
%TO.C,In 1*%
X136144000Y-114300000D03*
X137160000Y-111760000D03*
X137160000Y-116840000D03*
X139700000Y-110744000D03*
X139700000Y-117856000D03*
X142240000Y-111760000D03*
X142240000Y-116840000D03*
X143256000Y-114300000D03*
D12*
%TO.C,REF\002A\002A*%
X147900000Y-23218000D02*
X147100000Y-23218000D01*
X147900000Y-145468000D02*
X147100000Y-145468000D01*
X132400000Y-145468000D02*
X131600000Y-145468000D01*
X132400000Y-23218000D02*
X131600000Y-23218000D01*
D13*
%TO.C,CV 2*%
X139700000Y-129032000D03*
%TO.C,Out*%
X129540000Y-129032000D03*
%TO.C,CV 1*%
X149860000Y-129032000D03*
%TO.C,In 1*%
X139700000Y-114300000D03*
X149860000Y-114300000D03*
D14*
X148336000Y-96012000D03*
%TO.C,CV 1*%
X148336000Y-66992500D03*
%TO.C,In 2*%
X131064000Y-96012000D03*
%TO.C,Emphasis*%
X131064000Y-66992500D03*
D15*
%TO.C,Cutoff*%
X139700000Y-44005500D03*
M02*
