M48
;DRILL file {KiCad 5.0.2-bee76a0~70~ubuntu18.04.1} date Sat 04 May 2019 01:11:22 AEST
;FORMAT={-:-/ absolute / inch / decimal}
FMAT,2
INCH,TZ
T1C0.0157
T2C0.0315
T3C0.0335
T4C0.0354
T5C0.0394
T6C0.0400
T7C0.0551
%
G90
G05
T1
X1.25Y-2.05
X1.25Y-2.5
X1.25Y-3.
X1.5Y-2.
X1.5Y-3.
X2.1Y-1.7
X2.1Y-3.3
X2.6Y-1.7
X2.6Y-3.3
X2.9Y-2.9
X3.Y-2.1
X3.1Y-1.7
X3.1Y-2.5
X3.1Y-3.3
X3.2Y-2.4
X3.6Y-1.7
X3.6Y-2.6
X3.6Y-3.3
X4.1Y-1.7
X4.1Y-3.3
X4.2Y-2.9
X4.3Y-2.1
X4.4Y-2.5
X4.5Y-2.4
X4.6Y-1.7
X4.6Y-3.3
X4.9Y-2.6
X5.1Y-1.7
X5.1Y-3.3
X5.5Y-2.9
X5.6Y-1.7
X5.6Y-2.1
X5.6Y-3.3
X5.7Y-2.5
X5.8Y-2.4
X6.1Y-1.7
X6.1Y-3.3
X6.2Y-2.6
X6.7Y-1.7
X6.7Y-3.3
X6.8Y-2.9
X6.9Y-2.1
X7.Y-2.5
X7.1Y-2.4
X7.2Y-1.7
X7.2Y-3.3
X7.5Y-2.6
X7.7Y-1.7
X7.7Y-3.3
X8.Y-2.
X8.Y-2.5
X8.Y-3.
T2
X2.1Y-2.15
X2.5Y-2.15
X2.4Y-3.0016
X2.4Y-3.1
X2.1Y-3.0016
X2.1Y-3.1
X2.4Y-2.3
X2.4Y-2.3984
X2.1Y-2.85
X2.5Y-2.85
X2.1Y-2.6
X2.1Y-2.6984
X2.1Y-1.9
X2.1Y-1.9984
X2.1Y-2.3
X2.1Y-2.3984
X2.4Y-2.6
X2.4Y-2.6984
X2.4Y-1.9
X2.4Y-1.9984
T3
X1.55Y-3.25
X1.9437Y-3.25
X1.55Y-1.75
X1.9437Y-1.75
T4
X2.65Y-2.6
X2.65Y-2.7
X2.65Y-2.3
X2.65Y-2.4
T5
X1.6Y-3.
X1.8Y-3.0004
X1.6Y-1.9996
X1.8Y-2.
T6
X5.5Y-1.8
X5.5Y-1.9
X5.6Y-1.8
X5.6Y-1.9
X5.7Y-1.8
X5.7Y-1.9
X5.8Y-1.8
X5.8Y-1.9
X5.9Y-1.8
X5.9Y-1.9
X6.Y-1.8
X6.Y-1.9
X6.1Y-1.8
X6.1Y-1.9
X6.2Y-1.8
X6.2Y-1.9
X4.2Y-1.8
X4.2Y-1.9
X4.3Y-1.8
X4.3Y-1.9
X4.4Y-1.8
X4.4Y-1.9
X4.5Y-1.8
X4.5Y-1.9
X4.6Y-1.8
X4.6Y-1.9
X4.7Y-1.8
X4.7Y-1.9
X4.8Y-1.8
X4.8Y-1.9
X4.9Y-1.8
X4.9Y-1.9
X5.5Y-3.1
X5.5Y-3.2
X5.6Y-3.1
X5.6Y-3.2
X5.7Y-3.1
X5.7Y-3.2
X5.8Y-3.1
X5.8Y-3.2
X5.9Y-3.1
X5.9Y-3.2
X6.Y-3.1
X6.Y-3.2
X6.1Y-3.1
X6.1Y-3.2
X6.2Y-3.1
X6.2Y-3.2
X6.8Y-1.8
X6.8Y-1.9
X6.9Y-1.8
X6.9Y-1.9
X7.Y-1.8
X7.Y-1.9
X7.1Y-1.8
X7.1Y-1.9
X7.2Y-1.8
X7.2Y-1.9
X7.3Y-1.8
X7.3Y-1.9
X7.4Y-1.8
X7.4Y-1.9
X7.5Y-1.8
X7.5Y-1.9
X4.2Y-3.1
X4.2Y-3.2
X4.3Y-3.1
X4.3Y-3.2
X4.4Y-3.1
X4.4Y-3.2
X4.5Y-3.1
X4.5Y-3.2
X4.6Y-3.1
X4.6Y-3.2
X4.7Y-3.1
X4.7Y-3.2
X4.8Y-3.1
X4.8Y-3.2
X4.9Y-3.1
X4.9Y-3.2
X2.9Y-1.8
X2.9Y-1.9
X3.Y-1.8
X3.Y-1.9
X3.1Y-1.8
X3.1Y-1.9
X3.2Y-1.8
X3.2Y-1.9
X3.3Y-1.8
X3.3Y-1.9
X3.4Y-1.8
X3.4Y-1.9
X3.5Y-1.8
X3.5Y-1.9
X3.6Y-1.8
X3.6Y-1.9
X6.8Y-3.1
X6.8Y-3.2
X6.9Y-3.1
X6.9Y-3.2
X7.Y-3.1
X7.Y-3.2
X7.1Y-3.1
X7.1Y-3.2
X7.2Y-3.1
X7.2Y-3.2
X7.3Y-3.1
X7.3Y-3.2
X7.4Y-3.1
X7.4Y-3.2
X7.5Y-3.1
X7.5Y-3.2
X2.9Y-3.1
X2.9Y-3.2
X3.Y-3.1
X3.Y-3.2
X3.1Y-3.1
X3.1Y-3.2
X3.2Y-3.1
X3.2Y-3.2
X3.3Y-3.1
X3.3Y-3.2
X3.4Y-3.1
X3.4Y-3.2
X3.5Y-3.1
X3.5Y-3.2
X3.6Y-3.1
X3.6Y-3.2
T7
X1.7Y-2.3
X1.7Y-2.4969
X1.7Y-2.6937
T0
M30
