%TF.GenerationSoftware,KiCad,Pcbnew,5.0.2-bee76a0~70~ubuntu18.04.1*%
%TF.CreationDate,2019-05-10T17:39:30+10:00*%
%TF.ProjectId,busboard,62757362-6f61-4726-942e-6b696361645f,rev?*%
%TF.SameCoordinates,Original*%
%TF.FileFunction,Plated,1,2,PTH,Drill*%
%TF.FilePolarity,Positive*%
%FSLAX46Y46*%
G04 Gerber Fmt 4.6, Leading zero omitted, Abs format (unit mm)*
G04 Created by KiCad (PCBNEW 5.0.2-bee76a0~70~ubuntu18.04.1) date Fri 10 May 2019 17:39:30 AEST*
%MOMM*%
%LPD*%
G01*
G04 APERTURE LIST*
%TA.AperFunction,ViaDrill*%
%ADD10C,0.400000*%
%TD*%
%TA.AperFunction,ComponentDrill*%
%ADD11C,0.800000*%
%TD*%
%TA.AperFunction,ComponentDrill*%
%ADD12C,0.850000*%
%TD*%
%TA.AperFunction,ComponentDrill*%
%ADD13C,0.900000*%
%TD*%
%TA.AperFunction,ComponentDrill*%
%ADD14C,1.000000*%
%TD*%
%TA.AperFunction,ComponentDrill*%
%ADD15C,1.016000*%
%TD*%
%TA.AperFunction,ComponentDrill*%
%ADD16C,1.400000*%
%TD*%
G04 APERTURE END LIST*
D10*
X31750000Y-52070000D03*
X31750000Y-63500000D03*
X31750000Y-76200000D03*
X38100000Y-50800000D03*
X38100000Y-76200000D03*
X53340000Y-43180000D03*
X53340000Y-83820000D03*
X66040000Y-43180000D03*
X66040000Y-83820000D03*
X73660000Y-73660000D03*
X76200000Y-53340000D03*
X78740000Y-43180000D03*
X78740000Y-63500000D03*
X78740000Y-83820000D03*
X81280000Y-60960000D03*
X91440000Y-43180000D03*
X91440000Y-66040000D03*
X91440000Y-83820000D03*
X104140000Y-43180000D03*
X104140000Y-83820000D03*
X106680000Y-73660000D03*
X109220000Y-53340000D03*
X111760000Y-63500000D03*
X114300000Y-60960000D03*
X116840000Y-43180000D03*
X116840000Y-83820000D03*
X124460000Y-66040000D03*
X129540000Y-43180000D03*
X129540000Y-83820000D03*
X139700000Y-73660000D03*
X142240000Y-43180000D03*
X142240000Y-53340000D03*
X142240000Y-83820000D03*
X144780000Y-63500000D03*
X147320000Y-60960000D03*
X154940000Y-43180000D03*
X154940000Y-83820000D03*
X157480000Y-66040000D03*
X170180000Y-43180000D03*
X170180000Y-83820000D03*
X172720000Y-73660000D03*
X175260000Y-53340000D03*
X177800000Y-63500000D03*
X180340000Y-60960000D03*
X182880000Y-43180000D03*
X182880000Y-83820000D03*
X190500000Y-66040000D03*
X195580000Y-43180000D03*
X195580000Y-83820000D03*
X203200000Y-50800000D03*
X203200000Y-63500000D03*
X203200000Y-76200000D03*
D11*
%TO.C,R1*%
X53340000Y-54610000D03*
X63500000Y-54610000D03*
%TO.C,C1*%
X53340000Y-58420000D03*
X53340000Y-60920000D03*
%TO.C,C8*%
X60960000Y-76240000D03*
X60960000Y-78740000D03*
%TO.C,R2*%
X53340000Y-72390000D03*
X63500000Y-72390000D03*
%TO.C,C4*%
X60960000Y-66040000D03*
X60960000Y-68540000D03*
%TO.C,C6*%
X53340000Y-76240000D03*
X53340000Y-78740000D03*
%TO.C,C2*%
X53340000Y-66040000D03*
X53340000Y-68540000D03*
%TO.C,C5*%
X53340000Y-48260000D03*
X53340000Y-50760000D03*
%TO.C,C7*%
X60960000Y-48260000D03*
X60960000Y-50760000D03*
%TO.C,C3*%
X60960000Y-58420000D03*
X60960000Y-60920000D03*
D12*
%TO.C,L2*%
X39370000Y-82550000D03*
X49370000Y-82550000D03*
%TO.C,L1*%
X39370000Y-44450000D03*
X49370000Y-44450000D03*
D13*
%TO.C,D2*%
X67310000Y-66040000D03*
X67310000Y-68580000D03*
%TO.C,D1*%
X67310000Y-58420000D03*
X67310000Y-60960000D03*
D14*
%TO.C,F1*%
X40640000Y-76200000D03*
X45720000Y-76210000D03*
%TO.C,F2*%
X40640000Y-50790000D03*
X45720000Y-50800000D03*
D15*
%TO.C,J3*%
X106680000Y-45720000D03*
X106680000Y-48260000D03*
X109220000Y-45720000D03*
X109220000Y-48260000D03*
X111760000Y-45720000D03*
X111760000Y-48260000D03*
X114300000Y-45720000D03*
X114300000Y-48260000D03*
X116840000Y-45720000D03*
X116840000Y-48260000D03*
X119380000Y-45720000D03*
X119380000Y-48260000D03*
X121920000Y-45720000D03*
X121920000Y-48260000D03*
X124460000Y-45720000D03*
X124460000Y-48260000D03*
%TO.C,J6*%
X73660000Y-78740000D03*
X73660000Y-81280000D03*
X76200000Y-78740000D03*
X76200000Y-81280000D03*
X78740000Y-78740000D03*
X78740000Y-81280000D03*
X81280000Y-78740000D03*
X81280000Y-81280000D03*
X83820000Y-78740000D03*
X83820000Y-81280000D03*
X86360000Y-78740000D03*
X86360000Y-81280000D03*
X88900000Y-78740000D03*
X88900000Y-81280000D03*
X91440000Y-78740000D03*
X91440000Y-81280000D03*
%TO.C,J9*%
X172720000Y-78740000D03*
X172720000Y-81280000D03*
X175260000Y-78740000D03*
X175260000Y-81280000D03*
X177800000Y-78740000D03*
X177800000Y-81280000D03*
X180340000Y-78740000D03*
X180340000Y-81280000D03*
X182880000Y-78740000D03*
X182880000Y-81280000D03*
X185420000Y-78740000D03*
X185420000Y-81280000D03*
X187960000Y-78740000D03*
X187960000Y-81280000D03*
X190500000Y-78740000D03*
X190500000Y-81280000D03*
%TO.C,J7*%
X106680000Y-78740000D03*
X106680000Y-81280000D03*
X109220000Y-78740000D03*
X109220000Y-81280000D03*
X111760000Y-78740000D03*
X111760000Y-81280000D03*
X114300000Y-78740000D03*
X114300000Y-81280000D03*
X116840000Y-78740000D03*
X116840000Y-81280000D03*
X119380000Y-78740000D03*
X119380000Y-81280000D03*
X121920000Y-78740000D03*
X121920000Y-81280000D03*
X124460000Y-78740000D03*
X124460000Y-81280000D03*
%TO.C,J5*%
X172720000Y-45720000D03*
X172720000Y-48260000D03*
X175260000Y-45720000D03*
X175260000Y-48260000D03*
X177800000Y-45720000D03*
X177800000Y-48260000D03*
X180340000Y-45720000D03*
X180340000Y-48260000D03*
X182880000Y-45720000D03*
X182880000Y-48260000D03*
X185420000Y-45720000D03*
X185420000Y-48260000D03*
X187960000Y-45720000D03*
X187960000Y-48260000D03*
X190500000Y-45720000D03*
X190500000Y-48260000D03*
%TO.C,J4*%
X139700000Y-45720000D03*
X139700000Y-48260000D03*
X142240000Y-45720000D03*
X142240000Y-48260000D03*
X144780000Y-45720000D03*
X144780000Y-48260000D03*
X147320000Y-45720000D03*
X147320000Y-48260000D03*
X149860000Y-45720000D03*
X149860000Y-48260000D03*
X152400000Y-45720000D03*
X152400000Y-48260000D03*
X154940000Y-45720000D03*
X154940000Y-48260000D03*
X157480000Y-45720000D03*
X157480000Y-48260000D03*
%TO.C,J2*%
X73660000Y-45720000D03*
X73660000Y-48260000D03*
X76200000Y-45720000D03*
X76200000Y-48260000D03*
X78740000Y-45720000D03*
X78740000Y-48260000D03*
X81280000Y-45720000D03*
X81280000Y-48260000D03*
X83820000Y-45720000D03*
X83820000Y-48260000D03*
X86360000Y-45720000D03*
X86360000Y-48260000D03*
X88900000Y-45720000D03*
X88900000Y-48260000D03*
X91440000Y-45720000D03*
X91440000Y-48260000D03*
%TO.C,J8*%
X139700000Y-78740000D03*
X139700000Y-81280000D03*
X142240000Y-78740000D03*
X142240000Y-81280000D03*
X144780000Y-78740000D03*
X144780000Y-81280000D03*
X147320000Y-78740000D03*
X147320000Y-81280000D03*
X149860000Y-78740000D03*
X149860000Y-81280000D03*
X152400000Y-78740000D03*
X152400000Y-81280000D03*
X154940000Y-78740000D03*
X154940000Y-81280000D03*
X157480000Y-78740000D03*
X157480000Y-81280000D03*
D16*
%TO.C,J1*%
X43180000Y-58420000D03*
X43180000Y-63420000D03*
X43180000Y-68420000D03*
M02*
