G04 #@! TF.GenerationSoftware,KiCad,Pcbnew,5.0.2-bee76a0~70~ubuntu18.04.1*
G04 #@! TF.CreationDate,2019-05-10T17:39:33+10:00*
G04 #@! TF.ProjectId,busboard,62757362-6f61-4726-942e-6b696361645f,rev?*
G04 #@! TF.SameCoordinates,Original*
G04 #@! TF.FileFunction,Copper,L2,Bot*
G04 #@! TF.FilePolarity,Positive*
%FSLAX46Y46*%
G04 Gerber Fmt 4.6, Leading zero omitted, Abs format (unit mm)*
G04 Created by KiCad (PCBNEW 5.0.2-bee76a0~70~ubuntu18.04.1) date Fri 10 May 2019 17:39:33 AEST*
%MOMM*%
%LPD*%
G01*
G04 APERTURE LIST*
G04 #@! TA.AperFunction,ComponentPad*
%ADD10O,1.600000X1.600000*%
G04 #@! TD*
G04 #@! TA.AperFunction,ComponentPad*
%ADD11C,1.600000*%
G04 #@! TD*
G04 #@! TA.AperFunction,ComponentPad*
%ADD12R,1.600000X1.600000*%
G04 #@! TD*
G04 #@! TA.AperFunction,ComponentPad*
%ADD13R,2.800000X2.800000*%
G04 #@! TD*
G04 #@! TA.AperFunction,ComponentPad*
%ADD14C,2.800000*%
G04 #@! TD*
G04 #@! TA.AperFunction,ComponentPad*
%ADD15R,1.727200X1.727200*%
G04 #@! TD*
G04 #@! TA.AperFunction,ComponentPad*
%ADD16O,1.727200X1.727200*%
G04 #@! TD*
G04 #@! TA.AperFunction,ComponentPad*
%ADD17C,2.000000*%
G04 #@! TD*
G04 #@! TA.AperFunction,ComponentPad*
%ADD18R,1.800000X1.800000*%
G04 #@! TD*
G04 #@! TA.AperFunction,ComponentPad*
%ADD19C,1.800000*%
G04 #@! TD*
G04 #@! TA.AperFunction,ViaPad*
%ADD20C,0.800000*%
G04 #@! TD*
G04 #@! TA.AperFunction,Conductor*
%ADD21C,2.000000*%
G04 #@! TD*
G04 #@! TA.AperFunction,Conductor*
%ADD22C,0.250000*%
G04 #@! TD*
G04 #@! TA.AperFunction,Conductor*
%ADD23C,0.254000*%
G04 #@! TD*
G04 APERTURE END LIST*
D10*
G04 #@! TO.P,L2,2*
G04 #@! TO.N,Net-(C2-Pad2)*
X39370000Y-82550000D03*
D11*
G04 #@! TO.P,L2,1*
G04 #@! TO.N,-12V*
X49370000Y-82550000D03*
G04 #@! TD*
G04 #@! TO.P,C7,2*
G04 #@! TO.N,GND*
X60960000Y-50760000D03*
D12*
G04 #@! TO.P,C7,1*
G04 #@! TO.N,+12V*
X60960000Y-48260000D03*
G04 #@! TD*
G04 #@! TO.P,C5,1*
G04 #@! TO.N,+12V*
X53340000Y-48260000D03*
D11*
G04 #@! TO.P,C5,2*
G04 #@! TO.N,GND*
X53340000Y-50760000D03*
G04 #@! TD*
G04 #@! TO.P,C6,2*
G04 #@! TO.N,-12V*
X53340000Y-78740000D03*
D12*
G04 #@! TO.P,C6,1*
G04 #@! TO.N,GND*
X53340000Y-76240000D03*
G04 #@! TD*
D13*
G04 #@! TO.P,J1,1*
G04 #@! TO.N,Net-(F1-Pad2)*
X43180000Y-68420000D03*
D14*
G04 #@! TO.P,J1,2*
G04 #@! TO.N,GND*
X43180000Y-63420000D03*
G04 #@! TO.P,J1,3*
G04 #@! TO.N,Net-(F2-Pad2)*
X43180000Y-58420000D03*
G04 #@! TD*
D15*
G04 #@! TO.P,J2,1*
G04 #@! TO.N,-12V*
X91440000Y-45720000D03*
D16*
G04 #@! TO.P,J2,2*
X91440000Y-48260000D03*
G04 #@! TO.P,J2,3*
G04 #@! TO.N,GND*
X88900000Y-45720000D03*
G04 #@! TO.P,J2,4*
X88900000Y-48260000D03*
G04 #@! TO.P,J2,5*
X86360000Y-45720000D03*
G04 #@! TO.P,J2,6*
X86360000Y-48260000D03*
G04 #@! TO.P,J2,7*
X83820000Y-45720000D03*
G04 #@! TO.P,J2,8*
X83820000Y-48260000D03*
G04 #@! TO.P,J2,9*
G04 #@! TO.N,+12V*
X81280000Y-45720000D03*
G04 #@! TO.P,J2,10*
X81280000Y-48260000D03*
G04 #@! TO.P,J2,11*
G04 #@! TO.N,Net-(J2-Pad11)*
X78740000Y-45720000D03*
G04 #@! TO.P,J2,12*
X78740000Y-48260000D03*
G04 #@! TO.P,J2,13*
G04 #@! TO.N,Net-(J2-Pad13)*
X76200000Y-45720000D03*
G04 #@! TO.P,J2,14*
X76200000Y-48260000D03*
G04 #@! TO.P,J2,15*
G04 #@! TO.N,Net-(J2-Pad15)*
X73660000Y-45720000D03*
G04 #@! TO.P,J2,16*
X73660000Y-48260000D03*
G04 #@! TD*
G04 #@! TO.P,J8,16*
G04 #@! TO.N,Net-(J2-Pad15)*
X139700000Y-81280000D03*
G04 #@! TO.P,J8,15*
X139700000Y-78740000D03*
G04 #@! TO.P,J8,14*
G04 #@! TO.N,Net-(J2-Pad13)*
X142240000Y-81280000D03*
G04 #@! TO.P,J8,13*
X142240000Y-78740000D03*
G04 #@! TO.P,J8,12*
G04 #@! TO.N,Net-(J2-Pad11)*
X144780000Y-81280000D03*
G04 #@! TO.P,J8,11*
X144780000Y-78740000D03*
G04 #@! TO.P,J8,10*
G04 #@! TO.N,+12V*
X147320000Y-81280000D03*
G04 #@! TO.P,J8,9*
X147320000Y-78740000D03*
G04 #@! TO.P,J8,8*
G04 #@! TO.N,GND*
X149860000Y-81280000D03*
G04 #@! TO.P,J8,7*
X149860000Y-78740000D03*
G04 #@! TO.P,J8,6*
X152400000Y-81280000D03*
G04 #@! TO.P,J8,5*
X152400000Y-78740000D03*
G04 #@! TO.P,J8,4*
X154940000Y-81280000D03*
G04 #@! TO.P,J8,3*
X154940000Y-78740000D03*
G04 #@! TO.P,J8,2*
G04 #@! TO.N,-12V*
X157480000Y-81280000D03*
D15*
G04 #@! TO.P,J8,1*
X157480000Y-78740000D03*
G04 #@! TD*
D16*
G04 #@! TO.P,J7,16*
G04 #@! TO.N,Net-(J2-Pad15)*
X106680000Y-81280000D03*
G04 #@! TO.P,J7,15*
X106680000Y-78740000D03*
G04 #@! TO.P,J7,14*
G04 #@! TO.N,Net-(J2-Pad13)*
X109220000Y-81280000D03*
G04 #@! TO.P,J7,13*
X109220000Y-78740000D03*
G04 #@! TO.P,J7,12*
G04 #@! TO.N,Net-(J2-Pad11)*
X111760000Y-81280000D03*
G04 #@! TO.P,J7,11*
X111760000Y-78740000D03*
G04 #@! TO.P,J7,10*
G04 #@! TO.N,+12V*
X114300000Y-81280000D03*
G04 #@! TO.P,J7,9*
X114300000Y-78740000D03*
G04 #@! TO.P,J7,8*
G04 #@! TO.N,GND*
X116840000Y-81280000D03*
G04 #@! TO.P,J7,7*
X116840000Y-78740000D03*
G04 #@! TO.P,J7,6*
X119380000Y-81280000D03*
G04 #@! TO.P,J7,5*
X119380000Y-78740000D03*
G04 #@! TO.P,J7,4*
X121920000Y-81280000D03*
G04 #@! TO.P,J7,3*
X121920000Y-78740000D03*
G04 #@! TO.P,J7,2*
G04 #@! TO.N,-12V*
X124460000Y-81280000D03*
D15*
G04 #@! TO.P,J7,1*
X124460000Y-78740000D03*
G04 #@! TD*
G04 #@! TO.P,J6,1*
G04 #@! TO.N,-12V*
X91440000Y-78740000D03*
D16*
G04 #@! TO.P,J6,2*
X91440000Y-81280000D03*
G04 #@! TO.P,J6,3*
G04 #@! TO.N,GND*
X88900000Y-78740000D03*
G04 #@! TO.P,J6,4*
X88900000Y-81280000D03*
G04 #@! TO.P,J6,5*
X86360000Y-78740000D03*
G04 #@! TO.P,J6,6*
X86360000Y-81280000D03*
G04 #@! TO.P,J6,7*
X83820000Y-78740000D03*
G04 #@! TO.P,J6,8*
X83820000Y-81280000D03*
G04 #@! TO.P,J6,9*
G04 #@! TO.N,+12V*
X81280000Y-78740000D03*
G04 #@! TO.P,J6,10*
X81280000Y-81280000D03*
G04 #@! TO.P,J6,11*
G04 #@! TO.N,Net-(J2-Pad11)*
X78740000Y-78740000D03*
G04 #@! TO.P,J6,12*
X78740000Y-81280000D03*
G04 #@! TO.P,J6,13*
G04 #@! TO.N,Net-(J2-Pad13)*
X76200000Y-78740000D03*
G04 #@! TO.P,J6,14*
X76200000Y-81280000D03*
G04 #@! TO.P,J6,15*
G04 #@! TO.N,Net-(J2-Pad15)*
X73660000Y-78740000D03*
G04 #@! TO.P,J6,16*
X73660000Y-81280000D03*
G04 #@! TD*
G04 #@! TO.P,J5,16*
G04 #@! TO.N,Net-(J2-Pad15)*
X172720000Y-48260000D03*
G04 #@! TO.P,J5,15*
X172720000Y-45720000D03*
G04 #@! TO.P,J5,14*
G04 #@! TO.N,Net-(J2-Pad13)*
X175260000Y-48260000D03*
G04 #@! TO.P,J5,13*
X175260000Y-45720000D03*
G04 #@! TO.P,J5,12*
G04 #@! TO.N,Net-(J2-Pad11)*
X177800000Y-48260000D03*
G04 #@! TO.P,J5,11*
X177800000Y-45720000D03*
G04 #@! TO.P,J5,10*
G04 #@! TO.N,+12V*
X180340000Y-48260000D03*
G04 #@! TO.P,J5,9*
X180340000Y-45720000D03*
G04 #@! TO.P,J5,8*
G04 #@! TO.N,GND*
X182880000Y-48260000D03*
G04 #@! TO.P,J5,7*
X182880000Y-45720000D03*
G04 #@! TO.P,J5,6*
X185420000Y-48260000D03*
G04 #@! TO.P,J5,5*
X185420000Y-45720000D03*
G04 #@! TO.P,J5,4*
X187960000Y-48260000D03*
G04 #@! TO.P,J5,3*
X187960000Y-45720000D03*
G04 #@! TO.P,J5,2*
G04 #@! TO.N,-12V*
X190500000Y-48260000D03*
D15*
G04 #@! TO.P,J5,1*
X190500000Y-45720000D03*
G04 #@! TD*
G04 #@! TO.P,J4,1*
G04 #@! TO.N,-12V*
X157480000Y-45720000D03*
D16*
G04 #@! TO.P,J4,2*
X157480000Y-48260000D03*
G04 #@! TO.P,J4,3*
G04 #@! TO.N,GND*
X154940000Y-45720000D03*
G04 #@! TO.P,J4,4*
X154940000Y-48260000D03*
G04 #@! TO.P,J4,5*
X152400000Y-45720000D03*
G04 #@! TO.P,J4,6*
X152400000Y-48260000D03*
G04 #@! TO.P,J4,7*
X149860000Y-45720000D03*
G04 #@! TO.P,J4,8*
X149860000Y-48260000D03*
G04 #@! TO.P,J4,9*
G04 #@! TO.N,+12V*
X147320000Y-45720000D03*
G04 #@! TO.P,J4,10*
X147320000Y-48260000D03*
G04 #@! TO.P,J4,11*
G04 #@! TO.N,Net-(J2-Pad11)*
X144780000Y-45720000D03*
G04 #@! TO.P,J4,12*
X144780000Y-48260000D03*
G04 #@! TO.P,J4,13*
G04 #@! TO.N,Net-(J2-Pad13)*
X142240000Y-45720000D03*
G04 #@! TO.P,J4,14*
X142240000Y-48260000D03*
G04 #@! TO.P,J4,15*
G04 #@! TO.N,Net-(J2-Pad15)*
X139700000Y-45720000D03*
G04 #@! TO.P,J4,16*
X139700000Y-48260000D03*
G04 #@! TD*
G04 #@! TO.P,J3,16*
G04 #@! TO.N,Net-(J2-Pad15)*
X106680000Y-48260000D03*
G04 #@! TO.P,J3,15*
X106680000Y-45720000D03*
G04 #@! TO.P,J3,14*
G04 #@! TO.N,Net-(J2-Pad13)*
X109220000Y-48260000D03*
G04 #@! TO.P,J3,13*
X109220000Y-45720000D03*
G04 #@! TO.P,J3,12*
G04 #@! TO.N,Net-(J2-Pad11)*
X111760000Y-48260000D03*
G04 #@! TO.P,J3,11*
X111760000Y-45720000D03*
G04 #@! TO.P,J3,10*
G04 #@! TO.N,+12V*
X114300000Y-48260000D03*
G04 #@! TO.P,J3,9*
X114300000Y-45720000D03*
G04 #@! TO.P,J3,8*
G04 #@! TO.N,GND*
X116840000Y-48260000D03*
G04 #@! TO.P,J3,7*
X116840000Y-45720000D03*
G04 #@! TO.P,J3,6*
X119380000Y-48260000D03*
G04 #@! TO.P,J3,5*
X119380000Y-45720000D03*
G04 #@! TO.P,J3,4*
X121920000Y-48260000D03*
G04 #@! TO.P,J3,3*
X121920000Y-45720000D03*
G04 #@! TO.P,J3,2*
G04 #@! TO.N,-12V*
X124460000Y-48260000D03*
D15*
G04 #@! TO.P,J3,1*
X124460000Y-45720000D03*
G04 #@! TD*
G04 #@! TO.P,J9,1*
G04 #@! TO.N,-12V*
X190500000Y-78740000D03*
D16*
G04 #@! TO.P,J9,2*
X190500000Y-81280000D03*
G04 #@! TO.P,J9,3*
G04 #@! TO.N,GND*
X187960000Y-78740000D03*
G04 #@! TO.P,J9,4*
X187960000Y-81280000D03*
G04 #@! TO.P,J9,5*
X185420000Y-78740000D03*
G04 #@! TO.P,J9,6*
X185420000Y-81280000D03*
G04 #@! TO.P,J9,7*
X182880000Y-78740000D03*
G04 #@! TO.P,J9,8*
X182880000Y-81280000D03*
G04 #@! TO.P,J9,9*
G04 #@! TO.N,+12V*
X180340000Y-78740000D03*
G04 #@! TO.P,J9,10*
X180340000Y-81280000D03*
G04 #@! TO.P,J9,11*
G04 #@! TO.N,Net-(J2-Pad11)*
X177800000Y-78740000D03*
G04 #@! TO.P,J9,12*
X177800000Y-81280000D03*
G04 #@! TO.P,J9,13*
G04 #@! TO.N,Net-(J2-Pad13)*
X175260000Y-78740000D03*
G04 #@! TO.P,J9,14*
X175260000Y-81280000D03*
G04 #@! TO.P,J9,15*
G04 #@! TO.N,Net-(J2-Pad15)*
X172720000Y-78740000D03*
G04 #@! TO.P,J9,16*
X172720000Y-81280000D03*
G04 #@! TD*
D12*
G04 #@! TO.P,C3,1*
G04 #@! TO.N,Net-(C1-Pad1)*
X60960000Y-58420000D03*
D11*
G04 #@! TO.P,C3,2*
G04 #@! TO.N,GND*
X60960000Y-60920000D03*
G04 #@! TD*
G04 #@! TO.P,C4,2*
G04 #@! TO.N,Net-(C2-Pad2)*
X60960000Y-68540000D03*
D12*
G04 #@! TO.P,C4,1*
G04 #@! TO.N,GND*
X60960000Y-66040000D03*
G04 #@! TD*
D11*
G04 #@! TO.P,C8,2*
G04 #@! TO.N,-12V*
X60960000Y-78740000D03*
D12*
G04 #@! TO.P,C8,1*
G04 #@! TO.N,GND*
X60960000Y-76240000D03*
G04 #@! TD*
G04 #@! TO.P,C2,1*
G04 #@! TO.N,GND*
X53340000Y-66040000D03*
D11*
G04 #@! TO.P,C2,2*
G04 #@! TO.N,Net-(C2-Pad2)*
X53340000Y-68540000D03*
G04 #@! TD*
G04 #@! TO.P,C1,2*
G04 #@! TO.N,GND*
X53340000Y-60920000D03*
D12*
G04 #@! TO.P,C1,1*
G04 #@! TO.N,Net-(C1-Pad1)*
X53340000Y-58420000D03*
G04 #@! TD*
D17*
G04 #@! TO.P,F2,2*
G04 #@! TO.N,Net-(F2-Pad2)*
X40640000Y-50790000D03*
G04 #@! TO.P,F2,1*
G04 #@! TO.N,Net-(C1-Pad1)*
X45720000Y-50800000D03*
G04 #@! TD*
G04 #@! TO.P,F1,1*
G04 #@! TO.N,Net-(C2-Pad2)*
X45720000Y-76210000D03*
G04 #@! TO.P,F1,2*
G04 #@! TO.N,Net-(F1-Pad2)*
X40640000Y-76200000D03*
G04 #@! TD*
D10*
G04 #@! TO.P,L1,2*
G04 #@! TO.N,Net-(C1-Pad1)*
X39370000Y-44450000D03*
D11*
G04 #@! TO.P,L1,1*
G04 #@! TO.N,+12V*
X49370000Y-44450000D03*
G04 #@! TD*
D18*
G04 #@! TO.P,D2,1*
G04 #@! TO.N,Net-(C2-Pad2)*
X67310000Y-66040000D03*
D19*
G04 #@! TO.P,D2,2*
G04 #@! TO.N,Net-(D2-Pad2)*
X67310000Y-68580000D03*
G04 #@! TD*
D18*
G04 #@! TO.P,D1,1*
G04 #@! TO.N,GND*
X67310000Y-60960000D03*
D19*
G04 #@! TO.P,D1,2*
G04 #@! TO.N,Net-(D1-Pad2)*
X67310000Y-58420000D03*
G04 #@! TD*
D10*
G04 #@! TO.P,R1,2*
G04 #@! TO.N,Net-(C1-Pad1)*
X53340000Y-54610000D03*
D11*
G04 #@! TO.P,R1,1*
G04 #@! TO.N,Net-(D1-Pad2)*
X63500000Y-54610000D03*
G04 #@! TD*
G04 #@! TO.P,R2,1*
G04 #@! TO.N,Net-(D2-Pad2)*
X63500000Y-72390000D03*
D10*
G04 #@! TO.P,R2,2*
G04 #@! TO.N,GND*
X53340000Y-72390000D03*
G04 #@! TD*
D20*
G04 #@! TO.N,GND*
X53340000Y-43180000D03*
X195580000Y-43180000D03*
X195580000Y-83820000D03*
X182880000Y-83820000D03*
X170180000Y-83820000D03*
X154940000Y-83820000D03*
X142240000Y-83820000D03*
X129540000Y-83820000D03*
X116840000Y-83820000D03*
X104140000Y-83820000D03*
X91440000Y-83820000D03*
X66040000Y-83820000D03*
X53340000Y-83820000D03*
X66040000Y-43180000D03*
X78740000Y-43180000D03*
X91440000Y-43180000D03*
X104140000Y-43180000D03*
X116840000Y-43180000D03*
X129540000Y-43180000D03*
X142240000Y-43180000D03*
X154940000Y-43180000D03*
X170180000Y-43180000D03*
X182880000Y-43180000D03*
X38100000Y-50800000D03*
X38100000Y-76200000D03*
X203200000Y-63500000D03*
X203200000Y-76200000D03*
X203200000Y-50800000D03*
X31750000Y-63500000D03*
X31750000Y-52070000D03*
X31750000Y-76200000D03*
G04 #@! TO.N,+12V*
X180340000Y-60960000D03*
X147320000Y-60960000D03*
X114300000Y-60960000D03*
X81280000Y-60960000D03*
G04 #@! TO.N,-12V*
X190500000Y-66040000D03*
X157480000Y-66040000D03*
X124460000Y-66040000D03*
X91440000Y-66040000D03*
G04 #@! TO.N,Net-(J2-Pad13)*
X76200000Y-53340000D03*
X175260000Y-53340000D03*
X142240000Y-53340000D03*
X109220000Y-53340000D03*
G04 #@! TO.N,Net-(J2-Pad15)*
X73660000Y-73660000D03*
X172720000Y-73660000D03*
X139700000Y-73660000D03*
X106680000Y-73660000D03*
G04 #@! TO.N,Net-(J2-Pad11)*
X78740000Y-83820000D03*
X78740000Y-63500000D03*
X177800000Y-63500000D03*
X144780000Y-63500000D03*
X111760000Y-63500000D03*
G04 #@! TD*
D21*
G04 #@! TO.N,Net-(D2-Pad2)*
X63500000Y-72390000D02*
X67310000Y-68580000D01*
G04 #@! TO.N,+12V*
X49530000Y-44450000D02*
X53340000Y-48260000D01*
X49370000Y-44450000D02*
X49530000Y-44450000D01*
X53340000Y-48260000D02*
X60960000Y-48260000D01*
X181610000Y-60960000D02*
X190500000Y-60960000D01*
X180340000Y-60960000D02*
X181610000Y-60960000D01*
X147320000Y-60960000D02*
X180340000Y-60960000D01*
X114300000Y-60960000D02*
X147320000Y-60960000D01*
X81280000Y-60960000D02*
X114300000Y-60960000D01*
X63760000Y-48260000D02*
X60960000Y-48260000D01*
X70745000Y-55245000D02*
X63760000Y-48260000D01*
X70745000Y-59315000D02*
X70745000Y-55245000D01*
X81280000Y-60960000D02*
X72390000Y-60960000D01*
X72390000Y-60960000D02*
X70745000Y-59315000D01*
G04 #@! TO.N,Net-(D1-Pad2)*
X67310000Y-58420000D02*
X63500000Y-54610000D01*
G04 #@! TO.N,-12V*
X49370000Y-82550000D02*
X49530000Y-82550000D01*
X53340000Y-78740000D02*
X60960000Y-78740000D01*
X49530000Y-82550000D02*
X53340000Y-78740000D01*
X75460002Y-66040000D02*
X76200000Y-66040000D01*
X181610000Y-66040000D02*
X190500000Y-66040000D01*
X157480000Y-66040000D02*
X181610000Y-66040000D01*
X124460000Y-66040000D02*
X157480000Y-66040000D01*
X91440000Y-66040000D02*
X124460000Y-66040000D01*
X77470000Y-66040000D02*
X91440000Y-66040000D01*
X75460002Y-66040000D02*
X77470000Y-66040000D01*
X72390000Y-66040000D02*
X77470000Y-66040000D01*
X70380002Y-71120000D02*
X70380002Y-68049998D01*
X70380002Y-68049998D02*
X72390000Y-66040000D01*
X62760002Y-78740000D02*
X70380002Y-71120000D01*
X60960000Y-78740000D02*
X62760002Y-78740000D01*
D22*
G04 #@! TO.N,Net-(J2-Pad13)*
X76200000Y-53340000D02*
X175260000Y-53340000D01*
G04 #@! TO.N,Net-(J2-Pad15)*
X73660000Y-73660000D02*
X172720000Y-73660000D01*
D21*
G04 #@! TO.N,Net-(F1-Pad2)*
X43180000Y-73660000D02*
X40640000Y-76200000D01*
X43180000Y-68420000D02*
X43180000Y-73660000D01*
G04 #@! TO.N,Net-(F2-Pad2)*
X43180000Y-53330000D02*
X40640000Y-50790000D01*
X43180000Y-58420000D02*
X43180000Y-53330000D01*
G04 #@! TO.N,Net-(C1-Pad1)*
X45720000Y-50800000D02*
X39370000Y-44450000D01*
X45720000Y-50800000D02*
X53340000Y-58420000D01*
X60960000Y-58420000D02*
X53340000Y-58420000D01*
X57150000Y-54610000D02*
X60960000Y-58420000D01*
X53340000Y-54610000D02*
X57150000Y-54610000D01*
G04 #@! TO.N,Net-(C2-Pad2)*
X45710000Y-76210000D02*
X39370000Y-82550000D01*
X45720000Y-76210000D02*
X45710000Y-76210000D01*
X45720000Y-76160000D02*
X53340000Y-68540000D01*
X45720000Y-76210000D02*
X45720000Y-76160000D01*
X60960000Y-68540000D02*
X53340000Y-68540000D01*
X61910000Y-68540000D02*
X60960000Y-68540000D01*
X64410000Y-66040000D02*
X61910000Y-68540000D01*
X67310000Y-66040000D02*
X64410000Y-66040000D01*
G04 #@! TO.N,Net-(J2-Pad11)*
X78740000Y-63500000D02*
X177800000Y-63500000D01*
G04 #@! TD*
D23*
G04 #@! TO.N,GND*
G36*
X203760001Y-85650000D02*
X31190000Y-85650000D01*
X31190000Y-82105431D01*
X32055000Y-82105431D01*
X32055000Y-82994569D01*
X32395259Y-83816026D01*
X33023974Y-84444741D01*
X33845431Y-84785000D01*
X34734569Y-84785000D01*
X35556026Y-84444741D01*
X36184741Y-83816026D01*
X36525000Y-82994569D01*
X36525000Y-82550000D01*
X37702969Y-82550000D01*
X37829865Y-83187945D01*
X38191232Y-83728768D01*
X38732055Y-84090135D01*
X39370000Y-84217031D01*
X40007945Y-84090135D01*
X40412253Y-83819985D01*
X46629082Y-77603157D01*
X46646153Y-77596086D01*
X46762253Y-77479986D01*
X46898769Y-77388769D01*
X46989986Y-77252253D01*
X47106086Y-77136153D01*
X47141442Y-77050796D01*
X48878547Y-75313691D01*
X51905000Y-75313691D01*
X51905000Y-75954250D01*
X52063750Y-76113000D01*
X53213000Y-76113000D01*
X53213000Y-74963750D01*
X53467000Y-74963750D01*
X53467000Y-76113000D01*
X54616250Y-76113000D01*
X54775000Y-75954250D01*
X54775000Y-75313691D01*
X59525000Y-75313691D01*
X59525000Y-75954250D01*
X59683750Y-76113000D01*
X60833000Y-76113000D01*
X60833000Y-74963750D01*
X61087000Y-74963750D01*
X61087000Y-76113000D01*
X62236250Y-76113000D01*
X62395000Y-75954250D01*
X62395000Y-75313691D01*
X62298327Y-75080302D01*
X62119699Y-74901673D01*
X61886310Y-74805000D01*
X61245750Y-74805000D01*
X61087000Y-74963750D01*
X60833000Y-74963750D01*
X60674250Y-74805000D01*
X60033690Y-74805000D01*
X59800301Y-74901673D01*
X59621673Y-75080302D01*
X59525000Y-75313691D01*
X54775000Y-75313691D01*
X54678327Y-75080302D01*
X54499699Y-74901673D01*
X54266310Y-74805000D01*
X53625750Y-74805000D01*
X53467000Y-74963750D01*
X53213000Y-74963750D01*
X53054250Y-74805000D01*
X52413690Y-74805000D01*
X52180301Y-74901673D01*
X52001673Y-75080302D01*
X51905000Y-75313691D01*
X48878547Y-75313691D01*
X51453199Y-72739039D01*
X51948096Y-72739039D01*
X52108959Y-73127423D01*
X52484866Y-73542389D01*
X52990959Y-73781914D01*
X53213000Y-73660629D01*
X53213000Y-72517000D01*
X53467000Y-72517000D01*
X53467000Y-73660629D01*
X53689041Y-73781914D01*
X54195134Y-73542389D01*
X54571041Y-73127423D01*
X54731904Y-72739039D01*
X54609915Y-72517000D01*
X53467000Y-72517000D01*
X53213000Y-72517000D01*
X52070085Y-72517000D01*
X51948096Y-72739039D01*
X51453199Y-72739039D01*
X52020142Y-72172096D01*
X52070085Y-72263000D01*
X53213000Y-72263000D01*
X53213000Y-71119371D01*
X53467000Y-71119371D01*
X53467000Y-72263000D01*
X54609915Y-72263000D01*
X54731904Y-72040961D01*
X54571041Y-71652577D01*
X54195134Y-71237611D01*
X53689041Y-70998086D01*
X53467000Y-71119371D01*
X53213000Y-71119371D01*
X53122372Y-71069867D01*
X54017239Y-70175000D01*
X61748970Y-70175000D01*
X61910000Y-70207031D01*
X62071030Y-70175000D01*
X62071031Y-70175000D01*
X62547945Y-70080136D01*
X63088769Y-69718769D01*
X63179988Y-69582250D01*
X65087239Y-67675000D01*
X65902761Y-67675000D01*
X62230015Y-71347747D01*
X61959865Y-71752055D01*
X61832969Y-72390000D01*
X61959865Y-73027945D01*
X62321232Y-73568768D01*
X62862055Y-73930135D01*
X63500000Y-74057031D01*
X64137945Y-73930135D01*
X64542253Y-73659985D01*
X68579985Y-69622254D01*
X68745003Y-69375289D01*
X68745002Y-70442761D01*
X62395000Y-76792764D01*
X62395000Y-76525750D01*
X62236250Y-76367000D01*
X61087000Y-76367000D01*
X61087000Y-76387000D01*
X60833000Y-76387000D01*
X60833000Y-76367000D01*
X59683750Y-76367000D01*
X59525000Y-76525750D01*
X59525000Y-77105000D01*
X54775000Y-77105000D01*
X54775000Y-76525750D01*
X54616250Y-76367000D01*
X53467000Y-76367000D01*
X53467000Y-76387000D01*
X53213000Y-76387000D01*
X53213000Y-76367000D01*
X52063750Y-76367000D01*
X51905000Y-76525750D01*
X51905000Y-77166309D01*
X52001673Y-77399698D01*
X52162414Y-77560440D01*
X52161231Y-77561231D01*
X52070014Y-77697747D01*
X48764315Y-81003447D01*
X48732055Y-81009864D01*
X48191231Y-81371231D01*
X47829864Y-81912055D01*
X47702969Y-82550000D01*
X47829864Y-83187945D01*
X48191231Y-83728769D01*
X48732055Y-84090136D01*
X49208969Y-84185000D01*
X49368970Y-84185000D01*
X49530000Y-84217031D01*
X49691030Y-84185000D01*
X49691031Y-84185000D01*
X50167945Y-84090136D01*
X50708769Y-83728769D01*
X50785370Y-83614126D01*
X77705000Y-83614126D01*
X77705000Y-84025874D01*
X77862569Y-84406280D01*
X78153720Y-84697431D01*
X78534126Y-84855000D01*
X78945874Y-84855000D01*
X79326280Y-84697431D01*
X79617431Y-84406280D01*
X79775000Y-84025874D01*
X79775000Y-83614126D01*
X79617431Y-83233720D01*
X79326280Y-82942569D01*
X78945874Y-82785000D01*
X78534126Y-82785000D01*
X78153720Y-82942569D01*
X77862569Y-83233720D01*
X77705000Y-83614126D01*
X50785370Y-83614126D01*
X50799988Y-83592250D01*
X54017239Y-80375000D01*
X62598972Y-80375000D01*
X62760002Y-80407031D01*
X62921032Y-80375000D01*
X62921033Y-80375000D01*
X63397947Y-80280136D01*
X63938771Y-79918769D01*
X64029990Y-79782250D01*
X65072240Y-78740000D01*
X72132041Y-78740000D01*
X72248350Y-79324725D01*
X72579570Y-79820430D01*
X72863281Y-80010000D01*
X72579570Y-80199570D01*
X72248350Y-80695275D01*
X72132041Y-81280000D01*
X72248350Y-81864725D01*
X72579570Y-82360430D01*
X73075275Y-82691650D01*
X73512402Y-82778600D01*
X73807598Y-82778600D01*
X74244725Y-82691650D01*
X74740430Y-82360430D01*
X74930000Y-82076719D01*
X75119570Y-82360430D01*
X75615275Y-82691650D01*
X76052402Y-82778600D01*
X76347598Y-82778600D01*
X76784725Y-82691650D01*
X77280430Y-82360430D01*
X77470000Y-82076719D01*
X77659570Y-82360430D01*
X78155275Y-82691650D01*
X78592402Y-82778600D01*
X78887598Y-82778600D01*
X79324725Y-82691650D01*
X79820430Y-82360430D01*
X80010000Y-82076719D01*
X80199570Y-82360430D01*
X80695275Y-82691650D01*
X81132402Y-82778600D01*
X81427598Y-82778600D01*
X81864725Y-82691650D01*
X82360430Y-82360430D01*
X82561854Y-82058979D01*
X82613179Y-82168490D01*
X83045053Y-82562688D01*
X83460974Y-82734958D01*
X83693000Y-82613817D01*
X83693000Y-81407000D01*
X83947000Y-81407000D01*
X83947000Y-82613817D01*
X84179026Y-82734958D01*
X84594947Y-82562688D01*
X85026821Y-82168490D01*
X85090000Y-82033687D01*
X85153179Y-82168490D01*
X85585053Y-82562688D01*
X86000974Y-82734958D01*
X86233000Y-82613817D01*
X86233000Y-81407000D01*
X86487000Y-81407000D01*
X86487000Y-82613817D01*
X86719026Y-82734958D01*
X87134947Y-82562688D01*
X87566821Y-82168490D01*
X87630000Y-82033687D01*
X87693179Y-82168490D01*
X88125053Y-82562688D01*
X88540974Y-82734958D01*
X88773000Y-82613817D01*
X88773000Y-81407000D01*
X86487000Y-81407000D01*
X86233000Y-81407000D01*
X83947000Y-81407000D01*
X83693000Y-81407000D01*
X83673000Y-81407000D01*
X83673000Y-81153000D01*
X83693000Y-81153000D01*
X83693000Y-78867000D01*
X83947000Y-78867000D01*
X83947000Y-81153000D01*
X86233000Y-81153000D01*
X86233000Y-78867000D01*
X86487000Y-78867000D01*
X86487000Y-81153000D01*
X88773000Y-81153000D01*
X88773000Y-78867000D01*
X86487000Y-78867000D01*
X86233000Y-78867000D01*
X83947000Y-78867000D01*
X83693000Y-78867000D01*
X83673000Y-78867000D01*
X83673000Y-78613000D01*
X83693000Y-78613000D01*
X83693000Y-77406183D01*
X83947000Y-77406183D01*
X83947000Y-78613000D01*
X86233000Y-78613000D01*
X86233000Y-77406183D01*
X86487000Y-77406183D01*
X86487000Y-78613000D01*
X88773000Y-78613000D01*
X88773000Y-77406183D01*
X89027000Y-77406183D01*
X89027000Y-78613000D01*
X89047000Y-78613000D01*
X89047000Y-78867000D01*
X89027000Y-78867000D01*
X89027000Y-81153000D01*
X89047000Y-81153000D01*
X89047000Y-81407000D01*
X89027000Y-81407000D01*
X89027000Y-82613817D01*
X89259026Y-82734958D01*
X89674947Y-82562688D01*
X90106821Y-82168490D01*
X90158146Y-82058979D01*
X90359570Y-82360430D01*
X90855275Y-82691650D01*
X91292402Y-82778600D01*
X91587598Y-82778600D01*
X92024725Y-82691650D01*
X92520430Y-82360430D01*
X92851650Y-81864725D01*
X92967959Y-81280000D01*
X92851650Y-80695275D01*
X92525349Y-80206932D01*
X92551365Y-80201757D01*
X92761409Y-80061409D01*
X92901757Y-79851365D01*
X92951040Y-79603600D01*
X92951040Y-78740000D01*
X105152041Y-78740000D01*
X105268350Y-79324725D01*
X105599570Y-79820430D01*
X105883281Y-80010000D01*
X105599570Y-80199570D01*
X105268350Y-80695275D01*
X105152041Y-81280000D01*
X105268350Y-81864725D01*
X105599570Y-82360430D01*
X106095275Y-82691650D01*
X106532402Y-82778600D01*
X106827598Y-82778600D01*
X107264725Y-82691650D01*
X107760430Y-82360430D01*
X107950000Y-82076719D01*
X108139570Y-82360430D01*
X108635275Y-82691650D01*
X109072402Y-82778600D01*
X109367598Y-82778600D01*
X109804725Y-82691650D01*
X110300430Y-82360430D01*
X110490000Y-82076719D01*
X110679570Y-82360430D01*
X111175275Y-82691650D01*
X111612402Y-82778600D01*
X111907598Y-82778600D01*
X112344725Y-82691650D01*
X112840430Y-82360430D01*
X113030000Y-82076719D01*
X113219570Y-82360430D01*
X113715275Y-82691650D01*
X114152402Y-82778600D01*
X114447598Y-82778600D01*
X114884725Y-82691650D01*
X115380430Y-82360430D01*
X115581854Y-82058979D01*
X115633179Y-82168490D01*
X116065053Y-82562688D01*
X116480974Y-82734958D01*
X116713000Y-82613817D01*
X116713000Y-81407000D01*
X116967000Y-81407000D01*
X116967000Y-82613817D01*
X117199026Y-82734958D01*
X117614947Y-82562688D01*
X118046821Y-82168490D01*
X118110000Y-82033687D01*
X118173179Y-82168490D01*
X118605053Y-82562688D01*
X119020974Y-82734958D01*
X119253000Y-82613817D01*
X119253000Y-81407000D01*
X119507000Y-81407000D01*
X119507000Y-82613817D01*
X119739026Y-82734958D01*
X120154947Y-82562688D01*
X120586821Y-82168490D01*
X120650000Y-82033687D01*
X120713179Y-82168490D01*
X121145053Y-82562688D01*
X121560974Y-82734958D01*
X121793000Y-82613817D01*
X121793000Y-81407000D01*
X119507000Y-81407000D01*
X119253000Y-81407000D01*
X116967000Y-81407000D01*
X116713000Y-81407000D01*
X116693000Y-81407000D01*
X116693000Y-81153000D01*
X116713000Y-81153000D01*
X116713000Y-78867000D01*
X116967000Y-78867000D01*
X116967000Y-81153000D01*
X119253000Y-81153000D01*
X119253000Y-78867000D01*
X119507000Y-78867000D01*
X119507000Y-81153000D01*
X121793000Y-81153000D01*
X121793000Y-78867000D01*
X119507000Y-78867000D01*
X119253000Y-78867000D01*
X116967000Y-78867000D01*
X116713000Y-78867000D01*
X116693000Y-78867000D01*
X116693000Y-78613000D01*
X116713000Y-78613000D01*
X116713000Y-77406183D01*
X116967000Y-77406183D01*
X116967000Y-78613000D01*
X119253000Y-78613000D01*
X119253000Y-77406183D01*
X119507000Y-77406183D01*
X119507000Y-78613000D01*
X121793000Y-78613000D01*
X121793000Y-77406183D01*
X122047000Y-77406183D01*
X122047000Y-78613000D01*
X122067000Y-78613000D01*
X122067000Y-78867000D01*
X122047000Y-78867000D01*
X122047000Y-81153000D01*
X122067000Y-81153000D01*
X122067000Y-81407000D01*
X122047000Y-81407000D01*
X122047000Y-82613817D01*
X122279026Y-82734958D01*
X122694947Y-82562688D01*
X123126821Y-82168490D01*
X123178146Y-82058979D01*
X123379570Y-82360430D01*
X123875275Y-82691650D01*
X124312402Y-82778600D01*
X124607598Y-82778600D01*
X125044725Y-82691650D01*
X125540430Y-82360430D01*
X125871650Y-81864725D01*
X125987959Y-81280000D01*
X125871650Y-80695275D01*
X125545349Y-80206932D01*
X125571365Y-80201757D01*
X125781409Y-80061409D01*
X125921757Y-79851365D01*
X125971040Y-79603600D01*
X125971040Y-78740000D01*
X138172041Y-78740000D01*
X138288350Y-79324725D01*
X138619570Y-79820430D01*
X138903281Y-80010000D01*
X138619570Y-80199570D01*
X138288350Y-80695275D01*
X138172041Y-81280000D01*
X138288350Y-81864725D01*
X138619570Y-82360430D01*
X139115275Y-82691650D01*
X139552402Y-82778600D01*
X139847598Y-82778600D01*
X140284725Y-82691650D01*
X140780430Y-82360430D01*
X140970000Y-82076719D01*
X141159570Y-82360430D01*
X141655275Y-82691650D01*
X142092402Y-82778600D01*
X142387598Y-82778600D01*
X142824725Y-82691650D01*
X143320430Y-82360430D01*
X143510000Y-82076719D01*
X143699570Y-82360430D01*
X144195275Y-82691650D01*
X144632402Y-82778600D01*
X144927598Y-82778600D01*
X145364725Y-82691650D01*
X145860430Y-82360430D01*
X146050000Y-82076719D01*
X146239570Y-82360430D01*
X146735275Y-82691650D01*
X147172402Y-82778600D01*
X147467598Y-82778600D01*
X147904725Y-82691650D01*
X148400430Y-82360430D01*
X148601854Y-82058979D01*
X148653179Y-82168490D01*
X149085053Y-82562688D01*
X149500974Y-82734958D01*
X149733000Y-82613817D01*
X149733000Y-81407000D01*
X149987000Y-81407000D01*
X149987000Y-82613817D01*
X150219026Y-82734958D01*
X150634947Y-82562688D01*
X151066821Y-82168490D01*
X151130000Y-82033687D01*
X151193179Y-82168490D01*
X151625053Y-82562688D01*
X152040974Y-82734958D01*
X152273000Y-82613817D01*
X152273000Y-81407000D01*
X152527000Y-81407000D01*
X152527000Y-82613817D01*
X152759026Y-82734958D01*
X153174947Y-82562688D01*
X153606821Y-82168490D01*
X153670000Y-82033687D01*
X153733179Y-82168490D01*
X154165053Y-82562688D01*
X154580974Y-82734958D01*
X154813000Y-82613817D01*
X154813000Y-81407000D01*
X152527000Y-81407000D01*
X152273000Y-81407000D01*
X149987000Y-81407000D01*
X149733000Y-81407000D01*
X149713000Y-81407000D01*
X149713000Y-81153000D01*
X149733000Y-81153000D01*
X149733000Y-78867000D01*
X149987000Y-78867000D01*
X149987000Y-81153000D01*
X152273000Y-81153000D01*
X152273000Y-78867000D01*
X152527000Y-78867000D01*
X152527000Y-81153000D01*
X154813000Y-81153000D01*
X154813000Y-78867000D01*
X152527000Y-78867000D01*
X152273000Y-78867000D01*
X149987000Y-78867000D01*
X149733000Y-78867000D01*
X149713000Y-78867000D01*
X149713000Y-78613000D01*
X149733000Y-78613000D01*
X149733000Y-77406183D01*
X149987000Y-77406183D01*
X149987000Y-78613000D01*
X152273000Y-78613000D01*
X152273000Y-77406183D01*
X152527000Y-77406183D01*
X152527000Y-78613000D01*
X154813000Y-78613000D01*
X154813000Y-77406183D01*
X155067000Y-77406183D01*
X155067000Y-78613000D01*
X155087000Y-78613000D01*
X155087000Y-78867000D01*
X155067000Y-78867000D01*
X155067000Y-81153000D01*
X155087000Y-81153000D01*
X155087000Y-81407000D01*
X155067000Y-81407000D01*
X155067000Y-82613817D01*
X155299026Y-82734958D01*
X155714947Y-82562688D01*
X156146821Y-82168490D01*
X156198146Y-82058979D01*
X156399570Y-82360430D01*
X156895275Y-82691650D01*
X157332402Y-82778600D01*
X157627598Y-82778600D01*
X158064725Y-82691650D01*
X158560430Y-82360430D01*
X158891650Y-81864725D01*
X159007959Y-81280000D01*
X158891650Y-80695275D01*
X158565349Y-80206932D01*
X158591365Y-80201757D01*
X158801409Y-80061409D01*
X158941757Y-79851365D01*
X158991040Y-79603600D01*
X158991040Y-78740000D01*
X171192041Y-78740000D01*
X171308350Y-79324725D01*
X171639570Y-79820430D01*
X171923281Y-80010000D01*
X171639570Y-80199570D01*
X171308350Y-80695275D01*
X171192041Y-81280000D01*
X171308350Y-81864725D01*
X171639570Y-82360430D01*
X172135275Y-82691650D01*
X172572402Y-82778600D01*
X172867598Y-82778600D01*
X173304725Y-82691650D01*
X173800430Y-82360430D01*
X173990000Y-82076719D01*
X174179570Y-82360430D01*
X174675275Y-82691650D01*
X175112402Y-82778600D01*
X175407598Y-82778600D01*
X175844725Y-82691650D01*
X176340430Y-82360430D01*
X176530000Y-82076719D01*
X176719570Y-82360430D01*
X177215275Y-82691650D01*
X177652402Y-82778600D01*
X177947598Y-82778600D01*
X178384725Y-82691650D01*
X178880430Y-82360430D01*
X179070000Y-82076719D01*
X179259570Y-82360430D01*
X179755275Y-82691650D01*
X180192402Y-82778600D01*
X180487598Y-82778600D01*
X180924725Y-82691650D01*
X181420430Y-82360430D01*
X181621854Y-82058979D01*
X181673179Y-82168490D01*
X182105053Y-82562688D01*
X182520974Y-82734958D01*
X182753000Y-82613817D01*
X182753000Y-81407000D01*
X183007000Y-81407000D01*
X183007000Y-82613817D01*
X183239026Y-82734958D01*
X183654947Y-82562688D01*
X184086821Y-82168490D01*
X184150000Y-82033687D01*
X184213179Y-82168490D01*
X184645053Y-82562688D01*
X185060974Y-82734958D01*
X185293000Y-82613817D01*
X185293000Y-81407000D01*
X185547000Y-81407000D01*
X185547000Y-82613817D01*
X185779026Y-82734958D01*
X186194947Y-82562688D01*
X186626821Y-82168490D01*
X186690000Y-82033687D01*
X186753179Y-82168490D01*
X187185053Y-82562688D01*
X187600974Y-82734958D01*
X187833000Y-82613817D01*
X187833000Y-81407000D01*
X185547000Y-81407000D01*
X185293000Y-81407000D01*
X183007000Y-81407000D01*
X182753000Y-81407000D01*
X182733000Y-81407000D01*
X182733000Y-81153000D01*
X182753000Y-81153000D01*
X182753000Y-78867000D01*
X183007000Y-78867000D01*
X183007000Y-81153000D01*
X185293000Y-81153000D01*
X185293000Y-78867000D01*
X185547000Y-78867000D01*
X185547000Y-81153000D01*
X187833000Y-81153000D01*
X187833000Y-78867000D01*
X185547000Y-78867000D01*
X185293000Y-78867000D01*
X183007000Y-78867000D01*
X182753000Y-78867000D01*
X182733000Y-78867000D01*
X182733000Y-78613000D01*
X182753000Y-78613000D01*
X182753000Y-77406183D01*
X183007000Y-77406183D01*
X183007000Y-78613000D01*
X185293000Y-78613000D01*
X185293000Y-77406183D01*
X185547000Y-77406183D01*
X185547000Y-78613000D01*
X187833000Y-78613000D01*
X187833000Y-77406183D01*
X188087000Y-77406183D01*
X188087000Y-78613000D01*
X188107000Y-78613000D01*
X188107000Y-78867000D01*
X188087000Y-78867000D01*
X188087000Y-81153000D01*
X188107000Y-81153000D01*
X188107000Y-81407000D01*
X188087000Y-81407000D01*
X188087000Y-82613817D01*
X188319026Y-82734958D01*
X188734947Y-82562688D01*
X189166821Y-82168490D01*
X189218146Y-82058979D01*
X189419570Y-82360430D01*
X189915275Y-82691650D01*
X190352402Y-82778600D01*
X190647598Y-82778600D01*
X191084725Y-82691650D01*
X191580430Y-82360430D01*
X191750815Y-82105431D01*
X198425000Y-82105431D01*
X198425000Y-82994569D01*
X198765259Y-83816026D01*
X199393974Y-84444741D01*
X200215431Y-84785000D01*
X201104569Y-84785000D01*
X201926026Y-84444741D01*
X202554741Y-83816026D01*
X202895000Y-82994569D01*
X202895000Y-82105431D01*
X202554741Y-81283974D01*
X201926026Y-80655259D01*
X201104569Y-80315000D01*
X200215431Y-80315000D01*
X199393974Y-80655259D01*
X198765259Y-81283974D01*
X198425000Y-82105431D01*
X191750815Y-82105431D01*
X191911650Y-81864725D01*
X192027959Y-81280000D01*
X191911650Y-80695275D01*
X191585349Y-80206932D01*
X191611365Y-80201757D01*
X191821409Y-80061409D01*
X191961757Y-79851365D01*
X192011040Y-79603600D01*
X192011040Y-77876400D01*
X191961757Y-77628635D01*
X191821409Y-77418591D01*
X191611365Y-77278243D01*
X191363600Y-77228960D01*
X189636400Y-77228960D01*
X189388635Y-77278243D01*
X189178591Y-77418591D01*
X189038243Y-77628635D01*
X189020480Y-77717936D01*
X188734947Y-77457312D01*
X188319026Y-77285042D01*
X188087000Y-77406183D01*
X187833000Y-77406183D01*
X187600974Y-77285042D01*
X187185053Y-77457312D01*
X186753179Y-77851510D01*
X186690000Y-77986313D01*
X186626821Y-77851510D01*
X186194947Y-77457312D01*
X185779026Y-77285042D01*
X185547000Y-77406183D01*
X185293000Y-77406183D01*
X185060974Y-77285042D01*
X184645053Y-77457312D01*
X184213179Y-77851510D01*
X184150000Y-77986313D01*
X184086821Y-77851510D01*
X183654947Y-77457312D01*
X183239026Y-77285042D01*
X183007000Y-77406183D01*
X182753000Y-77406183D01*
X182520974Y-77285042D01*
X182105053Y-77457312D01*
X181673179Y-77851510D01*
X181621854Y-77961021D01*
X181420430Y-77659570D01*
X180924725Y-77328350D01*
X180487598Y-77241400D01*
X180192402Y-77241400D01*
X179755275Y-77328350D01*
X179259570Y-77659570D01*
X179070000Y-77943281D01*
X178880430Y-77659570D01*
X178384725Y-77328350D01*
X177947598Y-77241400D01*
X177652402Y-77241400D01*
X177215275Y-77328350D01*
X176719570Y-77659570D01*
X176530000Y-77943281D01*
X176340430Y-77659570D01*
X175844725Y-77328350D01*
X175407598Y-77241400D01*
X175112402Y-77241400D01*
X174675275Y-77328350D01*
X174179570Y-77659570D01*
X173990000Y-77943281D01*
X173800430Y-77659570D01*
X173304725Y-77328350D01*
X172867598Y-77241400D01*
X172572402Y-77241400D01*
X172135275Y-77328350D01*
X171639570Y-77659570D01*
X171308350Y-78155275D01*
X171192041Y-78740000D01*
X158991040Y-78740000D01*
X158991040Y-77876400D01*
X158941757Y-77628635D01*
X158801409Y-77418591D01*
X158591365Y-77278243D01*
X158343600Y-77228960D01*
X156616400Y-77228960D01*
X156368635Y-77278243D01*
X156158591Y-77418591D01*
X156018243Y-77628635D01*
X156000480Y-77717936D01*
X155714947Y-77457312D01*
X155299026Y-77285042D01*
X155067000Y-77406183D01*
X154813000Y-77406183D01*
X154580974Y-77285042D01*
X154165053Y-77457312D01*
X153733179Y-77851510D01*
X153670000Y-77986313D01*
X153606821Y-77851510D01*
X153174947Y-77457312D01*
X152759026Y-77285042D01*
X152527000Y-77406183D01*
X152273000Y-77406183D01*
X152040974Y-77285042D01*
X151625053Y-77457312D01*
X151193179Y-77851510D01*
X151130000Y-77986313D01*
X151066821Y-77851510D01*
X150634947Y-77457312D01*
X150219026Y-77285042D01*
X149987000Y-77406183D01*
X149733000Y-77406183D01*
X149500974Y-77285042D01*
X149085053Y-77457312D01*
X148653179Y-77851510D01*
X148601854Y-77961021D01*
X148400430Y-77659570D01*
X147904725Y-77328350D01*
X147467598Y-77241400D01*
X147172402Y-77241400D01*
X146735275Y-77328350D01*
X146239570Y-77659570D01*
X146050000Y-77943281D01*
X145860430Y-77659570D01*
X145364725Y-77328350D01*
X144927598Y-77241400D01*
X144632402Y-77241400D01*
X144195275Y-77328350D01*
X143699570Y-77659570D01*
X143510000Y-77943281D01*
X143320430Y-77659570D01*
X142824725Y-77328350D01*
X142387598Y-77241400D01*
X142092402Y-77241400D01*
X141655275Y-77328350D01*
X141159570Y-77659570D01*
X140970000Y-77943281D01*
X140780430Y-77659570D01*
X140284725Y-77328350D01*
X139847598Y-77241400D01*
X139552402Y-77241400D01*
X139115275Y-77328350D01*
X138619570Y-77659570D01*
X138288350Y-78155275D01*
X138172041Y-78740000D01*
X125971040Y-78740000D01*
X125971040Y-77876400D01*
X125921757Y-77628635D01*
X125781409Y-77418591D01*
X125571365Y-77278243D01*
X125323600Y-77228960D01*
X123596400Y-77228960D01*
X123348635Y-77278243D01*
X123138591Y-77418591D01*
X122998243Y-77628635D01*
X122980480Y-77717936D01*
X122694947Y-77457312D01*
X122279026Y-77285042D01*
X122047000Y-77406183D01*
X121793000Y-77406183D01*
X121560974Y-77285042D01*
X121145053Y-77457312D01*
X120713179Y-77851510D01*
X120650000Y-77986313D01*
X120586821Y-77851510D01*
X120154947Y-77457312D01*
X119739026Y-77285042D01*
X119507000Y-77406183D01*
X119253000Y-77406183D01*
X119020974Y-77285042D01*
X118605053Y-77457312D01*
X118173179Y-77851510D01*
X118110000Y-77986313D01*
X118046821Y-77851510D01*
X117614947Y-77457312D01*
X117199026Y-77285042D01*
X116967000Y-77406183D01*
X116713000Y-77406183D01*
X116480974Y-77285042D01*
X116065053Y-77457312D01*
X115633179Y-77851510D01*
X115581854Y-77961021D01*
X115380430Y-77659570D01*
X114884725Y-77328350D01*
X114447598Y-77241400D01*
X114152402Y-77241400D01*
X113715275Y-77328350D01*
X113219570Y-77659570D01*
X113030000Y-77943281D01*
X112840430Y-77659570D01*
X112344725Y-77328350D01*
X111907598Y-77241400D01*
X111612402Y-77241400D01*
X111175275Y-77328350D01*
X110679570Y-77659570D01*
X110490000Y-77943281D01*
X110300430Y-77659570D01*
X109804725Y-77328350D01*
X109367598Y-77241400D01*
X109072402Y-77241400D01*
X108635275Y-77328350D01*
X108139570Y-77659570D01*
X107950000Y-77943281D01*
X107760430Y-77659570D01*
X107264725Y-77328350D01*
X106827598Y-77241400D01*
X106532402Y-77241400D01*
X106095275Y-77328350D01*
X105599570Y-77659570D01*
X105268350Y-78155275D01*
X105152041Y-78740000D01*
X92951040Y-78740000D01*
X92951040Y-77876400D01*
X92901757Y-77628635D01*
X92761409Y-77418591D01*
X92551365Y-77278243D01*
X92303600Y-77228960D01*
X90576400Y-77228960D01*
X90328635Y-77278243D01*
X90118591Y-77418591D01*
X89978243Y-77628635D01*
X89960480Y-77717936D01*
X89674947Y-77457312D01*
X89259026Y-77285042D01*
X89027000Y-77406183D01*
X88773000Y-77406183D01*
X88540974Y-77285042D01*
X88125053Y-77457312D01*
X87693179Y-77851510D01*
X87630000Y-77986313D01*
X87566821Y-77851510D01*
X87134947Y-77457312D01*
X86719026Y-77285042D01*
X86487000Y-77406183D01*
X86233000Y-77406183D01*
X86000974Y-77285042D01*
X85585053Y-77457312D01*
X85153179Y-77851510D01*
X85090000Y-77986313D01*
X85026821Y-77851510D01*
X84594947Y-77457312D01*
X84179026Y-77285042D01*
X83947000Y-77406183D01*
X83693000Y-77406183D01*
X83460974Y-77285042D01*
X83045053Y-77457312D01*
X82613179Y-77851510D01*
X82561854Y-77961021D01*
X82360430Y-77659570D01*
X81864725Y-77328350D01*
X81427598Y-77241400D01*
X81132402Y-77241400D01*
X80695275Y-77328350D01*
X80199570Y-77659570D01*
X80010000Y-77943281D01*
X79820430Y-77659570D01*
X79324725Y-77328350D01*
X78887598Y-77241400D01*
X78592402Y-77241400D01*
X78155275Y-77328350D01*
X77659570Y-77659570D01*
X77470000Y-77943281D01*
X77280430Y-77659570D01*
X76784725Y-77328350D01*
X76347598Y-77241400D01*
X76052402Y-77241400D01*
X75615275Y-77328350D01*
X75119570Y-77659570D01*
X74930000Y-77943281D01*
X74740430Y-77659570D01*
X74244725Y-77328350D01*
X73807598Y-77241400D01*
X73512402Y-77241400D01*
X73075275Y-77328350D01*
X72579570Y-77659570D01*
X72248350Y-78155275D01*
X72132041Y-78740000D01*
X65072240Y-78740000D01*
X70358114Y-73454126D01*
X72625000Y-73454126D01*
X72625000Y-73865874D01*
X72782569Y-74246280D01*
X73073720Y-74537431D01*
X73454126Y-74695000D01*
X73865874Y-74695000D01*
X74246280Y-74537431D01*
X74363711Y-74420000D01*
X105976289Y-74420000D01*
X106093720Y-74537431D01*
X106474126Y-74695000D01*
X106885874Y-74695000D01*
X107266280Y-74537431D01*
X107383711Y-74420000D01*
X138996289Y-74420000D01*
X139113720Y-74537431D01*
X139494126Y-74695000D01*
X139905874Y-74695000D01*
X140286280Y-74537431D01*
X140403711Y-74420000D01*
X172016289Y-74420000D01*
X172133720Y-74537431D01*
X172514126Y-74695000D01*
X172925874Y-74695000D01*
X173306280Y-74537431D01*
X173597431Y-74246280D01*
X173755000Y-73865874D01*
X173755000Y-73454126D01*
X173597431Y-73073720D01*
X173306280Y-72782569D01*
X172925874Y-72625000D01*
X172514126Y-72625000D01*
X172133720Y-72782569D01*
X172016289Y-72900000D01*
X140403711Y-72900000D01*
X140286280Y-72782569D01*
X139905874Y-72625000D01*
X139494126Y-72625000D01*
X139113720Y-72782569D01*
X138996289Y-72900000D01*
X107383711Y-72900000D01*
X107266280Y-72782569D01*
X106885874Y-72625000D01*
X106474126Y-72625000D01*
X106093720Y-72782569D01*
X105976289Y-72900000D01*
X74363711Y-72900000D01*
X74246280Y-72782569D01*
X73865874Y-72625000D01*
X73454126Y-72625000D01*
X73073720Y-72782569D01*
X72782569Y-73073720D01*
X72625000Y-73454126D01*
X70358114Y-73454126D01*
X71422255Y-72389986D01*
X71558771Y-72298769D01*
X71920138Y-71757945D01*
X72015002Y-71281031D01*
X72015002Y-71281027D01*
X72047032Y-71120001D01*
X72015002Y-70958975D01*
X72015002Y-68727236D01*
X73067239Y-67675000D01*
X190661031Y-67675000D01*
X191137945Y-67580136D01*
X191678769Y-67218769D01*
X192040136Y-66677945D01*
X192167031Y-66040000D01*
X192040136Y-65402055D01*
X191678769Y-64861231D01*
X191137945Y-64499864D01*
X190661031Y-64405000D01*
X179161696Y-64405000D01*
X179340136Y-64137945D01*
X179467031Y-63500000D01*
X179340136Y-62862055D01*
X179161696Y-62595000D01*
X190661031Y-62595000D01*
X191137945Y-62500136D01*
X191678769Y-62138769D01*
X192040136Y-61597945D01*
X192167031Y-60960000D01*
X192040136Y-60322055D01*
X191678769Y-59781231D01*
X191137945Y-59419864D01*
X190661031Y-59325000D01*
X73067239Y-59325000D01*
X72380000Y-58637762D01*
X72380000Y-55406031D01*
X72412031Y-55245000D01*
X72285136Y-54607054D01*
X72115470Y-54353132D01*
X71923769Y-54066231D01*
X71787253Y-53975014D01*
X70946365Y-53134126D01*
X75165000Y-53134126D01*
X75165000Y-53545874D01*
X75322569Y-53926280D01*
X75613720Y-54217431D01*
X75994126Y-54375000D01*
X76405874Y-54375000D01*
X76786280Y-54217431D01*
X76903711Y-54100000D01*
X108516289Y-54100000D01*
X108633720Y-54217431D01*
X109014126Y-54375000D01*
X109425874Y-54375000D01*
X109806280Y-54217431D01*
X109923711Y-54100000D01*
X141536289Y-54100000D01*
X141653720Y-54217431D01*
X142034126Y-54375000D01*
X142445874Y-54375000D01*
X142826280Y-54217431D01*
X142943711Y-54100000D01*
X174556289Y-54100000D01*
X174673720Y-54217431D01*
X175054126Y-54375000D01*
X175465874Y-54375000D01*
X175846280Y-54217431D01*
X176137431Y-53926280D01*
X176295000Y-53545874D01*
X176295000Y-53134126D01*
X176137431Y-52753720D01*
X175846280Y-52462569D01*
X175465874Y-52305000D01*
X175054126Y-52305000D01*
X174673720Y-52462569D01*
X174556289Y-52580000D01*
X142943711Y-52580000D01*
X142826280Y-52462569D01*
X142445874Y-52305000D01*
X142034126Y-52305000D01*
X141653720Y-52462569D01*
X141536289Y-52580000D01*
X109923711Y-52580000D01*
X109806280Y-52462569D01*
X109425874Y-52305000D01*
X109014126Y-52305000D01*
X108633720Y-52462569D01*
X108516289Y-52580000D01*
X76903711Y-52580000D01*
X76786280Y-52462569D01*
X76405874Y-52305000D01*
X75994126Y-52305000D01*
X75613720Y-52462569D01*
X75322569Y-52753720D01*
X75165000Y-53134126D01*
X70946365Y-53134126D01*
X65029988Y-47217750D01*
X64938769Y-47081231D01*
X64397945Y-46719864D01*
X63921031Y-46625000D01*
X63921030Y-46625000D01*
X63760000Y-46592969D01*
X63598970Y-46625000D01*
X54017239Y-46625000D01*
X53112239Y-45720000D01*
X72132041Y-45720000D01*
X72248350Y-46304725D01*
X72579570Y-46800430D01*
X72863281Y-46990000D01*
X72579570Y-47179570D01*
X72248350Y-47675275D01*
X72132041Y-48260000D01*
X72248350Y-48844725D01*
X72579570Y-49340430D01*
X73075275Y-49671650D01*
X73512402Y-49758600D01*
X73807598Y-49758600D01*
X74244725Y-49671650D01*
X74740430Y-49340430D01*
X74930000Y-49056719D01*
X75119570Y-49340430D01*
X75615275Y-49671650D01*
X76052402Y-49758600D01*
X76347598Y-49758600D01*
X76784725Y-49671650D01*
X77280430Y-49340430D01*
X77470000Y-49056719D01*
X77659570Y-49340430D01*
X78155275Y-49671650D01*
X78592402Y-49758600D01*
X78887598Y-49758600D01*
X79324725Y-49671650D01*
X79820430Y-49340430D01*
X80010000Y-49056719D01*
X80199570Y-49340430D01*
X80695275Y-49671650D01*
X81132402Y-49758600D01*
X81427598Y-49758600D01*
X81864725Y-49671650D01*
X82360430Y-49340430D01*
X82561854Y-49038979D01*
X82613179Y-49148490D01*
X83045053Y-49542688D01*
X83460974Y-49714958D01*
X83693000Y-49593817D01*
X83693000Y-48387000D01*
X83947000Y-48387000D01*
X83947000Y-49593817D01*
X84179026Y-49714958D01*
X84594947Y-49542688D01*
X85026821Y-49148490D01*
X85090000Y-49013687D01*
X85153179Y-49148490D01*
X85585053Y-49542688D01*
X86000974Y-49714958D01*
X86233000Y-49593817D01*
X86233000Y-48387000D01*
X86487000Y-48387000D01*
X86487000Y-49593817D01*
X86719026Y-49714958D01*
X87134947Y-49542688D01*
X87566821Y-49148490D01*
X87630000Y-49013687D01*
X87693179Y-49148490D01*
X88125053Y-49542688D01*
X88540974Y-49714958D01*
X88773000Y-49593817D01*
X88773000Y-48387000D01*
X86487000Y-48387000D01*
X86233000Y-48387000D01*
X83947000Y-48387000D01*
X83693000Y-48387000D01*
X83673000Y-48387000D01*
X83673000Y-48133000D01*
X83693000Y-48133000D01*
X83693000Y-45847000D01*
X83947000Y-45847000D01*
X83947000Y-48133000D01*
X86233000Y-48133000D01*
X86233000Y-45847000D01*
X86487000Y-45847000D01*
X86487000Y-48133000D01*
X88773000Y-48133000D01*
X88773000Y-45847000D01*
X86487000Y-45847000D01*
X86233000Y-45847000D01*
X83947000Y-45847000D01*
X83693000Y-45847000D01*
X83673000Y-45847000D01*
X83673000Y-45593000D01*
X83693000Y-45593000D01*
X83693000Y-44386183D01*
X83947000Y-44386183D01*
X83947000Y-45593000D01*
X86233000Y-45593000D01*
X86233000Y-44386183D01*
X86487000Y-44386183D01*
X86487000Y-45593000D01*
X88773000Y-45593000D01*
X88773000Y-44386183D01*
X89027000Y-44386183D01*
X89027000Y-45593000D01*
X89047000Y-45593000D01*
X89047000Y-45847000D01*
X89027000Y-45847000D01*
X89027000Y-48133000D01*
X89047000Y-48133000D01*
X89047000Y-48387000D01*
X89027000Y-48387000D01*
X89027000Y-49593817D01*
X89259026Y-49714958D01*
X89674947Y-49542688D01*
X90106821Y-49148490D01*
X90158146Y-49038979D01*
X90359570Y-49340430D01*
X90855275Y-49671650D01*
X91292402Y-49758600D01*
X91587598Y-49758600D01*
X92024725Y-49671650D01*
X92520430Y-49340430D01*
X92851650Y-48844725D01*
X92967959Y-48260000D01*
X92851650Y-47675275D01*
X92525349Y-47186932D01*
X92551365Y-47181757D01*
X92761409Y-47041409D01*
X92901757Y-46831365D01*
X92951040Y-46583600D01*
X92951040Y-45720000D01*
X105152041Y-45720000D01*
X105268350Y-46304725D01*
X105599570Y-46800430D01*
X105883281Y-46990000D01*
X105599570Y-47179570D01*
X105268350Y-47675275D01*
X105152041Y-48260000D01*
X105268350Y-48844725D01*
X105599570Y-49340430D01*
X106095275Y-49671650D01*
X106532402Y-49758600D01*
X106827598Y-49758600D01*
X107264725Y-49671650D01*
X107760430Y-49340430D01*
X107950000Y-49056719D01*
X108139570Y-49340430D01*
X108635275Y-49671650D01*
X109072402Y-49758600D01*
X109367598Y-49758600D01*
X109804725Y-49671650D01*
X110300430Y-49340430D01*
X110490000Y-49056719D01*
X110679570Y-49340430D01*
X111175275Y-49671650D01*
X111612402Y-49758600D01*
X111907598Y-49758600D01*
X112344725Y-49671650D01*
X112840430Y-49340430D01*
X113030000Y-49056719D01*
X113219570Y-49340430D01*
X113715275Y-49671650D01*
X114152402Y-49758600D01*
X114447598Y-49758600D01*
X114884725Y-49671650D01*
X115380430Y-49340430D01*
X115581854Y-49038979D01*
X115633179Y-49148490D01*
X116065053Y-49542688D01*
X116480974Y-49714958D01*
X116713000Y-49593817D01*
X116713000Y-48387000D01*
X116967000Y-48387000D01*
X116967000Y-49593817D01*
X117199026Y-49714958D01*
X117614947Y-49542688D01*
X118046821Y-49148490D01*
X118110000Y-49013687D01*
X118173179Y-49148490D01*
X118605053Y-49542688D01*
X119020974Y-49714958D01*
X119253000Y-49593817D01*
X119253000Y-48387000D01*
X119507000Y-48387000D01*
X119507000Y-49593817D01*
X119739026Y-49714958D01*
X120154947Y-49542688D01*
X120586821Y-49148490D01*
X120650000Y-49013687D01*
X120713179Y-49148490D01*
X121145053Y-49542688D01*
X121560974Y-49714958D01*
X121793000Y-49593817D01*
X121793000Y-48387000D01*
X119507000Y-48387000D01*
X119253000Y-48387000D01*
X116967000Y-48387000D01*
X116713000Y-48387000D01*
X116693000Y-48387000D01*
X116693000Y-48133000D01*
X116713000Y-48133000D01*
X116713000Y-45847000D01*
X116967000Y-45847000D01*
X116967000Y-48133000D01*
X119253000Y-48133000D01*
X119253000Y-45847000D01*
X119507000Y-45847000D01*
X119507000Y-48133000D01*
X121793000Y-48133000D01*
X121793000Y-45847000D01*
X119507000Y-45847000D01*
X119253000Y-45847000D01*
X116967000Y-45847000D01*
X116713000Y-45847000D01*
X116693000Y-45847000D01*
X116693000Y-45593000D01*
X116713000Y-45593000D01*
X116713000Y-44386183D01*
X116967000Y-44386183D01*
X116967000Y-45593000D01*
X119253000Y-45593000D01*
X119253000Y-44386183D01*
X119507000Y-44386183D01*
X119507000Y-45593000D01*
X121793000Y-45593000D01*
X121793000Y-44386183D01*
X122047000Y-44386183D01*
X122047000Y-45593000D01*
X122067000Y-45593000D01*
X122067000Y-45847000D01*
X122047000Y-45847000D01*
X122047000Y-48133000D01*
X122067000Y-48133000D01*
X122067000Y-48387000D01*
X122047000Y-48387000D01*
X122047000Y-49593817D01*
X122279026Y-49714958D01*
X122694947Y-49542688D01*
X123126821Y-49148490D01*
X123178146Y-49038979D01*
X123379570Y-49340430D01*
X123875275Y-49671650D01*
X124312402Y-49758600D01*
X124607598Y-49758600D01*
X125044725Y-49671650D01*
X125540430Y-49340430D01*
X125871650Y-48844725D01*
X125987959Y-48260000D01*
X125871650Y-47675275D01*
X125545349Y-47186932D01*
X125571365Y-47181757D01*
X125781409Y-47041409D01*
X125921757Y-46831365D01*
X125971040Y-46583600D01*
X125971040Y-45720000D01*
X138172041Y-45720000D01*
X138288350Y-46304725D01*
X138619570Y-46800430D01*
X138903281Y-46990000D01*
X138619570Y-47179570D01*
X138288350Y-47675275D01*
X138172041Y-48260000D01*
X138288350Y-48844725D01*
X138619570Y-49340430D01*
X139115275Y-49671650D01*
X139552402Y-49758600D01*
X139847598Y-49758600D01*
X140284725Y-49671650D01*
X140780430Y-49340430D01*
X140970000Y-49056719D01*
X141159570Y-49340430D01*
X141655275Y-49671650D01*
X142092402Y-49758600D01*
X142387598Y-49758600D01*
X142824725Y-49671650D01*
X143320430Y-49340430D01*
X143510000Y-49056719D01*
X143699570Y-49340430D01*
X144195275Y-49671650D01*
X144632402Y-49758600D01*
X144927598Y-49758600D01*
X145364725Y-49671650D01*
X145860430Y-49340430D01*
X146050000Y-49056719D01*
X146239570Y-49340430D01*
X146735275Y-49671650D01*
X147172402Y-49758600D01*
X147467598Y-49758600D01*
X147904725Y-49671650D01*
X148400430Y-49340430D01*
X148601854Y-49038979D01*
X148653179Y-49148490D01*
X149085053Y-49542688D01*
X149500974Y-49714958D01*
X149733000Y-49593817D01*
X149733000Y-48387000D01*
X149987000Y-48387000D01*
X149987000Y-49593817D01*
X150219026Y-49714958D01*
X150634947Y-49542688D01*
X151066821Y-49148490D01*
X151130000Y-49013687D01*
X151193179Y-49148490D01*
X151625053Y-49542688D01*
X152040974Y-49714958D01*
X152273000Y-49593817D01*
X152273000Y-48387000D01*
X152527000Y-48387000D01*
X152527000Y-49593817D01*
X152759026Y-49714958D01*
X153174947Y-49542688D01*
X153606821Y-49148490D01*
X153670000Y-49013687D01*
X153733179Y-49148490D01*
X154165053Y-49542688D01*
X154580974Y-49714958D01*
X154813000Y-49593817D01*
X154813000Y-48387000D01*
X152527000Y-48387000D01*
X152273000Y-48387000D01*
X149987000Y-48387000D01*
X149733000Y-48387000D01*
X149713000Y-48387000D01*
X149713000Y-48133000D01*
X149733000Y-48133000D01*
X149733000Y-45847000D01*
X149987000Y-45847000D01*
X149987000Y-48133000D01*
X152273000Y-48133000D01*
X152273000Y-45847000D01*
X152527000Y-45847000D01*
X152527000Y-48133000D01*
X154813000Y-48133000D01*
X154813000Y-45847000D01*
X152527000Y-45847000D01*
X152273000Y-45847000D01*
X149987000Y-45847000D01*
X149733000Y-45847000D01*
X149713000Y-45847000D01*
X149713000Y-45593000D01*
X149733000Y-45593000D01*
X149733000Y-44386183D01*
X149987000Y-44386183D01*
X149987000Y-45593000D01*
X152273000Y-45593000D01*
X152273000Y-44386183D01*
X152527000Y-44386183D01*
X152527000Y-45593000D01*
X154813000Y-45593000D01*
X154813000Y-44386183D01*
X155067000Y-44386183D01*
X155067000Y-45593000D01*
X155087000Y-45593000D01*
X155087000Y-45847000D01*
X155067000Y-45847000D01*
X155067000Y-48133000D01*
X155087000Y-48133000D01*
X155087000Y-48387000D01*
X155067000Y-48387000D01*
X155067000Y-49593817D01*
X155299026Y-49714958D01*
X155714947Y-49542688D01*
X156146821Y-49148490D01*
X156198146Y-49038979D01*
X156399570Y-49340430D01*
X156895275Y-49671650D01*
X157332402Y-49758600D01*
X157627598Y-49758600D01*
X158064725Y-49671650D01*
X158560430Y-49340430D01*
X158891650Y-48844725D01*
X159007959Y-48260000D01*
X158891650Y-47675275D01*
X158565349Y-47186932D01*
X158591365Y-47181757D01*
X158801409Y-47041409D01*
X158941757Y-46831365D01*
X158991040Y-46583600D01*
X158991040Y-45720000D01*
X171192041Y-45720000D01*
X171308350Y-46304725D01*
X171639570Y-46800430D01*
X171923281Y-46990000D01*
X171639570Y-47179570D01*
X171308350Y-47675275D01*
X171192041Y-48260000D01*
X171308350Y-48844725D01*
X171639570Y-49340430D01*
X172135275Y-49671650D01*
X172572402Y-49758600D01*
X172867598Y-49758600D01*
X173304725Y-49671650D01*
X173800430Y-49340430D01*
X173990000Y-49056719D01*
X174179570Y-49340430D01*
X174675275Y-49671650D01*
X175112402Y-49758600D01*
X175407598Y-49758600D01*
X175844725Y-49671650D01*
X176340430Y-49340430D01*
X176530000Y-49056719D01*
X176719570Y-49340430D01*
X177215275Y-49671650D01*
X177652402Y-49758600D01*
X177947598Y-49758600D01*
X178384725Y-49671650D01*
X178880430Y-49340430D01*
X179070000Y-49056719D01*
X179259570Y-49340430D01*
X179755275Y-49671650D01*
X180192402Y-49758600D01*
X180487598Y-49758600D01*
X180924725Y-49671650D01*
X181420430Y-49340430D01*
X181621854Y-49038979D01*
X181673179Y-49148490D01*
X182105053Y-49542688D01*
X182520974Y-49714958D01*
X182753000Y-49593817D01*
X182753000Y-48387000D01*
X183007000Y-48387000D01*
X183007000Y-49593817D01*
X183239026Y-49714958D01*
X183654947Y-49542688D01*
X184086821Y-49148490D01*
X184150000Y-49013687D01*
X184213179Y-49148490D01*
X184645053Y-49542688D01*
X185060974Y-49714958D01*
X185293000Y-49593817D01*
X185293000Y-48387000D01*
X185547000Y-48387000D01*
X185547000Y-49593817D01*
X185779026Y-49714958D01*
X186194947Y-49542688D01*
X186626821Y-49148490D01*
X186690000Y-49013687D01*
X186753179Y-49148490D01*
X187185053Y-49542688D01*
X187600974Y-49714958D01*
X187833000Y-49593817D01*
X187833000Y-48387000D01*
X185547000Y-48387000D01*
X185293000Y-48387000D01*
X183007000Y-48387000D01*
X182753000Y-48387000D01*
X182733000Y-48387000D01*
X182733000Y-48133000D01*
X182753000Y-48133000D01*
X182753000Y-45847000D01*
X183007000Y-45847000D01*
X183007000Y-48133000D01*
X185293000Y-48133000D01*
X185293000Y-45847000D01*
X185547000Y-45847000D01*
X185547000Y-48133000D01*
X187833000Y-48133000D01*
X187833000Y-45847000D01*
X185547000Y-45847000D01*
X185293000Y-45847000D01*
X183007000Y-45847000D01*
X182753000Y-45847000D01*
X182733000Y-45847000D01*
X182733000Y-45593000D01*
X182753000Y-45593000D01*
X182753000Y-44386183D01*
X183007000Y-44386183D01*
X183007000Y-45593000D01*
X185293000Y-45593000D01*
X185293000Y-44386183D01*
X185547000Y-44386183D01*
X185547000Y-45593000D01*
X187833000Y-45593000D01*
X187833000Y-44386183D01*
X188087000Y-44386183D01*
X188087000Y-45593000D01*
X188107000Y-45593000D01*
X188107000Y-45847000D01*
X188087000Y-45847000D01*
X188087000Y-48133000D01*
X188107000Y-48133000D01*
X188107000Y-48387000D01*
X188087000Y-48387000D01*
X188087000Y-49593817D01*
X188319026Y-49714958D01*
X188734947Y-49542688D01*
X189166821Y-49148490D01*
X189218146Y-49038979D01*
X189419570Y-49340430D01*
X189915275Y-49671650D01*
X190352402Y-49758600D01*
X190647598Y-49758600D01*
X191084725Y-49671650D01*
X191580430Y-49340430D01*
X191911650Y-48844725D01*
X192027959Y-48260000D01*
X191911650Y-47675275D01*
X191585349Y-47186932D01*
X191611365Y-47181757D01*
X191821409Y-47041409D01*
X191961757Y-46831365D01*
X192011040Y-46583600D01*
X192011040Y-44856400D01*
X191961757Y-44608635D01*
X191821409Y-44398591D01*
X191611365Y-44258243D01*
X191363600Y-44208960D01*
X189636400Y-44208960D01*
X189388635Y-44258243D01*
X189178591Y-44398591D01*
X189038243Y-44608635D01*
X189020480Y-44697936D01*
X188734947Y-44437312D01*
X188319026Y-44265042D01*
X188087000Y-44386183D01*
X187833000Y-44386183D01*
X187600974Y-44265042D01*
X187185053Y-44437312D01*
X186753179Y-44831510D01*
X186690000Y-44966313D01*
X186626821Y-44831510D01*
X186194947Y-44437312D01*
X185779026Y-44265042D01*
X185547000Y-44386183D01*
X185293000Y-44386183D01*
X185060974Y-44265042D01*
X184645053Y-44437312D01*
X184213179Y-44831510D01*
X184150000Y-44966313D01*
X184086821Y-44831510D01*
X183654947Y-44437312D01*
X183239026Y-44265042D01*
X183007000Y-44386183D01*
X182753000Y-44386183D01*
X182520974Y-44265042D01*
X182105053Y-44437312D01*
X181673179Y-44831510D01*
X181621854Y-44941021D01*
X181420430Y-44639570D01*
X180924725Y-44308350D01*
X180487598Y-44221400D01*
X180192402Y-44221400D01*
X179755275Y-44308350D01*
X179259570Y-44639570D01*
X179070000Y-44923281D01*
X178880430Y-44639570D01*
X178384725Y-44308350D01*
X177947598Y-44221400D01*
X177652402Y-44221400D01*
X177215275Y-44308350D01*
X176719570Y-44639570D01*
X176530000Y-44923281D01*
X176340430Y-44639570D01*
X175844725Y-44308350D01*
X175407598Y-44221400D01*
X175112402Y-44221400D01*
X174675275Y-44308350D01*
X174179570Y-44639570D01*
X173990000Y-44923281D01*
X173800430Y-44639570D01*
X173304725Y-44308350D01*
X172867598Y-44221400D01*
X172572402Y-44221400D01*
X172135275Y-44308350D01*
X171639570Y-44639570D01*
X171308350Y-45135275D01*
X171192041Y-45720000D01*
X158991040Y-45720000D01*
X158991040Y-44856400D01*
X158941757Y-44608635D01*
X158801409Y-44398591D01*
X158591365Y-44258243D01*
X158343600Y-44208960D01*
X156616400Y-44208960D01*
X156368635Y-44258243D01*
X156158591Y-44398591D01*
X156018243Y-44608635D01*
X156000480Y-44697936D01*
X155714947Y-44437312D01*
X155299026Y-44265042D01*
X155067000Y-44386183D01*
X154813000Y-44386183D01*
X154580974Y-44265042D01*
X154165053Y-44437312D01*
X153733179Y-44831510D01*
X153670000Y-44966313D01*
X153606821Y-44831510D01*
X153174947Y-44437312D01*
X152759026Y-44265042D01*
X152527000Y-44386183D01*
X152273000Y-44386183D01*
X152040974Y-44265042D01*
X151625053Y-44437312D01*
X151193179Y-44831510D01*
X151130000Y-44966313D01*
X151066821Y-44831510D01*
X150634947Y-44437312D01*
X150219026Y-44265042D01*
X149987000Y-44386183D01*
X149733000Y-44386183D01*
X149500974Y-44265042D01*
X149085053Y-44437312D01*
X148653179Y-44831510D01*
X148601854Y-44941021D01*
X148400430Y-44639570D01*
X147904725Y-44308350D01*
X147467598Y-44221400D01*
X147172402Y-44221400D01*
X146735275Y-44308350D01*
X146239570Y-44639570D01*
X146050000Y-44923281D01*
X145860430Y-44639570D01*
X145364725Y-44308350D01*
X144927598Y-44221400D01*
X144632402Y-44221400D01*
X144195275Y-44308350D01*
X143699570Y-44639570D01*
X143510000Y-44923281D01*
X143320430Y-44639570D01*
X142824725Y-44308350D01*
X142387598Y-44221400D01*
X142092402Y-44221400D01*
X141655275Y-44308350D01*
X141159570Y-44639570D01*
X140970000Y-44923281D01*
X140780430Y-44639570D01*
X140284725Y-44308350D01*
X139847598Y-44221400D01*
X139552402Y-44221400D01*
X139115275Y-44308350D01*
X138619570Y-44639570D01*
X138288350Y-45135275D01*
X138172041Y-45720000D01*
X125971040Y-45720000D01*
X125971040Y-44856400D01*
X125921757Y-44608635D01*
X125781409Y-44398591D01*
X125571365Y-44258243D01*
X125323600Y-44208960D01*
X123596400Y-44208960D01*
X123348635Y-44258243D01*
X123138591Y-44398591D01*
X122998243Y-44608635D01*
X122980480Y-44697936D01*
X122694947Y-44437312D01*
X122279026Y-44265042D01*
X122047000Y-44386183D01*
X121793000Y-44386183D01*
X121560974Y-44265042D01*
X121145053Y-44437312D01*
X120713179Y-44831510D01*
X120650000Y-44966313D01*
X120586821Y-44831510D01*
X120154947Y-44437312D01*
X119739026Y-44265042D01*
X119507000Y-44386183D01*
X119253000Y-44386183D01*
X119020974Y-44265042D01*
X118605053Y-44437312D01*
X118173179Y-44831510D01*
X118110000Y-44966313D01*
X118046821Y-44831510D01*
X117614947Y-44437312D01*
X117199026Y-44265042D01*
X116967000Y-44386183D01*
X116713000Y-44386183D01*
X116480974Y-44265042D01*
X116065053Y-44437312D01*
X115633179Y-44831510D01*
X115581854Y-44941021D01*
X115380430Y-44639570D01*
X114884725Y-44308350D01*
X114447598Y-44221400D01*
X114152402Y-44221400D01*
X113715275Y-44308350D01*
X113219570Y-44639570D01*
X113030000Y-44923281D01*
X112840430Y-44639570D01*
X112344725Y-44308350D01*
X111907598Y-44221400D01*
X111612402Y-44221400D01*
X111175275Y-44308350D01*
X110679570Y-44639570D01*
X110490000Y-44923281D01*
X110300430Y-44639570D01*
X109804725Y-44308350D01*
X109367598Y-44221400D01*
X109072402Y-44221400D01*
X108635275Y-44308350D01*
X108139570Y-44639570D01*
X107950000Y-44923281D01*
X107760430Y-44639570D01*
X107264725Y-44308350D01*
X106827598Y-44221400D01*
X106532402Y-44221400D01*
X106095275Y-44308350D01*
X105599570Y-44639570D01*
X105268350Y-45135275D01*
X105152041Y-45720000D01*
X92951040Y-45720000D01*
X92951040Y-44856400D01*
X92901757Y-44608635D01*
X92761409Y-44398591D01*
X92551365Y-44258243D01*
X92303600Y-44208960D01*
X90576400Y-44208960D01*
X90328635Y-44258243D01*
X90118591Y-44398591D01*
X89978243Y-44608635D01*
X89960480Y-44697936D01*
X89674947Y-44437312D01*
X89259026Y-44265042D01*
X89027000Y-44386183D01*
X88773000Y-44386183D01*
X88540974Y-44265042D01*
X88125053Y-44437312D01*
X87693179Y-44831510D01*
X87630000Y-44966313D01*
X87566821Y-44831510D01*
X87134947Y-44437312D01*
X86719026Y-44265042D01*
X86487000Y-44386183D01*
X86233000Y-44386183D01*
X86000974Y-44265042D01*
X85585053Y-44437312D01*
X85153179Y-44831510D01*
X85090000Y-44966313D01*
X85026821Y-44831510D01*
X84594947Y-44437312D01*
X84179026Y-44265042D01*
X83947000Y-44386183D01*
X83693000Y-44386183D01*
X83460974Y-44265042D01*
X83045053Y-44437312D01*
X82613179Y-44831510D01*
X82561854Y-44941021D01*
X82360430Y-44639570D01*
X81864725Y-44308350D01*
X81427598Y-44221400D01*
X81132402Y-44221400D01*
X80695275Y-44308350D01*
X80199570Y-44639570D01*
X80010000Y-44923281D01*
X79820430Y-44639570D01*
X79324725Y-44308350D01*
X78887598Y-44221400D01*
X78592402Y-44221400D01*
X78155275Y-44308350D01*
X77659570Y-44639570D01*
X77470000Y-44923281D01*
X77280430Y-44639570D01*
X76784725Y-44308350D01*
X76347598Y-44221400D01*
X76052402Y-44221400D01*
X75615275Y-44308350D01*
X75119570Y-44639570D01*
X74930000Y-44923281D01*
X74740430Y-44639570D01*
X74244725Y-44308350D01*
X73807598Y-44221400D01*
X73512402Y-44221400D01*
X73075275Y-44308350D01*
X72579570Y-44639570D01*
X72248350Y-45135275D01*
X72132041Y-45720000D01*
X53112239Y-45720000D01*
X51397670Y-44005431D01*
X198425000Y-44005431D01*
X198425000Y-44894569D01*
X198765259Y-45716026D01*
X199393974Y-46344741D01*
X200215431Y-46685000D01*
X201104569Y-46685000D01*
X201926026Y-46344741D01*
X202554741Y-45716026D01*
X202895000Y-44894569D01*
X202895000Y-44005431D01*
X202554741Y-43183974D01*
X201926026Y-42555259D01*
X201104569Y-42215000D01*
X200215431Y-42215000D01*
X199393974Y-42555259D01*
X198765259Y-43183974D01*
X198425000Y-44005431D01*
X51397670Y-44005431D01*
X50799988Y-43407750D01*
X50708769Y-43271231D01*
X50167945Y-42909864D01*
X49691031Y-42815000D01*
X49691030Y-42815000D01*
X49530000Y-42782969D01*
X49368970Y-42815000D01*
X49208969Y-42815000D01*
X48732055Y-42909864D01*
X48191231Y-43271231D01*
X47829864Y-43812055D01*
X47702969Y-44450000D01*
X47829864Y-45087945D01*
X48191231Y-45628769D01*
X48732055Y-45990136D01*
X48764315Y-45996553D01*
X51908650Y-49140888D01*
X51941843Y-49307765D01*
X52082191Y-49517809D01*
X52292235Y-49658157D01*
X52526187Y-49704693D01*
X52511861Y-49752255D01*
X53340000Y-50580395D01*
X53354142Y-50566252D01*
X53533748Y-50745858D01*
X53519605Y-50760000D01*
X54347745Y-51588139D01*
X54593864Y-51514005D01*
X54786965Y-50976777D01*
X54759778Y-50406546D01*
X54593864Y-50005995D01*
X54347747Y-49931861D01*
X54384608Y-49895000D01*
X59915392Y-49895000D01*
X59952253Y-49931861D01*
X59706136Y-50005995D01*
X59513035Y-50543223D01*
X59540222Y-51113454D01*
X59706136Y-51514005D01*
X59952255Y-51588139D01*
X60780395Y-50760000D01*
X60766252Y-50745858D01*
X60945858Y-50566252D01*
X60960000Y-50580395D01*
X60974142Y-50566252D01*
X61153748Y-50745858D01*
X61139605Y-50760000D01*
X61967745Y-51588139D01*
X62213864Y-51514005D01*
X62406965Y-50976777D01*
X62379778Y-50406546D01*
X62213864Y-50005995D01*
X61967747Y-49931861D01*
X62004608Y-49895000D01*
X63082762Y-49895000D01*
X69110001Y-55922240D01*
X69110000Y-59153970D01*
X69077969Y-59315000D01*
X69110000Y-59476030D01*
X69204864Y-59952944D01*
X69566231Y-60493769D01*
X69702750Y-60584988D01*
X71120014Y-62002252D01*
X71211231Y-62138769D01*
X71752055Y-62500136D01*
X72228969Y-62595000D01*
X72228973Y-62595000D01*
X72389999Y-62627030D01*
X72551025Y-62595000D01*
X77378304Y-62595000D01*
X77199864Y-62862055D01*
X77072969Y-63500000D01*
X77199864Y-64137945D01*
X77378304Y-64405000D01*
X72551025Y-64405000D01*
X72389999Y-64372970D01*
X72228973Y-64405000D01*
X72228969Y-64405000D01*
X71752055Y-64499864D01*
X71211231Y-64861231D01*
X71120014Y-64997747D01*
X69337750Y-66780012D01*
X69201234Y-66871229D01*
X69110017Y-67007745D01*
X68839867Y-67412053D01*
X68760983Y-67808628D01*
X68542451Y-67481571D01*
X68667809Y-67397809D01*
X68808157Y-67187765D01*
X68857440Y-66940000D01*
X68857440Y-66641225D01*
X68977031Y-66040000D01*
X68857440Y-65438775D01*
X68857440Y-65140000D01*
X68808157Y-64892235D01*
X68667809Y-64682191D01*
X68457765Y-64541843D01*
X68210000Y-64492560D01*
X67911225Y-64492560D01*
X67471031Y-64405000D01*
X64571030Y-64405000D01*
X64410000Y-64372969D01*
X64248970Y-64405000D01*
X64248969Y-64405000D01*
X63772055Y-64499864D01*
X63231231Y-64861231D01*
X63140014Y-64997747D01*
X62395000Y-65742761D01*
X62395000Y-65113691D01*
X62298327Y-64880302D01*
X62119699Y-64701673D01*
X61886310Y-64605000D01*
X61245750Y-64605000D01*
X61087000Y-64763750D01*
X61087000Y-65913000D01*
X61107000Y-65913000D01*
X61107000Y-66167000D01*
X61087000Y-66167000D01*
X61087000Y-66187000D01*
X60833000Y-66187000D01*
X60833000Y-66167000D01*
X59683750Y-66167000D01*
X59525000Y-66325750D01*
X59525000Y-66905000D01*
X54775000Y-66905000D01*
X54775000Y-66325750D01*
X54616250Y-66167000D01*
X53467000Y-66167000D01*
X53467000Y-66187000D01*
X53213000Y-66187000D01*
X53213000Y-66167000D01*
X52063750Y-66167000D01*
X51905000Y-66325750D01*
X51905000Y-66966309D01*
X52001673Y-67199698D01*
X52162414Y-67360440D01*
X52161231Y-67361231D01*
X52070014Y-67497747D01*
X44677750Y-74890012D01*
X44541231Y-74981231D01*
X44369467Y-75238294D01*
X38100015Y-81507747D01*
X37829865Y-81912055D01*
X37702969Y-82550000D01*
X36525000Y-82550000D01*
X36525000Y-82105431D01*
X36184741Y-81283974D01*
X35556026Y-80655259D01*
X34734569Y-80315000D01*
X33845431Y-80315000D01*
X33023974Y-80655259D01*
X32395259Y-81283974D01*
X32055000Y-82105431D01*
X31190000Y-82105431D01*
X31190000Y-76200000D01*
X38972969Y-76200000D01*
X39005000Y-76361030D01*
X39005000Y-76525222D01*
X39067834Y-76676918D01*
X39099865Y-76837945D01*
X39191079Y-76974456D01*
X39253914Y-77126153D01*
X39370018Y-77242257D01*
X39461232Y-77378768D01*
X39597743Y-77469982D01*
X39713847Y-77586086D01*
X39865544Y-77648921D01*
X40002055Y-77740135D01*
X40163082Y-77772166D01*
X40314778Y-77835000D01*
X40478970Y-77835000D01*
X40640000Y-77867031D01*
X40801030Y-77835000D01*
X40965222Y-77835000D01*
X41116918Y-77772166D01*
X41277945Y-77740135D01*
X41414457Y-77648921D01*
X41566153Y-77586086D01*
X44222253Y-74929986D01*
X44358769Y-74838769D01*
X44720136Y-74297945D01*
X44815000Y-73821031D01*
X44815000Y-73821027D01*
X44847030Y-73660001D01*
X44815000Y-73498975D01*
X44815000Y-70420696D01*
X44827765Y-70418157D01*
X45037809Y-70277809D01*
X45178157Y-70067765D01*
X45227440Y-69820000D01*
X45227440Y-67020000D01*
X45178157Y-66772235D01*
X45037809Y-66562191D01*
X44827765Y-66421843D01*
X44580000Y-66372560D01*
X41780000Y-66372560D01*
X41532235Y-66421843D01*
X41322191Y-66562191D01*
X41181843Y-66772235D01*
X41132560Y-67020000D01*
X41132560Y-69820000D01*
X41181843Y-70067765D01*
X41322191Y-70277809D01*
X41532235Y-70418157D01*
X41545000Y-70420696D01*
X41545001Y-72982760D01*
X39253914Y-75273847D01*
X39191079Y-75425543D01*
X39099865Y-75562055D01*
X39067834Y-75723082D01*
X39005000Y-75874778D01*
X39005000Y-76038970D01*
X38972969Y-76200000D01*
X31190000Y-76200000D01*
X31190000Y-64861724D01*
X41917882Y-64861724D01*
X42065455Y-65170106D01*
X42820031Y-65463405D01*
X43629409Y-65445614D01*
X44294545Y-65170106D01*
X44321541Y-65113691D01*
X51905000Y-65113691D01*
X51905000Y-65754250D01*
X52063750Y-65913000D01*
X53213000Y-65913000D01*
X53213000Y-64763750D01*
X53467000Y-64763750D01*
X53467000Y-65913000D01*
X54616250Y-65913000D01*
X54775000Y-65754250D01*
X54775000Y-65113691D01*
X59525000Y-65113691D01*
X59525000Y-65754250D01*
X59683750Y-65913000D01*
X60833000Y-65913000D01*
X60833000Y-64763750D01*
X60674250Y-64605000D01*
X60033690Y-64605000D01*
X59800301Y-64701673D01*
X59621673Y-64880302D01*
X59525000Y-65113691D01*
X54775000Y-65113691D01*
X54678327Y-64880302D01*
X54499699Y-64701673D01*
X54266310Y-64605000D01*
X53625750Y-64605000D01*
X53467000Y-64763750D01*
X53213000Y-64763750D01*
X53054250Y-64605000D01*
X52413690Y-64605000D01*
X52180301Y-64701673D01*
X52001673Y-64880302D01*
X51905000Y-65113691D01*
X44321541Y-65113691D01*
X44442118Y-64861724D01*
X43180000Y-63599605D01*
X41917882Y-64861724D01*
X31190000Y-64861724D01*
X31190000Y-63060031D01*
X41136595Y-63060031D01*
X41154386Y-63869409D01*
X41429894Y-64534545D01*
X41738276Y-64682118D01*
X43000395Y-63420000D01*
X43359605Y-63420000D01*
X44621724Y-64682118D01*
X44930106Y-64534545D01*
X45223405Y-63779969D01*
X45205614Y-62970591D01*
X44930106Y-62305455D01*
X44621724Y-62157882D01*
X43359605Y-63420000D01*
X43000395Y-63420000D01*
X41738276Y-62157882D01*
X41429894Y-62305455D01*
X41136595Y-63060031D01*
X31190000Y-63060031D01*
X31190000Y-61978276D01*
X41917882Y-61978276D01*
X43180000Y-63240395D01*
X44442118Y-61978276D01*
X44417937Y-61927745D01*
X52511861Y-61927745D01*
X52585995Y-62173864D01*
X53123223Y-62366965D01*
X53693454Y-62339778D01*
X54094005Y-62173864D01*
X54168139Y-61927745D01*
X60131861Y-61927745D01*
X60205995Y-62173864D01*
X60743223Y-62366965D01*
X61313454Y-62339778D01*
X61714005Y-62173864D01*
X61788139Y-61927745D01*
X60960000Y-61099605D01*
X60131861Y-61927745D01*
X54168139Y-61927745D01*
X53340000Y-61099605D01*
X52511861Y-61927745D01*
X44417937Y-61927745D01*
X44294545Y-61669894D01*
X43539969Y-61376595D01*
X42730591Y-61394386D01*
X42065455Y-61669894D01*
X41917882Y-61978276D01*
X31190000Y-61978276D01*
X31190000Y-60703223D01*
X51893035Y-60703223D01*
X51920222Y-61273454D01*
X52086136Y-61674005D01*
X52332255Y-61748139D01*
X53160395Y-60920000D01*
X52332255Y-60091861D01*
X52086136Y-60165995D01*
X51893035Y-60703223D01*
X31190000Y-60703223D01*
X31190000Y-50790000D01*
X38972969Y-50790000D01*
X39005000Y-50951030D01*
X39005000Y-51115222D01*
X39067834Y-51266918D01*
X39099865Y-51427945D01*
X39191079Y-51564457D01*
X39253914Y-51716153D01*
X41545001Y-54007240D01*
X41545000Y-57177075D01*
X41454810Y-57267265D01*
X41145000Y-58015213D01*
X41145000Y-58824787D01*
X41454810Y-59572735D01*
X42027265Y-60145190D01*
X42775213Y-60455000D01*
X43584787Y-60455000D01*
X44332735Y-60145190D01*
X44905190Y-59572735D01*
X45215000Y-58824787D01*
X45215000Y-58015213D01*
X44905190Y-57267265D01*
X44815000Y-57177075D01*
X44815000Y-53491025D01*
X44847030Y-53329999D01*
X44815000Y-53168973D01*
X44815000Y-53168969D01*
X44720136Y-52692055D01*
X44358769Y-52151231D01*
X44222253Y-52060014D01*
X41566153Y-49403914D01*
X41414457Y-49341079D01*
X41277945Y-49249865D01*
X41116918Y-49217834D01*
X40965222Y-49155000D01*
X40801030Y-49155000D01*
X40640000Y-49122969D01*
X40478970Y-49155000D01*
X40314778Y-49155000D01*
X40163082Y-49217834D01*
X40002055Y-49249865D01*
X39865544Y-49341079D01*
X39713847Y-49403914D01*
X39597743Y-49520018D01*
X39461232Y-49611232D01*
X39370018Y-49747743D01*
X39253914Y-49863847D01*
X39191079Y-50015544D01*
X39099865Y-50152055D01*
X39067834Y-50313082D01*
X39005000Y-50464778D01*
X39005000Y-50628970D01*
X38972969Y-50790000D01*
X31190000Y-50790000D01*
X31190000Y-44005431D01*
X32055000Y-44005431D01*
X32055000Y-44894569D01*
X32395259Y-45716026D01*
X33023974Y-46344741D01*
X33845431Y-46685000D01*
X34734569Y-46685000D01*
X35556026Y-46344741D01*
X36184741Y-45716026D01*
X36525000Y-44894569D01*
X36525000Y-44450000D01*
X37702969Y-44450000D01*
X37829865Y-45087945D01*
X38100015Y-45492253D01*
X44333914Y-51726153D01*
X44793847Y-52186086D01*
X44793849Y-52186087D01*
X51908650Y-59300889D01*
X51941843Y-59467765D01*
X52082191Y-59677809D01*
X52292235Y-59818157D01*
X52526187Y-59864693D01*
X52511861Y-59912255D01*
X53340000Y-60740395D01*
X53354142Y-60726252D01*
X53533748Y-60905858D01*
X53519605Y-60920000D01*
X54347745Y-61748139D01*
X54593864Y-61674005D01*
X54786965Y-61136777D01*
X54759778Y-60566546D01*
X54593864Y-60165995D01*
X54347747Y-60091861D01*
X54384608Y-60055000D01*
X59915392Y-60055000D01*
X59952253Y-60091861D01*
X59706136Y-60165995D01*
X59513035Y-60703223D01*
X59540222Y-61273454D01*
X59706136Y-61674005D01*
X59952255Y-61748139D01*
X60780395Y-60920000D01*
X61139605Y-60920000D01*
X61967745Y-61748139D01*
X62213864Y-61674005D01*
X62367795Y-61245750D01*
X65775000Y-61245750D01*
X65775000Y-61986309D01*
X65871673Y-62219698D01*
X66050301Y-62398327D01*
X66283690Y-62495000D01*
X67024250Y-62495000D01*
X67183000Y-62336250D01*
X67183000Y-61087000D01*
X67437000Y-61087000D01*
X67437000Y-62336250D01*
X67595750Y-62495000D01*
X68336310Y-62495000D01*
X68569699Y-62398327D01*
X68748327Y-62219698D01*
X68845000Y-61986309D01*
X68845000Y-61245750D01*
X68686250Y-61087000D01*
X67437000Y-61087000D01*
X67183000Y-61087000D01*
X65933750Y-61087000D01*
X65775000Y-61245750D01*
X62367795Y-61245750D01*
X62406965Y-61136777D01*
X62379778Y-60566546D01*
X62213864Y-60165995D01*
X61967745Y-60091861D01*
X61139605Y-60920000D01*
X60780395Y-60920000D01*
X60766252Y-60905858D01*
X60945858Y-60726252D01*
X60960000Y-60740395D01*
X61788139Y-59912255D01*
X61773813Y-59864693D01*
X62007765Y-59818157D01*
X62217809Y-59677809D01*
X62358157Y-59467765D01*
X62407440Y-59220000D01*
X62407440Y-59196674D01*
X62500136Y-59057945D01*
X62627031Y-58420000D01*
X62500136Y-57782054D01*
X62407440Y-57643325D01*
X62407440Y-57620000D01*
X62358157Y-57372235D01*
X62217809Y-57162191D01*
X62007765Y-57021843D01*
X61840888Y-56988650D01*
X59462238Y-54610000D01*
X61832969Y-54610000D01*
X61959865Y-55247945D01*
X62230015Y-55652253D01*
X66085043Y-59507282D01*
X66050301Y-59521673D01*
X65871673Y-59700302D01*
X65775000Y-59933691D01*
X65775000Y-60674250D01*
X65933750Y-60833000D01*
X67183000Y-60833000D01*
X67183000Y-60813000D01*
X67437000Y-60813000D01*
X67437000Y-60833000D01*
X68686250Y-60833000D01*
X68845000Y-60674250D01*
X68845000Y-59933691D01*
X68748327Y-59700302D01*
X68569699Y-59521673D01*
X68546660Y-59512130D01*
X68850136Y-59057945D01*
X68977031Y-58420000D01*
X68850136Y-57782054D01*
X68579985Y-57377746D01*
X64542253Y-53340015D01*
X64137945Y-53069865D01*
X63500000Y-52942969D01*
X62862055Y-53069865D01*
X62321232Y-53431232D01*
X61959865Y-53972055D01*
X61832969Y-54610000D01*
X59462238Y-54610000D01*
X58419988Y-53567750D01*
X58328769Y-53431231D01*
X57787945Y-53069864D01*
X57311031Y-52975000D01*
X57311030Y-52975000D01*
X57150000Y-52942969D01*
X56988970Y-52975000D01*
X53178969Y-52975000D01*
X52702055Y-53069864D01*
X52161231Y-53431231D01*
X51799864Y-53972055D01*
X51701053Y-54468814D01*
X48999984Y-51767745D01*
X52511861Y-51767745D01*
X52585995Y-52013864D01*
X53123223Y-52206965D01*
X53693454Y-52179778D01*
X54094005Y-52013864D01*
X54168139Y-51767745D01*
X60131861Y-51767745D01*
X60205995Y-52013864D01*
X60743223Y-52206965D01*
X61313454Y-52179778D01*
X61714005Y-52013864D01*
X61788139Y-51767745D01*
X60960000Y-50939605D01*
X60131861Y-51767745D01*
X54168139Y-51767745D01*
X53340000Y-50939605D01*
X52511861Y-51767745D01*
X48999984Y-51767745D01*
X47775462Y-50543223D01*
X51893035Y-50543223D01*
X51920222Y-51113454D01*
X52086136Y-51514005D01*
X52332255Y-51588139D01*
X53160395Y-50760000D01*
X52332255Y-49931861D01*
X52086136Y-50005995D01*
X51893035Y-50543223D01*
X47775462Y-50543223D01*
X47106087Y-49873849D01*
X47106086Y-49873847D01*
X46646153Y-49413914D01*
X40412253Y-43180015D01*
X40007945Y-42909865D01*
X39370000Y-42782969D01*
X38732055Y-42909865D01*
X38191232Y-43271232D01*
X37829865Y-43812055D01*
X37702969Y-44450000D01*
X36525000Y-44450000D01*
X36525000Y-44005431D01*
X36184741Y-43183974D01*
X35556026Y-42555259D01*
X34734569Y-42215000D01*
X33845431Y-42215000D01*
X33023974Y-42555259D01*
X32395259Y-43183974D01*
X32055000Y-44005431D01*
X31190000Y-44005431D01*
X31190000Y-41350000D01*
X203760000Y-41350000D01*
X203760001Y-85650000D01*
X203760001Y-85650000D01*
G37*
X203760001Y-85650000D02*
X31190000Y-85650000D01*
X31190000Y-82105431D01*
X32055000Y-82105431D01*
X32055000Y-82994569D01*
X32395259Y-83816026D01*
X33023974Y-84444741D01*
X33845431Y-84785000D01*
X34734569Y-84785000D01*
X35556026Y-84444741D01*
X36184741Y-83816026D01*
X36525000Y-82994569D01*
X36525000Y-82550000D01*
X37702969Y-82550000D01*
X37829865Y-83187945D01*
X38191232Y-83728768D01*
X38732055Y-84090135D01*
X39370000Y-84217031D01*
X40007945Y-84090135D01*
X40412253Y-83819985D01*
X46629082Y-77603157D01*
X46646153Y-77596086D01*
X46762253Y-77479986D01*
X46898769Y-77388769D01*
X46989986Y-77252253D01*
X47106086Y-77136153D01*
X47141442Y-77050796D01*
X48878547Y-75313691D01*
X51905000Y-75313691D01*
X51905000Y-75954250D01*
X52063750Y-76113000D01*
X53213000Y-76113000D01*
X53213000Y-74963750D01*
X53467000Y-74963750D01*
X53467000Y-76113000D01*
X54616250Y-76113000D01*
X54775000Y-75954250D01*
X54775000Y-75313691D01*
X59525000Y-75313691D01*
X59525000Y-75954250D01*
X59683750Y-76113000D01*
X60833000Y-76113000D01*
X60833000Y-74963750D01*
X61087000Y-74963750D01*
X61087000Y-76113000D01*
X62236250Y-76113000D01*
X62395000Y-75954250D01*
X62395000Y-75313691D01*
X62298327Y-75080302D01*
X62119699Y-74901673D01*
X61886310Y-74805000D01*
X61245750Y-74805000D01*
X61087000Y-74963750D01*
X60833000Y-74963750D01*
X60674250Y-74805000D01*
X60033690Y-74805000D01*
X59800301Y-74901673D01*
X59621673Y-75080302D01*
X59525000Y-75313691D01*
X54775000Y-75313691D01*
X54678327Y-75080302D01*
X54499699Y-74901673D01*
X54266310Y-74805000D01*
X53625750Y-74805000D01*
X53467000Y-74963750D01*
X53213000Y-74963750D01*
X53054250Y-74805000D01*
X52413690Y-74805000D01*
X52180301Y-74901673D01*
X52001673Y-75080302D01*
X51905000Y-75313691D01*
X48878547Y-75313691D01*
X51453199Y-72739039D01*
X51948096Y-72739039D01*
X52108959Y-73127423D01*
X52484866Y-73542389D01*
X52990959Y-73781914D01*
X53213000Y-73660629D01*
X53213000Y-72517000D01*
X53467000Y-72517000D01*
X53467000Y-73660629D01*
X53689041Y-73781914D01*
X54195134Y-73542389D01*
X54571041Y-73127423D01*
X54731904Y-72739039D01*
X54609915Y-72517000D01*
X53467000Y-72517000D01*
X53213000Y-72517000D01*
X52070085Y-72517000D01*
X51948096Y-72739039D01*
X51453199Y-72739039D01*
X52020142Y-72172096D01*
X52070085Y-72263000D01*
X53213000Y-72263000D01*
X53213000Y-71119371D01*
X53467000Y-71119371D01*
X53467000Y-72263000D01*
X54609915Y-72263000D01*
X54731904Y-72040961D01*
X54571041Y-71652577D01*
X54195134Y-71237611D01*
X53689041Y-70998086D01*
X53467000Y-71119371D01*
X53213000Y-71119371D01*
X53122372Y-71069867D01*
X54017239Y-70175000D01*
X61748970Y-70175000D01*
X61910000Y-70207031D01*
X62071030Y-70175000D01*
X62071031Y-70175000D01*
X62547945Y-70080136D01*
X63088769Y-69718769D01*
X63179988Y-69582250D01*
X65087239Y-67675000D01*
X65902761Y-67675000D01*
X62230015Y-71347747D01*
X61959865Y-71752055D01*
X61832969Y-72390000D01*
X61959865Y-73027945D01*
X62321232Y-73568768D01*
X62862055Y-73930135D01*
X63500000Y-74057031D01*
X64137945Y-73930135D01*
X64542253Y-73659985D01*
X68579985Y-69622254D01*
X68745003Y-69375289D01*
X68745002Y-70442761D01*
X62395000Y-76792764D01*
X62395000Y-76525750D01*
X62236250Y-76367000D01*
X61087000Y-76367000D01*
X61087000Y-76387000D01*
X60833000Y-76387000D01*
X60833000Y-76367000D01*
X59683750Y-76367000D01*
X59525000Y-76525750D01*
X59525000Y-77105000D01*
X54775000Y-77105000D01*
X54775000Y-76525750D01*
X54616250Y-76367000D01*
X53467000Y-76367000D01*
X53467000Y-76387000D01*
X53213000Y-76387000D01*
X53213000Y-76367000D01*
X52063750Y-76367000D01*
X51905000Y-76525750D01*
X51905000Y-77166309D01*
X52001673Y-77399698D01*
X52162414Y-77560440D01*
X52161231Y-77561231D01*
X52070014Y-77697747D01*
X48764315Y-81003447D01*
X48732055Y-81009864D01*
X48191231Y-81371231D01*
X47829864Y-81912055D01*
X47702969Y-82550000D01*
X47829864Y-83187945D01*
X48191231Y-83728769D01*
X48732055Y-84090136D01*
X49208969Y-84185000D01*
X49368970Y-84185000D01*
X49530000Y-84217031D01*
X49691030Y-84185000D01*
X49691031Y-84185000D01*
X50167945Y-84090136D01*
X50708769Y-83728769D01*
X50785370Y-83614126D01*
X77705000Y-83614126D01*
X77705000Y-84025874D01*
X77862569Y-84406280D01*
X78153720Y-84697431D01*
X78534126Y-84855000D01*
X78945874Y-84855000D01*
X79326280Y-84697431D01*
X79617431Y-84406280D01*
X79775000Y-84025874D01*
X79775000Y-83614126D01*
X79617431Y-83233720D01*
X79326280Y-82942569D01*
X78945874Y-82785000D01*
X78534126Y-82785000D01*
X78153720Y-82942569D01*
X77862569Y-83233720D01*
X77705000Y-83614126D01*
X50785370Y-83614126D01*
X50799988Y-83592250D01*
X54017239Y-80375000D01*
X62598972Y-80375000D01*
X62760002Y-80407031D01*
X62921032Y-80375000D01*
X62921033Y-80375000D01*
X63397947Y-80280136D01*
X63938771Y-79918769D01*
X64029990Y-79782250D01*
X65072240Y-78740000D01*
X72132041Y-78740000D01*
X72248350Y-79324725D01*
X72579570Y-79820430D01*
X72863281Y-80010000D01*
X72579570Y-80199570D01*
X72248350Y-80695275D01*
X72132041Y-81280000D01*
X72248350Y-81864725D01*
X72579570Y-82360430D01*
X73075275Y-82691650D01*
X73512402Y-82778600D01*
X73807598Y-82778600D01*
X74244725Y-82691650D01*
X74740430Y-82360430D01*
X74930000Y-82076719D01*
X75119570Y-82360430D01*
X75615275Y-82691650D01*
X76052402Y-82778600D01*
X76347598Y-82778600D01*
X76784725Y-82691650D01*
X77280430Y-82360430D01*
X77470000Y-82076719D01*
X77659570Y-82360430D01*
X78155275Y-82691650D01*
X78592402Y-82778600D01*
X78887598Y-82778600D01*
X79324725Y-82691650D01*
X79820430Y-82360430D01*
X80010000Y-82076719D01*
X80199570Y-82360430D01*
X80695275Y-82691650D01*
X81132402Y-82778600D01*
X81427598Y-82778600D01*
X81864725Y-82691650D01*
X82360430Y-82360430D01*
X82561854Y-82058979D01*
X82613179Y-82168490D01*
X83045053Y-82562688D01*
X83460974Y-82734958D01*
X83693000Y-82613817D01*
X83693000Y-81407000D01*
X83947000Y-81407000D01*
X83947000Y-82613817D01*
X84179026Y-82734958D01*
X84594947Y-82562688D01*
X85026821Y-82168490D01*
X85090000Y-82033687D01*
X85153179Y-82168490D01*
X85585053Y-82562688D01*
X86000974Y-82734958D01*
X86233000Y-82613817D01*
X86233000Y-81407000D01*
X86487000Y-81407000D01*
X86487000Y-82613817D01*
X86719026Y-82734958D01*
X87134947Y-82562688D01*
X87566821Y-82168490D01*
X87630000Y-82033687D01*
X87693179Y-82168490D01*
X88125053Y-82562688D01*
X88540974Y-82734958D01*
X88773000Y-82613817D01*
X88773000Y-81407000D01*
X86487000Y-81407000D01*
X86233000Y-81407000D01*
X83947000Y-81407000D01*
X83693000Y-81407000D01*
X83673000Y-81407000D01*
X83673000Y-81153000D01*
X83693000Y-81153000D01*
X83693000Y-78867000D01*
X83947000Y-78867000D01*
X83947000Y-81153000D01*
X86233000Y-81153000D01*
X86233000Y-78867000D01*
X86487000Y-78867000D01*
X86487000Y-81153000D01*
X88773000Y-81153000D01*
X88773000Y-78867000D01*
X86487000Y-78867000D01*
X86233000Y-78867000D01*
X83947000Y-78867000D01*
X83693000Y-78867000D01*
X83673000Y-78867000D01*
X83673000Y-78613000D01*
X83693000Y-78613000D01*
X83693000Y-77406183D01*
X83947000Y-77406183D01*
X83947000Y-78613000D01*
X86233000Y-78613000D01*
X86233000Y-77406183D01*
X86487000Y-77406183D01*
X86487000Y-78613000D01*
X88773000Y-78613000D01*
X88773000Y-77406183D01*
X89027000Y-77406183D01*
X89027000Y-78613000D01*
X89047000Y-78613000D01*
X89047000Y-78867000D01*
X89027000Y-78867000D01*
X89027000Y-81153000D01*
X89047000Y-81153000D01*
X89047000Y-81407000D01*
X89027000Y-81407000D01*
X89027000Y-82613817D01*
X89259026Y-82734958D01*
X89674947Y-82562688D01*
X90106821Y-82168490D01*
X90158146Y-82058979D01*
X90359570Y-82360430D01*
X90855275Y-82691650D01*
X91292402Y-82778600D01*
X91587598Y-82778600D01*
X92024725Y-82691650D01*
X92520430Y-82360430D01*
X92851650Y-81864725D01*
X92967959Y-81280000D01*
X92851650Y-80695275D01*
X92525349Y-80206932D01*
X92551365Y-80201757D01*
X92761409Y-80061409D01*
X92901757Y-79851365D01*
X92951040Y-79603600D01*
X92951040Y-78740000D01*
X105152041Y-78740000D01*
X105268350Y-79324725D01*
X105599570Y-79820430D01*
X105883281Y-80010000D01*
X105599570Y-80199570D01*
X105268350Y-80695275D01*
X105152041Y-81280000D01*
X105268350Y-81864725D01*
X105599570Y-82360430D01*
X106095275Y-82691650D01*
X106532402Y-82778600D01*
X106827598Y-82778600D01*
X107264725Y-82691650D01*
X107760430Y-82360430D01*
X107950000Y-82076719D01*
X108139570Y-82360430D01*
X108635275Y-82691650D01*
X109072402Y-82778600D01*
X109367598Y-82778600D01*
X109804725Y-82691650D01*
X110300430Y-82360430D01*
X110490000Y-82076719D01*
X110679570Y-82360430D01*
X111175275Y-82691650D01*
X111612402Y-82778600D01*
X111907598Y-82778600D01*
X112344725Y-82691650D01*
X112840430Y-82360430D01*
X113030000Y-82076719D01*
X113219570Y-82360430D01*
X113715275Y-82691650D01*
X114152402Y-82778600D01*
X114447598Y-82778600D01*
X114884725Y-82691650D01*
X115380430Y-82360430D01*
X115581854Y-82058979D01*
X115633179Y-82168490D01*
X116065053Y-82562688D01*
X116480974Y-82734958D01*
X116713000Y-82613817D01*
X116713000Y-81407000D01*
X116967000Y-81407000D01*
X116967000Y-82613817D01*
X117199026Y-82734958D01*
X117614947Y-82562688D01*
X118046821Y-82168490D01*
X118110000Y-82033687D01*
X118173179Y-82168490D01*
X118605053Y-82562688D01*
X119020974Y-82734958D01*
X119253000Y-82613817D01*
X119253000Y-81407000D01*
X119507000Y-81407000D01*
X119507000Y-82613817D01*
X119739026Y-82734958D01*
X120154947Y-82562688D01*
X120586821Y-82168490D01*
X120650000Y-82033687D01*
X120713179Y-82168490D01*
X121145053Y-82562688D01*
X121560974Y-82734958D01*
X121793000Y-82613817D01*
X121793000Y-81407000D01*
X119507000Y-81407000D01*
X119253000Y-81407000D01*
X116967000Y-81407000D01*
X116713000Y-81407000D01*
X116693000Y-81407000D01*
X116693000Y-81153000D01*
X116713000Y-81153000D01*
X116713000Y-78867000D01*
X116967000Y-78867000D01*
X116967000Y-81153000D01*
X119253000Y-81153000D01*
X119253000Y-78867000D01*
X119507000Y-78867000D01*
X119507000Y-81153000D01*
X121793000Y-81153000D01*
X121793000Y-78867000D01*
X119507000Y-78867000D01*
X119253000Y-78867000D01*
X116967000Y-78867000D01*
X116713000Y-78867000D01*
X116693000Y-78867000D01*
X116693000Y-78613000D01*
X116713000Y-78613000D01*
X116713000Y-77406183D01*
X116967000Y-77406183D01*
X116967000Y-78613000D01*
X119253000Y-78613000D01*
X119253000Y-77406183D01*
X119507000Y-77406183D01*
X119507000Y-78613000D01*
X121793000Y-78613000D01*
X121793000Y-77406183D01*
X122047000Y-77406183D01*
X122047000Y-78613000D01*
X122067000Y-78613000D01*
X122067000Y-78867000D01*
X122047000Y-78867000D01*
X122047000Y-81153000D01*
X122067000Y-81153000D01*
X122067000Y-81407000D01*
X122047000Y-81407000D01*
X122047000Y-82613817D01*
X122279026Y-82734958D01*
X122694947Y-82562688D01*
X123126821Y-82168490D01*
X123178146Y-82058979D01*
X123379570Y-82360430D01*
X123875275Y-82691650D01*
X124312402Y-82778600D01*
X124607598Y-82778600D01*
X125044725Y-82691650D01*
X125540430Y-82360430D01*
X125871650Y-81864725D01*
X125987959Y-81280000D01*
X125871650Y-80695275D01*
X125545349Y-80206932D01*
X125571365Y-80201757D01*
X125781409Y-80061409D01*
X125921757Y-79851365D01*
X125971040Y-79603600D01*
X125971040Y-78740000D01*
X138172041Y-78740000D01*
X138288350Y-79324725D01*
X138619570Y-79820430D01*
X138903281Y-80010000D01*
X138619570Y-80199570D01*
X138288350Y-80695275D01*
X138172041Y-81280000D01*
X138288350Y-81864725D01*
X138619570Y-82360430D01*
X139115275Y-82691650D01*
X139552402Y-82778600D01*
X139847598Y-82778600D01*
X140284725Y-82691650D01*
X140780430Y-82360430D01*
X140970000Y-82076719D01*
X141159570Y-82360430D01*
X141655275Y-82691650D01*
X142092402Y-82778600D01*
X142387598Y-82778600D01*
X142824725Y-82691650D01*
X143320430Y-82360430D01*
X143510000Y-82076719D01*
X143699570Y-82360430D01*
X144195275Y-82691650D01*
X144632402Y-82778600D01*
X144927598Y-82778600D01*
X145364725Y-82691650D01*
X145860430Y-82360430D01*
X146050000Y-82076719D01*
X146239570Y-82360430D01*
X146735275Y-82691650D01*
X147172402Y-82778600D01*
X147467598Y-82778600D01*
X147904725Y-82691650D01*
X148400430Y-82360430D01*
X148601854Y-82058979D01*
X148653179Y-82168490D01*
X149085053Y-82562688D01*
X149500974Y-82734958D01*
X149733000Y-82613817D01*
X149733000Y-81407000D01*
X149987000Y-81407000D01*
X149987000Y-82613817D01*
X150219026Y-82734958D01*
X150634947Y-82562688D01*
X151066821Y-82168490D01*
X151130000Y-82033687D01*
X151193179Y-82168490D01*
X151625053Y-82562688D01*
X152040974Y-82734958D01*
X152273000Y-82613817D01*
X152273000Y-81407000D01*
X152527000Y-81407000D01*
X152527000Y-82613817D01*
X152759026Y-82734958D01*
X153174947Y-82562688D01*
X153606821Y-82168490D01*
X153670000Y-82033687D01*
X153733179Y-82168490D01*
X154165053Y-82562688D01*
X154580974Y-82734958D01*
X154813000Y-82613817D01*
X154813000Y-81407000D01*
X152527000Y-81407000D01*
X152273000Y-81407000D01*
X149987000Y-81407000D01*
X149733000Y-81407000D01*
X149713000Y-81407000D01*
X149713000Y-81153000D01*
X149733000Y-81153000D01*
X149733000Y-78867000D01*
X149987000Y-78867000D01*
X149987000Y-81153000D01*
X152273000Y-81153000D01*
X152273000Y-78867000D01*
X152527000Y-78867000D01*
X152527000Y-81153000D01*
X154813000Y-81153000D01*
X154813000Y-78867000D01*
X152527000Y-78867000D01*
X152273000Y-78867000D01*
X149987000Y-78867000D01*
X149733000Y-78867000D01*
X149713000Y-78867000D01*
X149713000Y-78613000D01*
X149733000Y-78613000D01*
X149733000Y-77406183D01*
X149987000Y-77406183D01*
X149987000Y-78613000D01*
X152273000Y-78613000D01*
X152273000Y-77406183D01*
X152527000Y-77406183D01*
X152527000Y-78613000D01*
X154813000Y-78613000D01*
X154813000Y-77406183D01*
X155067000Y-77406183D01*
X155067000Y-78613000D01*
X155087000Y-78613000D01*
X155087000Y-78867000D01*
X155067000Y-78867000D01*
X155067000Y-81153000D01*
X155087000Y-81153000D01*
X155087000Y-81407000D01*
X155067000Y-81407000D01*
X155067000Y-82613817D01*
X155299026Y-82734958D01*
X155714947Y-82562688D01*
X156146821Y-82168490D01*
X156198146Y-82058979D01*
X156399570Y-82360430D01*
X156895275Y-82691650D01*
X157332402Y-82778600D01*
X157627598Y-82778600D01*
X158064725Y-82691650D01*
X158560430Y-82360430D01*
X158891650Y-81864725D01*
X159007959Y-81280000D01*
X158891650Y-80695275D01*
X158565349Y-80206932D01*
X158591365Y-80201757D01*
X158801409Y-80061409D01*
X158941757Y-79851365D01*
X158991040Y-79603600D01*
X158991040Y-78740000D01*
X171192041Y-78740000D01*
X171308350Y-79324725D01*
X171639570Y-79820430D01*
X171923281Y-80010000D01*
X171639570Y-80199570D01*
X171308350Y-80695275D01*
X171192041Y-81280000D01*
X171308350Y-81864725D01*
X171639570Y-82360430D01*
X172135275Y-82691650D01*
X172572402Y-82778600D01*
X172867598Y-82778600D01*
X173304725Y-82691650D01*
X173800430Y-82360430D01*
X173990000Y-82076719D01*
X174179570Y-82360430D01*
X174675275Y-82691650D01*
X175112402Y-82778600D01*
X175407598Y-82778600D01*
X175844725Y-82691650D01*
X176340430Y-82360430D01*
X176530000Y-82076719D01*
X176719570Y-82360430D01*
X177215275Y-82691650D01*
X177652402Y-82778600D01*
X177947598Y-82778600D01*
X178384725Y-82691650D01*
X178880430Y-82360430D01*
X179070000Y-82076719D01*
X179259570Y-82360430D01*
X179755275Y-82691650D01*
X180192402Y-82778600D01*
X180487598Y-82778600D01*
X180924725Y-82691650D01*
X181420430Y-82360430D01*
X181621854Y-82058979D01*
X181673179Y-82168490D01*
X182105053Y-82562688D01*
X182520974Y-82734958D01*
X182753000Y-82613817D01*
X182753000Y-81407000D01*
X183007000Y-81407000D01*
X183007000Y-82613817D01*
X183239026Y-82734958D01*
X183654947Y-82562688D01*
X184086821Y-82168490D01*
X184150000Y-82033687D01*
X184213179Y-82168490D01*
X184645053Y-82562688D01*
X185060974Y-82734958D01*
X185293000Y-82613817D01*
X185293000Y-81407000D01*
X185547000Y-81407000D01*
X185547000Y-82613817D01*
X185779026Y-82734958D01*
X186194947Y-82562688D01*
X186626821Y-82168490D01*
X186690000Y-82033687D01*
X186753179Y-82168490D01*
X187185053Y-82562688D01*
X187600974Y-82734958D01*
X187833000Y-82613817D01*
X187833000Y-81407000D01*
X185547000Y-81407000D01*
X185293000Y-81407000D01*
X183007000Y-81407000D01*
X182753000Y-81407000D01*
X182733000Y-81407000D01*
X182733000Y-81153000D01*
X182753000Y-81153000D01*
X182753000Y-78867000D01*
X183007000Y-78867000D01*
X183007000Y-81153000D01*
X185293000Y-81153000D01*
X185293000Y-78867000D01*
X185547000Y-78867000D01*
X185547000Y-81153000D01*
X187833000Y-81153000D01*
X187833000Y-78867000D01*
X185547000Y-78867000D01*
X185293000Y-78867000D01*
X183007000Y-78867000D01*
X182753000Y-78867000D01*
X182733000Y-78867000D01*
X182733000Y-78613000D01*
X182753000Y-78613000D01*
X182753000Y-77406183D01*
X183007000Y-77406183D01*
X183007000Y-78613000D01*
X185293000Y-78613000D01*
X185293000Y-77406183D01*
X185547000Y-77406183D01*
X185547000Y-78613000D01*
X187833000Y-78613000D01*
X187833000Y-77406183D01*
X188087000Y-77406183D01*
X188087000Y-78613000D01*
X188107000Y-78613000D01*
X188107000Y-78867000D01*
X188087000Y-78867000D01*
X188087000Y-81153000D01*
X188107000Y-81153000D01*
X188107000Y-81407000D01*
X188087000Y-81407000D01*
X188087000Y-82613817D01*
X188319026Y-82734958D01*
X188734947Y-82562688D01*
X189166821Y-82168490D01*
X189218146Y-82058979D01*
X189419570Y-82360430D01*
X189915275Y-82691650D01*
X190352402Y-82778600D01*
X190647598Y-82778600D01*
X191084725Y-82691650D01*
X191580430Y-82360430D01*
X191750815Y-82105431D01*
X198425000Y-82105431D01*
X198425000Y-82994569D01*
X198765259Y-83816026D01*
X199393974Y-84444741D01*
X200215431Y-84785000D01*
X201104569Y-84785000D01*
X201926026Y-84444741D01*
X202554741Y-83816026D01*
X202895000Y-82994569D01*
X202895000Y-82105431D01*
X202554741Y-81283974D01*
X201926026Y-80655259D01*
X201104569Y-80315000D01*
X200215431Y-80315000D01*
X199393974Y-80655259D01*
X198765259Y-81283974D01*
X198425000Y-82105431D01*
X191750815Y-82105431D01*
X191911650Y-81864725D01*
X192027959Y-81280000D01*
X191911650Y-80695275D01*
X191585349Y-80206932D01*
X191611365Y-80201757D01*
X191821409Y-80061409D01*
X191961757Y-79851365D01*
X192011040Y-79603600D01*
X192011040Y-77876400D01*
X191961757Y-77628635D01*
X191821409Y-77418591D01*
X191611365Y-77278243D01*
X191363600Y-77228960D01*
X189636400Y-77228960D01*
X189388635Y-77278243D01*
X189178591Y-77418591D01*
X189038243Y-77628635D01*
X189020480Y-77717936D01*
X188734947Y-77457312D01*
X188319026Y-77285042D01*
X188087000Y-77406183D01*
X187833000Y-77406183D01*
X187600974Y-77285042D01*
X187185053Y-77457312D01*
X186753179Y-77851510D01*
X186690000Y-77986313D01*
X186626821Y-77851510D01*
X186194947Y-77457312D01*
X185779026Y-77285042D01*
X185547000Y-77406183D01*
X185293000Y-77406183D01*
X185060974Y-77285042D01*
X184645053Y-77457312D01*
X184213179Y-77851510D01*
X184150000Y-77986313D01*
X184086821Y-77851510D01*
X183654947Y-77457312D01*
X183239026Y-77285042D01*
X183007000Y-77406183D01*
X182753000Y-77406183D01*
X182520974Y-77285042D01*
X182105053Y-77457312D01*
X181673179Y-77851510D01*
X181621854Y-77961021D01*
X181420430Y-77659570D01*
X180924725Y-77328350D01*
X180487598Y-77241400D01*
X180192402Y-77241400D01*
X179755275Y-77328350D01*
X179259570Y-77659570D01*
X179070000Y-77943281D01*
X178880430Y-77659570D01*
X178384725Y-77328350D01*
X177947598Y-77241400D01*
X177652402Y-77241400D01*
X177215275Y-77328350D01*
X176719570Y-77659570D01*
X176530000Y-77943281D01*
X176340430Y-77659570D01*
X175844725Y-77328350D01*
X175407598Y-77241400D01*
X175112402Y-77241400D01*
X174675275Y-77328350D01*
X174179570Y-77659570D01*
X173990000Y-77943281D01*
X173800430Y-77659570D01*
X173304725Y-77328350D01*
X172867598Y-77241400D01*
X172572402Y-77241400D01*
X172135275Y-77328350D01*
X171639570Y-77659570D01*
X171308350Y-78155275D01*
X171192041Y-78740000D01*
X158991040Y-78740000D01*
X158991040Y-77876400D01*
X158941757Y-77628635D01*
X158801409Y-77418591D01*
X158591365Y-77278243D01*
X158343600Y-77228960D01*
X156616400Y-77228960D01*
X156368635Y-77278243D01*
X156158591Y-77418591D01*
X156018243Y-77628635D01*
X156000480Y-77717936D01*
X155714947Y-77457312D01*
X155299026Y-77285042D01*
X155067000Y-77406183D01*
X154813000Y-77406183D01*
X154580974Y-77285042D01*
X154165053Y-77457312D01*
X153733179Y-77851510D01*
X153670000Y-77986313D01*
X153606821Y-77851510D01*
X153174947Y-77457312D01*
X152759026Y-77285042D01*
X152527000Y-77406183D01*
X152273000Y-77406183D01*
X152040974Y-77285042D01*
X151625053Y-77457312D01*
X151193179Y-77851510D01*
X151130000Y-77986313D01*
X151066821Y-77851510D01*
X150634947Y-77457312D01*
X150219026Y-77285042D01*
X149987000Y-77406183D01*
X149733000Y-77406183D01*
X149500974Y-77285042D01*
X149085053Y-77457312D01*
X148653179Y-77851510D01*
X148601854Y-77961021D01*
X148400430Y-77659570D01*
X147904725Y-77328350D01*
X147467598Y-77241400D01*
X147172402Y-77241400D01*
X146735275Y-77328350D01*
X146239570Y-77659570D01*
X146050000Y-77943281D01*
X145860430Y-77659570D01*
X145364725Y-77328350D01*
X144927598Y-77241400D01*
X144632402Y-77241400D01*
X144195275Y-77328350D01*
X143699570Y-77659570D01*
X143510000Y-77943281D01*
X143320430Y-77659570D01*
X142824725Y-77328350D01*
X142387598Y-77241400D01*
X142092402Y-77241400D01*
X141655275Y-77328350D01*
X141159570Y-77659570D01*
X140970000Y-77943281D01*
X140780430Y-77659570D01*
X140284725Y-77328350D01*
X139847598Y-77241400D01*
X139552402Y-77241400D01*
X139115275Y-77328350D01*
X138619570Y-77659570D01*
X138288350Y-78155275D01*
X138172041Y-78740000D01*
X125971040Y-78740000D01*
X125971040Y-77876400D01*
X125921757Y-77628635D01*
X125781409Y-77418591D01*
X125571365Y-77278243D01*
X125323600Y-77228960D01*
X123596400Y-77228960D01*
X123348635Y-77278243D01*
X123138591Y-77418591D01*
X122998243Y-77628635D01*
X122980480Y-77717936D01*
X122694947Y-77457312D01*
X122279026Y-77285042D01*
X122047000Y-77406183D01*
X121793000Y-77406183D01*
X121560974Y-77285042D01*
X121145053Y-77457312D01*
X120713179Y-77851510D01*
X120650000Y-77986313D01*
X120586821Y-77851510D01*
X120154947Y-77457312D01*
X119739026Y-77285042D01*
X119507000Y-77406183D01*
X119253000Y-77406183D01*
X119020974Y-77285042D01*
X118605053Y-77457312D01*
X118173179Y-77851510D01*
X118110000Y-77986313D01*
X118046821Y-77851510D01*
X117614947Y-77457312D01*
X117199026Y-77285042D01*
X116967000Y-77406183D01*
X116713000Y-77406183D01*
X116480974Y-77285042D01*
X116065053Y-77457312D01*
X115633179Y-77851510D01*
X115581854Y-77961021D01*
X115380430Y-77659570D01*
X114884725Y-77328350D01*
X114447598Y-77241400D01*
X114152402Y-77241400D01*
X113715275Y-77328350D01*
X113219570Y-77659570D01*
X113030000Y-77943281D01*
X112840430Y-77659570D01*
X112344725Y-77328350D01*
X111907598Y-77241400D01*
X111612402Y-77241400D01*
X111175275Y-77328350D01*
X110679570Y-77659570D01*
X110490000Y-77943281D01*
X110300430Y-77659570D01*
X109804725Y-77328350D01*
X109367598Y-77241400D01*
X109072402Y-77241400D01*
X108635275Y-77328350D01*
X108139570Y-77659570D01*
X107950000Y-77943281D01*
X107760430Y-77659570D01*
X107264725Y-77328350D01*
X106827598Y-77241400D01*
X106532402Y-77241400D01*
X106095275Y-77328350D01*
X105599570Y-77659570D01*
X105268350Y-78155275D01*
X105152041Y-78740000D01*
X92951040Y-78740000D01*
X92951040Y-77876400D01*
X92901757Y-77628635D01*
X92761409Y-77418591D01*
X92551365Y-77278243D01*
X92303600Y-77228960D01*
X90576400Y-77228960D01*
X90328635Y-77278243D01*
X90118591Y-77418591D01*
X89978243Y-77628635D01*
X89960480Y-77717936D01*
X89674947Y-77457312D01*
X89259026Y-77285042D01*
X89027000Y-77406183D01*
X88773000Y-77406183D01*
X88540974Y-77285042D01*
X88125053Y-77457312D01*
X87693179Y-77851510D01*
X87630000Y-77986313D01*
X87566821Y-77851510D01*
X87134947Y-77457312D01*
X86719026Y-77285042D01*
X86487000Y-77406183D01*
X86233000Y-77406183D01*
X86000974Y-77285042D01*
X85585053Y-77457312D01*
X85153179Y-77851510D01*
X85090000Y-77986313D01*
X85026821Y-77851510D01*
X84594947Y-77457312D01*
X84179026Y-77285042D01*
X83947000Y-77406183D01*
X83693000Y-77406183D01*
X83460974Y-77285042D01*
X83045053Y-77457312D01*
X82613179Y-77851510D01*
X82561854Y-77961021D01*
X82360430Y-77659570D01*
X81864725Y-77328350D01*
X81427598Y-77241400D01*
X81132402Y-77241400D01*
X80695275Y-77328350D01*
X80199570Y-77659570D01*
X80010000Y-77943281D01*
X79820430Y-77659570D01*
X79324725Y-77328350D01*
X78887598Y-77241400D01*
X78592402Y-77241400D01*
X78155275Y-77328350D01*
X77659570Y-77659570D01*
X77470000Y-77943281D01*
X77280430Y-77659570D01*
X76784725Y-77328350D01*
X76347598Y-77241400D01*
X76052402Y-77241400D01*
X75615275Y-77328350D01*
X75119570Y-77659570D01*
X74930000Y-77943281D01*
X74740430Y-77659570D01*
X74244725Y-77328350D01*
X73807598Y-77241400D01*
X73512402Y-77241400D01*
X73075275Y-77328350D01*
X72579570Y-77659570D01*
X72248350Y-78155275D01*
X72132041Y-78740000D01*
X65072240Y-78740000D01*
X70358114Y-73454126D01*
X72625000Y-73454126D01*
X72625000Y-73865874D01*
X72782569Y-74246280D01*
X73073720Y-74537431D01*
X73454126Y-74695000D01*
X73865874Y-74695000D01*
X74246280Y-74537431D01*
X74363711Y-74420000D01*
X105976289Y-74420000D01*
X106093720Y-74537431D01*
X106474126Y-74695000D01*
X106885874Y-74695000D01*
X107266280Y-74537431D01*
X107383711Y-74420000D01*
X138996289Y-74420000D01*
X139113720Y-74537431D01*
X139494126Y-74695000D01*
X139905874Y-74695000D01*
X140286280Y-74537431D01*
X140403711Y-74420000D01*
X172016289Y-74420000D01*
X172133720Y-74537431D01*
X172514126Y-74695000D01*
X172925874Y-74695000D01*
X173306280Y-74537431D01*
X173597431Y-74246280D01*
X173755000Y-73865874D01*
X173755000Y-73454126D01*
X173597431Y-73073720D01*
X173306280Y-72782569D01*
X172925874Y-72625000D01*
X172514126Y-72625000D01*
X172133720Y-72782569D01*
X172016289Y-72900000D01*
X140403711Y-72900000D01*
X140286280Y-72782569D01*
X139905874Y-72625000D01*
X139494126Y-72625000D01*
X139113720Y-72782569D01*
X138996289Y-72900000D01*
X107383711Y-72900000D01*
X107266280Y-72782569D01*
X106885874Y-72625000D01*
X106474126Y-72625000D01*
X106093720Y-72782569D01*
X105976289Y-72900000D01*
X74363711Y-72900000D01*
X74246280Y-72782569D01*
X73865874Y-72625000D01*
X73454126Y-72625000D01*
X73073720Y-72782569D01*
X72782569Y-73073720D01*
X72625000Y-73454126D01*
X70358114Y-73454126D01*
X71422255Y-72389986D01*
X71558771Y-72298769D01*
X71920138Y-71757945D01*
X72015002Y-71281031D01*
X72015002Y-71281027D01*
X72047032Y-71120001D01*
X72015002Y-70958975D01*
X72015002Y-68727236D01*
X73067239Y-67675000D01*
X190661031Y-67675000D01*
X191137945Y-67580136D01*
X191678769Y-67218769D01*
X192040136Y-66677945D01*
X192167031Y-66040000D01*
X192040136Y-65402055D01*
X191678769Y-64861231D01*
X191137945Y-64499864D01*
X190661031Y-64405000D01*
X179161696Y-64405000D01*
X179340136Y-64137945D01*
X179467031Y-63500000D01*
X179340136Y-62862055D01*
X179161696Y-62595000D01*
X190661031Y-62595000D01*
X191137945Y-62500136D01*
X191678769Y-62138769D01*
X192040136Y-61597945D01*
X192167031Y-60960000D01*
X192040136Y-60322055D01*
X191678769Y-59781231D01*
X191137945Y-59419864D01*
X190661031Y-59325000D01*
X73067239Y-59325000D01*
X72380000Y-58637762D01*
X72380000Y-55406031D01*
X72412031Y-55245000D01*
X72285136Y-54607054D01*
X72115470Y-54353132D01*
X71923769Y-54066231D01*
X71787253Y-53975014D01*
X70946365Y-53134126D01*
X75165000Y-53134126D01*
X75165000Y-53545874D01*
X75322569Y-53926280D01*
X75613720Y-54217431D01*
X75994126Y-54375000D01*
X76405874Y-54375000D01*
X76786280Y-54217431D01*
X76903711Y-54100000D01*
X108516289Y-54100000D01*
X108633720Y-54217431D01*
X109014126Y-54375000D01*
X109425874Y-54375000D01*
X109806280Y-54217431D01*
X109923711Y-54100000D01*
X141536289Y-54100000D01*
X141653720Y-54217431D01*
X142034126Y-54375000D01*
X142445874Y-54375000D01*
X142826280Y-54217431D01*
X142943711Y-54100000D01*
X174556289Y-54100000D01*
X174673720Y-54217431D01*
X175054126Y-54375000D01*
X175465874Y-54375000D01*
X175846280Y-54217431D01*
X176137431Y-53926280D01*
X176295000Y-53545874D01*
X176295000Y-53134126D01*
X176137431Y-52753720D01*
X175846280Y-52462569D01*
X175465874Y-52305000D01*
X175054126Y-52305000D01*
X174673720Y-52462569D01*
X174556289Y-52580000D01*
X142943711Y-52580000D01*
X142826280Y-52462569D01*
X142445874Y-52305000D01*
X142034126Y-52305000D01*
X141653720Y-52462569D01*
X141536289Y-52580000D01*
X109923711Y-52580000D01*
X109806280Y-52462569D01*
X109425874Y-52305000D01*
X109014126Y-52305000D01*
X108633720Y-52462569D01*
X108516289Y-52580000D01*
X76903711Y-52580000D01*
X76786280Y-52462569D01*
X76405874Y-52305000D01*
X75994126Y-52305000D01*
X75613720Y-52462569D01*
X75322569Y-52753720D01*
X75165000Y-53134126D01*
X70946365Y-53134126D01*
X65029988Y-47217750D01*
X64938769Y-47081231D01*
X64397945Y-46719864D01*
X63921031Y-46625000D01*
X63921030Y-46625000D01*
X63760000Y-46592969D01*
X63598970Y-46625000D01*
X54017239Y-46625000D01*
X53112239Y-45720000D01*
X72132041Y-45720000D01*
X72248350Y-46304725D01*
X72579570Y-46800430D01*
X72863281Y-46990000D01*
X72579570Y-47179570D01*
X72248350Y-47675275D01*
X72132041Y-48260000D01*
X72248350Y-48844725D01*
X72579570Y-49340430D01*
X73075275Y-49671650D01*
X73512402Y-49758600D01*
X73807598Y-49758600D01*
X74244725Y-49671650D01*
X74740430Y-49340430D01*
X74930000Y-49056719D01*
X75119570Y-49340430D01*
X75615275Y-49671650D01*
X76052402Y-49758600D01*
X76347598Y-49758600D01*
X76784725Y-49671650D01*
X77280430Y-49340430D01*
X77470000Y-49056719D01*
X77659570Y-49340430D01*
X78155275Y-49671650D01*
X78592402Y-49758600D01*
X78887598Y-49758600D01*
X79324725Y-49671650D01*
X79820430Y-49340430D01*
X80010000Y-49056719D01*
X80199570Y-49340430D01*
X80695275Y-49671650D01*
X81132402Y-49758600D01*
X81427598Y-49758600D01*
X81864725Y-49671650D01*
X82360430Y-49340430D01*
X82561854Y-49038979D01*
X82613179Y-49148490D01*
X83045053Y-49542688D01*
X83460974Y-49714958D01*
X83693000Y-49593817D01*
X83693000Y-48387000D01*
X83947000Y-48387000D01*
X83947000Y-49593817D01*
X84179026Y-49714958D01*
X84594947Y-49542688D01*
X85026821Y-49148490D01*
X85090000Y-49013687D01*
X85153179Y-49148490D01*
X85585053Y-49542688D01*
X86000974Y-49714958D01*
X86233000Y-49593817D01*
X86233000Y-48387000D01*
X86487000Y-48387000D01*
X86487000Y-49593817D01*
X86719026Y-49714958D01*
X87134947Y-49542688D01*
X87566821Y-49148490D01*
X87630000Y-49013687D01*
X87693179Y-49148490D01*
X88125053Y-49542688D01*
X88540974Y-49714958D01*
X88773000Y-49593817D01*
X88773000Y-48387000D01*
X86487000Y-48387000D01*
X86233000Y-48387000D01*
X83947000Y-48387000D01*
X83693000Y-48387000D01*
X83673000Y-48387000D01*
X83673000Y-48133000D01*
X83693000Y-48133000D01*
X83693000Y-45847000D01*
X83947000Y-45847000D01*
X83947000Y-48133000D01*
X86233000Y-48133000D01*
X86233000Y-45847000D01*
X86487000Y-45847000D01*
X86487000Y-48133000D01*
X88773000Y-48133000D01*
X88773000Y-45847000D01*
X86487000Y-45847000D01*
X86233000Y-45847000D01*
X83947000Y-45847000D01*
X83693000Y-45847000D01*
X83673000Y-45847000D01*
X83673000Y-45593000D01*
X83693000Y-45593000D01*
X83693000Y-44386183D01*
X83947000Y-44386183D01*
X83947000Y-45593000D01*
X86233000Y-45593000D01*
X86233000Y-44386183D01*
X86487000Y-44386183D01*
X86487000Y-45593000D01*
X88773000Y-45593000D01*
X88773000Y-44386183D01*
X89027000Y-44386183D01*
X89027000Y-45593000D01*
X89047000Y-45593000D01*
X89047000Y-45847000D01*
X89027000Y-45847000D01*
X89027000Y-48133000D01*
X89047000Y-48133000D01*
X89047000Y-48387000D01*
X89027000Y-48387000D01*
X89027000Y-49593817D01*
X89259026Y-49714958D01*
X89674947Y-49542688D01*
X90106821Y-49148490D01*
X90158146Y-49038979D01*
X90359570Y-49340430D01*
X90855275Y-49671650D01*
X91292402Y-49758600D01*
X91587598Y-49758600D01*
X92024725Y-49671650D01*
X92520430Y-49340430D01*
X92851650Y-48844725D01*
X92967959Y-48260000D01*
X92851650Y-47675275D01*
X92525349Y-47186932D01*
X92551365Y-47181757D01*
X92761409Y-47041409D01*
X92901757Y-46831365D01*
X92951040Y-46583600D01*
X92951040Y-45720000D01*
X105152041Y-45720000D01*
X105268350Y-46304725D01*
X105599570Y-46800430D01*
X105883281Y-46990000D01*
X105599570Y-47179570D01*
X105268350Y-47675275D01*
X105152041Y-48260000D01*
X105268350Y-48844725D01*
X105599570Y-49340430D01*
X106095275Y-49671650D01*
X106532402Y-49758600D01*
X106827598Y-49758600D01*
X107264725Y-49671650D01*
X107760430Y-49340430D01*
X107950000Y-49056719D01*
X108139570Y-49340430D01*
X108635275Y-49671650D01*
X109072402Y-49758600D01*
X109367598Y-49758600D01*
X109804725Y-49671650D01*
X110300430Y-49340430D01*
X110490000Y-49056719D01*
X110679570Y-49340430D01*
X111175275Y-49671650D01*
X111612402Y-49758600D01*
X111907598Y-49758600D01*
X112344725Y-49671650D01*
X112840430Y-49340430D01*
X113030000Y-49056719D01*
X113219570Y-49340430D01*
X113715275Y-49671650D01*
X114152402Y-49758600D01*
X114447598Y-49758600D01*
X114884725Y-49671650D01*
X115380430Y-49340430D01*
X115581854Y-49038979D01*
X115633179Y-49148490D01*
X116065053Y-49542688D01*
X116480974Y-49714958D01*
X116713000Y-49593817D01*
X116713000Y-48387000D01*
X116967000Y-48387000D01*
X116967000Y-49593817D01*
X117199026Y-49714958D01*
X117614947Y-49542688D01*
X118046821Y-49148490D01*
X118110000Y-49013687D01*
X118173179Y-49148490D01*
X118605053Y-49542688D01*
X119020974Y-49714958D01*
X119253000Y-49593817D01*
X119253000Y-48387000D01*
X119507000Y-48387000D01*
X119507000Y-49593817D01*
X119739026Y-49714958D01*
X120154947Y-49542688D01*
X120586821Y-49148490D01*
X120650000Y-49013687D01*
X120713179Y-49148490D01*
X121145053Y-49542688D01*
X121560974Y-49714958D01*
X121793000Y-49593817D01*
X121793000Y-48387000D01*
X119507000Y-48387000D01*
X119253000Y-48387000D01*
X116967000Y-48387000D01*
X116713000Y-48387000D01*
X116693000Y-48387000D01*
X116693000Y-48133000D01*
X116713000Y-48133000D01*
X116713000Y-45847000D01*
X116967000Y-45847000D01*
X116967000Y-48133000D01*
X119253000Y-48133000D01*
X119253000Y-45847000D01*
X119507000Y-45847000D01*
X119507000Y-48133000D01*
X121793000Y-48133000D01*
X121793000Y-45847000D01*
X119507000Y-45847000D01*
X119253000Y-45847000D01*
X116967000Y-45847000D01*
X116713000Y-45847000D01*
X116693000Y-45847000D01*
X116693000Y-45593000D01*
X116713000Y-45593000D01*
X116713000Y-44386183D01*
X116967000Y-44386183D01*
X116967000Y-45593000D01*
X119253000Y-45593000D01*
X119253000Y-44386183D01*
X119507000Y-44386183D01*
X119507000Y-45593000D01*
X121793000Y-45593000D01*
X121793000Y-44386183D01*
X122047000Y-44386183D01*
X122047000Y-45593000D01*
X122067000Y-45593000D01*
X122067000Y-45847000D01*
X122047000Y-45847000D01*
X122047000Y-48133000D01*
X122067000Y-48133000D01*
X122067000Y-48387000D01*
X122047000Y-48387000D01*
X122047000Y-49593817D01*
X122279026Y-49714958D01*
X122694947Y-49542688D01*
X123126821Y-49148490D01*
X123178146Y-49038979D01*
X123379570Y-49340430D01*
X123875275Y-49671650D01*
X124312402Y-49758600D01*
X124607598Y-49758600D01*
X125044725Y-49671650D01*
X125540430Y-49340430D01*
X125871650Y-48844725D01*
X125987959Y-48260000D01*
X125871650Y-47675275D01*
X125545349Y-47186932D01*
X125571365Y-47181757D01*
X125781409Y-47041409D01*
X125921757Y-46831365D01*
X125971040Y-46583600D01*
X125971040Y-45720000D01*
X138172041Y-45720000D01*
X138288350Y-46304725D01*
X138619570Y-46800430D01*
X138903281Y-46990000D01*
X138619570Y-47179570D01*
X138288350Y-47675275D01*
X138172041Y-48260000D01*
X138288350Y-48844725D01*
X138619570Y-49340430D01*
X139115275Y-49671650D01*
X139552402Y-49758600D01*
X139847598Y-49758600D01*
X140284725Y-49671650D01*
X140780430Y-49340430D01*
X140970000Y-49056719D01*
X141159570Y-49340430D01*
X141655275Y-49671650D01*
X142092402Y-49758600D01*
X142387598Y-49758600D01*
X142824725Y-49671650D01*
X143320430Y-49340430D01*
X143510000Y-49056719D01*
X143699570Y-49340430D01*
X144195275Y-49671650D01*
X144632402Y-49758600D01*
X144927598Y-49758600D01*
X145364725Y-49671650D01*
X145860430Y-49340430D01*
X146050000Y-49056719D01*
X146239570Y-49340430D01*
X146735275Y-49671650D01*
X147172402Y-49758600D01*
X147467598Y-49758600D01*
X147904725Y-49671650D01*
X148400430Y-49340430D01*
X148601854Y-49038979D01*
X148653179Y-49148490D01*
X149085053Y-49542688D01*
X149500974Y-49714958D01*
X149733000Y-49593817D01*
X149733000Y-48387000D01*
X149987000Y-48387000D01*
X149987000Y-49593817D01*
X150219026Y-49714958D01*
X150634947Y-49542688D01*
X151066821Y-49148490D01*
X151130000Y-49013687D01*
X151193179Y-49148490D01*
X151625053Y-49542688D01*
X152040974Y-49714958D01*
X152273000Y-49593817D01*
X152273000Y-48387000D01*
X152527000Y-48387000D01*
X152527000Y-49593817D01*
X152759026Y-49714958D01*
X153174947Y-49542688D01*
X153606821Y-49148490D01*
X153670000Y-49013687D01*
X153733179Y-49148490D01*
X154165053Y-49542688D01*
X154580974Y-49714958D01*
X154813000Y-49593817D01*
X154813000Y-48387000D01*
X152527000Y-48387000D01*
X152273000Y-48387000D01*
X149987000Y-48387000D01*
X149733000Y-48387000D01*
X149713000Y-48387000D01*
X149713000Y-48133000D01*
X149733000Y-48133000D01*
X149733000Y-45847000D01*
X149987000Y-45847000D01*
X149987000Y-48133000D01*
X152273000Y-48133000D01*
X152273000Y-45847000D01*
X152527000Y-45847000D01*
X152527000Y-48133000D01*
X154813000Y-48133000D01*
X154813000Y-45847000D01*
X152527000Y-45847000D01*
X152273000Y-45847000D01*
X149987000Y-45847000D01*
X149733000Y-45847000D01*
X149713000Y-45847000D01*
X149713000Y-45593000D01*
X149733000Y-45593000D01*
X149733000Y-44386183D01*
X149987000Y-44386183D01*
X149987000Y-45593000D01*
X152273000Y-45593000D01*
X152273000Y-44386183D01*
X152527000Y-44386183D01*
X152527000Y-45593000D01*
X154813000Y-45593000D01*
X154813000Y-44386183D01*
X155067000Y-44386183D01*
X155067000Y-45593000D01*
X155087000Y-45593000D01*
X155087000Y-45847000D01*
X155067000Y-45847000D01*
X155067000Y-48133000D01*
X155087000Y-48133000D01*
X155087000Y-48387000D01*
X155067000Y-48387000D01*
X155067000Y-49593817D01*
X155299026Y-49714958D01*
X155714947Y-49542688D01*
X156146821Y-49148490D01*
X156198146Y-49038979D01*
X156399570Y-49340430D01*
X156895275Y-49671650D01*
X157332402Y-49758600D01*
X157627598Y-49758600D01*
X158064725Y-49671650D01*
X158560430Y-49340430D01*
X158891650Y-48844725D01*
X159007959Y-48260000D01*
X158891650Y-47675275D01*
X158565349Y-47186932D01*
X158591365Y-47181757D01*
X158801409Y-47041409D01*
X158941757Y-46831365D01*
X158991040Y-46583600D01*
X158991040Y-45720000D01*
X171192041Y-45720000D01*
X171308350Y-46304725D01*
X171639570Y-46800430D01*
X171923281Y-46990000D01*
X171639570Y-47179570D01*
X171308350Y-47675275D01*
X171192041Y-48260000D01*
X171308350Y-48844725D01*
X171639570Y-49340430D01*
X172135275Y-49671650D01*
X172572402Y-49758600D01*
X172867598Y-49758600D01*
X173304725Y-49671650D01*
X173800430Y-49340430D01*
X173990000Y-49056719D01*
X174179570Y-49340430D01*
X174675275Y-49671650D01*
X175112402Y-49758600D01*
X175407598Y-49758600D01*
X175844725Y-49671650D01*
X176340430Y-49340430D01*
X176530000Y-49056719D01*
X176719570Y-49340430D01*
X177215275Y-49671650D01*
X177652402Y-49758600D01*
X177947598Y-49758600D01*
X178384725Y-49671650D01*
X178880430Y-49340430D01*
X179070000Y-49056719D01*
X179259570Y-49340430D01*
X179755275Y-49671650D01*
X180192402Y-49758600D01*
X180487598Y-49758600D01*
X180924725Y-49671650D01*
X181420430Y-49340430D01*
X181621854Y-49038979D01*
X181673179Y-49148490D01*
X182105053Y-49542688D01*
X182520974Y-49714958D01*
X182753000Y-49593817D01*
X182753000Y-48387000D01*
X183007000Y-48387000D01*
X183007000Y-49593817D01*
X183239026Y-49714958D01*
X183654947Y-49542688D01*
X184086821Y-49148490D01*
X184150000Y-49013687D01*
X184213179Y-49148490D01*
X184645053Y-49542688D01*
X185060974Y-49714958D01*
X185293000Y-49593817D01*
X185293000Y-48387000D01*
X185547000Y-48387000D01*
X185547000Y-49593817D01*
X185779026Y-49714958D01*
X186194947Y-49542688D01*
X186626821Y-49148490D01*
X186690000Y-49013687D01*
X186753179Y-49148490D01*
X187185053Y-49542688D01*
X187600974Y-49714958D01*
X187833000Y-49593817D01*
X187833000Y-48387000D01*
X185547000Y-48387000D01*
X185293000Y-48387000D01*
X183007000Y-48387000D01*
X182753000Y-48387000D01*
X182733000Y-48387000D01*
X182733000Y-48133000D01*
X182753000Y-48133000D01*
X182753000Y-45847000D01*
X183007000Y-45847000D01*
X183007000Y-48133000D01*
X185293000Y-48133000D01*
X185293000Y-45847000D01*
X185547000Y-45847000D01*
X185547000Y-48133000D01*
X187833000Y-48133000D01*
X187833000Y-45847000D01*
X185547000Y-45847000D01*
X185293000Y-45847000D01*
X183007000Y-45847000D01*
X182753000Y-45847000D01*
X182733000Y-45847000D01*
X182733000Y-45593000D01*
X182753000Y-45593000D01*
X182753000Y-44386183D01*
X183007000Y-44386183D01*
X183007000Y-45593000D01*
X185293000Y-45593000D01*
X185293000Y-44386183D01*
X185547000Y-44386183D01*
X185547000Y-45593000D01*
X187833000Y-45593000D01*
X187833000Y-44386183D01*
X188087000Y-44386183D01*
X188087000Y-45593000D01*
X188107000Y-45593000D01*
X188107000Y-45847000D01*
X188087000Y-45847000D01*
X188087000Y-48133000D01*
X188107000Y-48133000D01*
X188107000Y-48387000D01*
X188087000Y-48387000D01*
X188087000Y-49593817D01*
X188319026Y-49714958D01*
X188734947Y-49542688D01*
X189166821Y-49148490D01*
X189218146Y-49038979D01*
X189419570Y-49340430D01*
X189915275Y-49671650D01*
X190352402Y-49758600D01*
X190647598Y-49758600D01*
X191084725Y-49671650D01*
X191580430Y-49340430D01*
X191911650Y-48844725D01*
X192027959Y-48260000D01*
X191911650Y-47675275D01*
X191585349Y-47186932D01*
X191611365Y-47181757D01*
X191821409Y-47041409D01*
X191961757Y-46831365D01*
X192011040Y-46583600D01*
X192011040Y-44856400D01*
X191961757Y-44608635D01*
X191821409Y-44398591D01*
X191611365Y-44258243D01*
X191363600Y-44208960D01*
X189636400Y-44208960D01*
X189388635Y-44258243D01*
X189178591Y-44398591D01*
X189038243Y-44608635D01*
X189020480Y-44697936D01*
X188734947Y-44437312D01*
X188319026Y-44265042D01*
X188087000Y-44386183D01*
X187833000Y-44386183D01*
X187600974Y-44265042D01*
X187185053Y-44437312D01*
X186753179Y-44831510D01*
X186690000Y-44966313D01*
X186626821Y-44831510D01*
X186194947Y-44437312D01*
X185779026Y-44265042D01*
X185547000Y-44386183D01*
X185293000Y-44386183D01*
X185060974Y-44265042D01*
X184645053Y-44437312D01*
X184213179Y-44831510D01*
X184150000Y-44966313D01*
X184086821Y-44831510D01*
X183654947Y-44437312D01*
X183239026Y-44265042D01*
X183007000Y-44386183D01*
X182753000Y-44386183D01*
X182520974Y-44265042D01*
X182105053Y-44437312D01*
X181673179Y-44831510D01*
X181621854Y-44941021D01*
X181420430Y-44639570D01*
X180924725Y-44308350D01*
X180487598Y-44221400D01*
X180192402Y-44221400D01*
X179755275Y-44308350D01*
X179259570Y-44639570D01*
X179070000Y-44923281D01*
X178880430Y-44639570D01*
X178384725Y-44308350D01*
X177947598Y-44221400D01*
X177652402Y-44221400D01*
X177215275Y-44308350D01*
X176719570Y-44639570D01*
X176530000Y-44923281D01*
X176340430Y-44639570D01*
X175844725Y-44308350D01*
X175407598Y-44221400D01*
X175112402Y-44221400D01*
X174675275Y-44308350D01*
X174179570Y-44639570D01*
X173990000Y-44923281D01*
X173800430Y-44639570D01*
X173304725Y-44308350D01*
X172867598Y-44221400D01*
X172572402Y-44221400D01*
X172135275Y-44308350D01*
X171639570Y-44639570D01*
X171308350Y-45135275D01*
X171192041Y-45720000D01*
X158991040Y-45720000D01*
X158991040Y-44856400D01*
X158941757Y-44608635D01*
X158801409Y-44398591D01*
X158591365Y-44258243D01*
X158343600Y-44208960D01*
X156616400Y-44208960D01*
X156368635Y-44258243D01*
X156158591Y-44398591D01*
X156018243Y-44608635D01*
X156000480Y-44697936D01*
X155714947Y-44437312D01*
X155299026Y-44265042D01*
X155067000Y-44386183D01*
X154813000Y-44386183D01*
X154580974Y-44265042D01*
X154165053Y-44437312D01*
X153733179Y-44831510D01*
X153670000Y-44966313D01*
X153606821Y-44831510D01*
X153174947Y-44437312D01*
X152759026Y-44265042D01*
X152527000Y-44386183D01*
X152273000Y-44386183D01*
X152040974Y-44265042D01*
X151625053Y-44437312D01*
X151193179Y-44831510D01*
X151130000Y-44966313D01*
X151066821Y-44831510D01*
X150634947Y-44437312D01*
X150219026Y-44265042D01*
X149987000Y-44386183D01*
X149733000Y-44386183D01*
X149500974Y-44265042D01*
X149085053Y-44437312D01*
X148653179Y-44831510D01*
X148601854Y-44941021D01*
X148400430Y-44639570D01*
X147904725Y-44308350D01*
X147467598Y-44221400D01*
X147172402Y-44221400D01*
X146735275Y-44308350D01*
X146239570Y-44639570D01*
X146050000Y-44923281D01*
X145860430Y-44639570D01*
X145364725Y-44308350D01*
X144927598Y-44221400D01*
X144632402Y-44221400D01*
X144195275Y-44308350D01*
X143699570Y-44639570D01*
X143510000Y-44923281D01*
X143320430Y-44639570D01*
X142824725Y-44308350D01*
X142387598Y-44221400D01*
X142092402Y-44221400D01*
X141655275Y-44308350D01*
X141159570Y-44639570D01*
X140970000Y-44923281D01*
X140780430Y-44639570D01*
X140284725Y-44308350D01*
X139847598Y-44221400D01*
X139552402Y-44221400D01*
X139115275Y-44308350D01*
X138619570Y-44639570D01*
X138288350Y-45135275D01*
X138172041Y-45720000D01*
X125971040Y-45720000D01*
X125971040Y-44856400D01*
X125921757Y-44608635D01*
X125781409Y-44398591D01*
X125571365Y-44258243D01*
X125323600Y-44208960D01*
X123596400Y-44208960D01*
X123348635Y-44258243D01*
X123138591Y-44398591D01*
X122998243Y-44608635D01*
X122980480Y-44697936D01*
X122694947Y-44437312D01*
X122279026Y-44265042D01*
X122047000Y-44386183D01*
X121793000Y-44386183D01*
X121560974Y-44265042D01*
X121145053Y-44437312D01*
X120713179Y-44831510D01*
X120650000Y-44966313D01*
X120586821Y-44831510D01*
X120154947Y-44437312D01*
X119739026Y-44265042D01*
X119507000Y-44386183D01*
X119253000Y-44386183D01*
X119020974Y-44265042D01*
X118605053Y-44437312D01*
X118173179Y-44831510D01*
X118110000Y-44966313D01*
X118046821Y-44831510D01*
X117614947Y-44437312D01*
X117199026Y-44265042D01*
X116967000Y-44386183D01*
X116713000Y-44386183D01*
X116480974Y-44265042D01*
X116065053Y-44437312D01*
X115633179Y-44831510D01*
X115581854Y-44941021D01*
X115380430Y-44639570D01*
X114884725Y-44308350D01*
X114447598Y-44221400D01*
X114152402Y-44221400D01*
X113715275Y-44308350D01*
X113219570Y-44639570D01*
X113030000Y-44923281D01*
X112840430Y-44639570D01*
X112344725Y-44308350D01*
X111907598Y-44221400D01*
X111612402Y-44221400D01*
X111175275Y-44308350D01*
X110679570Y-44639570D01*
X110490000Y-44923281D01*
X110300430Y-44639570D01*
X109804725Y-44308350D01*
X109367598Y-44221400D01*
X109072402Y-44221400D01*
X108635275Y-44308350D01*
X108139570Y-44639570D01*
X107950000Y-44923281D01*
X107760430Y-44639570D01*
X107264725Y-44308350D01*
X106827598Y-44221400D01*
X106532402Y-44221400D01*
X106095275Y-44308350D01*
X105599570Y-44639570D01*
X105268350Y-45135275D01*
X105152041Y-45720000D01*
X92951040Y-45720000D01*
X92951040Y-44856400D01*
X92901757Y-44608635D01*
X92761409Y-44398591D01*
X92551365Y-44258243D01*
X92303600Y-44208960D01*
X90576400Y-44208960D01*
X90328635Y-44258243D01*
X90118591Y-44398591D01*
X89978243Y-44608635D01*
X89960480Y-44697936D01*
X89674947Y-44437312D01*
X89259026Y-44265042D01*
X89027000Y-44386183D01*
X88773000Y-44386183D01*
X88540974Y-44265042D01*
X88125053Y-44437312D01*
X87693179Y-44831510D01*
X87630000Y-44966313D01*
X87566821Y-44831510D01*
X87134947Y-44437312D01*
X86719026Y-44265042D01*
X86487000Y-44386183D01*
X86233000Y-44386183D01*
X86000974Y-44265042D01*
X85585053Y-44437312D01*
X85153179Y-44831510D01*
X85090000Y-44966313D01*
X85026821Y-44831510D01*
X84594947Y-44437312D01*
X84179026Y-44265042D01*
X83947000Y-44386183D01*
X83693000Y-44386183D01*
X83460974Y-44265042D01*
X83045053Y-44437312D01*
X82613179Y-44831510D01*
X82561854Y-44941021D01*
X82360430Y-44639570D01*
X81864725Y-44308350D01*
X81427598Y-44221400D01*
X81132402Y-44221400D01*
X80695275Y-44308350D01*
X80199570Y-44639570D01*
X80010000Y-44923281D01*
X79820430Y-44639570D01*
X79324725Y-44308350D01*
X78887598Y-44221400D01*
X78592402Y-44221400D01*
X78155275Y-44308350D01*
X77659570Y-44639570D01*
X77470000Y-44923281D01*
X77280430Y-44639570D01*
X76784725Y-44308350D01*
X76347598Y-44221400D01*
X76052402Y-44221400D01*
X75615275Y-44308350D01*
X75119570Y-44639570D01*
X74930000Y-44923281D01*
X74740430Y-44639570D01*
X74244725Y-44308350D01*
X73807598Y-44221400D01*
X73512402Y-44221400D01*
X73075275Y-44308350D01*
X72579570Y-44639570D01*
X72248350Y-45135275D01*
X72132041Y-45720000D01*
X53112239Y-45720000D01*
X51397670Y-44005431D01*
X198425000Y-44005431D01*
X198425000Y-44894569D01*
X198765259Y-45716026D01*
X199393974Y-46344741D01*
X200215431Y-46685000D01*
X201104569Y-46685000D01*
X201926026Y-46344741D01*
X202554741Y-45716026D01*
X202895000Y-44894569D01*
X202895000Y-44005431D01*
X202554741Y-43183974D01*
X201926026Y-42555259D01*
X201104569Y-42215000D01*
X200215431Y-42215000D01*
X199393974Y-42555259D01*
X198765259Y-43183974D01*
X198425000Y-44005431D01*
X51397670Y-44005431D01*
X50799988Y-43407750D01*
X50708769Y-43271231D01*
X50167945Y-42909864D01*
X49691031Y-42815000D01*
X49691030Y-42815000D01*
X49530000Y-42782969D01*
X49368970Y-42815000D01*
X49208969Y-42815000D01*
X48732055Y-42909864D01*
X48191231Y-43271231D01*
X47829864Y-43812055D01*
X47702969Y-44450000D01*
X47829864Y-45087945D01*
X48191231Y-45628769D01*
X48732055Y-45990136D01*
X48764315Y-45996553D01*
X51908650Y-49140888D01*
X51941843Y-49307765D01*
X52082191Y-49517809D01*
X52292235Y-49658157D01*
X52526187Y-49704693D01*
X52511861Y-49752255D01*
X53340000Y-50580395D01*
X53354142Y-50566252D01*
X53533748Y-50745858D01*
X53519605Y-50760000D01*
X54347745Y-51588139D01*
X54593864Y-51514005D01*
X54786965Y-50976777D01*
X54759778Y-50406546D01*
X54593864Y-50005995D01*
X54347747Y-49931861D01*
X54384608Y-49895000D01*
X59915392Y-49895000D01*
X59952253Y-49931861D01*
X59706136Y-50005995D01*
X59513035Y-50543223D01*
X59540222Y-51113454D01*
X59706136Y-51514005D01*
X59952255Y-51588139D01*
X60780395Y-50760000D01*
X60766252Y-50745858D01*
X60945858Y-50566252D01*
X60960000Y-50580395D01*
X60974142Y-50566252D01*
X61153748Y-50745858D01*
X61139605Y-50760000D01*
X61967745Y-51588139D01*
X62213864Y-51514005D01*
X62406965Y-50976777D01*
X62379778Y-50406546D01*
X62213864Y-50005995D01*
X61967747Y-49931861D01*
X62004608Y-49895000D01*
X63082762Y-49895000D01*
X69110001Y-55922240D01*
X69110000Y-59153970D01*
X69077969Y-59315000D01*
X69110000Y-59476030D01*
X69204864Y-59952944D01*
X69566231Y-60493769D01*
X69702750Y-60584988D01*
X71120014Y-62002252D01*
X71211231Y-62138769D01*
X71752055Y-62500136D01*
X72228969Y-62595000D01*
X72228973Y-62595000D01*
X72389999Y-62627030D01*
X72551025Y-62595000D01*
X77378304Y-62595000D01*
X77199864Y-62862055D01*
X77072969Y-63500000D01*
X77199864Y-64137945D01*
X77378304Y-64405000D01*
X72551025Y-64405000D01*
X72389999Y-64372970D01*
X72228973Y-64405000D01*
X72228969Y-64405000D01*
X71752055Y-64499864D01*
X71211231Y-64861231D01*
X71120014Y-64997747D01*
X69337750Y-66780012D01*
X69201234Y-66871229D01*
X69110017Y-67007745D01*
X68839867Y-67412053D01*
X68760983Y-67808628D01*
X68542451Y-67481571D01*
X68667809Y-67397809D01*
X68808157Y-67187765D01*
X68857440Y-66940000D01*
X68857440Y-66641225D01*
X68977031Y-66040000D01*
X68857440Y-65438775D01*
X68857440Y-65140000D01*
X68808157Y-64892235D01*
X68667809Y-64682191D01*
X68457765Y-64541843D01*
X68210000Y-64492560D01*
X67911225Y-64492560D01*
X67471031Y-64405000D01*
X64571030Y-64405000D01*
X64410000Y-64372969D01*
X64248970Y-64405000D01*
X64248969Y-64405000D01*
X63772055Y-64499864D01*
X63231231Y-64861231D01*
X63140014Y-64997747D01*
X62395000Y-65742761D01*
X62395000Y-65113691D01*
X62298327Y-64880302D01*
X62119699Y-64701673D01*
X61886310Y-64605000D01*
X61245750Y-64605000D01*
X61087000Y-64763750D01*
X61087000Y-65913000D01*
X61107000Y-65913000D01*
X61107000Y-66167000D01*
X61087000Y-66167000D01*
X61087000Y-66187000D01*
X60833000Y-66187000D01*
X60833000Y-66167000D01*
X59683750Y-66167000D01*
X59525000Y-66325750D01*
X59525000Y-66905000D01*
X54775000Y-66905000D01*
X54775000Y-66325750D01*
X54616250Y-66167000D01*
X53467000Y-66167000D01*
X53467000Y-66187000D01*
X53213000Y-66187000D01*
X53213000Y-66167000D01*
X52063750Y-66167000D01*
X51905000Y-66325750D01*
X51905000Y-66966309D01*
X52001673Y-67199698D01*
X52162414Y-67360440D01*
X52161231Y-67361231D01*
X52070014Y-67497747D01*
X44677750Y-74890012D01*
X44541231Y-74981231D01*
X44369467Y-75238294D01*
X38100015Y-81507747D01*
X37829865Y-81912055D01*
X37702969Y-82550000D01*
X36525000Y-82550000D01*
X36525000Y-82105431D01*
X36184741Y-81283974D01*
X35556026Y-80655259D01*
X34734569Y-80315000D01*
X33845431Y-80315000D01*
X33023974Y-80655259D01*
X32395259Y-81283974D01*
X32055000Y-82105431D01*
X31190000Y-82105431D01*
X31190000Y-76200000D01*
X38972969Y-76200000D01*
X39005000Y-76361030D01*
X39005000Y-76525222D01*
X39067834Y-76676918D01*
X39099865Y-76837945D01*
X39191079Y-76974456D01*
X39253914Y-77126153D01*
X39370018Y-77242257D01*
X39461232Y-77378768D01*
X39597743Y-77469982D01*
X39713847Y-77586086D01*
X39865544Y-77648921D01*
X40002055Y-77740135D01*
X40163082Y-77772166D01*
X40314778Y-77835000D01*
X40478970Y-77835000D01*
X40640000Y-77867031D01*
X40801030Y-77835000D01*
X40965222Y-77835000D01*
X41116918Y-77772166D01*
X41277945Y-77740135D01*
X41414457Y-77648921D01*
X41566153Y-77586086D01*
X44222253Y-74929986D01*
X44358769Y-74838769D01*
X44720136Y-74297945D01*
X44815000Y-73821031D01*
X44815000Y-73821027D01*
X44847030Y-73660001D01*
X44815000Y-73498975D01*
X44815000Y-70420696D01*
X44827765Y-70418157D01*
X45037809Y-70277809D01*
X45178157Y-70067765D01*
X45227440Y-69820000D01*
X45227440Y-67020000D01*
X45178157Y-66772235D01*
X45037809Y-66562191D01*
X44827765Y-66421843D01*
X44580000Y-66372560D01*
X41780000Y-66372560D01*
X41532235Y-66421843D01*
X41322191Y-66562191D01*
X41181843Y-66772235D01*
X41132560Y-67020000D01*
X41132560Y-69820000D01*
X41181843Y-70067765D01*
X41322191Y-70277809D01*
X41532235Y-70418157D01*
X41545000Y-70420696D01*
X41545001Y-72982760D01*
X39253914Y-75273847D01*
X39191079Y-75425543D01*
X39099865Y-75562055D01*
X39067834Y-75723082D01*
X39005000Y-75874778D01*
X39005000Y-76038970D01*
X38972969Y-76200000D01*
X31190000Y-76200000D01*
X31190000Y-64861724D01*
X41917882Y-64861724D01*
X42065455Y-65170106D01*
X42820031Y-65463405D01*
X43629409Y-65445614D01*
X44294545Y-65170106D01*
X44321541Y-65113691D01*
X51905000Y-65113691D01*
X51905000Y-65754250D01*
X52063750Y-65913000D01*
X53213000Y-65913000D01*
X53213000Y-64763750D01*
X53467000Y-64763750D01*
X53467000Y-65913000D01*
X54616250Y-65913000D01*
X54775000Y-65754250D01*
X54775000Y-65113691D01*
X59525000Y-65113691D01*
X59525000Y-65754250D01*
X59683750Y-65913000D01*
X60833000Y-65913000D01*
X60833000Y-64763750D01*
X60674250Y-64605000D01*
X60033690Y-64605000D01*
X59800301Y-64701673D01*
X59621673Y-64880302D01*
X59525000Y-65113691D01*
X54775000Y-65113691D01*
X54678327Y-64880302D01*
X54499699Y-64701673D01*
X54266310Y-64605000D01*
X53625750Y-64605000D01*
X53467000Y-64763750D01*
X53213000Y-64763750D01*
X53054250Y-64605000D01*
X52413690Y-64605000D01*
X52180301Y-64701673D01*
X52001673Y-64880302D01*
X51905000Y-65113691D01*
X44321541Y-65113691D01*
X44442118Y-64861724D01*
X43180000Y-63599605D01*
X41917882Y-64861724D01*
X31190000Y-64861724D01*
X31190000Y-63060031D01*
X41136595Y-63060031D01*
X41154386Y-63869409D01*
X41429894Y-64534545D01*
X41738276Y-64682118D01*
X43000395Y-63420000D01*
X43359605Y-63420000D01*
X44621724Y-64682118D01*
X44930106Y-64534545D01*
X45223405Y-63779969D01*
X45205614Y-62970591D01*
X44930106Y-62305455D01*
X44621724Y-62157882D01*
X43359605Y-63420000D01*
X43000395Y-63420000D01*
X41738276Y-62157882D01*
X41429894Y-62305455D01*
X41136595Y-63060031D01*
X31190000Y-63060031D01*
X31190000Y-61978276D01*
X41917882Y-61978276D01*
X43180000Y-63240395D01*
X44442118Y-61978276D01*
X44417937Y-61927745D01*
X52511861Y-61927745D01*
X52585995Y-62173864D01*
X53123223Y-62366965D01*
X53693454Y-62339778D01*
X54094005Y-62173864D01*
X54168139Y-61927745D01*
X60131861Y-61927745D01*
X60205995Y-62173864D01*
X60743223Y-62366965D01*
X61313454Y-62339778D01*
X61714005Y-62173864D01*
X61788139Y-61927745D01*
X60960000Y-61099605D01*
X60131861Y-61927745D01*
X54168139Y-61927745D01*
X53340000Y-61099605D01*
X52511861Y-61927745D01*
X44417937Y-61927745D01*
X44294545Y-61669894D01*
X43539969Y-61376595D01*
X42730591Y-61394386D01*
X42065455Y-61669894D01*
X41917882Y-61978276D01*
X31190000Y-61978276D01*
X31190000Y-60703223D01*
X51893035Y-60703223D01*
X51920222Y-61273454D01*
X52086136Y-61674005D01*
X52332255Y-61748139D01*
X53160395Y-60920000D01*
X52332255Y-60091861D01*
X52086136Y-60165995D01*
X51893035Y-60703223D01*
X31190000Y-60703223D01*
X31190000Y-50790000D01*
X38972969Y-50790000D01*
X39005000Y-50951030D01*
X39005000Y-51115222D01*
X39067834Y-51266918D01*
X39099865Y-51427945D01*
X39191079Y-51564457D01*
X39253914Y-51716153D01*
X41545001Y-54007240D01*
X41545000Y-57177075D01*
X41454810Y-57267265D01*
X41145000Y-58015213D01*
X41145000Y-58824787D01*
X41454810Y-59572735D01*
X42027265Y-60145190D01*
X42775213Y-60455000D01*
X43584787Y-60455000D01*
X44332735Y-60145190D01*
X44905190Y-59572735D01*
X45215000Y-58824787D01*
X45215000Y-58015213D01*
X44905190Y-57267265D01*
X44815000Y-57177075D01*
X44815000Y-53491025D01*
X44847030Y-53329999D01*
X44815000Y-53168973D01*
X44815000Y-53168969D01*
X44720136Y-52692055D01*
X44358769Y-52151231D01*
X44222253Y-52060014D01*
X41566153Y-49403914D01*
X41414457Y-49341079D01*
X41277945Y-49249865D01*
X41116918Y-49217834D01*
X40965222Y-49155000D01*
X40801030Y-49155000D01*
X40640000Y-49122969D01*
X40478970Y-49155000D01*
X40314778Y-49155000D01*
X40163082Y-49217834D01*
X40002055Y-49249865D01*
X39865544Y-49341079D01*
X39713847Y-49403914D01*
X39597743Y-49520018D01*
X39461232Y-49611232D01*
X39370018Y-49747743D01*
X39253914Y-49863847D01*
X39191079Y-50015544D01*
X39099865Y-50152055D01*
X39067834Y-50313082D01*
X39005000Y-50464778D01*
X39005000Y-50628970D01*
X38972969Y-50790000D01*
X31190000Y-50790000D01*
X31190000Y-44005431D01*
X32055000Y-44005431D01*
X32055000Y-44894569D01*
X32395259Y-45716026D01*
X33023974Y-46344741D01*
X33845431Y-46685000D01*
X34734569Y-46685000D01*
X35556026Y-46344741D01*
X36184741Y-45716026D01*
X36525000Y-44894569D01*
X36525000Y-44450000D01*
X37702969Y-44450000D01*
X37829865Y-45087945D01*
X38100015Y-45492253D01*
X44333914Y-51726153D01*
X44793847Y-52186086D01*
X44793849Y-52186087D01*
X51908650Y-59300889D01*
X51941843Y-59467765D01*
X52082191Y-59677809D01*
X52292235Y-59818157D01*
X52526187Y-59864693D01*
X52511861Y-59912255D01*
X53340000Y-60740395D01*
X53354142Y-60726252D01*
X53533748Y-60905858D01*
X53519605Y-60920000D01*
X54347745Y-61748139D01*
X54593864Y-61674005D01*
X54786965Y-61136777D01*
X54759778Y-60566546D01*
X54593864Y-60165995D01*
X54347747Y-60091861D01*
X54384608Y-60055000D01*
X59915392Y-60055000D01*
X59952253Y-60091861D01*
X59706136Y-60165995D01*
X59513035Y-60703223D01*
X59540222Y-61273454D01*
X59706136Y-61674005D01*
X59952255Y-61748139D01*
X60780395Y-60920000D01*
X61139605Y-60920000D01*
X61967745Y-61748139D01*
X62213864Y-61674005D01*
X62367795Y-61245750D01*
X65775000Y-61245750D01*
X65775000Y-61986309D01*
X65871673Y-62219698D01*
X66050301Y-62398327D01*
X66283690Y-62495000D01*
X67024250Y-62495000D01*
X67183000Y-62336250D01*
X67183000Y-61087000D01*
X67437000Y-61087000D01*
X67437000Y-62336250D01*
X67595750Y-62495000D01*
X68336310Y-62495000D01*
X68569699Y-62398327D01*
X68748327Y-62219698D01*
X68845000Y-61986309D01*
X68845000Y-61245750D01*
X68686250Y-61087000D01*
X67437000Y-61087000D01*
X67183000Y-61087000D01*
X65933750Y-61087000D01*
X65775000Y-61245750D01*
X62367795Y-61245750D01*
X62406965Y-61136777D01*
X62379778Y-60566546D01*
X62213864Y-60165995D01*
X61967745Y-60091861D01*
X61139605Y-60920000D01*
X60780395Y-60920000D01*
X60766252Y-60905858D01*
X60945858Y-60726252D01*
X60960000Y-60740395D01*
X61788139Y-59912255D01*
X61773813Y-59864693D01*
X62007765Y-59818157D01*
X62217809Y-59677809D01*
X62358157Y-59467765D01*
X62407440Y-59220000D01*
X62407440Y-59196674D01*
X62500136Y-59057945D01*
X62627031Y-58420000D01*
X62500136Y-57782054D01*
X62407440Y-57643325D01*
X62407440Y-57620000D01*
X62358157Y-57372235D01*
X62217809Y-57162191D01*
X62007765Y-57021843D01*
X61840888Y-56988650D01*
X59462238Y-54610000D01*
X61832969Y-54610000D01*
X61959865Y-55247945D01*
X62230015Y-55652253D01*
X66085043Y-59507282D01*
X66050301Y-59521673D01*
X65871673Y-59700302D01*
X65775000Y-59933691D01*
X65775000Y-60674250D01*
X65933750Y-60833000D01*
X67183000Y-60833000D01*
X67183000Y-60813000D01*
X67437000Y-60813000D01*
X67437000Y-60833000D01*
X68686250Y-60833000D01*
X68845000Y-60674250D01*
X68845000Y-59933691D01*
X68748327Y-59700302D01*
X68569699Y-59521673D01*
X68546660Y-59512130D01*
X68850136Y-59057945D01*
X68977031Y-58420000D01*
X68850136Y-57782054D01*
X68579985Y-57377746D01*
X64542253Y-53340015D01*
X64137945Y-53069865D01*
X63500000Y-52942969D01*
X62862055Y-53069865D01*
X62321232Y-53431232D01*
X61959865Y-53972055D01*
X61832969Y-54610000D01*
X59462238Y-54610000D01*
X58419988Y-53567750D01*
X58328769Y-53431231D01*
X57787945Y-53069864D01*
X57311031Y-52975000D01*
X57311030Y-52975000D01*
X57150000Y-52942969D01*
X56988970Y-52975000D01*
X53178969Y-52975000D01*
X52702055Y-53069864D01*
X52161231Y-53431231D01*
X51799864Y-53972055D01*
X51701053Y-54468814D01*
X48999984Y-51767745D01*
X52511861Y-51767745D01*
X52585995Y-52013864D01*
X53123223Y-52206965D01*
X53693454Y-52179778D01*
X54094005Y-52013864D01*
X54168139Y-51767745D01*
X60131861Y-51767745D01*
X60205995Y-52013864D01*
X60743223Y-52206965D01*
X61313454Y-52179778D01*
X61714005Y-52013864D01*
X61788139Y-51767745D01*
X60960000Y-50939605D01*
X60131861Y-51767745D01*
X54168139Y-51767745D01*
X53340000Y-50939605D01*
X52511861Y-51767745D01*
X48999984Y-51767745D01*
X47775462Y-50543223D01*
X51893035Y-50543223D01*
X51920222Y-51113454D01*
X52086136Y-51514005D01*
X52332255Y-51588139D01*
X53160395Y-50760000D01*
X52332255Y-49931861D01*
X52086136Y-50005995D01*
X51893035Y-50543223D01*
X47775462Y-50543223D01*
X47106087Y-49873849D01*
X47106086Y-49873847D01*
X46646153Y-49413914D01*
X40412253Y-43180015D01*
X40007945Y-42909865D01*
X39370000Y-42782969D01*
X38732055Y-42909865D01*
X38191232Y-43271232D01*
X37829865Y-43812055D01*
X37702969Y-44450000D01*
X36525000Y-44450000D01*
X36525000Y-44005431D01*
X36184741Y-43183974D01*
X35556026Y-42555259D01*
X34734569Y-42215000D01*
X33845431Y-42215000D01*
X33023974Y-42555259D01*
X32395259Y-43183974D01*
X32055000Y-44005431D01*
X31190000Y-44005431D01*
X31190000Y-41350000D01*
X203760000Y-41350000D01*
X203760001Y-85650000D01*
G04 #@! TD*
M02*
