G04 #@! TF.GenerationSoftware,KiCad,Pcbnew,5.0.2-bee76a0~70~ubuntu18.04.1*
G04 #@! TF.CreationDate,2019-05-10T17:39:33+10:00*
G04 #@! TF.ProjectId,busboard,62757362-6f61-4726-942e-6b696361645f,rev?*
G04 #@! TF.SameCoordinates,Original*
G04 #@! TF.FileFunction,Copper,L1,Top*
G04 #@! TF.FilePolarity,Positive*
%FSLAX46Y46*%
G04 Gerber Fmt 4.6, Leading zero omitted, Abs format (unit mm)*
G04 Created by KiCad (PCBNEW 5.0.2-bee76a0~70~ubuntu18.04.1) date Fri 10 May 2019 17:39:33 AEST*
%MOMM*%
%LPD*%
G01*
G04 APERTURE LIST*
G04 #@! TA.AperFunction,ComponentPad*
%ADD10O,1.600000X1.600000*%
G04 #@! TD*
G04 #@! TA.AperFunction,ComponentPad*
%ADD11C,1.600000*%
G04 #@! TD*
G04 #@! TA.AperFunction,ComponentPad*
%ADD12R,1.600000X1.600000*%
G04 #@! TD*
G04 #@! TA.AperFunction,ComponentPad*
%ADD13R,2.800000X2.800000*%
G04 #@! TD*
G04 #@! TA.AperFunction,ComponentPad*
%ADD14C,2.800000*%
G04 #@! TD*
G04 #@! TA.AperFunction,ComponentPad*
%ADD15R,1.727200X1.727200*%
G04 #@! TD*
G04 #@! TA.AperFunction,ComponentPad*
%ADD16O,1.727200X1.727200*%
G04 #@! TD*
G04 #@! TA.AperFunction,ComponentPad*
%ADD17C,2.000000*%
G04 #@! TD*
G04 #@! TA.AperFunction,ComponentPad*
%ADD18R,1.800000X1.800000*%
G04 #@! TD*
G04 #@! TA.AperFunction,ComponentPad*
%ADD19C,1.800000*%
G04 #@! TD*
G04 #@! TA.AperFunction,ViaPad*
%ADD20C,0.800000*%
G04 #@! TD*
G04 #@! TA.AperFunction,Conductor*
%ADD21C,2.000000*%
G04 #@! TD*
G04 #@! TA.AperFunction,Conductor*
%ADD22C,0.250000*%
G04 #@! TD*
G04 #@! TA.AperFunction,Conductor*
%ADD23C,0.254000*%
G04 #@! TD*
G04 APERTURE END LIST*
D10*
G04 #@! TO.P,L2,2*
G04 #@! TO.N,Net-(C2-Pad2)*
X39370000Y-82550000D03*
D11*
G04 #@! TO.P,L2,1*
G04 #@! TO.N,-12V*
X49370000Y-82550000D03*
G04 #@! TD*
G04 #@! TO.P,C7,2*
G04 #@! TO.N,GND*
X60960000Y-50760000D03*
D12*
G04 #@! TO.P,C7,1*
G04 #@! TO.N,+12V*
X60960000Y-48260000D03*
G04 #@! TD*
G04 #@! TO.P,C5,1*
G04 #@! TO.N,+12V*
X53340000Y-48260000D03*
D11*
G04 #@! TO.P,C5,2*
G04 #@! TO.N,GND*
X53340000Y-50760000D03*
G04 #@! TD*
G04 #@! TO.P,C6,2*
G04 #@! TO.N,-12V*
X53340000Y-78740000D03*
D12*
G04 #@! TO.P,C6,1*
G04 #@! TO.N,GND*
X53340000Y-76240000D03*
G04 #@! TD*
D13*
G04 #@! TO.P,J1,1*
G04 #@! TO.N,Net-(F1-Pad2)*
X43180000Y-68420000D03*
D14*
G04 #@! TO.P,J1,2*
G04 #@! TO.N,GND*
X43180000Y-63420000D03*
G04 #@! TO.P,J1,3*
G04 #@! TO.N,Net-(F2-Pad2)*
X43180000Y-58420000D03*
G04 #@! TD*
D15*
G04 #@! TO.P,J2,1*
G04 #@! TO.N,-12V*
X91440000Y-45720000D03*
D16*
G04 #@! TO.P,J2,2*
X91440000Y-48260000D03*
G04 #@! TO.P,J2,3*
G04 #@! TO.N,GND*
X88900000Y-45720000D03*
G04 #@! TO.P,J2,4*
X88900000Y-48260000D03*
G04 #@! TO.P,J2,5*
X86360000Y-45720000D03*
G04 #@! TO.P,J2,6*
X86360000Y-48260000D03*
G04 #@! TO.P,J2,7*
X83820000Y-45720000D03*
G04 #@! TO.P,J2,8*
X83820000Y-48260000D03*
G04 #@! TO.P,J2,9*
G04 #@! TO.N,+12V*
X81280000Y-45720000D03*
G04 #@! TO.P,J2,10*
X81280000Y-48260000D03*
G04 #@! TO.P,J2,11*
G04 #@! TO.N,Net-(J2-Pad11)*
X78740000Y-45720000D03*
G04 #@! TO.P,J2,12*
X78740000Y-48260000D03*
G04 #@! TO.P,J2,13*
G04 #@! TO.N,Net-(J2-Pad13)*
X76200000Y-45720000D03*
G04 #@! TO.P,J2,14*
X76200000Y-48260000D03*
G04 #@! TO.P,J2,15*
G04 #@! TO.N,Net-(J2-Pad15)*
X73660000Y-45720000D03*
G04 #@! TO.P,J2,16*
X73660000Y-48260000D03*
G04 #@! TD*
G04 #@! TO.P,J8,16*
G04 #@! TO.N,Net-(J2-Pad15)*
X139700000Y-81280000D03*
G04 #@! TO.P,J8,15*
X139700000Y-78740000D03*
G04 #@! TO.P,J8,14*
G04 #@! TO.N,Net-(J2-Pad13)*
X142240000Y-81280000D03*
G04 #@! TO.P,J8,13*
X142240000Y-78740000D03*
G04 #@! TO.P,J8,12*
G04 #@! TO.N,Net-(J2-Pad11)*
X144780000Y-81280000D03*
G04 #@! TO.P,J8,11*
X144780000Y-78740000D03*
G04 #@! TO.P,J8,10*
G04 #@! TO.N,+12V*
X147320000Y-81280000D03*
G04 #@! TO.P,J8,9*
X147320000Y-78740000D03*
G04 #@! TO.P,J8,8*
G04 #@! TO.N,GND*
X149860000Y-81280000D03*
G04 #@! TO.P,J8,7*
X149860000Y-78740000D03*
G04 #@! TO.P,J8,6*
X152400000Y-81280000D03*
G04 #@! TO.P,J8,5*
X152400000Y-78740000D03*
G04 #@! TO.P,J8,4*
X154940000Y-81280000D03*
G04 #@! TO.P,J8,3*
X154940000Y-78740000D03*
G04 #@! TO.P,J8,2*
G04 #@! TO.N,-12V*
X157480000Y-81280000D03*
D15*
G04 #@! TO.P,J8,1*
X157480000Y-78740000D03*
G04 #@! TD*
D16*
G04 #@! TO.P,J7,16*
G04 #@! TO.N,Net-(J2-Pad15)*
X106680000Y-81280000D03*
G04 #@! TO.P,J7,15*
X106680000Y-78740000D03*
G04 #@! TO.P,J7,14*
G04 #@! TO.N,Net-(J2-Pad13)*
X109220000Y-81280000D03*
G04 #@! TO.P,J7,13*
X109220000Y-78740000D03*
G04 #@! TO.P,J7,12*
G04 #@! TO.N,Net-(J2-Pad11)*
X111760000Y-81280000D03*
G04 #@! TO.P,J7,11*
X111760000Y-78740000D03*
G04 #@! TO.P,J7,10*
G04 #@! TO.N,+12V*
X114300000Y-81280000D03*
G04 #@! TO.P,J7,9*
X114300000Y-78740000D03*
G04 #@! TO.P,J7,8*
G04 #@! TO.N,GND*
X116840000Y-81280000D03*
G04 #@! TO.P,J7,7*
X116840000Y-78740000D03*
G04 #@! TO.P,J7,6*
X119380000Y-81280000D03*
G04 #@! TO.P,J7,5*
X119380000Y-78740000D03*
G04 #@! TO.P,J7,4*
X121920000Y-81280000D03*
G04 #@! TO.P,J7,3*
X121920000Y-78740000D03*
G04 #@! TO.P,J7,2*
G04 #@! TO.N,-12V*
X124460000Y-81280000D03*
D15*
G04 #@! TO.P,J7,1*
X124460000Y-78740000D03*
G04 #@! TD*
G04 #@! TO.P,J6,1*
G04 #@! TO.N,-12V*
X91440000Y-78740000D03*
D16*
G04 #@! TO.P,J6,2*
X91440000Y-81280000D03*
G04 #@! TO.P,J6,3*
G04 #@! TO.N,GND*
X88900000Y-78740000D03*
G04 #@! TO.P,J6,4*
X88900000Y-81280000D03*
G04 #@! TO.P,J6,5*
X86360000Y-78740000D03*
G04 #@! TO.P,J6,6*
X86360000Y-81280000D03*
G04 #@! TO.P,J6,7*
X83820000Y-78740000D03*
G04 #@! TO.P,J6,8*
X83820000Y-81280000D03*
G04 #@! TO.P,J6,9*
G04 #@! TO.N,+12V*
X81280000Y-78740000D03*
G04 #@! TO.P,J6,10*
X81280000Y-81280000D03*
G04 #@! TO.P,J6,11*
G04 #@! TO.N,Net-(J2-Pad11)*
X78740000Y-78740000D03*
G04 #@! TO.P,J6,12*
X78740000Y-81280000D03*
G04 #@! TO.P,J6,13*
G04 #@! TO.N,Net-(J2-Pad13)*
X76200000Y-78740000D03*
G04 #@! TO.P,J6,14*
X76200000Y-81280000D03*
G04 #@! TO.P,J6,15*
G04 #@! TO.N,Net-(J2-Pad15)*
X73660000Y-78740000D03*
G04 #@! TO.P,J6,16*
X73660000Y-81280000D03*
G04 #@! TD*
G04 #@! TO.P,J5,16*
G04 #@! TO.N,Net-(J2-Pad15)*
X172720000Y-48260000D03*
G04 #@! TO.P,J5,15*
X172720000Y-45720000D03*
G04 #@! TO.P,J5,14*
G04 #@! TO.N,Net-(J2-Pad13)*
X175260000Y-48260000D03*
G04 #@! TO.P,J5,13*
X175260000Y-45720000D03*
G04 #@! TO.P,J5,12*
G04 #@! TO.N,Net-(J2-Pad11)*
X177800000Y-48260000D03*
G04 #@! TO.P,J5,11*
X177800000Y-45720000D03*
G04 #@! TO.P,J5,10*
G04 #@! TO.N,+12V*
X180340000Y-48260000D03*
G04 #@! TO.P,J5,9*
X180340000Y-45720000D03*
G04 #@! TO.P,J5,8*
G04 #@! TO.N,GND*
X182880000Y-48260000D03*
G04 #@! TO.P,J5,7*
X182880000Y-45720000D03*
G04 #@! TO.P,J5,6*
X185420000Y-48260000D03*
G04 #@! TO.P,J5,5*
X185420000Y-45720000D03*
G04 #@! TO.P,J5,4*
X187960000Y-48260000D03*
G04 #@! TO.P,J5,3*
X187960000Y-45720000D03*
G04 #@! TO.P,J5,2*
G04 #@! TO.N,-12V*
X190500000Y-48260000D03*
D15*
G04 #@! TO.P,J5,1*
X190500000Y-45720000D03*
G04 #@! TD*
G04 #@! TO.P,J4,1*
G04 #@! TO.N,-12V*
X157480000Y-45720000D03*
D16*
G04 #@! TO.P,J4,2*
X157480000Y-48260000D03*
G04 #@! TO.P,J4,3*
G04 #@! TO.N,GND*
X154940000Y-45720000D03*
G04 #@! TO.P,J4,4*
X154940000Y-48260000D03*
G04 #@! TO.P,J4,5*
X152400000Y-45720000D03*
G04 #@! TO.P,J4,6*
X152400000Y-48260000D03*
G04 #@! TO.P,J4,7*
X149860000Y-45720000D03*
G04 #@! TO.P,J4,8*
X149860000Y-48260000D03*
G04 #@! TO.P,J4,9*
G04 #@! TO.N,+12V*
X147320000Y-45720000D03*
G04 #@! TO.P,J4,10*
X147320000Y-48260000D03*
G04 #@! TO.P,J4,11*
G04 #@! TO.N,Net-(J2-Pad11)*
X144780000Y-45720000D03*
G04 #@! TO.P,J4,12*
X144780000Y-48260000D03*
G04 #@! TO.P,J4,13*
G04 #@! TO.N,Net-(J2-Pad13)*
X142240000Y-45720000D03*
G04 #@! TO.P,J4,14*
X142240000Y-48260000D03*
G04 #@! TO.P,J4,15*
G04 #@! TO.N,Net-(J2-Pad15)*
X139700000Y-45720000D03*
G04 #@! TO.P,J4,16*
X139700000Y-48260000D03*
G04 #@! TD*
G04 #@! TO.P,J3,16*
G04 #@! TO.N,Net-(J2-Pad15)*
X106680000Y-48260000D03*
G04 #@! TO.P,J3,15*
X106680000Y-45720000D03*
G04 #@! TO.P,J3,14*
G04 #@! TO.N,Net-(J2-Pad13)*
X109220000Y-48260000D03*
G04 #@! TO.P,J3,13*
X109220000Y-45720000D03*
G04 #@! TO.P,J3,12*
G04 #@! TO.N,Net-(J2-Pad11)*
X111760000Y-48260000D03*
G04 #@! TO.P,J3,11*
X111760000Y-45720000D03*
G04 #@! TO.P,J3,10*
G04 #@! TO.N,+12V*
X114300000Y-48260000D03*
G04 #@! TO.P,J3,9*
X114300000Y-45720000D03*
G04 #@! TO.P,J3,8*
G04 #@! TO.N,GND*
X116840000Y-48260000D03*
G04 #@! TO.P,J3,7*
X116840000Y-45720000D03*
G04 #@! TO.P,J3,6*
X119380000Y-48260000D03*
G04 #@! TO.P,J3,5*
X119380000Y-45720000D03*
G04 #@! TO.P,J3,4*
X121920000Y-48260000D03*
G04 #@! TO.P,J3,3*
X121920000Y-45720000D03*
G04 #@! TO.P,J3,2*
G04 #@! TO.N,-12V*
X124460000Y-48260000D03*
D15*
G04 #@! TO.P,J3,1*
X124460000Y-45720000D03*
G04 #@! TD*
G04 #@! TO.P,J9,1*
G04 #@! TO.N,-12V*
X190500000Y-78740000D03*
D16*
G04 #@! TO.P,J9,2*
X190500000Y-81280000D03*
G04 #@! TO.P,J9,3*
G04 #@! TO.N,GND*
X187960000Y-78740000D03*
G04 #@! TO.P,J9,4*
X187960000Y-81280000D03*
G04 #@! TO.P,J9,5*
X185420000Y-78740000D03*
G04 #@! TO.P,J9,6*
X185420000Y-81280000D03*
G04 #@! TO.P,J9,7*
X182880000Y-78740000D03*
G04 #@! TO.P,J9,8*
X182880000Y-81280000D03*
G04 #@! TO.P,J9,9*
G04 #@! TO.N,+12V*
X180340000Y-78740000D03*
G04 #@! TO.P,J9,10*
X180340000Y-81280000D03*
G04 #@! TO.P,J9,11*
G04 #@! TO.N,Net-(J2-Pad11)*
X177800000Y-78740000D03*
G04 #@! TO.P,J9,12*
X177800000Y-81280000D03*
G04 #@! TO.P,J9,13*
G04 #@! TO.N,Net-(J2-Pad13)*
X175260000Y-78740000D03*
G04 #@! TO.P,J9,14*
X175260000Y-81280000D03*
G04 #@! TO.P,J9,15*
G04 #@! TO.N,Net-(J2-Pad15)*
X172720000Y-78740000D03*
G04 #@! TO.P,J9,16*
X172720000Y-81280000D03*
G04 #@! TD*
D12*
G04 #@! TO.P,C3,1*
G04 #@! TO.N,Net-(C1-Pad1)*
X60960000Y-58420000D03*
D11*
G04 #@! TO.P,C3,2*
G04 #@! TO.N,GND*
X60960000Y-60920000D03*
G04 #@! TD*
G04 #@! TO.P,C4,2*
G04 #@! TO.N,Net-(C2-Pad2)*
X60960000Y-68540000D03*
D12*
G04 #@! TO.P,C4,1*
G04 #@! TO.N,GND*
X60960000Y-66040000D03*
G04 #@! TD*
D11*
G04 #@! TO.P,C8,2*
G04 #@! TO.N,-12V*
X60960000Y-78740000D03*
D12*
G04 #@! TO.P,C8,1*
G04 #@! TO.N,GND*
X60960000Y-76240000D03*
G04 #@! TD*
G04 #@! TO.P,C2,1*
G04 #@! TO.N,GND*
X53340000Y-66040000D03*
D11*
G04 #@! TO.P,C2,2*
G04 #@! TO.N,Net-(C2-Pad2)*
X53340000Y-68540000D03*
G04 #@! TD*
G04 #@! TO.P,C1,2*
G04 #@! TO.N,GND*
X53340000Y-60920000D03*
D12*
G04 #@! TO.P,C1,1*
G04 #@! TO.N,Net-(C1-Pad1)*
X53340000Y-58420000D03*
G04 #@! TD*
D17*
G04 #@! TO.P,F2,2*
G04 #@! TO.N,Net-(F2-Pad2)*
X40640000Y-50790000D03*
G04 #@! TO.P,F2,1*
G04 #@! TO.N,Net-(C1-Pad1)*
X45720000Y-50800000D03*
G04 #@! TD*
G04 #@! TO.P,F1,1*
G04 #@! TO.N,Net-(C2-Pad2)*
X45720000Y-76210000D03*
G04 #@! TO.P,F1,2*
G04 #@! TO.N,Net-(F1-Pad2)*
X40640000Y-76200000D03*
G04 #@! TD*
D10*
G04 #@! TO.P,L1,2*
G04 #@! TO.N,Net-(C1-Pad1)*
X39370000Y-44450000D03*
D11*
G04 #@! TO.P,L1,1*
G04 #@! TO.N,+12V*
X49370000Y-44450000D03*
G04 #@! TD*
D18*
G04 #@! TO.P,D2,1*
G04 #@! TO.N,Net-(C2-Pad2)*
X67310000Y-66040000D03*
D19*
G04 #@! TO.P,D2,2*
G04 #@! TO.N,Net-(D2-Pad2)*
X67310000Y-68580000D03*
G04 #@! TD*
D18*
G04 #@! TO.P,D1,1*
G04 #@! TO.N,GND*
X67310000Y-60960000D03*
D19*
G04 #@! TO.P,D1,2*
G04 #@! TO.N,Net-(D1-Pad2)*
X67310000Y-58420000D03*
G04 #@! TD*
D10*
G04 #@! TO.P,R1,2*
G04 #@! TO.N,Net-(C1-Pad1)*
X53340000Y-54610000D03*
D11*
G04 #@! TO.P,R1,1*
G04 #@! TO.N,Net-(D1-Pad2)*
X63500000Y-54610000D03*
G04 #@! TD*
G04 #@! TO.P,R2,1*
G04 #@! TO.N,Net-(D2-Pad2)*
X63500000Y-72390000D03*
D10*
G04 #@! TO.P,R2,2*
G04 #@! TO.N,GND*
X53340000Y-72390000D03*
G04 #@! TD*
D20*
G04 #@! TO.N,GND*
X53340000Y-43180000D03*
X195580000Y-43180000D03*
X195580000Y-83820000D03*
X182880000Y-83820000D03*
X170180000Y-83820000D03*
X154940000Y-83820000D03*
X142240000Y-83820000D03*
X129540000Y-83820000D03*
X116840000Y-83820000D03*
X104140000Y-83820000D03*
X91440000Y-83820000D03*
X66040000Y-83820000D03*
X53340000Y-83820000D03*
X66040000Y-43180000D03*
X78740000Y-43180000D03*
X91440000Y-43180000D03*
X104140000Y-43180000D03*
X116840000Y-43180000D03*
X129540000Y-43180000D03*
X142240000Y-43180000D03*
X154940000Y-43180000D03*
X170180000Y-43180000D03*
X182880000Y-43180000D03*
X38100000Y-50800000D03*
X38100000Y-76200000D03*
X203200000Y-63500000D03*
X203200000Y-76200000D03*
X203200000Y-50800000D03*
X31750000Y-63500000D03*
X31750000Y-52070000D03*
X31750000Y-76200000D03*
G04 #@! TO.N,+12V*
X180340000Y-60960000D03*
X147320000Y-60960000D03*
X114300000Y-60960000D03*
X81280000Y-60960000D03*
G04 #@! TO.N,-12V*
X190500000Y-66040000D03*
X157480000Y-66040000D03*
X124460000Y-66040000D03*
X91440000Y-66040000D03*
G04 #@! TO.N,Net-(J2-Pad13)*
X76200000Y-53340000D03*
X175260000Y-53340000D03*
X142240000Y-53340000D03*
X109220000Y-53340000D03*
G04 #@! TO.N,Net-(J2-Pad15)*
X73660000Y-73660000D03*
X172720000Y-73660000D03*
X139700000Y-73660000D03*
X106680000Y-73660000D03*
G04 #@! TO.N,Net-(J2-Pad11)*
X78740000Y-83820000D03*
X78740000Y-63500000D03*
X177800000Y-63500000D03*
X144780000Y-63500000D03*
X111760000Y-63500000D03*
G04 #@! TD*
D21*
G04 #@! TO.N,+12V*
X81280000Y-81280000D02*
X81280000Y-45720000D01*
X114300000Y-81280000D02*
X114300000Y-45720000D01*
X147320000Y-81280000D02*
X147320000Y-45720000D01*
X180340000Y-81280000D02*
X180340000Y-45720000D01*
G04 #@! TO.N,-12V*
X91440000Y-81280000D02*
X91440000Y-45720000D01*
X124460000Y-45720000D02*
X124460000Y-81280000D01*
X157480000Y-45720000D02*
X157480000Y-81280000D01*
X190500000Y-81280000D02*
X190500000Y-66040000D01*
X190500000Y-66040000D02*
X190500000Y-45720000D01*
D22*
G04 #@! TO.N,Net-(J2-Pad13)*
X109220000Y-45720000D02*
X109220000Y-53340000D01*
X142240000Y-81280000D02*
X142240000Y-53340000D01*
X175260000Y-45720000D02*
X175260000Y-81280000D01*
X76200000Y-53340000D02*
X76200000Y-45720000D01*
X76200000Y-81280000D02*
X76200000Y-53340000D01*
X142240000Y-53340000D02*
X142240000Y-45720000D01*
X109220000Y-53340000D02*
X109220000Y-81280000D01*
G04 #@! TO.N,Net-(J2-Pad15)*
X106680000Y-81280000D02*
X106680000Y-73660000D01*
X139700000Y-45720000D02*
X139700000Y-73660000D01*
X172720000Y-81280000D02*
X172720000Y-45720000D01*
X73660000Y-73660000D02*
X73660000Y-81280000D01*
X73660000Y-45720000D02*
X73660000Y-73660000D01*
X139700000Y-73660000D02*
X139700000Y-81280000D01*
X106680000Y-73660000D02*
X106680000Y-45720000D01*
D21*
G04 #@! TO.N,Net-(J2-Pad11)*
X177800000Y-81280000D02*
X177800000Y-45720000D01*
X144780000Y-45720000D02*
X144780000Y-63500000D01*
X111760000Y-81280000D02*
X111760000Y-63500000D01*
X78740000Y-63500000D02*
X78740000Y-81280000D01*
X78740000Y-45720000D02*
X78740000Y-63500000D01*
X144780000Y-63500000D02*
X144780000Y-81280000D01*
X111760000Y-63500000D02*
X111760000Y-45720000D01*
G04 #@! TD*
D23*
G04 #@! TO.N,GND*
G36*
X203760001Y-85650000D02*
X31190000Y-85650000D01*
X31190000Y-82105431D01*
X32055000Y-82105431D01*
X32055000Y-82994569D01*
X32395259Y-83816026D01*
X33023974Y-84444741D01*
X33845431Y-84785000D01*
X34734569Y-84785000D01*
X35556026Y-84444741D01*
X36184741Y-83816026D01*
X36525000Y-82994569D01*
X36525000Y-82550000D01*
X37906887Y-82550000D01*
X38018260Y-83109909D01*
X38335423Y-83584577D01*
X38810091Y-83901740D01*
X39228667Y-83985000D01*
X39511333Y-83985000D01*
X39929909Y-83901740D01*
X40404577Y-83584577D01*
X40721740Y-83109909D01*
X40833113Y-82550000D01*
X40776336Y-82264561D01*
X47935000Y-82264561D01*
X47935000Y-82835439D01*
X48153466Y-83362862D01*
X48557138Y-83766534D01*
X49084561Y-83985000D01*
X49655439Y-83985000D01*
X50182862Y-83766534D01*
X50586534Y-83362862D01*
X50805000Y-82835439D01*
X50805000Y-82264561D01*
X50586534Y-81737138D01*
X50182862Y-81333466D01*
X49655439Y-81115000D01*
X49084561Y-81115000D01*
X48557138Y-81333466D01*
X48153466Y-81737138D01*
X47935000Y-82264561D01*
X40776336Y-82264561D01*
X40721740Y-81990091D01*
X40404577Y-81515423D01*
X39929909Y-81198260D01*
X39511333Y-81115000D01*
X39228667Y-81115000D01*
X38810091Y-81198260D01*
X38335423Y-81515423D01*
X38018260Y-81990091D01*
X37906887Y-82550000D01*
X36525000Y-82550000D01*
X36525000Y-82105431D01*
X36184741Y-81283974D01*
X35556026Y-80655259D01*
X34734569Y-80315000D01*
X33845431Y-80315000D01*
X33023974Y-80655259D01*
X32395259Y-81283974D01*
X32055000Y-82105431D01*
X31190000Y-82105431D01*
X31190000Y-75874778D01*
X39005000Y-75874778D01*
X39005000Y-76525222D01*
X39253914Y-77126153D01*
X39713847Y-77586086D01*
X40314778Y-77835000D01*
X40965222Y-77835000D01*
X41566153Y-77586086D01*
X42026086Y-77126153D01*
X42275000Y-76525222D01*
X42275000Y-75884778D01*
X44085000Y-75884778D01*
X44085000Y-76535222D01*
X44333914Y-77136153D01*
X44793847Y-77596086D01*
X45394778Y-77845000D01*
X46045222Y-77845000D01*
X46646153Y-77596086D01*
X47106086Y-77136153D01*
X47355000Y-76535222D01*
X47355000Y-76525750D01*
X51905000Y-76525750D01*
X51905000Y-77166309D01*
X52001673Y-77399698D01*
X52180301Y-77578327D01*
X52386759Y-77663845D01*
X52123466Y-77927138D01*
X51905000Y-78454561D01*
X51905000Y-79025439D01*
X52123466Y-79552862D01*
X52527138Y-79956534D01*
X53054561Y-80175000D01*
X53625439Y-80175000D01*
X54152862Y-79956534D01*
X54556534Y-79552862D01*
X54775000Y-79025439D01*
X54775000Y-78454561D01*
X54556534Y-77927138D01*
X54293241Y-77663845D01*
X54499699Y-77578327D01*
X54678327Y-77399698D01*
X54775000Y-77166309D01*
X54775000Y-76525750D01*
X59525000Y-76525750D01*
X59525000Y-77166309D01*
X59621673Y-77399698D01*
X59800301Y-77578327D01*
X60006759Y-77663845D01*
X59743466Y-77927138D01*
X59525000Y-78454561D01*
X59525000Y-79025439D01*
X59743466Y-79552862D01*
X60147138Y-79956534D01*
X60674561Y-80175000D01*
X61245439Y-80175000D01*
X61772862Y-79956534D01*
X62176534Y-79552862D01*
X62395000Y-79025439D01*
X62395000Y-78454561D01*
X62176534Y-77927138D01*
X61913241Y-77663845D01*
X62119699Y-77578327D01*
X62298327Y-77399698D01*
X62395000Y-77166309D01*
X62395000Y-76525750D01*
X62236250Y-76367000D01*
X61087000Y-76367000D01*
X61087000Y-76387000D01*
X60833000Y-76387000D01*
X60833000Y-76367000D01*
X59683750Y-76367000D01*
X59525000Y-76525750D01*
X54775000Y-76525750D01*
X54616250Y-76367000D01*
X53467000Y-76367000D01*
X53467000Y-76387000D01*
X53213000Y-76387000D01*
X53213000Y-76367000D01*
X52063750Y-76367000D01*
X51905000Y-76525750D01*
X47355000Y-76525750D01*
X47355000Y-75884778D01*
X47118448Y-75313691D01*
X51905000Y-75313691D01*
X51905000Y-75954250D01*
X52063750Y-76113000D01*
X53213000Y-76113000D01*
X53213000Y-74963750D01*
X53467000Y-74963750D01*
X53467000Y-76113000D01*
X54616250Y-76113000D01*
X54775000Y-75954250D01*
X54775000Y-75313691D01*
X59525000Y-75313691D01*
X59525000Y-75954250D01*
X59683750Y-76113000D01*
X60833000Y-76113000D01*
X60833000Y-74963750D01*
X61087000Y-74963750D01*
X61087000Y-76113000D01*
X62236250Y-76113000D01*
X62395000Y-75954250D01*
X62395000Y-75313691D01*
X62298327Y-75080302D01*
X62119699Y-74901673D01*
X61886310Y-74805000D01*
X61245750Y-74805000D01*
X61087000Y-74963750D01*
X60833000Y-74963750D01*
X60674250Y-74805000D01*
X60033690Y-74805000D01*
X59800301Y-74901673D01*
X59621673Y-75080302D01*
X59525000Y-75313691D01*
X54775000Y-75313691D01*
X54678327Y-75080302D01*
X54499699Y-74901673D01*
X54266310Y-74805000D01*
X53625750Y-74805000D01*
X53467000Y-74963750D01*
X53213000Y-74963750D01*
X53054250Y-74805000D01*
X52413690Y-74805000D01*
X52180301Y-74901673D01*
X52001673Y-75080302D01*
X51905000Y-75313691D01*
X47118448Y-75313691D01*
X47106086Y-75283847D01*
X46646153Y-74823914D01*
X46045222Y-74575000D01*
X45394778Y-74575000D01*
X44793847Y-74823914D01*
X44333914Y-75283847D01*
X44085000Y-75884778D01*
X42275000Y-75884778D01*
X42275000Y-75874778D01*
X42026086Y-75273847D01*
X41566153Y-74813914D01*
X40965222Y-74565000D01*
X40314778Y-74565000D01*
X39713847Y-74813914D01*
X39253914Y-75273847D01*
X39005000Y-75874778D01*
X31190000Y-75874778D01*
X31190000Y-72739039D01*
X51948096Y-72739039D01*
X52108959Y-73127423D01*
X52484866Y-73542389D01*
X52990959Y-73781914D01*
X53213000Y-73660629D01*
X53213000Y-72517000D01*
X53467000Y-72517000D01*
X53467000Y-73660629D01*
X53689041Y-73781914D01*
X54195134Y-73542389D01*
X54571041Y-73127423D01*
X54731904Y-72739039D01*
X54609915Y-72517000D01*
X53467000Y-72517000D01*
X53213000Y-72517000D01*
X52070085Y-72517000D01*
X51948096Y-72739039D01*
X31190000Y-72739039D01*
X31190000Y-72040961D01*
X51948096Y-72040961D01*
X52070085Y-72263000D01*
X53213000Y-72263000D01*
X53213000Y-71119371D01*
X53467000Y-71119371D01*
X53467000Y-72263000D01*
X54609915Y-72263000D01*
X54696961Y-72104561D01*
X62065000Y-72104561D01*
X62065000Y-72675439D01*
X62283466Y-73202862D01*
X62687138Y-73606534D01*
X63214561Y-73825000D01*
X63785439Y-73825000D01*
X64312862Y-73606534D01*
X64716534Y-73202862D01*
X64935000Y-72675439D01*
X64935000Y-72104561D01*
X64716534Y-71577138D01*
X64312862Y-71173466D01*
X63785439Y-70955000D01*
X63214561Y-70955000D01*
X62687138Y-71173466D01*
X62283466Y-71577138D01*
X62065000Y-72104561D01*
X54696961Y-72104561D01*
X54731904Y-72040961D01*
X54571041Y-71652577D01*
X54195134Y-71237611D01*
X53689041Y-70998086D01*
X53467000Y-71119371D01*
X53213000Y-71119371D01*
X52990959Y-70998086D01*
X52484866Y-71237611D01*
X52108959Y-71652577D01*
X51948096Y-72040961D01*
X31190000Y-72040961D01*
X31190000Y-67020000D01*
X41132560Y-67020000D01*
X41132560Y-69820000D01*
X41181843Y-70067765D01*
X41322191Y-70277809D01*
X41532235Y-70418157D01*
X41780000Y-70467440D01*
X44580000Y-70467440D01*
X44827765Y-70418157D01*
X45037809Y-70277809D01*
X45178157Y-70067765D01*
X45227440Y-69820000D01*
X45227440Y-67020000D01*
X45178157Y-66772235D01*
X45037809Y-66562191D01*
X44827765Y-66421843D01*
X44580000Y-66372560D01*
X41780000Y-66372560D01*
X41532235Y-66421843D01*
X41322191Y-66562191D01*
X41181843Y-66772235D01*
X41132560Y-67020000D01*
X31190000Y-67020000D01*
X31190000Y-66325750D01*
X51905000Y-66325750D01*
X51905000Y-66966309D01*
X52001673Y-67199698D01*
X52180301Y-67378327D01*
X52386759Y-67463845D01*
X52123466Y-67727138D01*
X51905000Y-68254561D01*
X51905000Y-68825439D01*
X52123466Y-69352862D01*
X52527138Y-69756534D01*
X53054561Y-69975000D01*
X53625439Y-69975000D01*
X54152862Y-69756534D01*
X54556534Y-69352862D01*
X54775000Y-68825439D01*
X54775000Y-68254561D01*
X54556534Y-67727138D01*
X54293241Y-67463845D01*
X54499699Y-67378327D01*
X54678327Y-67199698D01*
X54775000Y-66966309D01*
X54775000Y-66325750D01*
X59525000Y-66325750D01*
X59525000Y-66966309D01*
X59621673Y-67199698D01*
X59800301Y-67378327D01*
X60006759Y-67463845D01*
X59743466Y-67727138D01*
X59525000Y-68254561D01*
X59525000Y-68825439D01*
X59743466Y-69352862D01*
X60147138Y-69756534D01*
X60674561Y-69975000D01*
X61245439Y-69975000D01*
X61772862Y-69756534D01*
X62176534Y-69352862D01*
X62395000Y-68825439D01*
X62395000Y-68254561D01*
X62176534Y-67727138D01*
X61913241Y-67463845D01*
X62119699Y-67378327D01*
X62298327Y-67199698D01*
X62395000Y-66966309D01*
X62395000Y-66325750D01*
X62236250Y-66167000D01*
X61087000Y-66167000D01*
X61087000Y-66187000D01*
X60833000Y-66187000D01*
X60833000Y-66167000D01*
X59683750Y-66167000D01*
X59525000Y-66325750D01*
X54775000Y-66325750D01*
X54616250Y-66167000D01*
X53467000Y-66167000D01*
X53467000Y-66187000D01*
X53213000Y-66187000D01*
X53213000Y-66167000D01*
X52063750Y-66167000D01*
X51905000Y-66325750D01*
X31190000Y-66325750D01*
X31190000Y-64861724D01*
X41917882Y-64861724D01*
X42065455Y-65170106D01*
X42820031Y-65463405D01*
X43629409Y-65445614D01*
X44294545Y-65170106D01*
X44321541Y-65113691D01*
X51905000Y-65113691D01*
X51905000Y-65754250D01*
X52063750Y-65913000D01*
X53213000Y-65913000D01*
X53213000Y-64763750D01*
X53467000Y-64763750D01*
X53467000Y-65913000D01*
X54616250Y-65913000D01*
X54775000Y-65754250D01*
X54775000Y-65113691D01*
X59525000Y-65113691D01*
X59525000Y-65754250D01*
X59683750Y-65913000D01*
X60833000Y-65913000D01*
X60833000Y-64763750D01*
X61087000Y-64763750D01*
X61087000Y-65913000D01*
X62236250Y-65913000D01*
X62395000Y-65754250D01*
X62395000Y-65140000D01*
X65762560Y-65140000D01*
X65762560Y-66940000D01*
X65811843Y-67187765D01*
X65952191Y-67397809D01*
X66162235Y-67538157D01*
X66177908Y-67541275D01*
X66008690Y-67710493D01*
X65775000Y-68274670D01*
X65775000Y-68885330D01*
X66008690Y-69449507D01*
X66440493Y-69881310D01*
X67004670Y-70115000D01*
X67615330Y-70115000D01*
X68179507Y-69881310D01*
X68611310Y-69449507D01*
X68845000Y-68885330D01*
X68845000Y-68274670D01*
X68611310Y-67710493D01*
X68442092Y-67541275D01*
X68457765Y-67538157D01*
X68667809Y-67397809D01*
X68808157Y-67187765D01*
X68857440Y-66940000D01*
X68857440Y-65140000D01*
X68808157Y-64892235D01*
X68667809Y-64682191D01*
X68457765Y-64541843D01*
X68210000Y-64492560D01*
X66410000Y-64492560D01*
X66162235Y-64541843D01*
X65952191Y-64682191D01*
X65811843Y-64892235D01*
X65762560Y-65140000D01*
X62395000Y-65140000D01*
X62395000Y-65113691D01*
X62298327Y-64880302D01*
X62119699Y-64701673D01*
X61886310Y-64605000D01*
X61245750Y-64605000D01*
X61087000Y-64763750D01*
X60833000Y-64763750D01*
X60674250Y-64605000D01*
X60033690Y-64605000D01*
X59800301Y-64701673D01*
X59621673Y-64880302D01*
X59525000Y-65113691D01*
X54775000Y-65113691D01*
X54678327Y-64880302D01*
X54499699Y-64701673D01*
X54266310Y-64605000D01*
X53625750Y-64605000D01*
X53467000Y-64763750D01*
X53213000Y-64763750D01*
X53054250Y-64605000D01*
X52413690Y-64605000D01*
X52180301Y-64701673D01*
X52001673Y-64880302D01*
X51905000Y-65113691D01*
X44321541Y-65113691D01*
X44442118Y-64861724D01*
X43180000Y-63599605D01*
X41917882Y-64861724D01*
X31190000Y-64861724D01*
X31190000Y-63060031D01*
X41136595Y-63060031D01*
X41154386Y-63869409D01*
X41429894Y-64534545D01*
X41738276Y-64682118D01*
X43000395Y-63420000D01*
X43359605Y-63420000D01*
X44621724Y-64682118D01*
X44930106Y-64534545D01*
X45223405Y-63779969D01*
X45205614Y-62970591D01*
X44930106Y-62305455D01*
X44621724Y-62157882D01*
X43359605Y-63420000D01*
X43000395Y-63420000D01*
X41738276Y-62157882D01*
X41429894Y-62305455D01*
X41136595Y-63060031D01*
X31190000Y-63060031D01*
X31190000Y-61978276D01*
X41917882Y-61978276D01*
X43180000Y-63240395D01*
X44442118Y-61978276D01*
X44417937Y-61927745D01*
X52511861Y-61927745D01*
X52585995Y-62173864D01*
X53123223Y-62366965D01*
X53693454Y-62339778D01*
X54094005Y-62173864D01*
X54168139Y-61927745D01*
X60131861Y-61927745D01*
X60205995Y-62173864D01*
X60743223Y-62366965D01*
X61313454Y-62339778D01*
X61714005Y-62173864D01*
X61788139Y-61927745D01*
X60960000Y-61099605D01*
X60131861Y-61927745D01*
X54168139Y-61927745D01*
X53340000Y-61099605D01*
X52511861Y-61927745D01*
X44417937Y-61927745D01*
X44294545Y-61669894D01*
X43539969Y-61376595D01*
X42730591Y-61394386D01*
X42065455Y-61669894D01*
X41917882Y-61978276D01*
X31190000Y-61978276D01*
X31190000Y-60703223D01*
X51893035Y-60703223D01*
X51920222Y-61273454D01*
X52086136Y-61674005D01*
X52332255Y-61748139D01*
X53160395Y-60920000D01*
X53519605Y-60920000D01*
X54347745Y-61748139D01*
X54593864Y-61674005D01*
X54786965Y-61136777D01*
X54766295Y-60703223D01*
X59513035Y-60703223D01*
X59540222Y-61273454D01*
X59706136Y-61674005D01*
X59952255Y-61748139D01*
X60780395Y-60920000D01*
X61139605Y-60920000D01*
X61967745Y-61748139D01*
X62213864Y-61674005D01*
X62367795Y-61245750D01*
X65775000Y-61245750D01*
X65775000Y-61986309D01*
X65871673Y-62219698D01*
X66050301Y-62398327D01*
X66283690Y-62495000D01*
X67024250Y-62495000D01*
X67183000Y-62336250D01*
X67183000Y-61087000D01*
X67437000Y-61087000D01*
X67437000Y-62336250D01*
X67595750Y-62495000D01*
X68336310Y-62495000D01*
X68569699Y-62398327D01*
X68748327Y-62219698D01*
X68845000Y-61986309D01*
X68845000Y-61245750D01*
X68686250Y-61087000D01*
X67437000Y-61087000D01*
X67183000Y-61087000D01*
X65933750Y-61087000D01*
X65775000Y-61245750D01*
X62367795Y-61245750D01*
X62406965Y-61136777D01*
X62379778Y-60566546D01*
X62213864Y-60165995D01*
X61967745Y-60091861D01*
X61139605Y-60920000D01*
X60780395Y-60920000D01*
X59952255Y-60091861D01*
X59706136Y-60165995D01*
X59513035Y-60703223D01*
X54766295Y-60703223D01*
X54759778Y-60566546D01*
X54593864Y-60165995D01*
X54347745Y-60091861D01*
X53519605Y-60920000D01*
X53160395Y-60920000D01*
X52332255Y-60091861D01*
X52086136Y-60165995D01*
X51893035Y-60703223D01*
X31190000Y-60703223D01*
X31190000Y-58015213D01*
X41145000Y-58015213D01*
X41145000Y-58824787D01*
X41454810Y-59572735D01*
X42027265Y-60145190D01*
X42775213Y-60455000D01*
X43584787Y-60455000D01*
X44332735Y-60145190D01*
X44905190Y-59572735D01*
X45215000Y-58824787D01*
X45215000Y-58015213D01*
X45051298Y-57620000D01*
X51892560Y-57620000D01*
X51892560Y-59220000D01*
X51941843Y-59467765D01*
X52082191Y-59677809D01*
X52292235Y-59818157D01*
X52526187Y-59864693D01*
X52511861Y-59912255D01*
X53340000Y-60740395D01*
X54168139Y-59912255D01*
X54153813Y-59864693D01*
X54387765Y-59818157D01*
X54597809Y-59677809D01*
X54738157Y-59467765D01*
X54787440Y-59220000D01*
X54787440Y-57620000D01*
X59512560Y-57620000D01*
X59512560Y-59220000D01*
X59561843Y-59467765D01*
X59702191Y-59677809D01*
X59912235Y-59818157D01*
X60146187Y-59864693D01*
X60131861Y-59912255D01*
X60960000Y-60740395D01*
X61788139Y-59912255D01*
X61773813Y-59864693D01*
X62007765Y-59818157D01*
X62217809Y-59677809D01*
X62358157Y-59467765D01*
X62407440Y-59220000D01*
X62407440Y-58114670D01*
X65775000Y-58114670D01*
X65775000Y-58725330D01*
X66008690Y-59289507D01*
X66185044Y-59465861D01*
X66050301Y-59521673D01*
X65871673Y-59700302D01*
X65775000Y-59933691D01*
X65775000Y-60674250D01*
X65933750Y-60833000D01*
X67183000Y-60833000D01*
X67183000Y-60813000D01*
X67437000Y-60813000D01*
X67437000Y-60833000D01*
X68686250Y-60833000D01*
X68845000Y-60674250D01*
X68845000Y-59933691D01*
X68748327Y-59700302D01*
X68569699Y-59521673D01*
X68434956Y-59465861D01*
X68611310Y-59289507D01*
X68845000Y-58725330D01*
X68845000Y-58114670D01*
X68611310Y-57550493D01*
X68179507Y-57118690D01*
X67615330Y-56885000D01*
X67004670Y-56885000D01*
X66440493Y-57118690D01*
X66008690Y-57550493D01*
X65775000Y-58114670D01*
X62407440Y-58114670D01*
X62407440Y-57620000D01*
X62358157Y-57372235D01*
X62217809Y-57162191D01*
X62007765Y-57021843D01*
X61760000Y-56972560D01*
X60160000Y-56972560D01*
X59912235Y-57021843D01*
X59702191Y-57162191D01*
X59561843Y-57372235D01*
X59512560Y-57620000D01*
X54787440Y-57620000D01*
X54738157Y-57372235D01*
X54597809Y-57162191D01*
X54387765Y-57021843D01*
X54140000Y-56972560D01*
X52540000Y-56972560D01*
X52292235Y-57021843D01*
X52082191Y-57162191D01*
X51941843Y-57372235D01*
X51892560Y-57620000D01*
X45051298Y-57620000D01*
X44905190Y-57267265D01*
X44332735Y-56694810D01*
X43584787Y-56385000D01*
X42775213Y-56385000D01*
X42027265Y-56694810D01*
X41454810Y-57267265D01*
X41145000Y-58015213D01*
X31190000Y-58015213D01*
X31190000Y-54610000D01*
X51876887Y-54610000D01*
X51988260Y-55169909D01*
X52305423Y-55644577D01*
X52780091Y-55961740D01*
X53198667Y-56045000D01*
X53481333Y-56045000D01*
X53899909Y-55961740D01*
X54374577Y-55644577D01*
X54691740Y-55169909D01*
X54803113Y-54610000D01*
X54746336Y-54324561D01*
X62065000Y-54324561D01*
X62065000Y-54895439D01*
X62283466Y-55422862D01*
X62687138Y-55826534D01*
X63214561Y-56045000D01*
X63785439Y-56045000D01*
X64312862Y-55826534D01*
X64716534Y-55422862D01*
X64935000Y-54895439D01*
X64935000Y-54324561D01*
X64716534Y-53797138D01*
X64312862Y-53393466D01*
X63785439Y-53175000D01*
X63214561Y-53175000D01*
X62687138Y-53393466D01*
X62283466Y-53797138D01*
X62065000Y-54324561D01*
X54746336Y-54324561D01*
X54691740Y-54050091D01*
X54374577Y-53575423D01*
X53899909Y-53258260D01*
X53481333Y-53175000D01*
X53198667Y-53175000D01*
X52780091Y-53258260D01*
X52305423Y-53575423D01*
X51988260Y-54050091D01*
X51876887Y-54610000D01*
X31190000Y-54610000D01*
X31190000Y-50464778D01*
X39005000Y-50464778D01*
X39005000Y-51115222D01*
X39253914Y-51716153D01*
X39713847Y-52176086D01*
X40314778Y-52425000D01*
X40965222Y-52425000D01*
X41566153Y-52176086D01*
X42026086Y-51716153D01*
X42275000Y-51115222D01*
X42275000Y-50474778D01*
X44085000Y-50474778D01*
X44085000Y-51125222D01*
X44333914Y-51726153D01*
X44793847Y-52186086D01*
X45394778Y-52435000D01*
X46045222Y-52435000D01*
X46646153Y-52186086D01*
X47064494Y-51767745D01*
X52511861Y-51767745D01*
X52585995Y-52013864D01*
X53123223Y-52206965D01*
X53693454Y-52179778D01*
X54094005Y-52013864D01*
X54168139Y-51767745D01*
X60131861Y-51767745D01*
X60205995Y-52013864D01*
X60743223Y-52206965D01*
X61313454Y-52179778D01*
X61714005Y-52013864D01*
X61788139Y-51767745D01*
X60960000Y-50939605D01*
X60131861Y-51767745D01*
X54168139Y-51767745D01*
X53340000Y-50939605D01*
X52511861Y-51767745D01*
X47064494Y-51767745D01*
X47106086Y-51726153D01*
X47355000Y-51125222D01*
X47355000Y-50543223D01*
X51893035Y-50543223D01*
X51920222Y-51113454D01*
X52086136Y-51514005D01*
X52332255Y-51588139D01*
X53160395Y-50760000D01*
X53519605Y-50760000D01*
X54347745Y-51588139D01*
X54593864Y-51514005D01*
X54786965Y-50976777D01*
X54766295Y-50543223D01*
X59513035Y-50543223D01*
X59540222Y-51113454D01*
X59706136Y-51514005D01*
X59952255Y-51588139D01*
X60780395Y-50760000D01*
X61139605Y-50760000D01*
X61967745Y-51588139D01*
X62213864Y-51514005D01*
X62406965Y-50976777D01*
X62379778Y-50406546D01*
X62213864Y-50005995D01*
X61967745Y-49931861D01*
X61139605Y-50760000D01*
X60780395Y-50760000D01*
X59952255Y-49931861D01*
X59706136Y-50005995D01*
X59513035Y-50543223D01*
X54766295Y-50543223D01*
X54759778Y-50406546D01*
X54593864Y-50005995D01*
X54347745Y-49931861D01*
X53519605Y-50760000D01*
X53160395Y-50760000D01*
X52332255Y-49931861D01*
X52086136Y-50005995D01*
X51893035Y-50543223D01*
X47355000Y-50543223D01*
X47355000Y-50474778D01*
X47106086Y-49873847D01*
X46646153Y-49413914D01*
X46045222Y-49165000D01*
X45394778Y-49165000D01*
X44793847Y-49413914D01*
X44333914Y-49873847D01*
X44085000Y-50474778D01*
X42275000Y-50474778D01*
X42275000Y-50464778D01*
X42026086Y-49863847D01*
X41566153Y-49403914D01*
X40965222Y-49155000D01*
X40314778Y-49155000D01*
X39713847Y-49403914D01*
X39253914Y-49863847D01*
X39005000Y-50464778D01*
X31190000Y-50464778D01*
X31190000Y-47460000D01*
X51892560Y-47460000D01*
X51892560Y-49060000D01*
X51941843Y-49307765D01*
X52082191Y-49517809D01*
X52292235Y-49658157D01*
X52526187Y-49704693D01*
X52511861Y-49752255D01*
X53340000Y-50580395D01*
X54168139Y-49752255D01*
X54153813Y-49704693D01*
X54387765Y-49658157D01*
X54597809Y-49517809D01*
X54738157Y-49307765D01*
X54787440Y-49060000D01*
X54787440Y-47460000D01*
X59512560Y-47460000D01*
X59512560Y-49060000D01*
X59561843Y-49307765D01*
X59702191Y-49517809D01*
X59912235Y-49658157D01*
X60146187Y-49704693D01*
X60131861Y-49752255D01*
X60960000Y-50580395D01*
X61788139Y-49752255D01*
X61773813Y-49704693D01*
X62007765Y-49658157D01*
X62217809Y-49517809D01*
X62358157Y-49307765D01*
X62407440Y-49060000D01*
X62407440Y-47460000D01*
X62358157Y-47212235D01*
X62217809Y-47002191D01*
X62007765Y-46861843D01*
X61760000Y-46812560D01*
X60160000Y-46812560D01*
X59912235Y-46861843D01*
X59702191Y-47002191D01*
X59561843Y-47212235D01*
X59512560Y-47460000D01*
X54787440Y-47460000D01*
X54738157Y-47212235D01*
X54597809Y-47002191D01*
X54387765Y-46861843D01*
X54140000Y-46812560D01*
X52540000Y-46812560D01*
X52292235Y-46861843D01*
X52082191Y-47002191D01*
X51941843Y-47212235D01*
X51892560Y-47460000D01*
X31190000Y-47460000D01*
X31190000Y-44005431D01*
X32055000Y-44005431D01*
X32055000Y-44894569D01*
X32395259Y-45716026D01*
X33023974Y-46344741D01*
X33845431Y-46685000D01*
X34734569Y-46685000D01*
X35556026Y-46344741D01*
X36184741Y-45716026D01*
X36525000Y-44894569D01*
X36525000Y-44450000D01*
X37906887Y-44450000D01*
X38018260Y-45009909D01*
X38335423Y-45484577D01*
X38810091Y-45801740D01*
X39228667Y-45885000D01*
X39511333Y-45885000D01*
X39929909Y-45801740D01*
X40404577Y-45484577D01*
X40721740Y-45009909D01*
X40833113Y-44450000D01*
X40776336Y-44164561D01*
X47935000Y-44164561D01*
X47935000Y-44735439D01*
X48153466Y-45262862D01*
X48557138Y-45666534D01*
X49084561Y-45885000D01*
X49655439Y-45885000D01*
X50053783Y-45720000D01*
X72132041Y-45720000D01*
X72248350Y-46304725D01*
X72579570Y-46800430D01*
X72863281Y-46990000D01*
X72579570Y-47179570D01*
X72248350Y-47675275D01*
X72132041Y-48260000D01*
X72248350Y-48844725D01*
X72579570Y-49340430D01*
X72900000Y-49554535D01*
X72900001Y-72956288D01*
X72782569Y-73073720D01*
X72625000Y-73454126D01*
X72625000Y-73865874D01*
X72782569Y-74246280D01*
X72900000Y-74363711D01*
X72900000Y-77445465D01*
X72579570Y-77659570D01*
X72248350Y-78155275D01*
X72132041Y-78740000D01*
X72248350Y-79324725D01*
X72579570Y-79820430D01*
X72863281Y-80010000D01*
X72579570Y-80199570D01*
X72248350Y-80695275D01*
X72132041Y-81280000D01*
X72248350Y-81864725D01*
X72579570Y-82360430D01*
X73075275Y-82691650D01*
X73512402Y-82778600D01*
X73807598Y-82778600D01*
X74244725Y-82691650D01*
X74740430Y-82360430D01*
X74930000Y-82076719D01*
X75119570Y-82360430D01*
X75615275Y-82691650D01*
X76052402Y-82778600D01*
X76347598Y-82778600D01*
X76784725Y-82691650D01*
X77280430Y-82360430D01*
X77387977Y-82199475D01*
X77561232Y-82458769D01*
X78102056Y-82820136D01*
X78336646Y-82866799D01*
X78153720Y-82942569D01*
X77862569Y-83233720D01*
X77705000Y-83614126D01*
X77705000Y-84025874D01*
X77862569Y-84406280D01*
X78153720Y-84697431D01*
X78534126Y-84855000D01*
X78945874Y-84855000D01*
X79326280Y-84697431D01*
X79617431Y-84406280D01*
X79775000Y-84025874D01*
X79775000Y-83614126D01*
X79617431Y-83233720D01*
X79326280Y-82942569D01*
X79143354Y-82866799D01*
X79377945Y-82820136D01*
X79918769Y-82458769D01*
X80010000Y-82322232D01*
X80101231Y-82458769D01*
X80642055Y-82820136D01*
X81280000Y-82947031D01*
X81917944Y-82820136D01*
X82458769Y-82458769D01*
X82637745Y-82190913D01*
X83045053Y-82562688D01*
X83460974Y-82734958D01*
X83693000Y-82613817D01*
X83693000Y-81407000D01*
X83947000Y-81407000D01*
X83947000Y-82613817D01*
X84179026Y-82734958D01*
X84594947Y-82562688D01*
X85026821Y-82168490D01*
X85090000Y-82033687D01*
X85153179Y-82168490D01*
X85585053Y-82562688D01*
X86000974Y-82734958D01*
X86233000Y-82613817D01*
X86233000Y-81407000D01*
X86487000Y-81407000D01*
X86487000Y-82613817D01*
X86719026Y-82734958D01*
X87134947Y-82562688D01*
X87566821Y-82168490D01*
X87630000Y-82033687D01*
X87693179Y-82168490D01*
X88125053Y-82562688D01*
X88540974Y-82734958D01*
X88773000Y-82613817D01*
X88773000Y-81407000D01*
X86487000Y-81407000D01*
X86233000Y-81407000D01*
X83947000Y-81407000D01*
X83693000Y-81407000D01*
X83673000Y-81407000D01*
X83673000Y-81153000D01*
X83693000Y-81153000D01*
X83693000Y-78867000D01*
X83947000Y-78867000D01*
X83947000Y-81153000D01*
X86233000Y-81153000D01*
X86233000Y-78867000D01*
X86487000Y-78867000D01*
X86487000Y-81153000D01*
X88773000Y-81153000D01*
X88773000Y-78867000D01*
X86487000Y-78867000D01*
X86233000Y-78867000D01*
X83947000Y-78867000D01*
X83693000Y-78867000D01*
X83673000Y-78867000D01*
X83673000Y-78613000D01*
X83693000Y-78613000D01*
X83693000Y-77406183D01*
X83947000Y-77406183D01*
X83947000Y-78613000D01*
X86233000Y-78613000D01*
X86233000Y-77406183D01*
X86487000Y-77406183D01*
X86487000Y-78613000D01*
X88773000Y-78613000D01*
X88773000Y-77406183D01*
X88540974Y-77285042D01*
X88125053Y-77457312D01*
X87693179Y-77851510D01*
X87630000Y-77986313D01*
X87566821Y-77851510D01*
X87134947Y-77457312D01*
X86719026Y-77285042D01*
X86487000Y-77406183D01*
X86233000Y-77406183D01*
X86000974Y-77285042D01*
X85585053Y-77457312D01*
X85153179Y-77851510D01*
X85090000Y-77986313D01*
X85026821Y-77851510D01*
X84594947Y-77457312D01*
X84179026Y-77285042D01*
X83947000Y-77406183D01*
X83693000Y-77406183D01*
X83460974Y-77285042D01*
X83045053Y-77457312D01*
X82915000Y-77576019D01*
X82915000Y-49423981D01*
X83045053Y-49542688D01*
X83460974Y-49714958D01*
X83693000Y-49593817D01*
X83693000Y-48387000D01*
X83947000Y-48387000D01*
X83947000Y-49593817D01*
X84179026Y-49714958D01*
X84594947Y-49542688D01*
X85026821Y-49148490D01*
X85090000Y-49013687D01*
X85153179Y-49148490D01*
X85585053Y-49542688D01*
X86000974Y-49714958D01*
X86233000Y-49593817D01*
X86233000Y-48387000D01*
X86487000Y-48387000D01*
X86487000Y-49593817D01*
X86719026Y-49714958D01*
X87134947Y-49542688D01*
X87566821Y-49148490D01*
X87630000Y-49013687D01*
X87693179Y-49148490D01*
X88125053Y-49542688D01*
X88540974Y-49714958D01*
X88773000Y-49593817D01*
X88773000Y-48387000D01*
X86487000Y-48387000D01*
X86233000Y-48387000D01*
X83947000Y-48387000D01*
X83693000Y-48387000D01*
X83673000Y-48387000D01*
X83673000Y-48133000D01*
X83693000Y-48133000D01*
X83693000Y-45847000D01*
X83947000Y-45847000D01*
X83947000Y-48133000D01*
X86233000Y-48133000D01*
X86233000Y-45847000D01*
X86487000Y-45847000D01*
X86487000Y-48133000D01*
X88773000Y-48133000D01*
X88773000Y-45847000D01*
X86487000Y-45847000D01*
X86233000Y-45847000D01*
X83947000Y-45847000D01*
X83693000Y-45847000D01*
X83673000Y-45847000D01*
X83673000Y-45593000D01*
X83693000Y-45593000D01*
X83693000Y-44386183D01*
X83947000Y-44386183D01*
X83947000Y-45593000D01*
X86233000Y-45593000D01*
X86233000Y-44386183D01*
X86487000Y-44386183D01*
X86487000Y-45593000D01*
X88773000Y-45593000D01*
X88773000Y-44386183D01*
X89027000Y-44386183D01*
X89027000Y-45593000D01*
X89047000Y-45593000D01*
X89047000Y-45847000D01*
X89027000Y-45847000D01*
X89027000Y-48133000D01*
X89047000Y-48133000D01*
X89047000Y-48387000D01*
X89027000Y-48387000D01*
X89027000Y-49593817D01*
X89259026Y-49714958D01*
X89674947Y-49542688D01*
X89805001Y-49423980D01*
X89805000Y-77576019D01*
X89674947Y-77457312D01*
X89259026Y-77285042D01*
X89027000Y-77406183D01*
X89027000Y-78613000D01*
X89047000Y-78613000D01*
X89047000Y-78867000D01*
X89027000Y-78867000D01*
X89027000Y-81153000D01*
X89047000Y-81153000D01*
X89047000Y-81407000D01*
X89027000Y-81407000D01*
X89027000Y-82613817D01*
X89259026Y-82734958D01*
X89674947Y-82562688D01*
X90082255Y-82190913D01*
X90261231Y-82458769D01*
X90802055Y-82820136D01*
X91440000Y-82947031D01*
X92077944Y-82820136D01*
X92618769Y-82458769D01*
X92980136Y-81917945D01*
X93075000Y-81441031D01*
X93075000Y-45720000D01*
X105152041Y-45720000D01*
X105268350Y-46304725D01*
X105599570Y-46800430D01*
X105883281Y-46990000D01*
X105599570Y-47179570D01*
X105268350Y-47675275D01*
X105152041Y-48260000D01*
X105268350Y-48844725D01*
X105599570Y-49340430D01*
X105920001Y-49554535D01*
X105920000Y-72956289D01*
X105802569Y-73073720D01*
X105645000Y-73454126D01*
X105645000Y-73865874D01*
X105802569Y-74246280D01*
X105920001Y-74363712D01*
X105920001Y-77445465D01*
X105599570Y-77659570D01*
X105268350Y-78155275D01*
X105152041Y-78740000D01*
X105268350Y-79324725D01*
X105599570Y-79820430D01*
X105883281Y-80010000D01*
X105599570Y-80199570D01*
X105268350Y-80695275D01*
X105152041Y-81280000D01*
X105268350Y-81864725D01*
X105599570Y-82360430D01*
X106095275Y-82691650D01*
X106532402Y-82778600D01*
X106827598Y-82778600D01*
X107264725Y-82691650D01*
X107760430Y-82360430D01*
X107950000Y-82076719D01*
X108139570Y-82360430D01*
X108635275Y-82691650D01*
X109072402Y-82778600D01*
X109367598Y-82778600D01*
X109804725Y-82691650D01*
X110300430Y-82360430D01*
X110407977Y-82199475D01*
X110581231Y-82458769D01*
X111122055Y-82820136D01*
X111760000Y-82947031D01*
X112397944Y-82820136D01*
X112938769Y-82458769D01*
X113030000Y-82322232D01*
X113121231Y-82458769D01*
X113662055Y-82820136D01*
X114300000Y-82947031D01*
X114937944Y-82820136D01*
X115478769Y-82458769D01*
X115657745Y-82190913D01*
X116065053Y-82562688D01*
X116480974Y-82734958D01*
X116713000Y-82613817D01*
X116713000Y-81407000D01*
X116967000Y-81407000D01*
X116967000Y-82613817D01*
X117199026Y-82734958D01*
X117614947Y-82562688D01*
X118046821Y-82168490D01*
X118110000Y-82033687D01*
X118173179Y-82168490D01*
X118605053Y-82562688D01*
X119020974Y-82734958D01*
X119253000Y-82613817D01*
X119253000Y-81407000D01*
X119507000Y-81407000D01*
X119507000Y-82613817D01*
X119739026Y-82734958D01*
X120154947Y-82562688D01*
X120586821Y-82168490D01*
X120650000Y-82033687D01*
X120713179Y-82168490D01*
X121145053Y-82562688D01*
X121560974Y-82734958D01*
X121793000Y-82613817D01*
X121793000Y-81407000D01*
X119507000Y-81407000D01*
X119253000Y-81407000D01*
X116967000Y-81407000D01*
X116713000Y-81407000D01*
X116693000Y-81407000D01*
X116693000Y-81153000D01*
X116713000Y-81153000D01*
X116713000Y-78867000D01*
X116967000Y-78867000D01*
X116967000Y-81153000D01*
X119253000Y-81153000D01*
X119253000Y-78867000D01*
X119507000Y-78867000D01*
X119507000Y-81153000D01*
X121793000Y-81153000D01*
X121793000Y-78867000D01*
X119507000Y-78867000D01*
X119253000Y-78867000D01*
X116967000Y-78867000D01*
X116713000Y-78867000D01*
X116693000Y-78867000D01*
X116693000Y-78613000D01*
X116713000Y-78613000D01*
X116713000Y-77406183D01*
X116967000Y-77406183D01*
X116967000Y-78613000D01*
X119253000Y-78613000D01*
X119253000Y-77406183D01*
X119507000Y-77406183D01*
X119507000Y-78613000D01*
X121793000Y-78613000D01*
X121793000Y-77406183D01*
X121560974Y-77285042D01*
X121145053Y-77457312D01*
X120713179Y-77851510D01*
X120650000Y-77986313D01*
X120586821Y-77851510D01*
X120154947Y-77457312D01*
X119739026Y-77285042D01*
X119507000Y-77406183D01*
X119253000Y-77406183D01*
X119020974Y-77285042D01*
X118605053Y-77457312D01*
X118173179Y-77851510D01*
X118110000Y-77986313D01*
X118046821Y-77851510D01*
X117614947Y-77457312D01*
X117199026Y-77285042D01*
X116967000Y-77406183D01*
X116713000Y-77406183D01*
X116480974Y-77285042D01*
X116065053Y-77457312D01*
X115935000Y-77576019D01*
X115935000Y-49423981D01*
X116065053Y-49542688D01*
X116480974Y-49714958D01*
X116713000Y-49593817D01*
X116713000Y-48387000D01*
X116967000Y-48387000D01*
X116967000Y-49593817D01*
X117199026Y-49714958D01*
X117614947Y-49542688D01*
X118046821Y-49148490D01*
X118110000Y-49013687D01*
X118173179Y-49148490D01*
X118605053Y-49542688D01*
X119020974Y-49714958D01*
X119253000Y-49593817D01*
X119253000Y-48387000D01*
X119507000Y-48387000D01*
X119507000Y-49593817D01*
X119739026Y-49714958D01*
X120154947Y-49542688D01*
X120586821Y-49148490D01*
X120650000Y-49013687D01*
X120713179Y-49148490D01*
X121145053Y-49542688D01*
X121560974Y-49714958D01*
X121793000Y-49593817D01*
X121793000Y-48387000D01*
X119507000Y-48387000D01*
X119253000Y-48387000D01*
X116967000Y-48387000D01*
X116713000Y-48387000D01*
X116693000Y-48387000D01*
X116693000Y-48133000D01*
X116713000Y-48133000D01*
X116713000Y-45847000D01*
X116967000Y-45847000D01*
X116967000Y-48133000D01*
X119253000Y-48133000D01*
X119253000Y-45847000D01*
X119507000Y-45847000D01*
X119507000Y-48133000D01*
X121793000Y-48133000D01*
X121793000Y-45847000D01*
X119507000Y-45847000D01*
X119253000Y-45847000D01*
X116967000Y-45847000D01*
X116713000Y-45847000D01*
X116693000Y-45847000D01*
X116693000Y-45593000D01*
X116713000Y-45593000D01*
X116713000Y-44386183D01*
X116967000Y-44386183D01*
X116967000Y-45593000D01*
X119253000Y-45593000D01*
X119253000Y-44386183D01*
X119507000Y-44386183D01*
X119507000Y-45593000D01*
X121793000Y-45593000D01*
X121793000Y-44386183D01*
X122047000Y-44386183D01*
X122047000Y-45593000D01*
X122067000Y-45593000D01*
X122067000Y-45847000D01*
X122047000Y-45847000D01*
X122047000Y-48133000D01*
X122067000Y-48133000D01*
X122067000Y-48387000D01*
X122047000Y-48387000D01*
X122047000Y-49593817D01*
X122279026Y-49714958D01*
X122694947Y-49542688D01*
X122825000Y-49423981D01*
X122825001Y-77576020D01*
X122694947Y-77457312D01*
X122279026Y-77285042D01*
X122047000Y-77406183D01*
X122047000Y-78613000D01*
X122067000Y-78613000D01*
X122067000Y-78867000D01*
X122047000Y-78867000D01*
X122047000Y-81153000D01*
X122067000Y-81153000D01*
X122067000Y-81407000D01*
X122047000Y-81407000D01*
X122047000Y-82613817D01*
X122279026Y-82734958D01*
X122694947Y-82562688D01*
X123102256Y-82190912D01*
X123281232Y-82458769D01*
X123822056Y-82820136D01*
X124460000Y-82947031D01*
X125097945Y-82820136D01*
X125638769Y-82458769D01*
X126000136Y-81917945D01*
X126095000Y-81441031D01*
X126095000Y-45720000D01*
X138172041Y-45720000D01*
X138288350Y-46304725D01*
X138619570Y-46800430D01*
X138903281Y-46990000D01*
X138619570Y-47179570D01*
X138288350Y-47675275D01*
X138172041Y-48260000D01*
X138288350Y-48844725D01*
X138619570Y-49340430D01*
X138940000Y-49554535D01*
X138940001Y-72956288D01*
X138822569Y-73073720D01*
X138665000Y-73454126D01*
X138665000Y-73865874D01*
X138822569Y-74246280D01*
X138940000Y-74363711D01*
X138940000Y-77445465D01*
X138619570Y-77659570D01*
X138288350Y-78155275D01*
X138172041Y-78740000D01*
X138288350Y-79324725D01*
X138619570Y-79820430D01*
X138903281Y-80010000D01*
X138619570Y-80199570D01*
X138288350Y-80695275D01*
X138172041Y-81280000D01*
X138288350Y-81864725D01*
X138619570Y-82360430D01*
X139115275Y-82691650D01*
X139552402Y-82778600D01*
X139847598Y-82778600D01*
X140284725Y-82691650D01*
X140780430Y-82360430D01*
X140970000Y-82076719D01*
X141159570Y-82360430D01*
X141655275Y-82691650D01*
X142092402Y-82778600D01*
X142387598Y-82778600D01*
X142824725Y-82691650D01*
X143320430Y-82360430D01*
X143427977Y-82199475D01*
X143601232Y-82458769D01*
X144142056Y-82820136D01*
X144780000Y-82947031D01*
X145417945Y-82820136D01*
X145958769Y-82458769D01*
X146050000Y-82322232D01*
X146141231Y-82458769D01*
X146682055Y-82820136D01*
X147320000Y-82947031D01*
X147957944Y-82820136D01*
X148498769Y-82458769D01*
X148677745Y-82190913D01*
X149085053Y-82562688D01*
X149500974Y-82734958D01*
X149733000Y-82613817D01*
X149733000Y-81407000D01*
X149987000Y-81407000D01*
X149987000Y-82613817D01*
X150219026Y-82734958D01*
X150634947Y-82562688D01*
X151066821Y-82168490D01*
X151130000Y-82033687D01*
X151193179Y-82168490D01*
X151625053Y-82562688D01*
X152040974Y-82734958D01*
X152273000Y-82613817D01*
X152273000Y-81407000D01*
X152527000Y-81407000D01*
X152527000Y-82613817D01*
X152759026Y-82734958D01*
X153174947Y-82562688D01*
X153606821Y-82168490D01*
X153670000Y-82033687D01*
X153733179Y-82168490D01*
X154165053Y-82562688D01*
X154580974Y-82734958D01*
X154813000Y-82613817D01*
X154813000Y-81407000D01*
X152527000Y-81407000D01*
X152273000Y-81407000D01*
X149987000Y-81407000D01*
X149733000Y-81407000D01*
X149713000Y-81407000D01*
X149713000Y-81153000D01*
X149733000Y-81153000D01*
X149733000Y-78867000D01*
X149987000Y-78867000D01*
X149987000Y-81153000D01*
X152273000Y-81153000D01*
X152273000Y-78867000D01*
X152527000Y-78867000D01*
X152527000Y-81153000D01*
X154813000Y-81153000D01*
X154813000Y-78867000D01*
X152527000Y-78867000D01*
X152273000Y-78867000D01*
X149987000Y-78867000D01*
X149733000Y-78867000D01*
X149713000Y-78867000D01*
X149713000Y-78613000D01*
X149733000Y-78613000D01*
X149733000Y-77406183D01*
X149987000Y-77406183D01*
X149987000Y-78613000D01*
X152273000Y-78613000D01*
X152273000Y-77406183D01*
X152527000Y-77406183D01*
X152527000Y-78613000D01*
X154813000Y-78613000D01*
X154813000Y-77406183D01*
X154580974Y-77285042D01*
X154165053Y-77457312D01*
X153733179Y-77851510D01*
X153670000Y-77986313D01*
X153606821Y-77851510D01*
X153174947Y-77457312D01*
X152759026Y-77285042D01*
X152527000Y-77406183D01*
X152273000Y-77406183D01*
X152040974Y-77285042D01*
X151625053Y-77457312D01*
X151193179Y-77851510D01*
X151130000Y-77986313D01*
X151066821Y-77851510D01*
X150634947Y-77457312D01*
X150219026Y-77285042D01*
X149987000Y-77406183D01*
X149733000Y-77406183D01*
X149500974Y-77285042D01*
X149085053Y-77457312D01*
X148955000Y-77576019D01*
X148955000Y-49423981D01*
X149085053Y-49542688D01*
X149500974Y-49714958D01*
X149733000Y-49593817D01*
X149733000Y-48387000D01*
X149987000Y-48387000D01*
X149987000Y-49593817D01*
X150219026Y-49714958D01*
X150634947Y-49542688D01*
X151066821Y-49148490D01*
X151130000Y-49013687D01*
X151193179Y-49148490D01*
X151625053Y-49542688D01*
X152040974Y-49714958D01*
X152273000Y-49593817D01*
X152273000Y-48387000D01*
X152527000Y-48387000D01*
X152527000Y-49593817D01*
X152759026Y-49714958D01*
X153174947Y-49542688D01*
X153606821Y-49148490D01*
X153670000Y-49013687D01*
X153733179Y-49148490D01*
X154165053Y-49542688D01*
X154580974Y-49714958D01*
X154813000Y-49593817D01*
X154813000Y-48387000D01*
X152527000Y-48387000D01*
X152273000Y-48387000D01*
X149987000Y-48387000D01*
X149733000Y-48387000D01*
X149713000Y-48387000D01*
X149713000Y-48133000D01*
X149733000Y-48133000D01*
X149733000Y-45847000D01*
X149987000Y-45847000D01*
X149987000Y-48133000D01*
X152273000Y-48133000D01*
X152273000Y-45847000D01*
X152527000Y-45847000D01*
X152527000Y-48133000D01*
X154813000Y-48133000D01*
X154813000Y-45847000D01*
X152527000Y-45847000D01*
X152273000Y-45847000D01*
X149987000Y-45847000D01*
X149733000Y-45847000D01*
X149713000Y-45847000D01*
X149713000Y-45593000D01*
X149733000Y-45593000D01*
X149733000Y-44386183D01*
X149987000Y-44386183D01*
X149987000Y-45593000D01*
X152273000Y-45593000D01*
X152273000Y-44386183D01*
X152527000Y-44386183D01*
X152527000Y-45593000D01*
X154813000Y-45593000D01*
X154813000Y-44386183D01*
X155067000Y-44386183D01*
X155067000Y-45593000D01*
X155087000Y-45593000D01*
X155087000Y-45847000D01*
X155067000Y-45847000D01*
X155067000Y-48133000D01*
X155087000Y-48133000D01*
X155087000Y-48387000D01*
X155067000Y-48387000D01*
X155067000Y-49593817D01*
X155299026Y-49714958D01*
X155714947Y-49542688D01*
X155845000Y-49423981D01*
X155845001Y-77576020D01*
X155714947Y-77457312D01*
X155299026Y-77285042D01*
X155067000Y-77406183D01*
X155067000Y-78613000D01*
X155087000Y-78613000D01*
X155087000Y-78867000D01*
X155067000Y-78867000D01*
X155067000Y-81153000D01*
X155087000Y-81153000D01*
X155087000Y-81407000D01*
X155067000Y-81407000D01*
X155067000Y-82613817D01*
X155299026Y-82734958D01*
X155714947Y-82562688D01*
X156122256Y-82190912D01*
X156301232Y-82458769D01*
X156842056Y-82820136D01*
X157480000Y-82947031D01*
X158117945Y-82820136D01*
X158658769Y-82458769D01*
X159020136Y-81917945D01*
X159115000Y-81441031D01*
X159115000Y-45720000D01*
X171192041Y-45720000D01*
X171308350Y-46304725D01*
X171639570Y-46800430D01*
X171923281Y-46990000D01*
X171639570Y-47179570D01*
X171308350Y-47675275D01*
X171192041Y-48260000D01*
X171308350Y-48844725D01*
X171639570Y-49340430D01*
X171960001Y-49554535D01*
X171960000Y-72956289D01*
X171842569Y-73073720D01*
X171685000Y-73454126D01*
X171685000Y-73865874D01*
X171842569Y-74246280D01*
X171960000Y-74363711D01*
X171960000Y-77445465D01*
X171639570Y-77659570D01*
X171308350Y-78155275D01*
X171192041Y-78740000D01*
X171308350Y-79324725D01*
X171639570Y-79820430D01*
X171923281Y-80010000D01*
X171639570Y-80199570D01*
X171308350Y-80695275D01*
X171192041Y-81280000D01*
X171308350Y-81864725D01*
X171639570Y-82360430D01*
X172135275Y-82691650D01*
X172572402Y-82778600D01*
X172867598Y-82778600D01*
X173304725Y-82691650D01*
X173800430Y-82360430D01*
X173990000Y-82076719D01*
X174179570Y-82360430D01*
X174675275Y-82691650D01*
X175112402Y-82778600D01*
X175407598Y-82778600D01*
X175844725Y-82691650D01*
X176340430Y-82360430D01*
X176447977Y-82199475D01*
X176621231Y-82458769D01*
X177162055Y-82820136D01*
X177800000Y-82947031D01*
X178437944Y-82820136D01*
X178978769Y-82458769D01*
X179070000Y-82322232D01*
X179161231Y-82458769D01*
X179702055Y-82820136D01*
X180340000Y-82947031D01*
X180977944Y-82820136D01*
X181518769Y-82458769D01*
X181697745Y-82190913D01*
X182105053Y-82562688D01*
X182520974Y-82734958D01*
X182753000Y-82613817D01*
X182753000Y-81407000D01*
X183007000Y-81407000D01*
X183007000Y-82613817D01*
X183239026Y-82734958D01*
X183654947Y-82562688D01*
X184086821Y-82168490D01*
X184150000Y-82033687D01*
X184213179Y-82168490D01*
X184645053Y-82562688D01*
X185060974Y-82734958D01*
X185293000Y-82613817D01*
X185293000Y-81407000D01*
X185547000Y-81407000D01*
X185547000Y-82613817D01*
X185779026Y-82734958D01*
X186194947Y-82562688D01*
X186626821Y-82168490D01*
X186690000Y-82033687D01*
X186753179Y-82168490D01*
X187185053Y-82562688D01*
X187600974Y-82734958D01*
X187833000Y-82613817D01*
X187833000Y-81407000D01*
X185547000Y-81407000D01*
X185293000Y-81407000D01*
X183007000Y-81407000D01*
X182753000Y-81407000D01*
X182733000Y-81407000D01*
X182733000Y-81153000D01*
X182753000Y-81153000D01*
X182753000Y-78867000D01*
X183007000Y-78867000D01*
X183007000Y-81153000D01*
X185293000Y-81153000D01*
X185293000Y-78867000D01*
X185547000Y-78867000D01*
X185547000Y-81153000D01*
X187833000Y-81153000D01*
X187833000Y-78867000D01*
X185547000Y-78867000D01*
X185293000Y-78867000D01*
X183007000Y-78867000D01*
X182753000Y-78867000D01*
X182733000Y-78867000D01*
X182733000Y-78613000D01*
X182753000Y-78613000D01*
X182753000Y-77406183D01*
X183007000Y-77406183D01*
X183007000Y-78613000D01*
X185293000Y-78613000D01*
X185293000Y-77406183D01*
X185547000Y-77406183D01*
X185547000Y-78613000D01*
X187833000Y-78613000D01*
X187833000Y-77406183D01*
X187600974Y-77285042D01*
X187185053Y-77457312D01*
X186753179Y-77851510D01*
X186690000Y-77986313D01*
X186626821Y-77851510D01*
X186194947Y-77457312D01*
X185779026Y-77285042D01*
X185547000Y-77406183D01*
X185293000Y-77406183D01*
X185060974Y-77285042D01*
X184645053Y-77457312D01*
X184213179Y-77851510D01*
X184150000Y-77986313D01*
X184086821Y-77851510D01*
X183654947Y-77457312D01*
X183239026Y-77285042D01*
X183007000Y-77406183D01*
X182753000Y-77406183D01*
X182520974Y-77285042D01*
X182105053Y-77457312D01*
X181975000Y-77576019D01*
X181975000Y-49423981D01*
X182105053Y-49542688D01*
X182520974Y-49714958D01*
X182753000Y-49593817D01*
X182753000Y-48387000D01*
X183007000Y-48387000D01*
X183007000Y-49593817D01*
X183239026Y-49714958D01*
X183654947Y-49542688D01*
X184086821Y-49148490D01*
X184150000Y-49013687D01*
X184213179Y-49148490D01*
X184645053Y-49542688D01*
X185060974Y-49714958D01*
X185293000Y-49593817D01*
X185293000Y-48387000D01*
X185547000Y-48387000D01*
X185547000Y-49593817D01*
X185779026Y-49714958D01*
X186194947Y-49542688D01*
X186626821Y-49148490D01*
X186690000Y-49013687D01*
X186753179Y-49148490D01*
X187185053Y-49542688D01*
X187600974Y-49714958D01*
X187833000Y-49593817D01*
X187833000Y-48387000D01*
X185547000Y-48387000D01*
X185293000Y-48387000D01*
X183007000Y-48387000D01*
X182753000Y-48387000D01*
X182733000Y-48387000D01*
X182733000Y-48133000D01*
X182753000Y-48133000D01*
X182753000Y-45847000D01*
X183007000Y-45847000D01*
X183007000Y-48133000D01*
X185293000Y-48133000D01*
X185293000Y-45847000D01*
X185547000Y-45847000D01*
X185547000Y-48133000D01*
X187833000Y-48133000D01*
X187833000Y-45847000D01*
X185547000Y-45847000D01*
X185293000Y-45847000D01*
X183007000Y-45847000D01*
X182753000Y-45847000D01*
X182733000Y-45847000D01*
X182733000Y-45593000D01*
X182753000Y-45593000D01*
X182753000Y-44386183D01*
X183007000Y-44386183D01*
X183007000Y-45593000D01*
X185293000Y-45593000D01*
X185293000Y-44386183D01*
X185547000Y-44386183D01*
X185547000Y-45593000D01*
X187833000Y-45593000D01*
X187833000Y-44386183D01*
X188087000Y-44386183D01*
X188087000Y-45593000D01*
X188107000Y-45593000D01*
X188107000Y-45847000D01*
X188087000Y-45847000D01*
X188087000Y-48133000D01*
X188107000Y-48133000D01*
X188107000Y-48387000D01*
X188087000Y-48387000D01*
X188087000Y-49593817D01*
X188319026Y-49714958D01*
X188734947Y-49542688D01*
X188865001Y-49423980D01*
X188865000Y-66201030D01*
X188865001Y-66201035D01*
X188865000Y-77576020D01*
X188734947Y-77457312D01*
X188319026Y-77285042D01*
X188087000Y-77406183D01*
X188087000Y-78613000D01*
X188107000Y-78613000D01*
X188107000Y-78867000D01*
X188087000Y-78867000D01*
X188087000Y-81153000D01*
X188107000Y-81153000D01*
X188107000Y-81407000D01*
X188087000Y-81407000D01*
X188087000Y-82613817D01*
X188319026Y-82734958D01*
X188734947Y-82562688D01*
X189142255Y-82190913D01*
X189321231Y-82458769D01*
X189862055Y-82820136D01*
X190500000Y-82947031D01*
X191137944Y-82820136D01*
X191678769Y-82458769D01*
X191914861Y-82105431D01*
X198425000Y-82105431D01*
X198425000Y-82994569D01*
X198765259Y-83816026D01*
X199393974Y-84444741D01*
X200215431Y-84785000D01*
X201104569Y-84785000D01*
X201926026Y-84444741D01*
X202554741Y-83816026D01*
X202895000Y-82994569D01*
X202895000Y-82105431D01*
X202554741Y-81283974D01*
X201926026Y-80655259D01*
X201104569Y-80315000D01*
X200215431Y-80315000D01*
X199393974Y-80655259D01*
X198765259Y-81283974D01*
X198425000Y-82105431D01*
X191914861Y-82105431D01*
X192040136Y-81917945D01*
X192135000Y-81441031D01*
X192135000Y-45558969D01*
X192040136Y-45082055D01*
X192011040Y-45038510D01*
X192011040Y-44856400D01*
X191961757Y-44608635D01*
X191821409Y-44398591D01*
X191611365Y-44258243D01*
X191363600Y-44208960D01*
X191181490Y-44208960D01*
X191137945Y-44179864D01*
X190500000Y-44052969D01*
X189862056Y-44179864D01*
X189818511Y-44208960D01*
X189636400Y-44208960D01*
X189388635Y-44258243D01*
X189178591Y-44398591D01*
X189038243Y-44608635D01*
X189020480Y-44697936D01*
X188734947Y-44437312D01*
X188319026Y-44265042D01*
X188087000Y-44386183D01*
X187833000Y-44386183D01*
X187600974Y-44265042D01*
X187185053Y-44437312D01*
X186753179Y-44831510D01*
X186690000Y-44966313D01*
X186626821Y-44831510D01*
X186194947Y-44437312D01*
X185779026Y-44265042D01*
X185547000Y-44386183D01*
X185293000Y-44386183D01*
X185060974Y-44265042D01*
X184645053Y-44437312D01*
X184213179Y-44831510D01*
X184150000Y-44966313D01*
X184086821Y-44831510D01*
X183654947Y-44437312D01*
X183239026Y-44265042D01*
X183007000Y-44386183D01*
X182753000Y-44386183D01*
X182520974Y-44265042D01*
X182105053Y-44437312D01*
X181697745Y-44809087D01*
X181518769Y-44541231D01*
X180977945Y-44179864D01*
X180340000Y-44052969D01*
X179702056Y-44179864D01*
X179161232Y-44541231D01*
X179070001Y-44677769D01*
X178978769Y-44541231D01*
X178437945Y-44179864D01*
X177800000Y-44052969D01*
X177162056Y-44179864D01*
X176621232Y-44541231D01*
X176447977Y-44800525D01*
X176340430Y-44639570D01*
X175844725Y-44308350D01*
X175407598Y-44221400D01*
X175112402Y-44221400D01*
X174675275Y-44308350D01*
X174179570Y-44639570D01*
X173990000Y-44923281D01*
X173800430Y-44639570D01*
X173304725Y-44308350D01*
X172867598Y-44221400D01*
X172572402Y-44221400D01*
X172135275Y-44308350D01*
X171639570Y-44639570D01*
X171308350Y-45135275D01*
X171192041Y-45720000D01*
X159115000Y-45720000D01*
X159115000Y-45558969D01*
X159020136Y-45082055D01*
X158991040Y-45038510D01*
X158991040Y-44856400D01*
X158941757Y-44608635D01*
X158801409Y-44398591D01*
X158591365Y-44258243D01*
X158343600Y-44208960D01*
X158161489Y-44208960D01*
X158117944Y-44179864D01*
X157480000Y-44052969D01*
X156842055Y-44179864D01*
X156798510Y-44208960D01*
X156616400Y-44208960D01*
X156368635Y-44258243D01*
X156158591Y-44398591D01*
X156018243Y-44608635D01*
X156000480Y-44697936D01*
X155714947Y-44437312D01*
X155299026Y-44265042D01*
X155067000Y-44386183D01*
X154813000Y-44386183D01*
X154580974Y-44265042D01*
X154165053Y-44437312D01*
X153733179Y-44831510D01*
X153670000Y-44966313D01*
X153606821Y-44831510D01*
X153174947Y-44437312D01*
X152759026Y-44265042D01*
X152527000Y-44386183D01*
X152273000Y-44386183D01*
X152040974Y-44265042D01*
X151625053Y-44437312D01*
X151193179Y-44831510D01*
X151130000Y-44966313D01*
X151066821Y-44831510D01*
X150634947Y-44437312D01*
X150219026Y-44265042D01*
X149987000Y-44386183D01*
X149733000Y-44386183D01*
X149500974Y-44265042D01*
X149085053Y-44437312D01*
X148677745Y-44809087D01*
X148498769Y-44541231D01*
X147957945Y-44179864D01*
X147320000Y-44052969D01*
X146682056Y-44179864D01*
X146141232Y-44541231D01*
X146050001Y-44677769D01*
X145958769Y-44541231D01*
X145417944Y-44179864D01*
X144780000Y-44052969D01*
X144142055Y-44179864D01*
X143601231Y-44541231D01*
X143427977Y-44800525D01*
X143320430Y-44639570D01*
X142824725Y-44308350D01*
X142387598Y-44221400D01*
X142092402Y-44221400D01*
X141655275Y-44308350D01*
X141159570Y-44639570D01*
X140970000Y-44923281D01*
X140780430Y-44639570D01*
X140284725Y-44308350D01*
X139847598Y-44221400D01*
X139552402Y-44221400D01*
X139115275Y-44308350D01*
X138619570Y-44639570D01*
X138288350Y-45135275D01*
X138172041Y-45720000D01*
X126095000Y-45720000D01*
X126095000Y-45558969D01*
X126000136Y-45082055D01*
X125971040Y-45038510D01*
X125971040Y-44856400D01*
X125921757Y-44608635D01*
X125781409Y-44398591D01*
X125571365Y-44258243D01*
X125323600Y-44208960D01*
X125141489Y-44208960D01*
X125097944Y-44179864D01*
X124460000Y-44052969D01*
X123822055Y-44179864D01*
X123778510Y-44208960D01*
X123596400Y-44208960D01*
X123348635Y-44258243D01*
X123138591Y-44398591D01*
X122998243Y-44608635D01*
X122980480Y-44697936D01*
X122694947Y-44437312D01*
X122279026Y-44265042D01*
X122047000Y-44386183D01*
X121793000Y-44386183D01*
X121560974Y-44265042D01*
X121145053Y-44437312D01*
X120713179Y-44831510D01*
X120650000Y-44966313D01*
X120586821Y-44831510D01*
X120154947Y-44437312D01*
X119739026Y-44265042D01*
X119507000Y-44386183D01*
X119253000Y-44386183D01*
X119020974Y-44265042D01*
X118605053Y-44437312D01*
X118173179Y-44831510D01*
X118110000Y-44966313D01*
X118046821Y-44831510D01*
X117614947Y-44437312D01*
X117199026Y-44265042D01*
X116967000Y-44386183D01*
X116713000Y-44386183D01*
X116480974Y-44265042D01*
X116065053Y-44437312D01*
X115657745Y-44809087D01*
X115478769Y-44541231D01*
X114937945Y-44179864D01*
X114300000Y-44052969D01*
X113662056Y-44179864D01*
X113121232Y-44541231D01*
X113030001Y-44677769D01*
X112938769Y-44541231D01*
X112397945Y-44179864D01*
X111760000Y-44052969D01*
X111122056Y-44179864D01*
X110581232Y-44541231D01*
X110407977Y-44800525D01*
X110300430Y-44639570D01*
X109804725Y-44308350D01*
X109367598Y-44221400D01*
X109072402Y-44221400D01*
X108635275Y-44308350D01*
X108139570Y-44639570D01*
X107950000Y-44923281D01*
X107760430Y-44639570D01*
X107264725Y-44308350D01*
X106827598Y-44221400D01*
X106532402Y-44221400D01*
X106095275Y-44308350D01*
X105599570Y-44639570D01*
X105268350Y-45135275D01*
X105152041Y-45720000D01*
X93075000Y-45720000D01*
X93075000Y-45558969D01*
X92980136Y-45082055D01*
X92951040Y-45038510D01*
X92951040Y-44856400D01*
X92901757Y-44608635D01*
X92761409Y-44398591D01*
X92551365Y-44258243D01*
X92303600Y-44208960D01*
X92121490Y-44208960D01*
X92077945Y-44179864D01*
X91440000Y-44052969D01*
X90802056Y-44179864D01*
X90758511Y-44208960D01*
X90576400Y-44208960D01*
X90328635Y-44258243D01*
X90118591Y-44398591D01*
X89978243Y-44608635D01*
X89960480Y-44697936D01*
X89674947Y-44437312D01*
X89259026Y-44265042D01*
X89027000Y-44386183D01*
X88773000Y-44386183D01*
X88540974Y-44265042D01*
X88125053Y-44437312D01*
X87693179Y-44831510D01*
X87630000Y-44966313D01*
X87566821Y-44831510D01*
X87134947Y-44437312D01*
X86719026Y-44265042D01*
X86487000Y-44386183D01*
X86233000Y-44386183D01*
X86000974Y-44265042D01*
X85585053Y-44437312D01*
X85153179Y-44831510D01*
X85090000Y-44966313D01*
X85026821Y-44831510D01*
X84594947Y-44437312D01*
X84179026Y-44265042D01*
X83947000Y-44386183D01*
X83693000Y-44386183D01*
X83460974Y-44265042D01*
X83045053Y-44437312D01*
X82637745Y-44809087D01*
X82458769Y-44541231D01*
X81917945Y-44179864D01*
X81280000Y-44052969D01*
X80642056Y-44179864D01*
X80101232Y-44541231D01*
X80010001Y-44677769D01*
X79918769Y-44541231D01*
X79377944Y-44179864D01*
X78740000Y-44052969D01*
X78102055Y-44179864D01*
X77561231Y-44541231D01*
X77387977Y-44800525D01*
X77280430Y-44639570D01*
X76784725Y-44308350D01*
X76347598Y-44221400D01*
X76052402Y-44221400D01*
X75615275Y-44308350D01*
X75119570Y-44639570D01*
X74930000Y-44923281D01*
X74740430Y-44639570D01*
X74244725Y-44308350D01*
X73807598Y-44221400D01*
X73512402Y-44221400D01*
X73075275Y-44308350D01*
X72579570Y-44639570D01*
X72248350Y-45135275D01*
X72132041Y-45720000D01*
X50053783Y-45720000D01*
X50182862Y-45666534D01*
X50586534Y-45262862D01*
X50805000Y-44735439D01*
X50805000Y-44164561D01*
X50739087Y-44005431D01*
X198425000Y-44005431D01*
X198425000Y-44894569D01*
X198765259Y-45716026D01*
X199393974Y-46344741D01*
X200215431Y-46685000D01*
X201104569Y-46685000D01*
X201926026Y-46344741D01*
X202554741Y-45716026D01*
X202895000Y-44894569D01*
X202895000Y-44005431D01*
X202554741Y-43183974D01*
X201926026Y-42555259D01*
X201104569Y-42215000D01*
X200215431Y-42215000D01*
X199393974Y-42555259D01*
X198765259Y-43183974D01*
X198425000Y-44005431D01*
X50739087Y-44005431D01*
X50586534Y-43637138D01*
X50182862Y-43233466D01*
X49655439Y-43015000D01*
X49084561Y-43015000D01*
X48557138Y-43233466D01*
X48153466Y-43637138D01*
X47935000Y-44164561D01*
X40776336Y-44164561D01*
X40721740Y-43890091D01*
X40404577Y-43415423D01*
X39929909Y-43098260D01*
X39511333Y-43015000D01*
X39228667Y-43015000D01*
X38810091Y-43098260D01*
X38335423Y-43415423D01*
X38018260Y-43890091D01*
X37906887Y-44450000D01*
X36525000Y-44450000D01*
X36525000Y-44005431D01*
X36184741Y-43183974D01*
X35556026Y-42555259D01*
X34734569Y-42215000D01*
X33845431Y-42215000D01*
X33023974Y-42555259D01*
X32395259Y-43183974D01*
X32055000Y-44005431D01*
X31190000Y-44005431D01*
X31190000Y-41350000D01*
X203760000Y-41350000D01*
X203760001Y-85650000D01*
X203760001Y-85650000D01*
G37*
X203760001Y-85650000D02*
X31190000Y-85650000D01*
X31190000Y-82105431D01*
X32055000Y-82105431D01*
X32055000Y-82994569D01*
X32395259Y-83816026D01*
X33023974Y-84444741D01*
X33845431Y-84785000D01*
X34734569Y-84785000D01*
X35556026Y-84444741D01*
X36184741Y-83816026D01*
X36525000Y-82994569D01*
X36525000Y-82550000D01*
X37906887Y-82550000D01*
X38018260Y-83109909D01*
X38335423Y-83584577D01*
X38810091Y-83901740D01*
X39228667Y-83985000D01*
X39511333Y-83985000D01*
X39929909Y-83901740D01*
X40404577Y-83584577D01*
X40721740Y-83109909D01*
X40833113Y-82550000D01*
X40776336Y-82264561D01*
X47935000Y-82264561D01*
X47935000Y-82835439D01*
X48153466Y-83362862D01*
X48557138Y-83766534D01*
X49084561Y-83985000D01*
X49655439Y-83985000D01*
X50182862Y-83766534D01*
X50586534Y-83362862D01*
X50805000Y-82835439D01*
X50805000Y-82264561D01*
X50586534Y-81737138D01*
X50182862Y-81333466D01*
X49655439Y-81115000D01*
X49084561Y-81115000D01*
X48557138Y-81333466D01*
X48153466Y-81737138D01*
X47935000Y-82264561D01*
X40776336Y-82264561D01*
X40721740Y-81990091D01*
X40404577Y-81515423D01*
X39929909Y-81198260D01*
X39511333Y-81115000D01*
X39228667Y-81115000D01*
X38810091Y-81198260D01*
X38335423Y-81515423D01*
X38018260Y-81990091D01*
X37906887Y-82550000D01*
X36525000Y-82550000D01*
X36525000Y-82105431D01*
X36184741Y-81283974D01*
X35556026Y-80655259D01*
X34734569Y-80315000D01*
X33845431Y-80315000D01*
X33023974Y-80655259D01*
X32395259Y-81283974D01*
X32055000Y-82105431D01*
X31190000Y-82105431D01*
X31190000Y-75874778D01*
X39005000Y-75874778D01*
X39005000Y-76525222D01*
X39253914Y-77126153D01*
X39713847Y-77586086D01*
X40314778Y-77835000D01*
X40965222Y-77835000D01*
X41566153Y-77586086D01*
X42026086Y-77126153D01*
X42275000Y-76525222D01*
X42275000Y-75884778D01*
X44085000Y-75884778D01*
X44085000Y-76535222D01*
X44333914Y-77136153D01*
X44793847Y-77596086D01*
X45394778Y-77845000D01*
X46045222Y-77845000D01*
X46646153Y-77596086D01*
X47106086Y-77136153D01*
X47355000Y-76535222D01*
X47355000Y-76525750D01*
X51905000Y-76525750D01*
X51905000Y-77166309D01*
X52001673Y-77399698D01*
X52180301Y-77578327D01*
X52386759Y-77663845D01*
X52123466Y-77927138D01*
X51905000Y-78454561D01*
X51905000Y-79025439D01*
X52123466Y-79552862D01*
X52527138Y-79956534D01*
X53054561Y-80175000D01*
X53625439Y-80175000D01*
X54152862Y-79956534D01*
X54556534Y-79552862D01*
X54775000Y-79025439D01*
X54775000Y-78454561D01*
X54556534Y-77927138D01*
X54293241Y-77663845D01*
X54499699Y-77578327D01*
X54678327Y-77399698D01*
X54775000Y-77166309D01*
X54775000Y-76525750D01*
X59525000Y-76525750D01*
X59525000Y-77166309D01*
X59621673Y-77399698D01*
X59800301Y-77578327D01*
X60006759Y-77663845D01*
X59743466Y-77927138D01*
X59525000Y-78454561D01*
X59525000Y-79025439D01*
X59743466Y-79552862D01*
X60147138Y-79956534D01*
X60674561Y-80175000D01*
X61245439Y-80175000D01*
X61772862Y-79956534D01*
X62176534Y-79552862D01*
X62395000Y-79025439D01*
X62395000Y-78454561D01*
X62176534Y-77927138D01*
X61913241Y-77663845D01*
X62119699Y-77578327D01*
X62298327Y-77399698D01*
X62395000Y-77166309D01*
X62395000Y-76525750D01*
X62236250Y-76367000D01*
X61087000Y-76367000D01*
X61087000Y-76387000D01*
X60833000Y-76387000D01*
X60833000Y-76367000D01*
X59683750Y-76367000D01*
X59525000Y-76525750D01*
X54775000Y-76525750D01*
X54616250Y-76367000D01*
X53467000Y-76367000D01*
X53467000Y-76387000D01*
X53213000Y-76387000D01*
X53213000Y-76367000D01*
X52063750Y-76367000D01*
X51905000Y-76525750D01*
X47355000Y-76525750D01*
X47355000Y-75884778D01*
X47118448Y-75313691D01*
X51905000Y-75313691D01*
X51905000Y-75954250D01*
X52063750Y-76113000D01*
X53213000Y-76113000D01*
X53213000Y-74963750D01*
X53467000Y-74963750D01*
X53467000Y-76113000D01*
X54616250Y-76113000D01*
X54775000Y-75954250D01*
X54775000Y-75313691D01*
X59525000Y-75313691D01*
X59525000Y-75954250D01*
X59683750Y-76113000D01*
X60833000Y-76113000D01*
X60833000Y-74963750D01*
X61087000Y-74963750D01*
X61087000Y-76113000D01*
X62236250Y-76113000D01*
X62395000Y-75954250D01*
X62395000Y-75313691D01*
X62298327Y-75080302D01*
X62119699Y-74901673D01*
X61886310Y-74805000D01*
X61245750Y-74805000D01*
X61087000Y-74963750D01*
X60833000Y-74963750D01*
X60674250Y-74805000D01*
X60033690Y-74805000D01*
X59800301Y-74901673D01*
X59621673Y-75080302D01*
X59525000Y-75313691D01*
X54775000Y-75313691D01*
X54678327Y-75080302D01*
X54499699Y-74901673D01*
X54266310Y-74805000D01*
X53625750Y-74805000D01*
X53467000Y-74963750D01*
X53213000Y-74963750D01*
X53054250Y-74805000D01*
X52413690Y-74805000D01*
X52180301Y-74901673D01*
X52001673Y-75080302D01*
X51905000Y-75313691D01*
X47118448Y-75313691D01*
X47106086Y-75283847D01*
X46646153Y-74823914D01*
X46045222Y-74575000D01*
X45394778Y-74575000D01*
X44793847Y-74823914D01*
X44333914Y-75283847D01*
X44085000Y-75884778D01*
X42275000Y-75884778D01*
X42275000Y-75874778D01*
X42026086Y-75273847D01*
X41566153Y-74813914D01*
X40965222Y-74565000D01*
X40314778Y-74565000D01*
X39713847Y-74813914D01*
X39253914Y-75273847D01*
X39005000Y-75874778D01*
X31190000Y-75874778D01*
X31190000Y-72739039D01*
X51948096Y-72739039D01*
X52108959Y-73127423D01*
X52484866Y-73542389D01*
X52990959Y-73781914D01*
X53213000Y-73660629D01*
X53213000Y-72517000D01*
X53467000Y-72517000D01*
X53467000Y-73660629D01*
X53689041Y-73781914D01*
X54195134Y-73542389D01*
X54571041Y-73127423D01*
X54731904Y-72739039D01*
X54609915Y-72517000D01*
X53467000Y-72517000D01*
X53213000Y-72517000D01*
X52070085Y-72517000D01*
X51948096Y-72739039D01*
X31190000Y-72739039D01*
X31190000Y-72040961D01*
X51948096Y-72040961D01*
X52070085Y-72263000D01*
X53213000Y-72263000D01*
X53213000Y-71119371D01*
X53467000Y-71119371D01*
X53467000Y-72263000D01*
X54609915Y-72263000D01*
X54696961Y-72104561D01*
X62065000Y-72104561D01*
X62065000Y-72675439D01*
X62283466Y-73202862D01*
X62687138Y-73606534D01*
X63214561Y-73825000D01*
X63785439Y-73825000D01*
X64312862Y-73606534D01*
X64716534Y-73202862D01*
X64935000Y-72675439D01*
X64935000Y-72104561D01*
X64716534Y-71577138D01*
X64312862Y-71173466D01*
X63785439Y-70955000D01*
X63214561Y-70955000D01*
X62687138Y-71173466D01*
X62283466Y-71577138D01*
X62065000Y-72104561D01*
X54696961Y-72104561D01*
X54731904Y-72040961D01*
X54571041Y-71652577D01*
X54195134Y-71237611D01*
X53689041Y-70998086D01*
X53467000Y-71119371D01*
X53213000Y-71119371D01*
X52990959Y-70998086D01*
X52484866Y-71237611D01*
X52108959Y-71652577D01*
X51948096Y-72040961D01*
X31190000Y-72040961D01*
X31190000Y-67020000D01*
X41132560Y-67020000D01*
X41132560Y-69820000D01*
X41181843Y-70067765D01*
X41322191Y-70277809D01*
X41532235Y-70418157D01*
X41780000Y-70467440D01*
X44580000Y-70467440D01*
X44827765Y-70418157D01*
X45037809Y-70277809D01*
X45178157Y-70067765D01*
X45227440Y-69820000D01*
X45227440Y-67020000D01*
X45178157Y-66772235D01*
X45037809Y-66562191D01*
X44827765Y-66421843D01*
X44580000Y-66372560D01*
X41780000Y-66372560D01*
X41532235Y-66421843D01*
X41322191Y-66562191D01*
X41181843Y-66772235D01*
X41132560Y-67020000D01*
X31190000Y-67020000D01*
X31190000Y-66325750D01*
X51905000Y-66325750D01*
X51905000Y-66966309D01*
X52001673Y-67199698D01*
X52180301Y-67378327D01*
X52386759Y-67463845D01*
X52123466Y-67727138D01*
X51905000Y-68254561D01*
X51905000Y-68825439D01*
X52123466Y-69352862D01*
X52527138Y-69756534D01*
X53054561Y-69975000D01*
X53625439Y-69975000D01*
X54152862Y-69756534D01*
X54556534Y-69352862D01*
X54775000Y-68825439D01*
X54775000Y-68254561D01*
X54556534Y-67727138D01*
X54293241Y-67463845D01*
X54499699Y-67378327D01*
X54678327Y-67199698D01*
X54775000Y-66966309D01*
X54775000Y-66325750D01*
X59525000Y-66325750D01*
X59525000Y-66966309D01*
X59621673Y-67199698D01*
X59800301Y-67378327D01*
X60006759Y-67463845D01*
X59743466Y-67727138D01*
X59525000Y-68254561D01*
X59525000Y-68825439D01*
X59743466Y-69352862D01*
X60147138Y-69756534D01*
X60674561Y-69975000D01*
X61245439Y-69975000D01*
X61772862Y-69756534D01*
X62176534Y-69352862D01*
X62395000Y-68825439D01*
X62395000Y-68254561D01*
X62176534Y-67727138D01*
X61913241Y-67463845D01*
X62119699Y-67378327D01*
X62298327Y-67199698D01*
X62395000Y-66966309D01*
X62395000Y-66325750D01*
X62236250Y-66167000D01*
X61087000Y-66167000D01*
X61087000Y-66187000D01*
X60833000Y-66187000D01*
X60833000Y-66167000D01*
X59683750Y-66167000D01*
X59525000Y-66325750D01*
X54775000Y-66325750D01*
X54616250Y-66167000D01*
X53467000Y-66167000D01*
X53467000Y-66187000D01*
X53213000Y-66187000D01*
X53213000Y-66167000D01*
X52063750Y-66167000D01*
X51905000Y-66325750D01*
X31190000Y-66325750D01*
X31190000Y-64861724D01*
X41917882Y-64861724D01*
X42065455Y-65170106D01*
X42820031Y-65463405D01*
X43629409Y-65445614D01*
X44294545Y-65170106D01*
X44321541Y-65113691D01*
X51905000Y-65113691D01*
X51905000Y-65754250D01*
X52063750Y-65913000D01*
X53213000Y-65913000D01*
X53213000Y-64763750D01*
X53467000Y-64763750D01*
X53467000Y-65913000D01*
X54616250Y-65913000D01*
X54775000Y-65754250D01*
X54775000Y-65113691D01*
X59525000Y-65113691D01*
X59525000Y-65754250D01*
X59683750Y-65913000D01*
X60833000Y-65913000D01*
X60833000Y-64763750D01*
X61087000Y-64763750D01*
X61087000Y-65913000D01*
X62236250Y-65913000D01*
X62395000Y-65754250D01*
X62395000Y-65140000D01*
X65762560Y-65140000D01*
X65762560Y-66940000D01*
X65811843Y-67187765D01*
X65952191Y-67397809D01*
X66162235Y-67538157D01*
X66177908Y-67541275D01*
X66008690Y-67710493D01*
X65775000Y-68274670D01*
X65775000Y-68885330D01*
X66008690Y-69449507D01*
X66440493Y-69881310D01*
X67004670Y-70115000D01*
X67615330Y-70115000D01*
X68179507Y-69881310D01*
X68611310Y-69449507D01*
X68845000Y-68885330D01*
X68845000Y-68274670D01*
X68611310Y-67710493D01*
X68442092Y-67541275D01*
X68457765Y-67538157D01*
X68667809Y-67397809D01*
X68808157Y-67187765D01*
X68857440Y-66940000D01*
X68857440Y-65140000D01*
X68808157Y-64892235D01*
X68667809Y-64682191D01*
X68457765Y-64541843D01*
X68210000Y-64492560D01*
X66410000Y-64492560D01*
X66162235Y-64541843D01*
X65952191Y-64682191D01*
X65811843Y-64892235D01*
X65762560Y-65140000D01*
X62395000Y-65140000D01*
X62395000Y-65113691D01*
X62298327Y-64880302D01*
X62119699Y-64701673D01*
X61886310Y-64605000D01*
X61245750Y-64605000D01*
X61087000Y-64763750D01*
X60833000Y-64763750D01*
X60674250Y-64605000D01*
X60033690Y-64605000D01*
X59800301Y-64701673D01*
X59621673Y-64880302D01*
X59525000Y-65113691D01*
X54775000Y-65113691D01*
X54678327Y-64880302D01*
X54499699Y-64701673D01*
X54266310Y-64605000D01*
X53625750Y-64605000D01*
X53467000Y-64763750D01*
X53213000Y-64763750D01*
X53054250Y-64605000D01*
X52413690Y-64605000D01*
X52180301Y-64701673D01*
X52001673Y-64880302D01*
X51905000Y-65113691D01*
X44321541Y-65113691D01*
X44442118Y-64861724D01*
X43180000Y-63599605D01*
X41917882Y-64861724D01*
X31190000Y-64861724D01*
X31190000Y-63060031D01*
X41136595Y-63060031D01*
X41154386Y-63869409D01*
X41429894Y-64534545D01*
X41738276Y-64682118D01*
X43000395Y-63420000D01*
X43359605Y-63420000D01*
X44621724Y-64682118D01*
X44930106Y-64534545D01*
X45223405Y-63779969D01*
X45205614Y-62970591D01*
X44930106Y-62305455D01*
X44621724Y-62157882D01*
X43359605Y-63420000D01*
X43000395Y-63420000D01*
X41738276Y-62157882D01*
X41429894Y-62305455D01*
X41136595Y-63060031D01*
X31190000Y-63060031D01*
X31190000Y-61978276D01*
X41917882Y-61978276D01*
X43180000Y-63240395D01*
X44442118Y-61978276D01*
X44417937Y-61927745D01*
X52511861Y-61927745D01*
X52585995Y-62173864D01*
X53123223Y-62366965D01*
X53693454Y-62339778D01*
X54094005Y-62173864D01*
X54168139Y-61927745D01*
X60131861Y-61927745D01*
X60205995Y-62173864D01*
X60743223Y-62366965D01*
X61313454Y-62339778D01*
X61714005Y-62173864D01*
X61788139Y-61927745D01*
X60960000Y-61099605D01*
X60131861Y-61927745D01*
X54168139Y-61927745D01*
X53340000Y-61099605D01*
X52511861Y-61927745D01*
X44417937Y-61927745D01*
X44294545Y-61669894D01*
X43539969Y-61376595D01*
X42730591Y-61394386D01*
X42065455Y-61669894D01*
X41917882Y-61978276D01*
X31190000Y-61978276D01*
X31190000Y-60703223D01*
X51893035Y-60703223D01*
X51920222Y-61273454D01*
X52086136Y-61674005D01*
X52332255Y-61748139D01*
X53160395Y-60920000D01*
X53519605Y-60920000D01*
X54347745Y-61748139D01*
X54593864Y-61674005D01*
X54786965Y-61136777D01*
X54766295Y-60703223D01*
X59513035Y-60703223D01*
X59540222Y-61273454D01*
X59706136Y-61674005D01*
X59952255Y-61748139D01*
X60780395Y-60920000D01*
X61139605Y-60920000D01*
X61967745Y-61748139D01*
X62213864Y-61674005D01*
X62367795Y-61245750D01*
X65775000Y-61245750D01*
X65775000Y-61986309D01*
X65871673Y-62219698D01*
X66050301Y-62398327D01*
X66283690Y-62495000D01*
X67024250Y-62495000D01*
X67183000Y-62336250D01*
X67183000Y-61087000D01*
X67437000Y-61087000D01*
X67437000Y-62336250D01*
X67595750Y-62495000D01*
X68336310Y-62495000D01*
X68569699Y-62398327D01*
X68748327Y-62219698D01*
X68845000Y-61986309D01*
X68845000Y-61245750D01*
X68686250Y-61087000D01*
X67437000Y-61087000D01*
X67183000Y-61087000D01*
X65933750Y-61087000D01*
X65775000Y-61245750D01*
X62367795Y-61245750D01*
X62406965Y-61136777D01*
X62379778Y-60566546D01*
X62213864Y-60165995D01*
X61967745Y-60091861D01*
X61139605Y-60920000D01*
X60780395Y-60920000D01*
X59952255Y-60091861D01*
X59706136Y-60165995D01*
X59513035Y-60703223D01*
X54766295Y-60703223D01*
X54759778Y-60566546D01*
X54593864Y-60165995D01*
X54347745Y-60091861D01*
X53519605Y-60920000D01*
X53160395Y-60920000D01*
X52332255Y-60091861D01*
X52086136Y-60165995D01*
X51893035Y-60703223D01*
X31190000Y-60703223D01*
X31190000Y-58015213D01*
X41145000Y-58015213D01*
X41145000Y-58824787D01*
X41454810Y-59572735D01*
X42027265Y-60145190D01*
X42775213Y-60455000D01*
X43584787Y-60455000D01*
X44332735Y-60145190D01*
X44905190Y-59572735D01*
X45215000Y-58824787D01*
X45215000Y-58015213D01*
X45051298Y-57620000D01*
X51892560Y-57620000D01*
X51892560Y-59220000D01*
X51941843Y-59467765D01*
X52082191Y-59677809D01*
X52292235Y-59818157D01*
X52526187Y-59864693D01*
X52511861Y-59912255D01*
X53340000Y-60740395D01*
X54168139Y-59912255D01*
X54153813Y-59864693D01*
X54387765Y-59818157D01*
X54597809Y-59677809D01*
X54738157Y-59467765D01*
X54787440Y-59220000D01*
X54787440Y-57620000D01*
X59512560Y-57620000D01*
X59512560Y-59220000D01*
X59561843Y-59467765D01*
X59702191Y-59677809D01*
X59912235Y-59818157D01*
X60146187Y-59864693D01*
X60131861Y-59912255D01*
X60960000Y-60740395D01*
X61788139Y-59912255D01*
X61773813Y-59864693D01*
X62007765Y-59818157D01*
X62217809Y-59677809D01*
X62358157Y-59467765D01*
X62407440Y-59220000D01*
X62407440Y-58114670D01*
X65775000Y-58114670D01*
X65775000Y-58725330D01*
X66008690Y-59289507D01*
X66185044Y-59465861D01*
X66050301Y-59521673D01*
X65871673Y-59700302D01*
X65775000Y-59933691D01*
X65775000Y-60674250D01*
X65933750Y-60833000D01*
X67183000Y-60833000D01*
X67183000Y-60813000D01*
X67437000Y-60813000D01*
X67437000Y-60833000D01*
X68686250Y-60833000D01*
X68845000Y-60674250D01*
X68845000Y-59933691D01*
X68748327Y-59700302D01*
X68569699Y-59521673D01*
X68434956Y-59465861D01*
X68611310Y-59289507D01*
X68845000Y-58725330D01*
X68845000Y-58114670D01*
X68611310Y-57550493D01*
X68179507Y-57118690D01*
X67615330Y-56885000D01*
X67004670Y-56885000D01*
X66440493Y-57118690D01*
X66008690Y-57550493D01*
X65775000Y-58114670D01*
X62407440Y-58114670D01*
X62407440Y-57620000D01*
X62358157Y-57372235D01*
X62217809Y-57162191D01*
X62007765Y-57021843D01*
X61760000Y-56972560D01*
X60160000Y-56972560D01*
X59912235Y-57021843D01*
X59702191Y-57162191D01*
X59561843Y-57372235D01*
X59512560Y-57620000D01*
X54787440Y-57620000D01*
X54738157Y-57372235D01*
X54597809Y-57162191D01*
X54387765Y-57021843D01*
X54140000Y-56972560D01*
X52540000Y-56972560D01*
X52292235Y-57021843D01*
X52082191Y-57162191D01*
X51941843Y-57372235D01*
X51892560Y-57620000D01*
X45051298Y-57620000D01*
X44905190Y-57267265D01*
X44332735Y-56694810D01*
X43584787Y-56385000D01*
X42775213Y-56385000D01*
X42027265Y-56694810D01*
X41454810Y-57267265D01*
X41145000Y-58015213D01*
X31190000Y-58015213D01*
X31190000Y-54610000D01*
X51876887Y-54610000D01*
X51988260Y-55169909D01*
X52305423Y-55644577D01*
X52780091Y-55961740D01*
X53198667Y-56045000D01*
X53481333Y-56045000D01*
X53899909Y-55961740D01*
X54374577Y-55644577D01*
X54691740Y-55169909D01*
X54803113Y-54610000D01*
X54746336Y-54324561D01*
X62065000Y-54324561D01*
X62065000Y-54895439D01*
X62283466Y-55422862D01*
X62687138Y-55826534D01*
X63214561Y-56045000D01*
X63785439Y-56045000D01*
X64312862Y-55826534D01*
X64716534Y-55422862D01*
X64935000Y-54895439D01*
X64935000Y-54324561D01*
X64716534Y-53797138D01*
X64312862Y-53393466D01*
X63785439Y-53175000D01*
X63214561Y-53175000D01*
X62687138Y-53393466D01*
X62283466Y-53797138D01*
X62065000Y-54324561D01*
X54746336Y-54324561D01*
X54691740Y-54050091D01*
X54374577Y-53575423D01*
X53899909Y-53258260D01*
X53481333Y-53175000D01*
X53198667Y-53175000D01*
X52780091Y-53258260D01*
X52305423Y-53575423D01*
X51988260Y-54050091D01*
X51876887Y-54610000D01*
X31190000Y-54610000D01*
X31190000Y-50464778D01*
X39005000Y-50464778D01*
X39005000Y-51115222D01*
X39253914Y-51716153D01*
X39713847Y-52176086D01*
X40314778Y-52425000D01*
X40965222Y-52425000D01*
X41566153Y-52176086D01*
X42026086Y-51716153D01*
X42275000Y-51115222D01*
X42275000Y-50474778D01*
X44085000Y-50474778D01*
X44085000Y-51125222D01*
X44333914Y-51726153D01*
X44793847Y-52186086D01*
X45394778Y-52435000D01*
X46045222Y-52435000D01*
X46646153Y-52186086D01*
X47064494Y-51767745D01*
X52511861Y-51767745D01*
X52585995Y-52013864D01*
X53123223Y-52206965D01*
X53693454Y-52179778D01*
X54094005Y-52013864D01*
X54168139Y-51767745D01*
X60131861Y-51767745D01*
X60205995Y-52013864D01*
X60743223Y-52206965D01*
X61313454Y-52179778D01*
X61714005Y-52013864D01*
X61788139Y-51767745D01*
X60960000Y-50939605D01*
X60131861Y-51767745D01*
X54168139Y-51767745D01*
X53340000Y-50939605D01*
X52511861Y-51767745D01*
X47064494Y-51767745D01*
X47106086Y-51726153D01*
X47355000Y-51125222D01*
X47355000Y-50543223D01*
X51893035Y-50543223D01*
X51920222Y-51113454D01*
X52086136Y-51514005D01*
X52332255Y-51588139D01*
X53160395Y-50760000D01*
X53519605Y-50760000D01*
X54347745Y-51588139D01*
X54593864Y-51514005D01*
X54786965Y-50976777D01*
X54766295Y-50543223D01*
X59513035Y-50543223D01*
X59540222Y-51113454D01*
X59706136Y-51514005D01*
X59952255Y-51588139D01*
X60780395Y-50760000D01*
X61139605Y-50760000D01*
X61967745Y-51588139D01*
X62213864Y-51514005D01*
X62406965Y-50976777D01*
X62379778Y-50406546D01*
X62213864Y-50005995D01*
X61967745Y-49931861D01*
X61139605Y-50760000D01*
X60780395Y-50760000D01*
X59952255Y-49931861D01*
X59706136Y-50005995D01*
X59513035Y-50543223D01*
X54766295Y-50543223D01*
X54759778Y-50406546D01*
X54593864Y-50005995D01*
X54347745Y-49931861D01*
X53519605Y-50760000D01*
X53160395Y-50760000D01*
X52332255Y-49931861D01*
X52086136Y-50005995D01*
X51893035Y-50543223D01*
X47355000Y-50543223D01*
X47355000Y-50474778D01*
X47106086Y-49873847D01*
X46646153Y-49413914D01*
X46045222Y-49165000D01*
X45394778Y-49165000D01*
X44793847Y-49413914D01*
X44333914Y-49873847D01*
X44085000Y-50474778D01*
X42275000Y-50474778D01*
X42275000Y-50464778D01*
X42026086Y-49863847D01*
X41566153Y-49403914D01*
X40965222Y-49155000D01*
X40314778Y-49155000D01*
X39713847Y-49403914D01*
X39253914Y-49863847D01*
X39005000Y-50464778D01*
X31190000Y-50464778D01*
X31190000Y-47460000D01*
X51892560Y-47460000D01*
X51892560Y-49060000D01*
X51941843Y-49307765D01*
X52082191Y-49517809D01*
X52292235Y-49658157D01*
X52526187Y-49704693D01*
X52511861Y-49752255D01*
X53340000Y-50580395D01*
X54168139Y-49752255D01*
X54153813Y-49704693D01*
X54387765Y-49658157D01*
X54597809Y-49517809D01*
X54738157Y-49307765D01*
X54787440Y-49060000D01*
X54787440Y-47460000D01*
X59512560Y-47460000D01*
X59512560Y-49060000D01*
X59561843Y-49307765D01*
X59702191Y-49517809D01*
X59912235Y-49658157D01*
X60146187Y-49704693D01*
X60131861Y-49752255D01*
X60960000Y-50580395D01*
X61788139Y-49752255D01*
X61773813Y-49704693D01*
X62007765Y-49658157D01*
X62217809Y-49517809D01*
X62358157Y-49307765D01*
X62407440Y-49060000D01*
X62407440Y-47460000D01*
X62358157Y-47212235D01*
X62217809Y-47002191D01*
X62007765Y-46861843D01*
X61760000Y-46812560D01*
X60160000Y-46812560D01*
X59912235Y-46861843D01*
X59702191Y-47002191D01*
X59561843Y-47212235D01*
X59512560Y-47460000D01*
X54787440Y-47460000D01*
X54738157Y-47212235D01*
X54597809Y-47002191D01*
X54387765Y-46861843D01*
X54140000Y-46812560D01*
X52540000Y-46812560D01*
X52292235Y-46861843D01*
X52082191Y-47002191D01*
X51941843Y-47212235D01*
X51892560Y-47460000D01*
X31190000Y-47460000D01*
X31190000Y-44005431D01*
X32055000Y-44005431D01*
X32055000Y-44894569D01*
X32395259Y-45716026D01*
X33023974Y-46344741D01*
X33845431Y-46685000D01*
X34734569Y-46685000D01*
X35556026Y-46344741D01*
X36184741Y-45716026D01*
X36525000Y-44894569D01*
X36525000Y-44450000D01*
X37906887Y-44450000D01*
X38018260Y-45009909D01*
X38335423Y-45484577D01*
X38810091Y-45801740D01*
X39228667Y-45885000D01*
X39511333Y-45885000D01*
X39929909Y-45801740D01*
X40404577Y-45484577D01*
X40721740Y-45009909D01*
X40833113Y-44450000D01*
X40776336Y-44164561D01*
X47935000Y-44164561D01*
X47935000Y-44735439D01*
X48153466Y-45262862D01*
X48557138Y-45666534D01*
X49084561Y-45885000D01*
X49655439Y-45885000D01*
X50053783Y-45720000D01*
X72132041Y-45720000D01*
X72248350Y-46304725D01*
X72579570Y-46800430D01*
X72863281Y-46990000D01*
X72579570Y-47179570D01*
X72248350Y-47675275D01*
X72132041Y-48260000D01*
X72248350Y-48844725D01*
X72579570Y-49340430D01*
X72900000Y-49554535D01*
X72900001Y-72956288D01*
X72782569Y-73073720D01*
X72625000Y-73454126D01*
X72625000Y-73865874D01*
X72782569Y-74246280D01*
X72900000Y-74363711D01*
X72900000Y-77445465D01*
X72579570Y-77659570D01*
X72248350Y-78155275D01*
X72132041Y-78740000D01*
X72248350Y-79324725D01*
X72579570Y-79820430D01*
X72863281Y-80010000D01*
X72579570Y-80199570D01*
X72248350Y-80695275D01*
X72132041Y-81280000D01*
X72248350Y-81864725D01*
X72579570Y-82360430D01*
X73075275Y-82691650D01*
X73512402Y-82778600D01*
X73807598Y-82778600D01*
X74244725Y-82691650D01*
X74740430Y-82360430D01*
X74930000Y-82076719D01*
X75119570Y-82360430D01*
X75615275Y-82691650D01*
X76052402Y-82778600D01*
X76347598Y-82778600D01*
X76784725Y-82691650D01*
X77280430Y-82360430D01*
X77387977Y-82199475D01*
X77561232Y-82458769D01*
X78102056Y-82820136D01*
X78336646Y-82866799D01*
X78153720Y-82942569D01*
X77862569Y-83233720D01*
X77705000Y-83614126D01*
X77705000Y-84025874D01*
X77862569Y-84406280D01*
X78153720Y-84697431D01*
X78534126Y-84855000D01*
X78945874Y-84855000D01*
X79326280Y-84697431D01*
X79617431Y-84406280D01*
X79775000Y-84025874D01*
X79775000Y-83614126D01*
X79617431Y-83233720D01*
X79326280Y-82942569D01*
X79143354Y-82866799D01*
X79377945Y-82820136D01*
X79918769Y-82458769D01*
X80010000Y-82322232D01*
X80101231Y-82458769D01*
X80642055Y-82820136D01*
X81280000Y-82947031D01*
X81917944Y-82820136D01*
X82458769Y-82458769D01*
X82637745Y-82190913D01*
X83045053Y-82562688D01*
X83460974Y-82734958D01*
X83693000Y-82613817D01*
X83693000Y-81407000D01*
X83947000Y-81407000D01*
X83947000Y-82613817D01*
X84179026Y-82734958D01*
X84594947Y-82562688D01*
X85026821Y-82168490D01*
X85090000Y-82033687D01*
X85153179Y-82168490D01*
X85585053Y-82562688D01*
X86000974Y-82734958D01*
X86233000Y-82613817D01*
X86233000Y-81407000D01*
X86487000Y-81407000D01*
X86487000Y-82613817D01*
X86719026Y-82734958D01*
X87134947Y-82562688D01*
X87566821Y-82168490D01*
X87630000Y-82033687D01*
X87693179Y-82168490D01*
X88125053Y-82562688D01*
X88540974Y-82734958D01*
X88773000Y-82613817D01*
X88773000Y-81407000D01*
X86487000Y-81407000D01*
X86233000Y-81407000D01*
X83947000Y-81407000D01*
X83693000Y-81407000D01*
X83673000Y-81407000D01*
X83673000Y-81153000D01*
X83693000Y-81153000D01*
X83693000Y-78867000D01*
X83947000Y-78867000D01*
X83947000Y-81153000D01*
X86233000Y-81153000D01*
X86233000Y-78867000D01*
X86487000Y-78867000D01*
X86487000Y-81153000D01*
X88773000Y-81153000D01*
X88773000Y-78867000D01*
X86487000Y-78867000D01*
X86233000Y-78867000D01*
X83947000Y-78867000D01*
X83693000Y-78867000D01*
X83673000Y-78867000D01*
X83673000Y-78613000D01*
X83693000Y-78613000D01*
X83693000Y-77406183D01*
X83947000Y-77406183D01*
X83947000Y-78613000D01*
X86233000Y-78613000D01*
X86233000Y-77406183D01*
X86487000Y-77406183D01*
X86487000Y-78613000D01*
X88773000Y-78613000D01*
X88773000Y-77406183D01*
X88540974Y-77285042D01*
X88125053Y-77457312D01*
X87693179Y-77851510D01*
X87630000Y-77986313D01*
X87566821Y-77851510D01*
X87134947Y-77457312D01*
X86719026Y-77285042D01*
X86487000Y-77406183D01*
X86233000Y-77406183D01*
X86000974Y-77285042D01*
X85585053Y-77457312D01*
X85153179Y-77851510D01*
X85090000Y-77986313D01*
X85026821Y-77851510D01*
X84594947Y-77457312D01*
X84179026Y-77285042D01*
X83947000Y-77406183D01*
X83693000Y-77406183D01*
X83460974Y-77285042D01*
X83045053Y-77457312D01*
X82915000Y-77576019D01*
X82915000Y-49423981D01*
X83045053Y-49542688D01*
X83460974Y-49714958D01*
X83693000Y-49593817D01*
X83693000Y-48387000D01*
X83947000Y-48387000D01*
X83947000Y-49593817D01*
X84179026Y-49714958D01*
X84594947Y-49542688D01*
X85026821Y-49148490D01*
X85090000Y-49013687D01*
X85153179Y-49148490D01*
X85585053Y-49542688D01*
X86000974Y-49714958D01*
X86233000Y-49593817D01*
X86233000Y-48387000D01*
X86487000Y-48387000D01*
X86487000Y-49593817D01*
X86719026Y-49714958D01*
X87134947Y-49542688D01*
X87566821Y-49148490D01*
X87630000Y-49013687D01*
X87693179Y-49148490D01*
X88125053Y-49542688D01*
X88540974Y-49714958D01*
X88773000Y-49593817D01*
X88773000Y-48387000D01*
X86487000Y-48387000D01*
X86233000Y-48387000D01*
X83947000Y-48387000D01*
X83693000Y-48387000D01*
X83673000Y-48387000D01*
X83673000Y-48133000D01*
X83693000Y-48133000D01*
X83693000Y-45847000D01*
X83947000Y-45847000D01*
X83947000Y-48133000D01*
X86233000Y-48133000D01*
X86233000Y-45847000D01*
X86487000Y-45847000D01*
X86487000Y-48133000D01*
X88773000Y-48133000D01*
X88773000Y-45847000D01*
X86487000Y-45847000D01*
X86233000Y-45847000D01*
X83947000Y-45847000D01*
X83693000Y-45847000D01*
X83673000Y-45847000D01*
X83673000Y-45593000D01*
X83693000Y-45593000D01*
X83693000Y-44386183D01*
X83947000Y-44386183D01*
X83947000Y-45593000D01*
X86233000Y-45593000D01*
X86233000Y-44386183D01*
X86487000Y-44386183D01*
X86487000Y-45593000D01*
X88773000Y-45593000D01*
X88773000Y-44386183D01*
X89027000Y-44386183D01*
X89027000Y-45593000D01*
X89047000Y-45593000D01*
X89047000Y-45847000D01*
X89027000Y-45847000D01*
X89027000Y-48133000D01*
X89047000Y-48133000D01*
X89047000Y-48387000D01*
X89027000Y-48387000D01*
X89027000Y-49593817D01*
X89259026Y-49714958D01*
X89674947Y-49542688D01*
X89805001Y-49423980D01*
X89805000Y-77576019D01*
X89674947Y-77457312D01*
X89259026Y-77285042D01*
X89027000Y-77406183D01*
X89027000Y-78613000D01*
X89047000Y-78613000D01*
X89047000Y-78867000D01*
X89027000Y-78867000D01*
X89027000Y-81153000D01*
X89047000Y-81153000D01*
X89047000Y-81407000D01*
X89027000Y-81407000D01*
X89027000Y-82613817D01*
X89259026Y-82734958D01*
X89674947Y-82562688D01*
X90082255Y-82190913D01*
X90261231Y-82458769D01*
X90802055Y-82820136D01*
X91440000Y-82947031D01*
X92077944Y-82820136D01*
X92618769Y-82458769D01*
X92980136Y-81917945D01*
X93075000Y-81441031D01*
X93075000Y-45720000D01*
X105152041Y-45720000D01*
X105268350Y-46304725D01*
X105599570Y-46800430D01*
X105883281Y-46990000D01*
X105599570Y-47179570D01*
X105268350Y-47675275D01*
X105152041Y-48260000D01*
X105268350Y-48844725D01*
X105599570Y-49340430D01*
X105920001Y-49554535D01*
X105920000Y-72956289D01*
X105802569Y-73073720D01*
X105645000Y-73454126D01*
X105645000Y-73865874D01*
X105802569Y-74246280D01*
X105920001Y-74363712D01*
X105920001Y-77445465D01*
X105599570Y-77659570D01*
X105268350Y-78155275D01*
X105152041Y-78740000D01*
X105268350Y-79324725D01*
X105599570Y-79820430D01*
X105883281Y-80010000D01*
X105599570Y-80199570D01*
X105268350Y-80695275D01*
X105152041Y-81280000D01*
X105268350Y-81864725D01*
X105599570Y-82360430D01*
X106095275Y-82691650D01*
X106532402Y-82778600D01*
X106827598Y-82778600D01*
X107264725Y-82691650D01*
X107760430Y-82360430D01*
X107950000Y-82076719D01*
X108139570Y-82360430D01*
X108635275Y-82691650D01*
X109072402Y-82778600D01*
X109367598Y-82778600D01*
X109804725Y-82691650D01*
X110300430Y-82360430D01*
X110407977Y-82199475D01*
X110581231Y-82458769D01*
X111122055Y-82820136D01*
X111760000Y-82947031D01*
X112397944Y-82820136D01*
X112938769Y-82458769D01*
X113030000Y-82322232D01*
X113121231Y-82458769D01*
X113662055Y-82820136D01*
X114300000Y-82947031D01*
X114937944Y-82820136D01*
X115478769Y-82458769D01*
X115657745Y-82190913D01*
X116065053Y-82562688D01*
X116480974Y-82734958D01*
X116713000Y-82613817D01*
X116713000Y-81407000D01*
X116967000Y-81407000D01*
X116967000Y-82613817D01*
X117199026Y-82734958D01*
X117614947Y-82562688D01*
X118046821Y-82168490D01*
X118110000Y-82033687D01*
X118173179Y-82168490D01*
X118605053Y-82562688D01*
X119020974Y-82734958D01*
X119253000Y-82613817D01*
X119253000Y-81407000D01*
X119507000Y-81407000D01*
X119507000Y-82613817D01*
X119739026Y-82734958D01*
X120154947Y-82562688D01*
X120586821Y-82168490D01*
X120650000Y-82033687D01*
X120713179Y-82168490D01*
X121145053Y-82562688D01*
X121560974Y-82734958D01*
X121793000Y-82613817D01*
X121793000Y-81407000D01*
X119507000Y-81407000D01*
X119253000Y-81407000D01*
X116967000Y-81407000D01*
X116713000Y-81407000D01*
X116693000Y-81407000D01*
X116693000Y-81153000D01*
X116713000Y-81153000D01*
X116713000Y-78867000D01*
X116967000Y-78867000D01*
X116967000Y-81153000D01*
X119253000Y-81153000D01*
X119253000Y-78867000D01*
X119507000Y-78867000D01*
X119507000Y-81153000D01*
X121793000Y-81153000D01*
X121793000Y-78867000D01*
X119507000Y-78867000D01*
X119253000Y-78867000D01*
X116967000Y-78867000D01*
X116713000Y-78867000D01*
X116693000Y-78867000D01*
X116693000Y-78613000D01*
X116713000Y-78613000D01*
X116713000Y-77406183D01*
X116967000Y-77406183D01*
X116967000Y-78613000D01*
X119253000Y-78613000D01*
X119253000Y-77406183D01*
X119507000Y-77406183D01*
X119507000Y-78613000D01*
X121793000Y-78613000D01*
X121793000Y-77406183D01*
X121560974Y-77285042D01*
X121145053Y-77457312D01*
X120713179Y-77851510D01*
X120650000Y-77986313D01*
X120586821Y-77851510D01*
X120154947Y-77457312D01*
X119739026Y-77285042D01*
X119507000Y-77406183D01*
X119253000Y-77406183D01*
X119020974Y-77285042D01*
X118605053Y-77457312D01*
X118173179Y-77851510D01*
X118110000Y-77986313D01*
X118046821Y-77851510D01*
X117614947Y-77457312D01*
X117199026Y-77285042D01*
X116967000Y-77406183D01*
X116713000Y-77406183D01*
X116480974Y-77285042D01*
X116065053Y-77457312D01*
X115935000Y-77576019D01*
X115935000Y-49423981D01*
X116065053Y-49542688D01*
X116480974Y-49714958D01*
X116713000Y-49593817D01*
X116713000Y-48387000D01*
X116967000Y-48387000D01*
X116967000Y-49593817D01*
X117199026Y-49714958D01*
X117614947Y-49542688D01*
X118046821Y-49148490D01*
X118110000Y-49013687D01*
X118173179Y-49148490D01*
X118605053Y-49542688D01*
X119020974Y-49714958D01*
X119253000Y-49593817D01*
X119253000Y-48387000D01*
X119507000Y-48387000D01*
X119507000Y-49593817D01*
X119739026Y-49714958D01*
X120154947Y-49542688D01*
X120586821Y-49148490D01*
X120650000Y-49013687D01*
X120713179Y-49148490D01*
X121145053Y-49542688D01*
X121560974Y-49714958D01*
X121793000Y-49593817D01*
X121793000Y-48387000D01*
X119507000Y-48387000D01*
X119253000Y-48387000D01*
X116967000Y-48387000D01*
X116713000Y-48387000D01*
X116693000Y-48387000D01*
X116693000Y-48133000D01*
X116713000Y-48133000D01*
X116713000Y-45847000D01*
X116967000Y-45847000D01*
X116967000Y-48133000D01*
X119253000Y-48133000D01*
X119253000Y-45847000D01*
X119507000Y-45847000D01*
X119507000Y-48133000D01*
X121793000Y-48133000D01*
X121793000Y-45847000D01*
X119507000Y-45847000D01*
X119253000Y-45847000D01*
X116967000Y-45847000D01*
X116713000Y-45847000D01*
X116693000Y-45847000D01*
X116693000Y-45593000D01*
X116713000Y-45593000D01*
X116713000Y-44386183D01*
X116967000Y-44386183D01*
X116967000Y-45593000D01*
X119253000Y-45593000D01*
X119253000Y-44386183D01*
X119507000Y-44386183D01*
X119507000Y-45593000D01*
X121793000Y-45593000D01*
X121793000Y-44386183D01*
X122047000Y-44386183D01*
X122047000Y-45593000D01*
X122067000Y-45593000D01*
X122067000Y-45847000D01*
X122047000Y-45847000D01*
X122047000Y-48133000D01*
X122067000Y-48133000D01*
X122067000Y-48387000D01*
X122047000Y-48387000D01*
X122047000Y-49593817D01*
X122279026Y-49714958D01*
X122694947Y-49542688D01*
X122825000Y-49423981D01*
X122825001Y-77576020D01*
X122694947Y-77457312D01*
X122279026Y-77285042D01*
X122047000Y-77406183D01*
X122047000Y-78613000D01*
X122067000Y-78613000D01*
X122067000Y-78867000D01*
X122047000Y-78867000D01*
X122047000Y-81153000D01*
X122067000Y-81153000D01*
X122067000Y-81407000D01*
X122047000Y-81407000D01*
X122047000Y-82613817D01*
X122279026Y-82734958D01*
X122694947Y-82562688D01*
X123102256Y-82190912D01*
X123281232Y-82458769D01*
X123822056Y-82820136D01*
X124460000Y-82947031D01*
X125097945Y-82820136D01*
X125638769Y-82458769D01*
X126000136Y-81917945D01*
X126095000Y-81441031D01*
X126095000Y-45720000D01*
X138172041Y-45720000D01*
X138288350Y-46304725D01*
X138619570Y-46800430D01*
X138903281Y-46990000D01*
X138619570Y-47179570D01*
X138288350Y-47675275D01*
X138172041Y-48260000D01*
X138288350Y-48844725D01*
X138619570Y-49340430D01*
X138940000Y-49554535D01*
X138940001Y-72956288D01*
X138822569Y-73073720D01*
X138665000Y-73454126D01*
X138665000Y-73865874D01*
X138822569Y-74246280D01*
X138940000Y-74363711D01*
X138940000Y-77445465D01*
X138619570Y-77659570D01*
X138288350Y-78155275D01*
X138172041Y-78740000D01*
X138288350Y-79324725D01*
X138619570Y-79820430D01*
X138903281Y-80010000D01*
X138619570Y-80199570D01*
X138288350Y-80695275D01*
X138172041Y-81280000D01*
X138288350Y-81864725D01*
X138619570Y-82360430D01*
X139115275Y-82691650D01*
X139552402Y-82778600D01*
X139847598Y-82778600D01*
X140284725Y-82691650D01*
X140780430Y-82360430D01*
X140970000Y-82076719D01*
X141159570Y-82360430D01*
X141655275Y-82691650D01*
X142092402Y-82778600D01*
X142387598Y-82778600D01*
X142824725Y-82691650D01*
X143320430Y-82360430D01*
X143427977Y-82199475D01*
X143601232Y-82458769D01*
X144142056Y-82820136D01*
X144780000Y-82947031D01*
X145417945Y-82820136D01*
X145958769Y-82458769D01*
X146050000Y-82322232D01*
X146141231Y-82458769D01*
X146682055Y-82820136D01*
X147320000Y-82947031D01*
X147957944Y-82820136D01*
X148498769Y-82458769D01*
X148677745Y-82190913D01*
X149085053Y-82562688D01*
X149500974Y-82734958D01*
X149733000Y-82613817D01*
X149733000Y-81407000D01*
X149987000Y-81407000D01*
X149987000Y-82613817D01*
X150219026Y-82734958D01*
X150634947Y-82562688D01*
X151066821Y-82168490D01*
X151130000Y-82033687D01*
X151193179Y-82168490D01*
X151625053Y-82562688D01*
X152040974Y-82734958D01*
X152273000Y-82613817D01*
X152273000Y-81407000D01*
X152527000Y-81407000D01*
X152527000Y-82613817D01*
X152759026Y-82734958D01*
X153174947Y-82562688D01*
X153606821Y-82168490D01*
X153670000Y-82033687D01*
X153733179Y-82168490D01*
X154165053Y-82562688D01*
X154580974Y-82734958D01*
X154813000Y-82613817D01*
X154813000Y-81407000D01*
X152527000Y-81407000D01*
X152273000Y-81407000D01*
X149987000Y-81407000D01*
X149733000Y-81407000D01*
X149713000Y-81407000D01*
X149713000Y-81153000D01*
X149733000Y-81153000D01*
X149733000Y-78867000D01*
X149987000Y-78867000D01*
X149987000Y-81153000D01*
X152273000Y-81153000D01*
X152273000Y-78867000D01*
X152527000Y-78867000D01*
X152527000Y-81153000D01*
X154813000Y-81153000D01*
X154813000Y-78867000D01*
X152527000Y-78867000D01*
X152273000Y-78867000D01*
X149987000Y-78867000D01*
X149733000Y-78867000D01*
X149713000Y-78867000D01*
X149713000Y-78613000D01*
X149733000Y-78613000D01*
X149733000Y-77406183D01*
X149987000Y-77406183D01*
X149987000Y-78613000D01*
X152273000Y-78613000D01*
X152273000Y-77406183D01*
X152527000Y-77406183D01*
X152527000Y-78613000D01*
X154813000Y-78613000D01*
X154813000Y-77406183D01*
X154580974Y-77285042D01*
X154165053Y-77457312D01*
X153733179Y-77851510D01*
X153670000Y-77986313D01*
X153606821Y-77851510D01*
X153174947Y-77457312D01*
X152759026Y-77285042D01*
X152527000Y-77406183D01*
X152273000Y-77406183D01*
X152040974Y-77285042D01*
X151625053Y-77457312D01*
X151193179Y-77851510D01*
X151130000Y-77986313D01*
X151066821Y-77851510D01*
X150634947Y-77457312D01*
X150219026Y-77285042D01*
X149987000Y-77406183D01*
X149733000Y-77406183D01*
X149500974Y-77285042D01*
X149085053Y-77457312D01*
X148955000Y-77576019D01*
X148955000Y-49423981D01*
X149085053Y-49542688D01*
X149500974Y-49714958D01*
X149733000Y-49593817D01*
X149733000Y-48387000D01*
X149987000Y-48387000D01*
X149987000Y-49593817D01*
X150219026Y-49714958D01*
X150634947Y-49542688D01*
X151066821Y-49148490D01*
X151130000Y-49013687D01*
X151193179Y-49148490D01*
X151625053Y-49542688D01*
X152040974Y-49714958D01*
X152273000Y-49593817D01*
X152273000Y-48387000D01*
X152527000Y-48387000D01*
X152527000Y-49593817D01*
X152759026Y-49714958D01*
X153174947Y-49542688D01*
X153606821Y-49148490D01*
X153670000Y-49013687D01*
X153733179Y-49148490D01*
X154165053Y-49542688D01*
X154580974Y-49714958D01*
X154813000Y-49593817D01*
X154813000Y-48387000D01*
X152527000Y-48387000D01*
X152273000Y-48387000D01*
X149987000Y-48387000D01*
X149733000Y-48387000D01*
X149713000Y-48387000D01*
X149713000Y-48133000D01*
X149733000Y-48133000D01*
X149733000Y-45847000D01*
X149987000Y-45847000D01*
X149987000Y-48133000D01*
X152273000Y-48133000D01*
X152273000Y-45847000D01*
X152527000Y-45847000D01*
X152527000Y-48133000D01*
X154813000Y-48133000D01*
X154813000Y-45847000D01*
X152527000Y-45847000D01*
X152273000Y-45847000D01*
X149987000Y-45847000D01*
X149733000Y-45847000D01*
X149713000Y-45847000D01*
X149713000Y-45593000D01*
X149733000Y-45593000D01*
X149733000Y-44386183D01*
X149987000Y-44386183D01*
X149987000Y-45593000D01*
X152273000Y-45593000D01*
X152273000Y-44386183D01*
X152527000Y-44386183D01*
X152527000Y-45593000D01*
X154813000Y-45593000D01*
X154813000Y-44386183D01*
X155067000Y-44386183D01*
X155067000Y-45593000D01*
X155087000Y-45593000D01*
X155087000Y-45847000D01*
X155067000Y-45847000D01*
X155067000Y-48133000D01*
X155087000Y-48133000D01*
X155087000Y-48387000D01*
X155067000Y-48387000D01*
X155067000Y-49593817D01*
X155299026Y-49714958D01*
X155714947Y-49542688D01*
X155845000Y-49423981D01*
X155845001Y-77576020D01*
X155714947Y-77457312D01*
X155299026Y-77285042D01*
X155067000Y-77406183D01*
X155067000Y-78613000D01*
X155087000Y-78613000D01*
X155087000Y-78867000D01*
X155067000Y-78867000D01*
X155067000Y-81153000D01*
X155087000Y-81153000D01*
X155087000Y-81407000D01*
X155067000Y-81407000D01*
X155067000Y-82613817D01*
X155299026Y-82734958D01*
X155714947Y-82562688D01*
X156122256Y-82190912D01*
X156301232Y-82458769D01*
X156842056Y-82820136D01*
X157480000Y-82947031D01*
X158117945Y-82820136D01*
X158658769Y-82458769D01*
X159020136Y-81917945D01*
X159115000Y-81441031D01*
X159115000Y-45720000D01*
X171192041Y-45720000D01*
X171308350Y-46304725D01*
X171639570Y-46800430D01*
X171923281Y-46990000D01*
X171639570Y-47179570D01*
X171308350Y-47675275D01*
X171192041Y-48260000D01*
X171308350Y-48844725D01*
X171639570Y-49340430D01*
X171960001Y-49554535D01*
X171960000Y-72956289D01*
X171842569Y-73073720D01*
X171685000Y-73454126D01*
X171685000Y-73865874D01*
X171842569Y-74246280D01*
X171960000Y-74363711D01*
X171960000Y-77445465D01*
X171639570Y-77659570D01*
X171308350Y-78155275D01*
X171192041Y-78740000D01*
X171308350Y-79324725D01*
X171639570Y-79820430D01*
X171923281Y-80010000D01*
X171639570Y-80199570D01*
X171308350Y-80695275D01*
X171192041Y-81280000D01*
X171308350Y-81864725D01*
X171639570Y-82360430D01*
X172135275Y-82691650D01*
X172572402Y-82778600D01*
X172867598Y-82778600D01*
X173304725Y-82691650D01*
X173800430Y-82360430D01*
X173990000Y-82076719D01*
X174179570Y-82360430D01*
X174675275Y-82691650D01*
X175112402Y-82778600D01*
X175407598Y-82778600D01*
X175844725Y-82691650D01*
X176340430Y-82360430D01*
X176447977Y-82199475D01*
X176621231Y-82458769D01*
X177162055Y-82820136D01*
X177800000Y-82947031D01*
X178437944Y-82820136D01*
X178978769Y-82458769D01*
X179070000Y-82322232D01*
X179161231Y-82458769D01*
X179702055Y-82820136D01*
X180340000Y-82947031D01*
X180977944Y-82820136D01*
X181518769Y-82458769D01*
X181697745Y-82190913D01*
X182105053Y-82562688D01*
X182520974Y-82734958D01*
X182753000Y-82613817D01*
X182753000Y-81407000D01*
X183007000Y-81407000D01*
X183007000Y-82613817D01*
X183239026Y-82734958D01*
X183654947Y-82562688D01*
X184086821Y-82168490D01*
X184150000Y-82033687D01*
X184213179Y-82168490D01*
X184645053Y-82562688D01*
X185060974Y-82734958D01*
X185293000Y-82613817D01*
X185293000Y-81407000D01*
X185547000Y-81407000D01*
X185547000Y-82613817D01*
X185779026Y-82734958D01*
X186194947Y-82562688D01*
X186626821Y-82168490D01*
X186690000Y-82033687D01*
X186753179Y-82168490D01*
X187185053Y-82562688D01*
X187600974Y-82734958D01*
X187833000Y-82613817D01*
X187833000Y-81407000D01*
X185547000Y-81407000D01*
X185293000Y-81407000D01*
X183007000Y-81407000D01*
X182753000Y-81407000D01*
X182733000Y-81407000D01*
X182733000Y-81153000D01*
X182753000Y-81153000D01*
X182753000Y-78867000D01*
X183007000Y-78867000D01*
X183007000Y-81153000D01*
X185293000Y-81153000D01*
X185293000Y-78867000D01*
X185547000Y-78867000D01*
X185547000Y-81153000D01*
X187833000Y-81153000D01*
X187833000Y-78867000D01*
X185547000Y-78867000D01*
X185293000Y-78867000D01*
X183007000Y-78867000D01*
X182753000Y-78867000D01*
X182733000Y-78867000D01*
X182733000Y-78613000D01*
X182753000Y-78613000D01*
X182753000Y-77406183D01*
X183007000Y-77406183D01*
X183007000Y-78613000D01*
X185293000Y-78613000D01*
X185293000Y-77406183D01*
X185547000Y-77406183D01*
X185547000Y-78613000D01*
X187833000Y-78613000D01*
X187833000Y-77406183D01*
X187600974Y-77285042D01*
X187185053Y-77457312D01*
X186753179Y-77851510D01*
X186690000Y-77986313D01*
X186626821Y-77851510D01*
X186194947Y-77457312D01*
X185779026Y-77285042D01*
X185547000Y-77406183D01*
X185293000Y-77406183D01*
X185060974Y-77285042D01*
X184645053Y-77457312D01*
X184213179Y-77851510D01*
X184150000Y-77986313D01*
X184086821Y-77851510D01*
X183654947Y-77457312D01*
X183239026Y-77285042D01*
X183007000Y-77406183D01*
X182753000Y-77406183D01*
X182520974Y-77285042D01*
X182105053Y-77457312D01*
X181975000Y-77576019D01*
X181975000Y-49423981D01*
X182105053Y-49542688D01*
X182520974Y-49714958D01*
X182753000Y-49593817D01*
X182753000Y-48387000D01*
X183007000Y-48387000D01*
X183007000Y-49593817D01*
X183239026Y-49714958D01*
X183654947Y-49542688D01*
X184086821Y-49148490D01*
X184150000Y-49013687D01*
X184213179Y-49148490D01*
X184645053Y-49542688D01*
X185060974Y-49714958D01*
X185293000Y-49593817D01*
X185293000Y-48387000D01*
X185547000Y-48387000D01*
X185547000Y-49593817D01*
X185779026Y-49714958D01*
X186194947Y-49542688D01*
X186626821Y-49148490D01*
X186690000Y-49013687D01*
X186753179Y-49148490D01*
X187185053Y-49542688D01*
X187600974Y-49714958D01*
X187833000Y-49593817D01*
X187833000Y-48387000D01*
X185547000Y-48387000D01*
X185293000Y-48387000D01*
X183007000Y-48387000D01*
X182753000Y-48387000D01*
X182733000Y-48387000D01*
X182733000Y-48133000D01*
X182753000Y-48133000D01*
X182753000Y-45847000D01*
X183007000Y-45847000D01*
X183007000Y-48133000D01*
X185293000Y-48133000D01*
X185293000Y-45847000D01*
X185547000Y-45847000D01*
X185547000Y-48133000D01*
X187833000Y-48133000D01*
X187833000Y-45847000D01*
X185547000Y-45847000D01*
X185293000Y-45847000D01*
X183007000Y-45847000D01*
X182753000Y-45847000D01*
X182733000Y-45847000D01*
X182733000Y-45593000D01*
X182753000Y-45593000D01*
X182753000Y-44386183D01*
X183007000Y-44386183D01*
X183007000Y-45593000D01*
X185293000Y-45593000D01*
X185293000Y-44386183D01*
X185547000Y-44386183D01*
X185547000Y-45593000D01*
X187833000Y-45593000D01*
X187833000Y-44386183D01*
X188087000Y-44386183D01*
X188087000Y-45593000D01*
X188107000Y-45593000D01*
X188107000Y-45847000D01*
X188087000Y-45847000D01*
X188087000Y-48133000D01*
X188107000Y-48133000D01*
X188107000Y-48387000D01*
X188087000Y-48387000D01*
X188087000Y-49593817D01*
X188319026Y-49714958D01*
X188734947Y-49542688D01*
X188865001Y-49423980D01*
X188865000Y-66201030D01*
X188865001Y-66201035D01*
X188865000Y-77576020D01*
X188734947Y-77457312D01*
X188319026Y-77285042D01*
X188087000Y-77406183D01*
X188087000Y-78613000D01*
X188107000Y-78613000D01*
X188107000Y-78867000D01*
X188087000Y-78867000D01*
X188087000Y-81153000D01*
X188107000Y-81153000D01*
X188107000Y-81407000D01*
X188087000Y-81407000D01*
X188087000Y-82613817D01*
X188319026Y-82734958D01*
X188734947Y-82562688D01*
X189142255Y-82190913D01*
X189321231Y-82458769D01*
X189862055Y-82820136D01*
X190500000Y-82947031D01*
X191137944Y-82820136D01*
X191678769Y-82458769D01*
X191914861Y-82105431D01*
X198425000Y-82105431D01*
X198425000Y-82994569D01*
X198765259Y-83816026D01*
X199393974Y-84444741D01*
X200215431Y-84785000D01*
X201104569Y-84785000D01*
X201926026Y-84444741D01*
X202554741Y-83816026D01*
X202895000Y-82994569D01*
X202895000Y-82105431D01*
X202554741Y-81283974D01*
X201926026Y-80655259D01*
X201104569Y-80315000D01*
X200215431Y-80315000D01*
X199393974Y-80655259D01*
X198765259Y-81283974D01*
X198425000Y-82105431D01*
X191914861Y-82105431D01*
X192040136Y-81917945D01*
X192135000Y-81441031D01*
X192135000Y-45558969D01*
X192040136Y-45082055D01*
X192011040Y-45038510D01*
X192011040Y-44856400D01*
X191961757Y-44608635D01*
X191821409Y-44398591D01*
X191611365Y-44258243D01*
X191363600Y-44208960D01*
X191181490Y-44208960D01*
X191137945Y-44179864D01*
X190500000Y-44052969D01*
X189862056Y-44179864D01*
X189818511Y-44208960D01*
X189636400Y-44208960D01*
X189388635Y-44258243D01*
X189178591Y-44398591D01*
X189038243Y-44608635D01*
X189020480Y-44697936D01*
X188734947Y-44437312D01*
X188319026Y-44265042D01*
X188087000Y-44386183D01*
X187833000Y-44386183D01*
X187600974Y-44265042D01*
X187185053Y-44437312D01*
X186753179Y-44831510D01*
X186690000Y-44966313D01*
X186626821Y-44831510D01*
X186194947Y-44437312D01*
X185779026Y-44265042D01*
X185547000Y-44386183D01*
X185293000Y-44386183D01*
X185060974Y-44265042D01*
X184645053Y-44437312D01*
X184213179Y-44831510D01*
X184150000Y-44966313D01*
X184086821Y-44831510D01*
X183654947Y-44437312D01*
X183239026Y-44265042D01*
X183007000Y-44386183D01*
X182753000Y-44386183D01*
X182520974Y-44265042D01*
X182105053Y-44437312D01*
X181697745Y-44809087D01*
X181518769Y-44541231D01*
X180977945Y-44179864D01*
X180340000Y-44052969D01*
X179702056Y-44179864D01*
X179161232Y-44541231D01*
X179070001Y-44677769D01*
X178978769Y-44541231D01*
X178437945Y-44179864D01*
X177800000Y-44052969D01*
X177162056Y-44179864D01*
X176621232Y-44541231D01*
X176447977Y-44800525D01*
X176340430Y-44639570D01*
X175844725Y-44308350D01*
X175407598Y-44221400D01*
X175112402Y-44221400D01*
X174675275Y-44308350D01*
X174179570Y-44639570D01*
X173990000Y-44923281D01*
X173800430Y-44639570D01*
X173304725Y-44308350D01*
X172867598Y-44221400D01*
X172572402Y-44221400D01*
X172135275Y-44308350D01*
X171639570Y-44639570D01*
X171308350Y-45135275D01*
X171192041Y-45720000D01*
X159115000Y-45720000D01*
X159115000Y-45558969D01*
X159020136Y-45082055D01*
X158991040Y-45038510D01*
X158991040Y-44856400D01*
X158941757Y-44608635D01*
X158801409Y-44398591D01*
X158591365Y-44258243D01*
X158343600Y-44208960D01*
X158161489Y-44208960D01*
X158117944Y-44179864D01*
X157480000Y-44052969D01*
X156842055Y-44179864D01*
X156798510Y-44208960D01*
X156616400Y-44208960D01*
X156368635Y-44258243D01*
X156158591Y-44398591D01*
X156018243Y-44608635D01*
X156000480Y-44697936D01*
X155714947Y-44437312D01*
X155299026Y-44265042D01*
X155067000Y-44386183D01*
X154813000Y-44386183D01*
X154580974Y-44265042D01*
X154165053Y-44437312D01*
X153733179Y-44831510D01*
X153670000Y-44966313D01*
X153606821Y-44831510D01*
X153174947Y-44437312D01*
X152759026Y-44265042D01*
X152527000Y-44386183D01*
X152273000Y-44386183D01*
X152040974Y-44265042D01*
X151625053Y-44437312D01*
X151193179Y-44831510D01*
X151130000Y-44966313D01*
X151066821Y-44831510D01*
X150634947Y-44437312D01*
X150219026Y-44265042D01*
X149987000Y-44386183D01*
X149733000Y-44386183D01*
X149500974Y-44265042D01*
X149085053Y-44437312D01*
X148677745Y-44809087D01*
X148498769Y-44541231D01*
X147957945Y-44179864D01*
X147320000Y-44052969D01*
X146682056Y-44179864D01*
X146141232Y-44541231D01*
X146050001Y-44677769D01*
X145958769Y-44541231D01*
X145417944Y-44179864D01*
X144780000Y-44052969D01*
X144142055Y-44179864D01*
X143601231Y-44541231D01*
X143427977Y-44800525D01*
X143320430Y-44639570D01*
X142824725Y-44308350D01*
X142387598Y-44221400D01*
X142092402Y-44221400D01*
X141655275Y-44308350D01*
X141159570Y-44639570D01*
X140970000Y-44923281D01*
X140780430Y-44639570D01*
X140284725Y-44308350D01*
X139847598Y-44221400D01*
X139552402Y-44221400D01*
X139115275Y-44308350D01*
X138619570Y-44639570D01*
X138288350Y-45135275D01*
X138172041Y-45720000D01*
X126095000Y-45720000D01*
X126095000Y-45558969D01*
X126000136Y-45082055D01*
X125971040Y-45038510D01*
X125971040Y-44856400D01*
X125921757Y-44608635D01*
X125781409Y-44398591D01*
X125571365Y-44258243D01*
X125323600Y-44208960D01*
X125141489Y-44208960D01*
X125097944Y-44179864D01*
X124460000Y-44052969D01*
X123822055Y-44179864D01*
X123778510Y-44208960D01*
X123596400Y-44208960D01*
X123348635Y-44258243D01*
X123138591Y-44398591D01*
X122998243Y-44608635D01*
X122980480Y-44697936D01*
X122694947Y-44437312D01*
X122279026Y-44265042D01*
X122047000Y-44386183D01*
X121793000Y-44386183D01*
X121560974Y-44265042D01*
X121145053Y-44437312D01*
X120713179Y-44831510D01*
X120650000Y-44966313D01*
X120586821Y-44831510D01*
X120154947Y-44437312D01*
X119739026Y-44265042D01*
X119507000Y-44386183D01*
X119253000Y-44386183D01*
X119020974Y-44265042D01*
X118605053Y-44437312D01*
X118173179Y-44831510D01*
X118110000Y-44966313D01*
X118046821Y-44831510D01*
X117614947Y-44437312D01*
X117199026Y-44265042D01*
X116967000Y-44386183D01*
X116713000Y-44386183D01*
X116480974Y-44265042D01*
X116065053Y-44437312D01*
X115657745Y-44809087D01*
X115478769Y-44541231D01*
X114937945Y-44179864D01*
X114300000Y-44052969D01*
X113662056Y-44179864D01*
X113121232Y-44541231D01*
X113030001Y-44677769D01*
X112938769Y-44541231D01*
X112397945Y-44179864D01*
X111760000Y-44052969D01*
X111122056Y-44179864D01*
X110581232Y-44541231D01*
X110407977Y-44800525D01*
X110300430Y-44639570D01*
X109804725Y-44308350D01*
X109367598Y-44221400D01*
X109072402Y-44221400D01*
X108635275Y-44308350D01*
X108139570Y-44639570D01*
X107950000Y-44923281D01*
X107760430Y-44639570D01*
X107264725Y-44308350D01*
X106827598Y-44221400D01*
X106532402Y-44221400D01*
X106095275Y-44308350D01*
X105599570Y-44639570D01*
X105268350Y-45135275D01*
X105152041Y-45720000D01*
X93075000Y-45720000D01*
X93075000Y-45558969D01*
X92980136Y-45082055D01*
X92951040Y-45038510D01*
X92951040Y-44856400D01*
X92901757Y-44608635D01*
X92761409Y-44398591D01*
X92551365Y-44258243D01*
X92303600Y-44208960D01*
X92121490Y-44208960D01*
X92077945Y-44179864D01*
X91440000Y-44052969D01*
X90802056Y-44179864D01*
X90758511Y-44208960D01*
X90576400Y-44208960D01*
X90328635Y-44258243D01*
X90118591Y-44398591D01*
X89978243Y-44608635D01*
X89960480Y-44697936D01*
X89674947Y-44437312D01*
X89259026Y-44265042D01*
X89027000Y-44386183D01*
X88773000Y-44386183D01*
X88540974Y-44265042D01*
X88125053Y-44437312D01*
X87693179Y-44831510D01*
X87630000Y-44966313D01*
X87566821Y-44831510D01*
X87134947Y-44437312D01*
X86719026Y-44265042D01*
X86487000Y-44386183D01*
X86233000Y-44386183D01*
X86000974Y-44265042D01*
X85585053Y-44437312D01*
X85153179Y-44831510D01*
X85090000Y-44966313D01*
X85026821Y-44831510D01*
X84594947Y-44437312D01*
X84179026Y-44265042D01*
X83947000Y-44386183D01*
X83693000Y-44386183D01*
X83460974Y-44265042D01*
X83045053Y-44437312D01*
X82637745Y-44809087D01*
X82458769Y-44541231D01*
X81917945Y-44179864D01*
X81280000Y-44052969D01*
X80642056Y-44179864D01*
X80101232Y-44541231D01*
X80010001Y-44677769D01*
X79918769Y-44541231D01*
X79377944Y-44179864D01*
X78740000Y-44052969D01*
X78102055Y-44179864D01*
X77561231Y-44541231D01*
X77387977Y-44800525D01*
X77280430Y-44639570D01*
X76784725Y-44308350D01*
X76347598Y-44221400D01*
X76052402Y-44221400D01*
X75615275Y-44308350D01*
X75119570Y-44639570D01*
X74930000Y-44923281D01*
X74740430Y-44639570D01*
X74244725Y-44308350D01*
X73807598Y-44221400D01*
X73512402Y-44221400D01*
X73075275Y-44308350D01*
X72579570Y-44639570D01*
X72248350Y-45135275D01*
X72132041Y-45720000D01*
X50053783Y-45720000D01*
X50182862Y-45666534D01*
X50586534Y-45262862D01*
X50805000Y-44735439D01*
X50805000Y-44164561D01*
X50739087Y-44005431D01*
X198425000Y-44005431D01*
X198425000Y-44894569D01*
X198765259Y-45716026D01*
X199393974Y-46344741D01*
X200215431Y-46685000D01*
X201104569Y-46685000D01*
X201926026Y-46344741D01*
X202554741Y-45716026D01*
X202895000Y-44894569D01*
X202895000Y-44005431D01*
X202554741Y-43183974D01*
X201926026Y-42555259D01*
X201104569Y-42215000D01*
X200215431Y-42215000D01*
X199393974Y-42555259D01*
X198765259Y-43183974D01*
X198425000Y-44005431D01*
X50739087Y-44005431D01*
X50586534Y-43637138D01*
X50182862Y-43233466D01*
X49655439Y-43015000D01*
X49084561Y-43015000D01*
X48557138Y-43233466D01*
X48153466Y-43637138D01*
X47935000Y-44164561D01*
X40776336Y-44164561D01*
X40721740Y-43890091D01*
X40404577Y-43415423D01*
X39929909Y-43098260D01*
X39511333Y-43015000D01*
X39228667Y-43015000D01*
X38810091Y-43098260D01*
X38335423Y-43415423D01*
X38018260Y-43890091D01*
X37906887Y-44450000D01*
X36525000Y-44450000D01*
X36525000Y-44005431D01*
X36184741Y-43183974D01*
X35556026Y-42555259D01*
X34734569Y-42215000D01*
X33845431Y-42215000D01*
X33023974Y-42555259D01*
X32395259Y-43183974D01*
X32055000Y-44005431D01*
X31190000Y-44005431D01*
X31190000Y-41350000D01*
X203760000Y-41350000D01*
X203760001Y-85650000D01*
G04 #@! TD*
M02*
